%TF.GenerationSoftware,KiCad,Pcbnew,5.1.9-73d0e3b20d~88~ubuntu20.04.1*%
%TF.CreationDate,2021-04-01T11:15:01-04:00*%
%TF.ProjectId,ao_dc_mixer,616f5f64-635f-46d6-9978-65722e6b6963,rev?*%
%TF.SameCoordinates,Original*%
%TF.FileFunction,Legend,Top*%
%TF.FilePolarity,Positive*%
%FSLAX46Y46*%
G04 Gerber Fmt 4.6, Leading zero omitted, Abs format (unit mm)*
G04 Created by KiCad (PCBNEW 5.1.9-73d0e3b20d~88~ubuntu20.04.1) date 2021-04-01 11:15:01*
%MOMM*%
%LPD*%
G01*
G04 APERTURE LIST*
%ADD10C,0.150000*%
%ADD11C,0.450000*%
%ADD12C,0.010000*%
%ADD13C,0.120000*%
G04 APERTURE END LIST*
D10*
X159847595Y-65476380D02*
X159847595Y-64476380D01*
X160323785Y-65476380D02*
X160323785Y-64476380D01*
X160895214Y-65476380D01*
X160895214Y-64476380D01*
X161895214Y-65476380D02*
X161323785Y-65476380D01*
X161609500Y-65476380D02*
X161609500Y-64476380D01*
X161514261Y-64619238D01*
X161419023Y-64714476D01*
X161323785Y-64762095D01*
X144607595Y-65476380D02*
X144607595Y-64476380D01*
X145083785Y-65476380D02*
X145083785Y-64476380D01*
X145655214Y-65476380D01*
X145655214Y-64476380D01*
X146083785Y-64571619D02*
X146131404Y-64524000D01*
X146226642Y-64476380D01*
X146464738Y-64476380D01*
X146559976Y-64524000D01*
X146607595Y-64571619D01*
X146655214Y-64666857D01*
X146655214Y-64762095D01*
X146607595Y-64904952D01*
X146036166Y-65476380D01*
X146655214Y-65476380D01*
X129367595Y-65476380D02*
X129367595Y-64476380D01*
X129843785Y-65476380D02*
X129843785Y-64476380D01*
X130415214Y-65476380D01*
X130415214Y-64476380D01*
X130796166Y-64476380D02*
X131415214Y-64476380D01*
X131081880Y-64857333D01*
X131224738Y-64857333D01*
X131319976Y-64904952D01*
X131367595Y-64952571D01*
X131415214Y-65047809D01*
X131415214Y-65285904D01*
X131367595Y-65381142D01*
X131319976Y-65428761D01*
X131224738Y-65476380D01*
X130939023Y-65476380D01*
X130843785Y-65428761D01*
X130796166Y-65381142D01*
X129558071Y-153376380D02*
X129748547Y-153376380D01*
X129843785Y-153424000D01*
X129939023Y-153519238D01*
X129986642Y-153709714D01*
X129986642Y-154043047D01*
X129939023Y-154233523D01*
X129843785Y-154328761D01*
X129748547Y-154376380D01*
X129558071Y-154376380D01*
X129462833Y-154328761D01*
X129367595Y-154233523D01*
X129319976Y-154043047D01*
X129319976Y-153709714D01*
X129367595Y-153519238D01*
X129462833Y-153424000D01*
X129558071Y-153376380D01*
X130415214Y-153376380D02*
X130415214Y-154185904D01*
X130462833Y-154281142D01*
X130510452Y-154328761D01*
X130605690Y-154376380D01*
X130796166Y-154376380D01*
X130891404Y-154328761D01*
X130939023Y-154281142D01*
X130986642Y-154185904D01*
X130986642Y-153376380D01*
X131319976Y-153376380D02*
X131891404Y-153376380D01*
X131605690Y-154376380D02*
X131605690Y-153376380D01*
X114397500Y-153009000D02*
X115445119Y-153009000D01*
X114826071Y-153376380D02*
X115016547Y-153376380D01*
X115111785Y-153424000D01*
X115207023Y-153519238D01*
X115254642Y-153709714D01*
X115254642Y-154043047D01*
X115207023Y-154233523D01*
X115111785Y-154328761D01*
X115016547Y-154376380D01*
X114826071Y-154376380D01*
X114730833Y-154328761D01*
X114635595Y-154233523D01*
X114587976Y-154043047D01*
X114587976Y-153709714D01*
X114635595Y-153519238D01*
X114730833Y-153424000D01*
X114826071Y-153376380D01*
X115445119Y-153009000D02*
X116492738Y-153009000D01*
X115683214Y-153376380D02*
X115683214Y-154185904D01*
X115730833Y-154281142D01*
X115778452Y-154328761D01*
X115873690Y-154376380D01*
X116064166Y-154376380D01*
X116159404Y-154328761D01*
X116207023Y-154281142D01*
X116254642Y-154185904D01*
X116254642Y-153376380D01*
X116492738Y-153009000D02*
X117254642Y-153009000D01*
X116587976Y-153376380D02*
X117159404Y-153376380D01*
X116873690Y-154376380D02*
X116873690Y-153376380D01*
X102571428Y-72112380D02*
X102238095Y-71636190D01*
X102000000Y-72112380D02*
X102000000Y-71112380D01*
X102380952Y-71112380D01*
X102476190Y-71160000D01*
X102523809Y-71207619D01*
X102571428Y-71302857D01*
X102571428Y-71445714D01*
X102523809Y-71540952D01*
X102476190Y-71588571D01*
X102380952Y-71636190D01*
X102000000Y-71636190D01*
X103000000Y-72112380D02*
X103000000Y-71445714D01*
X103000000Y-71112380D02*
X102952380Y-71160000D01*
X103000000Y-71207619D01*
X103047619Y-71160000D01*
X103000000Y-71112380D01*
X103000000Y-71207619D01*
X103904761Y-72064761D02*
X103809523Y-72112380D01*
X103619047Y-72112380D01*
X103523809Y-72064761D01*
X103476190Y-72017142D01*
X103428571Y-71921904D01*
X103428571Y-71636190D01*
X103476190Y-71540952D01*
X103523809Y-71493333D01*
X103619047Y-71445714D01*
X103809523Y-71445714D01*
X103904761Y-71493333D01*
X104333333Y-72112380D02*
X104333333Y-71112380D01*
X104761904Y-72112380D02*
X104761904Y-71588571D01*
X104714285Y-71493333D01*
X104619047Y-71445714D01*
X104476190Y-71445714D01*
X104380952Y-71493333D01*
X104333333Y-71540952D01*
X106000000Y-72112380D02*
X106000000Y-71112380D01*
X106000000Y-71588571D02*
X106571428Y-71588571D01*
X106571428Y-72112380D02*
X106571428Y-71112380D01*
X107190476Y-72112380D02*
X107095238Y-72064761D01*
X107047619Y-72017142D01*
X107000000Y-71921904D01*
X107000000Y-71636190D01*
X107047619Y-71540952D01*
X107095238Y-71493333D01*
X107190476Y-71445714D01*
X107333333Y-71445714D01*
X107428571Y-71493333D01*
X107476190Y-71540952D01*
X107523809Y-71636190D01*
X107523809Y-71921904D01*
X107476190Y-72017142D01*
X107428571Y-72064761D01*
X107333333Y-72112380D01*
X107190476Y-72112380D01*
X108095238Y-72112380D02*
X108000000Y-72064761D01*
X107952380Y-71969523D01*
X107952380Y-71112380D01*
X108476190Y-72112380D02*
X108476190Y-71445714D01*
X108476190Y-71540952D02*
X108523809Y-71493333D01*
X108619047Y-71445714D01*
X108761904Y-71445714D01*
X108857142Y-71493333D01*
X108904761Y-71588571D01*
X108904761Y-72112380D01*
X108904761Y-71588571D02*
X108952380Y-71493333D01*
X109047619Y-71445714D01*
X109190476Y-71445714D01*
X109285714Y-71493333D01*
X109333333Y-71588571D01*
X109333333Y-72112380D01*
X110190476Y-72064761D02*
X110095238Y-72112380D01*
X109904761Y-72112380D01*
X109809523Y-72064761D01*
X109761904Y-71969523D01*
X109761904Y-71588571D01*
X109809523Y-71493333D01*
X109904761Y-71445714D01*
X110095238Y-71445714D01*
X110190476Y-71493333D01*
X110238095Y-71588571D01*
X110238095Y-71683809D01*
X109761904Y-71779047D01*
X110619047Y-72064761D02*
X110714285Y-72112380D01*
X110904761Y-72112380D01*
X111000000Y-72064761D01*
X111047619Y-71969523D01*
X111047619Y-71921904D01*
X111000000Y-71826666D01*
X110904761Y-71779047D01*
X110761904Y-71779047D01*
X110666666Y-71731428D01*
X110619047Y-71636190D01*
X110619047Y-71588571D01*
X110666666Y-71493333D01*
X110761904Y-71445714D01*
X110904761Y-71445714D01*
X111000000Y-71493333D01*
X103119047Y-73762380D02*
X103119047Y-72762380D01*
X103452380Y-73476666D01*
X103785714Y-72762380D01*
X103785714Y-73762380D01*
X104690476Y-73762380D02*
X104690476Y-73238571D01*
X104642857Y-73143333D01*
X104547619Y-73095714D01*
X104357142Y-73095714D01*
X104261904Y-73143333D01*
X104690476Y-73714761D02*
X104595238Y-73762380D01*
X104357142Y-73762380D01*
X104261904Y-73714761D01*
X104214285Y-73619523D01*
X104214285Y-73524285D01*
X104261904Y-73429047D01*
X104357142Y-73381428D01*
X104595238Y-73381428D01*
X104690476Y-73333809D01*
X105166666Y-73762380D02*
X105166666Y-73095714D01*
X105166666Y-73286190D02*
X105214285Y-73190952D01*
X105261904Y-73143333D01*
X105357142Y-73095714D01*
X105452380Y-73095714D01*
X106500000Y-72857619D02*
X106547619Y-72810000D01*
X106642857Y-72762380D01*
X106880952Y-72762380D01*
X106976190Y-72810000D01*
X107023809Y-72857619D01*
X107071428Y-72952857D01*
X107071428Y-73048095D01*
X107023809Y-73190952D01*
X106452380Y-73762380D01*
X107071428Y-73762380D01*
X107690476Y-72762380D02*
X107785714Y-72762380D01*
X107880952Y-72810000D01*
X107928571Y-72857619D01*
X107976190Y-72952857D01*
X108023809Y-73143333D01*
X108023809Y-73381428D01*
X107976190Y-73571904D01*
X107928571Y-73667142D01*
X107880952Y-73714761D01*
X107785714Y-73762380D01*
X107690476Y-73762380D01*
X107595238Y-73714761D01*
X107547619Y-73667142D01*
X107500000Y-73571904D01*
X107452380Y-73381428D01*
X107452380Y-73143333D01*
X107500000Y-72952857D01*
X107547619Y-72857619D01*
X107595238Y-72810000D01*
X107690476Y-72762380D01*
X108404761Y-72857619D02*
X108452380Y-72810000D01*
X108547619Y-72762380D01*
X108785714Y-72762380D01*
X108880952Y-72810000D01*
X108928571Y-72857619D01*
X108976190Y-72952857D01*
X108976190Y-73048095D01*
X108928571Y-73190952D01*
X108357142Y-73762380D01*
X108976190Y-73762380D01*
X109928571Y-73762380D02*
X109357142Y-73762380D01*
X109642857Y-73762380D02*
X109642857Y-72762380D01*
X109547619Y-72905238D01*
X109452380Y-73000476D01*
X109357142Y-73048095D01*
X100428571Y-75317142D02*
X100380952Y-75364761D01*
X100238095Y-75412380D01*
X100142857Y-75412380D01*
X100000000Y-75364761D01*
X99904761Y-75269523D01*
X99857142Y-75174285D01*
X99809523Y-74983809D01*
X99809523Y-74840952D01*
X99857142Y-74650476D01*
X99904761Y-74555238D01*
X100000000Y-74460000D01*
X100142857Y-74412380D01*
X100238095Y-74412380D01*
X100380952Y-74460000D01*
X100428571Y-74507619D01*
X101428571Y-75317142D02*
X101380952Y-75364761D01*
X101238095Y-75412380D01*
X101142857Y-75412380D01*
X101000000Y-75364761D01*
X100904761Y-75269523D01*
X100857142Y-75174285D01*
X100809523Y-74983809D01*
X100809523Y-74840952D01*
X100857142Y-74650476D01*
X100904761Y-74555238D01*
X101000000Y-74460000D01*
X101142857Y-74412380D01*
X101238095Y-74412380D01*
X101380952Y-74460000D01*
X101428571Y-74507619D01*
X102047619Y-74412380D02*
X102142857Y-74412380D01*
X102238095Y-74460000D01*
X102285714Y-74507619D01*
X102333333Y-74602857D01*
X102380952Y-74793333D01*
X102380952Y-75031428D01*
X102333333Y-75221904D01*
X102285714Y-75317142D01*
X102238095Y-75364761D01*
X102142857Y-75412380D01*
X102047619Y-75412380D01*
X101952380Y-75364761D01*
X101904761Y-75317142D01*
X101857142Y-75221904D01*
X101809523Y-75031428D01*
X101809523Y-74793333D01*
X101857142Y-74602857D01*
X101904761Y-74507619D01*
X101952380Y-74460000D01*
X102047619Y-74412380D01*
X104095238Y-75412380D02*
X103523809Y-75412380D01*
X103809523Y-75412380D02*
X103809523Y-74412380D01*
X103714285Y-74555238D01*
X103619047Y-74650476D01*
X103523809Y-74698095D01*
X104523809Y-75317142D02*
X104571428Y-75364761D01*
X104523809Y-75412380D01*
X104476190Y-75364761D01*
X104523809Y-75317142D01*
X104523809Y-75412380D01*
X105190476Y-74412380D02*
X105285714Y-74412380D01*
X105380952Y-74460000D01*
X105428571Y-74507619D01*
X105476190Y-74602857D01*
X105523809Y-74793333D01*
X105523809Y-75031428D01*
X105476190Y-75221904D01*
X105428571Y-75317142D01*
X105380952Y-75364761D01*
X105285714Y-75412380D01*
X105190476Y-75412380D01*
X105095238Y-75364761D01*
X105047619Y-75317142D01*
X105000000Y-75221904D01*
X104952380Y-75031428D01*
X104952380Y-74793333D01*
X105000000Y-74602857D01*
X105047619Y-74507619D01*
X105095238Y-74460000D01*
X105190476Y-74412380D01*
X106714285Y-74412380D02*
X106714285Y-75221904D01*
X106761904Y-75317142D01*
X106809523Y-75364761D01*
X106904761Y-75412380D01*
X107095238Y-75412380D01*
X107190476Y-75364761D01*
X107238095Y-75317142D01*
X107285714Y-75221904D01*
X107285714Y-74412380D01*
X107761904Y-74745714D02*
X107761904Y-75412380D01*
X107761904Y-74840952D02*
X107809523Y-74793333D01*
X107904761Y-74745714D01*
X108047619Y-74745714D01*
X108142857Y-74793333D01*
X108190476Y-74888571D01*
X108190476Y-75412380D01*
X108666666Y-75412380D02*
X108666666Y-74745714D01*
X108666666Y-74412380D02*
X108619047Y-74460000D01*
X108666666Y-74507619D01*
X108714285Y-74460000D01*
X108666666Y-74412380D01*
X108666666Y-74507619D01*
X109047619Y-74745714D02*
X109285714Y-75412380D01*
X109523809Y-74745714D01*
X110285714Y-75364761D02*
X110190476Y-75412380D01*
X110000000Y-75412380D01*
X109904761Y-75364761D01*
X109857142Y-75269523D01*
X109857142Y-74888571D01*
X109904761Y-74793333D01*
X110000000Y-74745714D01*
X110190476Y-74745714D01*
X110285714Y-74793333D01*
X110333333Y-74888571D01*
X110333333Y-74983809D01*
X109857142Y-75079047D01*
X110761904Y-75412380D02*
X110761904Y-74745714D01*
X110761904Y-74936190D02*
X110809523Y-74840952D01*
X110857142Y-74793333D01*
X110952380Y-74745714D01*
X111047619Y-74745714D01*
X111333333Y-75364761D02*
X111428571Y-75412380D01*
X111619047Y-75412380D01*
X111714285Y-75364761D01*
X111761904Y-75269523D01*
X111761904Y-75221904D01*
X111714285Y-75126666D01*
X111619047Y-75079047D01*
X111476190Y-75079047D01*
X111380952Y-75031428D01*
X111333333Y-74936190D01*
X111333333Y-74888571D01*
X111380952Y-74793333D01*
X111476190Y-74745714D01*
X111619047Y-74745714D01*
X111714285Y-74793333D01*
X112619047Y-75412380D02*
X112619047Y-74888571D01*
X112571428Y-74793333D01*
X112476190Y-74745714D01*
X112285714Y-74745714D01*
X112190476Y-74793333D01*
X112619047Y-75364761D02*
X112523809Y-75412380D01*
X112285714Y-75412380D01*
X112190476Y-75364761D01*
X112142857Y-75269523D01*
X112142857Y-75174285D01*
X112190476Y-75079047D01*
X112285714Y-75031428D01*
X112523809Y-75031428D01*
X112619047Y-74983809D01*
X113238095Y-75412380D02*
X113142857Y-75364761D01*
X113095238Y-75269523D01*
X113095238Y-74412380D01*
D11*
X96714285Y-69747142D02*
X96714285Y-66747142D01*
X97428571Y-66747142D01*
X97857142Y-66890000D01*
X98142857Y-67175714D01*
X98285714Y-67461428D01*
X98428571Y-68032857D01*
X98428571Y-68461428D01*
X98285714Y-69032857D01*
X98142857Y-69318571D01*
X97857142Y-69604285D01*
X97428571Y-69747142D01*
X96714285Y-69747142D01*
X101428571Y-69461428D02*
X101285714Y-69604285D01*
X100857142Y-69747142D01*
X100571428Y-69747142D01*
X100142857Y-69604285D01*
X99857142Y-69318571D01*
X99714285Y-69032857D01*
X99571428Y-68461428D01*
X99571428Y-68032857D01*
X99714285Y-67461428D01*
X99857142Y-67175714D01*
X100142857Y-66890000D01*
X100571428Y-66747142D01*
X100857142Y-66747142D01*
X101285714Y-66890000D01*
X101428571Y-67032857D01*
X105000000Y-69747142D02*
X105000000Y-66747142D01*
X106000000Y-68890000D01*
X107000000Y-66747142D01*
X107000000Y-69747142D01*
X108428571Y-69747142D02*
X108428571Y-67747142D01*
X108428571Y-66747142D02*
X108285714Y-66890000D01*
X108428571Y-67032857D01*
X108571428Y-66890000D01*
X108428571Y-66747142D01*
X108428571Y-67032857D01*
X109571428Y-69747142D02*
X111142857Y-67747142D01*
X109571428Y-67747142D02*
X111142857Y-69747142D01*
X113428571Y-69604285D02*
X113142857Y-69747142D01*
X112571428Y-69747142D01*
X112285714Y-69604285D01*
X112142857Y-69318571D01*
X112142857Y-68175714D01*
X112285714Y-67890000D01*
X112571428Y-67747142D01*
X113142857Y-67747142D01*
X113428571Y-67890000D01*
X113571428Y-68175714D01*
X113571428Y-68461428D01*
X112142857Y-68747142D01*
X114857142Y-69747142D02*
X114857142Y-67747142D01*
X114857142Y-68318571D02*
X115000000Y-68032857D01*
X115142857Y-67890000D01*
X115428571Y-67747142D01*
X115714285Y-67747142D01*
D12*
%TO.C,GRAF2*%
G36*
X104599744Y-81729918D02*
G01*
X104655201Y-81757568D01*
X104704148Y-81808480D01*
X104717629Y-81827338D01*
X104732314Y-81852015D01*
X104741842Y-81878816D01*
X104747293Y-81914587D01*
X104749747Y-81966169D01*
X104750286Y-82034267D01*
X104747852Y-82127588D01*
X104739394Y-82197657D01*
X104723174Y-82249931D01*
X104697454Y-82289869D01*
X104660497Y-82322929D01*
X104657782Y-82324886D01*
X104621360Y-82344908D01*
X104577502Y-82354815D01*
X104521724Y-82357257D01*
X104431048Y-82357257D01*
X104431010Y-82445283D01*
X104430166Y-82494308D01*
X104425024Y-82523065D01*
X104411587Y-82540311D01*
X104385858Y-82554808D01*
X104379679Y-82557769D01*
X104350764Y-82571648D01*
X104328376Y-82580414D01*
X104311729Y-82581171D01*
X104300036Y-82571023D01*
X104292510Y-82547073D01*
X104288366Y-82506426D01*
X104286815Y-82446186D01*
X104287071Y-82363455D01*
X104288349Y-82255339D01*
X104288748Y-82223000D01*
X104290185Y-82111524D01*
X104291472Y-82038603D01*
X104430971Y-82038603D01*
X104431755Y-82100499D01*
X104435240Y-82140997D01*
X104443124Y-82167708D01*
X104457105Y-82188244D01*
X104466597Y-82198260D01*
X104505404Y-82227567D01*
X104539763Y-82229952D01*
X104575216Y-82205750D01*
X104576114Y-82204857D01*
X104590539Y-82186153D01*
X104599313Y-82160732D01*
X104603739Y-82121584D01*
X104605118Y-82061697D01*
X104605143Y-82048430D01*
X104601812Y-81965901D01*
X104590969Y-81908691D01*
X104571340Y-81873766D01*
X104541650Y-81858094D01*
X104524491Y-81856514D01*
X104483766Y-81863926D01*
X104455832Y-81888330D01*
X104439017Y-81932980D01*
X104431650Y-82001130D01*
X104430971Y-82038603D01*
X104291472Y-82038603D01*
X104291708Y-82025245D01*
X104293677Y-81960333D01*
X104296450Y-81912958D01*
X104300388Y-81879290D01*
X104305849Y-81855498D01*
X104313192Y-81837753D01*
X104322777Y-81822224D01*
X104326887Y-81816381D01*
X104381405Y-81761185D01*
X104450336Y-81729890D01*
X104530072Y-81721165D01*
X104599744Y-81729918D01*
G37*
X104599744Y-81729918D02*
X104655201Y-81757568D01*
X104704148Y-81808480D01*
X104717629Y-81827338D01*
X104732314Y-81852015D01*
X104741842Y-81878816D01*
X104747293Y-81914587D01*
X104749747Y-81966169D01*
X104750286Y-82034267D01*
X104747852Y-82127588D01*
X104739394Y-82197657D01*
X104723174Y-82249931D01*
X104697454Y-82289869D01*
X104660497Y-82322929D01*
X104657782Y-82324886D01*
X104621360Y-82344908D01*
X104577502Y-82354815D01*
X104521724Y-82357257D01*
X104431048Y-82357257D01*
X104431010Y-82445283D01*
X104430166Y-82494308D01*
X104425024Y-82523065D01*
X104411587Y-82540311D01*
X104385858Y-82554808D01*
X104379679Y-82557769D01*
X104350764Y-82571648D01*
X104328376Y-82580414D01*
X104311729Y-82581171D01*
X104300036Y-82571023D01*
X104292510Y-82547073D01*
X104288366Y-82506426D01*
X104286815Y-82446186D01*
X104287071Y-82363455D01*
X104288349Y-82255339D01*
X104288748Y-82223000D01*
X104290185Y-82111524D01*
X104291472Y-82038603D01*
X104430971Y-82038603D01*
X104431755Y-82100499D01*
X104435240Y-82140997D01*
X104443124Y-82167708D01*
X104457105Y-82188244D01*
X104466597Y-82198260D01*
X104505404Y-82227567D01*
X104539763Y-82229952D01*
X104575216Y-82205750D01*
X104576114Y-82204857D01*
X104590539Y-82186153D01*
X104599313Y-82160732D01*
X104603739Y-82121584D01*
X104605118Y-82061697D01*
X104605143Y-82048430D01*
X104601812Y-81965901D01*
X104590969Y-81908691D01*
X104571340Y-81873766D01*
X104541650Y-81858094D01*
X104524491Y-81856514D01*
X104483766Y-81863926D01*
X104455832Y-81888330D01*
X104439017Y-81932980D01*
X104431650Y-82001130D01*
X104430971Y-82038603D01*
X104291472Y-82038603D01*
X104291708Y-82025245D01*
X104293677Y-81960333D01*
X104296450Y-81912958D01*
X104300388Y-81879290D01*
X104305849Y-81855498D01*
X104313192Y-81837753D01*
X104322777Y-81822224D01*
X104326887Y-81816381D01*
X104381405Y-81761185D01*
X104450336Y-81729890D01*
X104530072Y-81721165D01*
X104599744Y-81729918D01*
G36*
X105716093Y-81737780D02*
G01*
X105762672Y-81764723D01*
X105795057Y-81791466D01*
X105818742Y-81819484D01*
X105835059Y-81853748D01*
X105845339Y-81899227D01*
X105850914Y-81960892D01*
X105853116Y-82043711D01*
X105853371Y-82103246D01*
X105853371Y-82322391D01*
X105791686Y-82350044D01*
X105730000Y-82377697D01*
X105722743Y-82137670D01*
X105719744Y-82048028D01*
X105716598Y-81982962D01*
X105712701Y-81938026D01*
X105707447Y-81908770D01*
X105700231Y-81890748D01*
X105690450Y-81879511D01*
X105687312Y-81877079D01*
X105639761Y-81858083D01*
X105591697Y-81865600D01*
X105563086Y-81885543D01*
X105551447Y-81899675D01*
X105543391Y-81918220D01*
X105538271Y-81946334D01*
X105535441Y-81989173D01*
X105534256Y-82051895D01*
X105534057Y-82117261D01*
X105534018Y-82199268D01*
X105532614Y-82257316D01*
X105527914Y-82296465D01*
X105517987Y-82321780D01*
X105500903Y-82338323D01*
X105474732Y-82351156D01*
X105439775Y-82364491D01*
X105401596Y-82379007D01*
X105406141Y-82121389D01*
X105407971Y-82028519D01*
X105410112Y-81959889D01*
X105413181Y-81910711D01*
X105417794Y-81876198D01*
X105424568Y-81851562D01*
X105434119Y-81832016D01*
X105445634Y-81814770D01*
X105501190Y-81759680D01*
X105568980Y-81727822D01*
X105642713Y-81720191D01*
X105716093Y-81737780D01*
G37*
X105716093Y-81737780D02*
X105762672Y-81764723D01*
X105795057Y-81791466D01*
X105818742Y-81819484D01*
X105835059Y-81853748D01*
X105845339Y-81899227D01*
X105850914Y-81960892D01*
X105853116Y-82043711D01*
X105853371Y-82103246D01*
X105853371Y-82322391D01*
X105791686Y-82350044D01*
X105730000Y-82377697D01*
X105722743Y-82137670D01*
X105719744Y-82048028D01*
X105716598Y-81982962D01*
X105712701Y-81938026D01*
X105707447Y-81908770D01*
X105700231Y-81890748D01*
X105690450Y-81879511D01*
X105687312Y-81877079D01*
X105639761Y-81858083D01*
X105591697Y-81865600D01*
X105563086Y-81885543D01*
X105551447Y-81899675D01*
X105543391Y-81918220D01*
X105538271Y-81946334D01*
X105535441Y-81989173D01*
X105534256Y-82051895D01*
X105534057Y-82117261D01*
X105534018Y-82199268D01*
X105532614Y-82257316D01*
X105527914Y-82296465D01*
X105517987Y-82321780D01*
X105500903Y-82338323D01*
X105474732Y-82351156D01*
X105439775Y-82364491D01*
X105401596Y-82379007D01*
X105406141Y-82121389D01*
X105407971Y-82028519D01*
X105410112Y-81959889D01*
X105413181Y-81910711D01*
X105417794Y-81876198D01*
X105424568Y-81851562D01*
X105434119Y-81832016D01*
X105445634Y-81814770D01*
X105501190Y-81759680D01*
X105568980Y-81727822D01*
X105642713Y-81720191D01*
X105716093Y-81737780D01*
G36*
X104041115Y-81731962D02*
G01*
X104109145Y-81767733D01*
X104159351Y-81825301D01*
X104177185Y-81862312D01*
X104191063Y-81917882D01*
X104198167Y-81988096D01*
X104198840Y-82064727D01*
X104193427Y-82139552D01*
X104182270Y-82204342D01*
X104165714Y-82250873D01*
X104160626Y-82258887D01*
X104100355Y-82318707D01*
X104028769Y-82354535D01*
X103951092Y-82365020D01*
X103872548Y-82348810D01*
X103850689Y-82339092D01*
X103808122Y-82309143D01*
X103770763Y-82269433D01*
X103767232Y-82264397D01*
X103752881Y-82240124D01*
X103743394Y-82214178D01*
X103737790Y-82180022D01*
X103735086Y-82131119D01*
X103734299Y-82060935D01*
X103734286Y-82045200D01*
X103734322Y-82040192D01*
X103879429Y-82040192D01*
X103880273Y-82106430D01*
X103883596Y-82150386D01*
X103890583Y-82178779D01*
X103902416Y-82198325D01*
X103908457Y-82204857D01*
X103943186Y-82229680D01*
X103976903Y-82228548D01*
X104010995Y-82207016D01*
X104031329Y-82184029D01*
X104043371Y-82150478D01*
X104050134Y-82097569D01*
X104050598Y-82091399D01*
X104051752Y-81995513D01*
X104039688Y-81924299D01*
X104014570Y-81878194D01*
X103976560Y-81857635D01*
X103962992Y-81856514D01*
X103927364Y-81862152D01*
X103902994Y-81881686D01*
X103888093Y-81919042D01*
X103880875Y-81978150D01*
X103879429Y-82040192D01*
X103734322Y-82040192D01*
X103734826Y-81970413D01*
X103737096Y-81918159D01*
X103742068Y-81881949D01*
X103750713Y-81855299D01*
X103764005Y-81831722D01*
X103766943Y-81827338D01*
X103816313Y-81768249D01*
X103870109Y-81733947D01*
X103935602Y-81720331D01*
X103957842Y-81719665D01*
X104041115Y-81731962D01*
G37*
X104041115Y-81731962D02*
X104109145Y-81767733D01*
X104159351Y-81825301D01*
X104177185Y-81862312D01*
X104191063Y-81917882D01*
X104198167Y-81988096D01*
X104198840Y-82064727D01*
X104193427Y-82139552D01*
X104182270Y-82204342D01*
X104165714Y-82250873D01*
X104160626Y-82258887D01*
X104100355Y-82318707D01*
X104028769Y-82354535D01*
X103951092Y-82365020D01*
X103872548Y-82348810D01*
X103850689Y-82339092D01*
X103808122Y-82309143D01*
X103770763Y-82269433D01*
X103767232Y-82264397D01*
X103752881Y-82240124D01*
X103743394Y-82214178D01*
X103737790Y-82180022D01*
X103735086Y-82131119D01*
X103734299Y-82060935D01*
X103734286Y-82045200D01*
X103734322Y-82040192D01*
X103879429Y-82040192D01*
X103880273Y-82106430D01*
X103883596Y-82150386D01*
X103890583Y-82178779D01*
X103902416Y-82198325D01*
X103908457Y-82204857D01*
X103943186Y-82229680D01*
X103976903Y-82228548D01*
X104010995Y-82207016D01*
X104031329Y-82184029D01*
X104043371Y-82150478D01*
X104050134Y-82097569D01*
X104050598Y-82091399D01*
X104051752Y-81995513D01*
X104039688Y-81924299D01*
X104014570Y-81878194D01*
X103976560Y-81857635D01*
X103962992Y-81856514D01*
X103927364Y-81862152D01*
X103902994Y-81881686D01*
X103888093Y-81919042D01*
X103880875Y-81978150D01*
X103879429Y-82040192D01*
X103734322Y-82040192D01*
X103734826Y-81970413D01*
X103737096Y-81918159D01*
X103742068Y-81881949D01*
X103750713Y-81855299D01*
X103764005Y-81831722D01*
X103766943Y-81827338D01*
X103816313Y-81768249D01*
X103870109Y-81733947D01*
X103935602Y-81720331D01*
X103957842Y-81719665D01*
X104041115Y-81731962D01*
G36*
X105168303Y-81741239D02*
G01*
X105225527Y-81779735D01*
X105269749Y-81835335D01*
X105296167Y-81906086D01*
X105301510Y-81958162D01*
X105300903Y-81979893D01*
X105295822Y-81996531D01*
X105281855Y-82011437D01*
X105254589Y-82027973D01*
X105209612Y-82049498D01*
X105142511Y-82079374D01*
X105142171Y-82079524D01*
X105080407Y-82107813D01*
X105029759Y-82132933D01*
X104995404Y-82152179D01*
X104982518Y-82162848D01*
X104982514Y-82162934D01*
X104993872Y-82186166D01*
X105020431Y-82211774D01*
X105050923Y-82230221D01*
X105066370Y-82233886D01*
X105108515Y-82221212D01*
X105144808Y-82189471D01*
X105162517Y-82154572D01*
X105179552Y-82128845D01*
X105212922Y-82099546D01*
X105252149Y-82074235D01*
X105286756Y-82060471D01*
X105293993Y-82059714D01*
X105302139Y-82072160D01*
X105302630Y-82103972D01*
X105296643Y-82146866D01*
X105285357Y-82192558D01*
X105269950Y-82232761D01*
X105269171Y-82234322D01*
X105222804Y-82299062D01*
X105162711Y-82343097D01*
X105094465Y-82364711D01*
X105023638Y-82362185D01*
X104955804Y-82333804D01*
X104952788Y-82331808D01*
X104899427Y-82283448D01*
X104864340Y-82220352D01*
X104844922Y-82137387D01*
X104842316Y-82114078D01*
X104837701Y-82004055D01*
X104843233Y-81952748D01*
X104982514Y-81952748D01*
X104984324Y-81984753D01*
X104994222Y-81994093D01*
X105018898Y-81987105D01*
X105057795Y-81970587D01*
X105101275Y-81949881D01*
X105102356Y-81949333D01*
X105139209Y-81929949D01*
X105154000Y-81917013D01*
X105150353Y-81903451D01*
X105134995Y-81885632D01*
X105095923Y-81859845D01*
X105053846Y-81857950D01*
X105016103Y-81876717D01*
X104990034Y-81912915D01*
X104982514Y-81952748D01*
X104843233Y-81952748D01*
X104847194Y-81916027D01*
X104871550Y-81846212D01*
X104905456Y-81797302D01*
X104966653Y-81747878D01*
X105034063Y-81723359D01*
X105102880Y-81721797D01*
X105168303Y-81741239D01*
G37*
X105168303Y-81741239D02*
X105225527Y-81779735D01*
X105269749Y-81835335D01*
X105296167Y-81906086D01*
X105301510Y-81958162D01*
X105300903Y-81979893D01*
X105295822Y-81996531D01*
X105281855Y-82011437D01*
X105254589Y-82027973D01*
X105209612Y-82049498D01*
X105142511Y-82079374D01*
X105142171Y-82079524D01*
X105080407Y-82107813D01*
X105029759Y-82132933D01*
X104995404Y-82152179D01*
X104982518Y-82162848D01*
X104982514Y-82162934D01*
X104993872Y-82186166D01*
X105020431Y-82211774D01*
X105050923Y-82230221D01*
X105066370Y-82233886D01*
X105108515Y-82221212D01*
X105144808Y-82189471D01*
X105162517Y-82154572D01*
X105179552Y-82128845D01*
X105212922Y-82099546D01*
X105252149Y-82074235D01*
X105286756Y-82060471D01*
X105293993Y-82059714D01*
X105302139Y-82072160D01*
X105302630Y-82103972D01*
X105296643Y-82146866D01*
X105285357Y-82192558D01*
X105269950Y-82232761D01*
X105269171Y-82234322D01*
X105222804Y-82299062D01*
X105162711Y-82343097D01*
X105094465Y-82364711D01*
X105023638Y-82362185D01*
X104955804Y-82333804D01*
X104952788Y-82331808D01*
X104899427Y-82283448D01*
X104864340Y-82220352D01*
X104844922Y-82137387D01*
X104842316Y-82114078D01*
X104837701Y-82004055D01*
X104843233Y-81952748D01*
X104982514Y-81952748D01*
X104984324Y-81984753D01*
X104994222Y-81994093D01*
X105018898Y-81987105D01*
X105057795Y-81970587D01*
X105101275Y-81949881D01*
X105102356Y-81949333D01*
X105139209Y-81929949D01*
X105154000Y-81917013D01*
X105150353Y-81903451D01*
X105134995Y-81885632D01*
X105095923Y-81859845D01*
X105053846Y-81857950D01*
X105016103Y-81876717D01*
X104990034Y-81912915D01*
X104982514Y-81952748D01*
X104843233Y-81952748D01*
X104847194Y-81916027D01*
X104871550Y-81846212D01*
X104905456Y-81797302D01*
X104966653Y-81747878D01*
X105034063Y-81723359D01*
X105102880Y-81721797D01*
X105168303Y-81741239D01*
G36*
X106375886Y-81661289D02*
G01*
X106380139Y-81720613D01*
X106385025Y-81755572D01*
X106391795Y-81770820D01*
X106401702Y-81771015D01*
X106404914Y-81769195D01*
X106447644Y-81756015D01*
X106503227Y-81756785D01*
X106559737Y-81770333D01*
X106595082Y-81787861D01*
X106631321Y-81815861D01*
X106657813Y-81847549D01*
X106675999Y-81887813D01*
X106687322Y-81941543D01*
X106693222Y-82013626D01*
X106695143Y-82108951D01*
X106695177Y-82127237D01*
X106695200Y-82332646D01*
X106649491Y-82348580D01*
X106617027Y-82359420D01*
X106599215Y-82364468D01*
X106598691Y-82364514D01*
X106596937Y-82350828D01*
X106595444Y-82313076D01*
X106594326Y-82256224D01*
X106593697Y-82185234D01*
X106593600Y-82142073D01*
X106593398Y-82056973D01*
X106592358Y-81995981D01*
X106589831Y-81954177D01*
X106585164Y-81926642D01*
X106577707Y-81908456D01*
X106566811Y-81894698D01*
X106560007Y-81888073D01*
X106513272Y-81861375D01*
X106462272Y-81859375D01*
X106416001Y-81881955D01*
X106407444Y-81890107D01*
X106394893Y-81905436D01*
X106386188Y-81923618D01*
X106380631Y-81949909D01*
X106377526Y-81989562D01*
X106376176Y-82047832D01*
X106375886Y-82128173D01*
X106375886Y-82332646D01*
X106330177Y-82348580D01*
X106297713Y-82359420D01*
X106279901Y-82364468D01*
X106279377Y-82364514D01*
X106278037Y-82350623D01*
X106276828Y-82311439D01*
X106275801Y-82250700D01*
X106275002Y-82172141D01*
X106274481Y-82079498D01*
X106274286Y-81976509D01*
X106274286Y-81579342D01*
X106321457Y-81559444D01*
X106368629Y-81539547D01*
X106375886Y-81661289D01*
G37*
X106375886Y-81661289D02*
X106380139Y-81720613D01*
X106385025Y-81755572D01*
X106391795Y-81770820D01*
X106401702Y-81771015D01*
X106404914Y-81769195D01*
X106447644Y-81756015D01*
X106503227Y-81756785D01*
X106559737Y-81770333D01*
X106595082Y-81787861D01*
X106631321Y-81815861D01*
X106657813Y-81847549D01*
X106675999Y-81887813D01*
X106687322Y-81941543D01*
X106693222Y-82013626D01*
X106695143Y-82108951D01*
X106695177Y-82127237D01*
X106695200Y-82332646D01*
X106649491Y-82348580D01*
X106617027Y-82359420D01*
X106599215Y-82364468D01*
X106598691Y-82364514D01*
X106596937Y-82350828D01*
X106595444Y-82313076D01*
X106594326Y-82256224D01*
X106593697Y-82185234D01*
X106593600Y-82142073D01*
X106593398Y-82056973D01*
X106592358Y-81995981D01*
X106589831Y-81954177D01*
X106585164Y-81926642D01*
X106577707Y-81908456D01*
X106566811Y-81894698D01*
X106560007Y-81888073D01*
X106513272Y-81861375D01*
X106462272Y-81859375D01*
X106416001Y-81881955D01*
X106407444Y-81890107D01*
X106394893Y-81905436D01*
X106386188Y-81923618D01*
X106380631Y-81949909D01*
X106377526Y-81989562D01*
X106376176Y-82047832D01*
X106375886Y-82128173D01*
X106375886Y-82332646D01*
X106330177Y-82348580D01*
X106297713Y-82359420D01*
X106279901Y-82364468D01*
X106279377Y-82364514D01*
X106278037Y-82350623D01*
X106276828Y-82311439D01*
X106275801Y-82250700D01*
X106275002Y-82172141D01*
X106274481Y-82079498D01*
X106274286Y-81976509D01*
X106274286Y-81579342D01*
X106321457Y-81559444D01*
X106368629Y-81539547D01*
X106375886Y-81661289D01*
G36*
X107039744Y-81760968D02*
G01*
X107096616Y-81782087D01*
X107097267Y-81782493D01*
X107132440Y-81808380D01*
X107158407Y-81838633D01*
X107176670Y-81878058D01*
X107188732Y-81931462D01*
X107196096Y-82003651D01*
X107200264Y-82099432D01*
X107200629Y-82113078D01*
X107205876Y-82318842D01*
X107161716Y-82341678D01*
X107129763Y-82357110D01*
X107110470Y-82364423D01*
X107109578Y-82364514D01*
X107106239Y-82351022D01*
X107103587Y-82314626D01*
X107101956Y-82261452D01*
X107101600Y-82218393D01*
X107101592Y-82148641D01*
X107098403Y-82104837D01*
X107087288Y-82083944D01*
X107063501Y-82082925D01*
X107022296Y-82098741D01*
X106960086Y-82127815D01*
X106914341Y-82151963D01*
X106890813Y-82172913D01*
X106883896Y-82195747D01*
X106883886Y-82196877D01*
X106895299Y-82236212D01*
X106929092Y-82257462D01*
X106980809Y-82260539D01*
X107018061Y-82260006D01*
X107037703Y-82270735D01*
X107049952Y-82296505D01*
X107057002Y-82329337D01*
X107046842Y-82347966D01*
X107043017Y-82350632D01*
X107007001Y-82361340D01*
X106956566Y-82362856D01*
X106904626Y-82355759D01*
X106867822Y-82342788D01*
X106816938Y-82299585D01*
X106788014Y-82239446D01*
X106782286Y-82192462D01*
X106786657Y-82150082D01*
X106802475Y-82115488D01*
X106833797Y-82084763D01*
X106884678Y-82053990D01*
X106959176Y-82019252D01*
X106963714Y-82017288D01*
X107030821Y-81986287D01*
X107072232Y-81960862D01*
X107089981Y-81938014D01*
X107086107Y-81914745D01*
X107062643Y-81888056D01*
X107055627Y-81881914D01*
X107008630Y-81858100D01*
X106959933Y-81859103D01*
X106917522Y-81882451D01*
X106889384Y-81925675D01*
X106886769Y-81934160D01*
X106861308Y-81975308D01*
X106829001Y-81995128D01*
X106782286Y-82014770D01*
X106782286Y-81963950D01*
X106796496Y-81890082D01*
X106838675Y-81822327D01*
X106860624Y-81799661D01*
X106910517Y-81770569D01*
X106973967Y-81757400D01*
X107039744Y-81760968D01*
G37*
X107039744Y-81760968D02*
X107096616Y-81782087D01*
X107097267Y-81782493D01*
X107132440Y-81808380D01*
X107158407Y-81838633D01*
X107176670Y-81878058D01*
X107188732Y-81931462D01*
X107196096Y-82003651D01*
X107200264Y-82099432D01*
X107200629Y-82113078D01*
X107205876Y-82318842D01*
X107161716Y-82341678D01*
X107129763Y-82357110D01*
X107110470Y-82364423D01*
X107109578Y-82364514D01*
X107106239Y-82351022D01*
X107103587Y-82314626D01*
X107101956Y-82261452D01*
X107101600Y-82218393D01*
X107101592Y-82148641D01*
X107098403Y-82104837D01*
X107087288Y-82083944D01*
X107063501Y-82082925D01*
X107022296Y-82098741D01*
X106960086Y-82127815D01*
X106914341Y-82151963D01*
X106890813Y-82172913D01*
X106883896Y-82195747D01*
X106883886Y-82196877D01*
X106895299Y-82236212D01*
X106929092Y-82257462D01*
X106980809Y-82260539D01*
X107018061Y-82260006D01*
X107037703Y-82270735D01*
X107049952Y-82296505D01*
X107057002Y-82329337D01*
X107046842Y-82347966D01*
X107043017Y-82350632D01*
X107007001Y-82361340D01*
X106956566Y-82362856D01*
X106904626Y-82355759D01*
X106867822Y-82342788D01*
X106816938Y-82299585D01*
X106788014Y-82239446D01*
X106782286Y-82192462D01*
X106786657Y-82150082D01*
X106802475Y-82115488D01*
X106833797Y-82084763D01*
X106884678Y-82053990D01*
X106959176Y-82019252D01*
X106963714Y-82017288D01*
X107030821Y-81986287D01*
X107072232Y-81960862D01*
X107089981Y-81938014D01*
X107086107Y-81914745D01*
X107062643Y-81888056D01*
X107055627Y-81881914D01*
X107008630Y-81858100D01*
X106959933Y-81859103D01*
X106917522Y-81882451D01*
X106889384Y-81925675D01*
X106886769Y-81934160D01*
X106861308Y-81975308D01*
X106829001Y-81995128D01*
X106782286Y-82014770D01*
X106782286Y-81963950D01*
X106796496Y-81890082D01*
X106838675Y-81822327D01*
X106860624Y-81799661D01*
X106910517Y-81770569D01*
X106973967Y-81757400D01*
X107039744Y-81760968D01*
G36*
X107529926Y-81759755D02*
G01*
X107595858Y-81784084D01*
X107649273Y-81827117D01*
X107670164Y-81857409D01*
X107692939Y-81912994D01*
X107692466Y-81953186D01*
X107668562Y-81980217D01*
X107659717Y-81984813D01*
X107621530Y-81999144D01*
X107602028Y-81995472D01*
X107595422Y-81971407D01*
X107595086Y-81958114D01*
X107582992Y-81909210D01*
X107551471Y-81874999D01*
X107507659Y-81858476D01*
X107458695Y-81862634D01*
X107418894Y-81884227D01*
X107405450Y-81896544D01*
X107395921Y-81911487D01*
X107389485Y-81934075D01*
X107385317Y-81969328D01*
X107382597Y-82022266D01*
X107380502Y-82097907D01*
X107379960Y-82121857D01*
X107377981Y-82203790D01*
X107375731Y-82261455D01*
X107372357Y-82299608D01*
X107367006Y-82323004D01*
X107358824Y-82336398D01*
X107346959Y-82344545D01*
X107339362Y-82348144D01*
X107307102Y-82360452D01*
X107288111Y-82364514D01*
X107281836Y-82350948D01*
X107278006Y-82309934D01*
X107276600Y-82240999D01*
X107277598Y-82143669D01*
X107277908Y-82128657D01*
X107280101Y-82039859D01*
X107282693Y-81975019D01*
X107286382Y-81929067D01*
X107291864Y-81896935D01*
X107299835Y-81873553D01*
X107310993Y-81853852D01*
X107316830Y-81845410D01*
X107350296Y-81808057D01*
X107387727Y-81779003D01*
X107392309Y-81776467D01*
X107459426Y-81756443D01*
X107529926Y-81759755D01*
G37*
X107529926Y-81759755D02*
X107595858Y-81784084D01*
X107649273Y-81827117D01*
X107670164Y-81857409D01*
X107692939Y-81912994D01*
X107692466Y-81953186D01*
X107668562Y-81980217D01*
X107659717Y-81984813D01*
X107621530Y-81999144D01*
X107602028Y-81995472D01*
X107595422Y-81971407D01*
X107595086Y-81958114D01*
X107582992Y-81909210D01*
X107551471Y-81874999D01*
X107507659Y-81858476D01*
X107458695Y-81862634D01*
X107418894Y-81884227D01*
X107405450Y-81896544D01*
X107395921Y-81911487D01*
X107389485Y-81934075D01*
X107385317Y-81969328D01*
X107382597Y-82022266D01*
X107380502Y-82097907D01*
X107379960Y-82121857D01*
X107377981Y-82203790D01*
X107375731Y-82261455D01*
X107372357Y-82299608D01*
X107367006Y-82323004D01*
X107358824Y-82336398D01*
X107346959Y-82344545D01*
X107339362Y-82348144D01*
X107307102Y-82360452D01*
X107288111Y-82364514D01*
X107281836Y-82350948D01*
X107278006Y-82309934D01*
X107276600Y-82240999D01*
X107277598Y-82143669D01*
X107277908Y-82128657D01*
X107280101Y-82039859D01*
X107282693Y-81975019D01*
X107286382Y-81929067D01*
X107291864Y-81896935D01*
X107299835Y-81873553D01*
X107310993Y-81853852D01*
X107316830Y-81845410D01*
X107350296Y-81808057D01*
X107387727Y-81779003D01*
X107392309Y-81776467D01*
X107459426Y-81756443D01*
X107529926Y-81759755D01*
G36*
X108190117Y-81875358D02*
G01*
X108189933Y-81983837D01*
X108189219Y-82067287D01*
X108187675Y-82129704D01*
X108185001Y-82175085D01*
X108180894Y-82207429D01*
X108175055Y-82230733D01*
X108167182Y-82248995D01*
X108161221Y-82259418D01*
X108111855Y-82315945D01*
X108049264Y-82351377D01*
X107980013Y-82364090D01*
X107910668Y-82352463D01*
X107869375Y-82331568D01*
X107826025Y-82295422D01*
X107796481Y-82251276D01*
X107778655Y-82193462D01*
X107770463Y-82116313D01*
X107769302Y-82059714D01*
X107769458Y-82055647D01*
X107870857Y-82055647D01*
X107871476Y-82120550D01*
X107874314Y-82163514D01*
X107880840Y-82191622D01*
X107892523Y-82211953D01*
X107906483Y-82227288D01*
X107953365Y-82256890D01*
X108003701Y-82259419D01*
X108051276Y-82234705D01*
X108054979Y-82231356D01*
X108070783Y-82213935D01*
X108080693Y-82193209D01*
X108086058Y-82162362D01*
X108088228Y-82114577D01*
X108088571Y-82061748D01*
X108087827Y-81995381D01*
X108084748Y-81951106D01*
X108078061Y-81922009D01*
X108066496Y-81901173D01*
X108057013Y-81890107D01*
X108012960Y-81862198D01*
X107962224Y-81858843D01*
X107913796Y-81880159D01*
X107904450Y-81888073D01*
X107888540Y-81905647D01*
X107878610Y-81926587D01*
X107873278Y-81957782D01*
X107871163Y-82006122D01*
X107870857Y-82055647D01*
X107769458Y-82055647D01*
X107772810Y-81968568D01*
X107784726Y-81900086D01*
X107807135Y-81848600D01*
X107842124Y-81808443D01*
X107869375Y-81787861D01*
X107918907Y-81765625D01*
X107976316Y-81755304D01*
X108029682Y-81758067D01*
X108059543Y-81769212D01*
X108071261Y-81772383D01*
X108079037Y-81760557D01*
X108084465Y-81728866D01*
X108088571Y-81680593D01*
X108093067Y-81626829D01*
X108099313Y-81594482D01*
X108110676Y-81575985D01*
X108130528Y-81563770D01*
X108143000Y-81558362D01*
X108190171Y-81538601D01*
X108190117Y-81875358D01*
G37*
X108190117Y-81875358D02*
X108189933Y-81983837D01*
X108189219Y-82067287D01*
X108187675Y-82129704D01*
X108185001Y-82175085D01*
X108180894Y-82207429D01*
X108175055Y-82230733D01*
X108167182Y-82248995D01*
X108161221Y-82259418D01*
X108111855Y-82315945D01*
X108049264Y-82351377D01*
X107980013Y-82364090D01*
X107910668Y-82352463D01*
X107869375Y-82331568D01*
X107826025Y-82295422D01*
X107796481Y-82251276D01*
X107778655Y-82193462D01*
X107770463Y-82116313D01*
X107769302Y-82059714D01*
X107769458Y-82055647D01*
X107870857Y-82055647D01*
X107871476Y-82120550D01*
X107874314Y-82163514D01*
X107880840Y-82191622D01*
X107892523Y-82211953D01*
X107906483Y-82227288D01*
X107953365Y-82256890D01*
X108003701Y-82259419D01*
X108051276Y-82234705D01*
X108054979Y-82231356D01*
X108070783Y-82213935D01*
X108080693Y-82193209D01*
X108086058Y-82162362D01*
X108088228Y-82114577D01*
X108088571Y-82061748D01*
X108087827Y-81995381D01*
X108084748Y-81951106D01*
X108078061Y-81922009D01*
X108066496Y-81901173D01*
X108057013Y-81890107D01*
X108012960Y-81862198D01*
X107962224Y-81858843D01*
X107913796Y-81880159D01*
X107904450Y-81888073D01*
X107888540Y-81905647D01*
X107878610Y-81926587D01*
X107873278Y-81957782D01*
X107871163Y-82006122D01*
X107870857Y-82055647D01*
X107769458Y-82055647D01*
X107772810Y-81968568D01*
X107784726Y-81900086D01*
X107807135Y-81848600D01*
X107842124Y-81808443D01*
X107869375Y-81787861D01*
X107918907Y-81765625D01*
X107976316Y-81755304D01*
X108029682Y-81758067D01*
X108059543Y-81769212D01*
X108071261Y-81772383D01*
X108079037Y-81760557D01*
X108084465Y-81728866D01*
X108088571Y-81680593D01*
X108093067Y-81626829D01*
X108099313Y-81594482D01*
X108110676Y-81575985D01*
X108130528Y-81563770D01*
X108143000Y-81558362D01*
X108190171Y-81538601D01*
X108190117Y-81875358D01*
G36*
X108779833Y-81768663D02*
G01*
X108782048Y-81806850D01*
X108783784Y-81864886D01*
X108784899Y-81938180D01*
X108785257Y-82015055D01*
X108785257Y-82275196D01*
X108739326Y-82321127D01*
X108707675Y-82349429D01*
X108679890Y-82360893D01*
X108641915Y-82360168D01*
X108626840Y-82358321D01*
X108579726Y-82352948D01*
X108540756Y-82349869D01*
X108531257Y-82349585D01*
X108499233Y-82351445D01*
X108453432Y-82356114D01*
X108435674Y-82358321D01*
X108392057Y-82361735D01*
X108362745Y-82354320D01*
X108333680Y-82331427D01*
X108323188Y-82321127D01*
X108277257Y-82275196D01*
X108277257Y-81788602D01*
X108314226Y-81771758D01*
X108346059Y-81759282D01*
X108364683Y-81754914D01*
X108369458Y-81768718D01*
X108373921Y-81807286D01*
X108377775Y-81866356D01*
X108380722Y-81941663D01*
X108382143Y-82005286D01*
X108386114Y-82255657D01*
X108420759Y-82260556D01*
X108452268Y-82257131D01*
X108467708Y-82246041D01*
X108472023Y-82225308D01*
X108475708Y-82181145D01*
X108478469Y-82119146D01*
X108480012Y-82044909D01*
X108480235Y-82006706D01*
X108480457Y-81786783D01*
X108526166Y-81770849D01*
X108558518Y-81760015D01*
X108576115Y-81754962D01*
X108576623Y-81754914D01*
X108578388Y-81768648D01*
X108580329Y-81806730D01*
X108582282Y-81864482D01*
X108584084Y-81937227D01*
X108585343Y-82005286D01*
X108589314Y-82255657D01*
X108676400Y-82255657D01*
X108680396Y-82027240D01*
X108684392Y-81798822D01*
X108726847Y-81776868D01*
X108758192Y-81761793D01*
X108776744Y-81754951D01*
X108777279Y-81754914D01*
X108779833Y-81768663D01*
G37*
X108779833Y-81768663D02*
X108782048Y-81806850D01*
X108783784Y-81864886D01*
X108784899Y-81938180D01*
X108785257Y-82015055D01*
X108785257Y-82275196D01*
X108739326Y-82321127D01*
X108707675Y-82349429D01*
X108679890Y-82360893D01*
X108641915Y-82360168D01*
X108626840Y-82358321D01*
X108579726Y-82352948D01*
X108540756Y-82349869D01*
X108531257Y-82349585D01*
X108499233Y-82351445D01*
X108453432Y-82356114D01*
X108435674Y-82358321D01*
X108392057Y-82361735D01*
X108362745Y-82354320D01*
X108333680Y-82331427D01*
X108323188Y-82321127D01*
X108277257Y-82275196D01*
X108277257Y-81788602D01*
X108314226Y-81771758D01*
X108346059Y-81759282D01*
X108364683Y-81754914D01*
X108369458Y-81768718D01*
X108373921Y-81807286D01*
X108377775Y-81866356D01*
X108380722Y-81941663D01*
X108382143Y-82005286D01*
X108386114Y-82255657D01*
X108420759Y-82260556D01*
X108452268Y-82257131D01*
X108467708Y-82246041D01*
X108472023Y-82225308D01*
X108475708Y-82181145D01*
X108478469Y-82119146D01*
X108480012Y-82044909D01*
X108480235Y-82006706D01*
X108480457Y-81786783D01*
X108526166Y-81770849D01*
X108558518Y-81760015D01*
X108576115Y-81754962D01*
X108576623Y-81754914D01*
X108578388Y-81768648D01*
X108580329Y-81806730D01*
X108582282Y-81864482D01*
X108584084Y-81937227D01*
X108585343Y-82005286D01*
X108589314Y-82255657D01*
X108676400Y-82255657D01*
X108680396Y-82027240D01*
X108684392Y-81798822D01*
X108726847Y-81776868D01*
X108758192Y-81761793D01*
X108776744Y-81754951D01*
X108777279Y-81754914D01*
X108779833Y-81768663D01*
G36*
X109144876Y-81766335D02*
G01*
X109186667Y-81785344D01*
X109219469Y-81808378D01*
X109243503Y-81834133D01*
X109260097Y-81867358D01*
X109270577Y-81912800D01*
X109276271Y-81975207D01*
X109278507Y-82059327D01*
X109278743Y-82114721D01*
X109278743Y-82330826D01*
X109241774Y-82347670D01*
X109212656Y-82359981D01*
X109198231Y-82364514D01*
X109195472Y-82351025D01*
X109193282Y-82314653D01*
X109191942Y-82261542D01*
X109191657Y-82219372D01*
X109190434Y-82158447D01*
X109187136Y-82110115D01*
X109182321Y-82080518D01*
X109178496Y-82074229D01*
X109152783Y-82080652D01*
X109112418Y-82097125D01*
X109065679Y-82119458D01*
X109020845Y-82143457D01*
X108986193Y-82164930D01*
X108970002Y-82179685D01*
X108969938Y-82179845D01*
X108971330Y-82207152D01*
X108983818Y-82233219D01*
X109005743Y-82254392D01*
X109037743Y-82261474D01*
X109065092Y-82260649D01*
X109103826Y-82260042D01*
X109124158Y-82269116D01*
X109136369Y-82293092D01*
X109137909Y-82297613D01*
X109143203Y-82331806D01*
X109129047Y-82352568D01*
X109092148Y-82362462D01*
X109052289Y-82364292D01*
X108980562Y-82350727D01*
X108943432Y-82331355D01*
X108897576Y-82285845D01*
X108873256Y-82229983D01*
X108871073Y-82170957D01*
X108891629Y-82115953D01*
X108922549Y-82081486D01*
X108953420Y-82062189D01*
X109001942Y-82037759D01*
X109058485Y-82012985D01*
X109067910Y-82009199D01*
X109130019Y-81981791D01*
X109165822Y-81957634D01*
X109177337Y-81933619D01*
X109166580Y-81906635D01*
X109148114Y-81885543D01*
X109104469Y-81859572D01*
X109056446Y-81857624D01*
X109012406Y-81877637D01*
X108980709Y-81917551D01*
X108976549Y-81927848D01*
X108952327Y-81965724D01*
X108916965Y-81993842D01*
X108872343Y-82016917D01*
X108872343Y-81951485D01*
X108874969Y-81911506D01*
X108886230Y-81879997D01*
X108911199Y-81846378D01*
X108935169Y-81820484D01*
X108972441Y-81783817D01*
X109001401Y-81764121D01*
X109032505Y-81756220D01*
X109067713Y-81754914D01*
X109144876Y-81766335D01*
G37*
X109144876Y-81766335D02*
X109186667Y-81785344D01*
X109219469Y-81808378D01*
X109243503Y-81834133D01*
X109260097Y-81867358D01*
X109270577Y-81912800D01*
X109276271Y-81975207D01*
X109278507Y-82059327D01*
X109278743Y-82114721D01*
X109278743Y-82330826D01*
X109241774Y-82347670D01*
X109212656Y-82359981D01*
X109198231Y-82364514D01*
X109195472Y-82351025D01*
X109193282Y-82314653D01*
X109191942Y-82261542D01*
X109191657Y-82219372D01*
X109190434Y-82158447D01*
X109187136Y-82110115D01*
X109182321Y-82080518D01*
X109178496Y-82074229D01*
X109152783Y-82080652D01*
X109112418Y-82097125D01*
X109065679Y-82119458D01*
X109020845Y-82143457D01*
X108986193Y-82164930D01*
X108970002Y-82179685D01*
X108969938Y-82179845D01*
X108971330Y-82207152D01*
X108983818Y-82233219D01*
X109005743Y-82254392D01*
X109037743Y-82261474D01*
X109065092Y-82260649D01*
X109103826Y-82260042D01*
X109124158Y-82269116D01*
X109136369Y-82293092D01*
X109137909Y-82297613D01*
X109143203Y-82331806D01*
X109129047Y-82352568D01*
X109092148Y-82362462D01*
X109052289Y-82364292D01*
X108980562Y-82350727D01*
X108943432Y-82331355D01*
X108897576Y-82285845D01*
X108873256Y-82229983D01*
X108871073Y-82170957D01*
X108891629Y-82115953D01*
X108922549Y-82081486D01*
X108953420Y-82062189D01*
X109001942Y-82037759D01*
X109058485Y-82012985D01*
X109067910Y-82009199D01*
X109130019Y-81981791D01*
X109165822Y-81957634D01*
X109177337Y-81933619D01*
X109166580Y-81906635D01*
X109148114Y-81885543D01*
X109104469Y-81859572D01*
X109056446Y-81857624D01*
X109012406Y-81877637D01*
X108980709Y-81917551D01*
X108976549Y-81927848D01*
X108952327Y-81965724D01*
X108916965Y-81993842D01*
X108872343Y-82016917D01*
X108872343Y-81951485D01*
X108874969Y-81911506D01*
X108886230Y-81879997D01*
X108911199Y-81846378D01*
X108935169Y-81820484D01*
X108972441Y-81783817D01*
X109001401Y-81764121D01*
X109032505Y-81756220D01*
X109067713Y-81754914D01*
X109144876Y-81766335D01*
G36*
X109652600Y-81768752D02*
G01*
X109669948Y-81776334D01*
X109711356Y-81809128D01*
X109746765Y-81856547D01*
X109768664Y-81907151D01*
X109772229Y-81932098D01*
X109760279Y-81966927D01*
X109734067Y-81985357D01*
X109705964Y-81996516D01*
X109693095Y-81998572D01*
X109686829Y-81983649D01*
X109674456Y-81951175D01*
X109669028Y-81936502D01*
X109638590Y-81885744D01*
X109594520Y-81860427D01*
X109538010Y-81861206D01*
X109533825Y-81862203D01*
X109503655Y-81876507D01*
X109481476Y-81904393D01*
X109466327Y-81949287D01*
X109457250Y-82014615D01*
X109453286Y-82103804D01*
X109452914Y-82151261D01*
X109452730Y-82226071D01*
X109451522Y-82277069D01*
X109448309Y-82309471D01*
X109442109Y-82328495D01*
X109431940Y-82339356D01*
X109416819Y-82347272D01*
X109415946Y-82347670D01*
X109386828Y-82359981D01*
X109372403Y-82364514D01*
X109370186Y-82350809D01*
X109368289Y-82312925D01*
X109366847Y-82255715D01*
X109365998Y-82184027D01*
X109365829Y-82131565D01*
X109366692Y-82030047D01*
X109370070Y-81953032D01*
X109377142Y-81896023D01*
X109389088Y-81854526D01*
X109407090Y-81824043D01*
X109432327Y-81800080D01*
X109457247Y-81783355D01*
X109517171Y-81761097D01*
X109586911Y-81756076D01*
X109652600Y-81768752D01*
G37*
X109652600Y-81768752D02*
X109669948Y-81776334D01*
X109711356Y-81809128D01*
X109746765Y-81856547D01*
X109768664Y-81907151D01*
X109772229Y-81932098D01*
X109760279Y-81966927D01*
X109734067Y-81985357D01*
X109705964Y-81996516D01*
X109693095Y-81998572D01*
X109686829Y-81983649D01*
X109674456Y-81951175D01*
X109669028Y-81936502D01*
X109638590Y-81885744D01*
X109594520Y-81860427D01*
X109538010Y-81861206D01*
X109533825Y-81862203D01*
X109503655Y-81876507D01*
X109481476Y-81904393D01*
X109466327Y-81949287D01*
X109457250Y-82014615D01*
X109453286Y-82103804D01*
X109452914Y-82151261D01*
X109452730Y-82226071D01*
X109451522Y-82277069D01*
X109448309Y-82309471D01*
X109442109Y-82328495D01*
X109431940Y-82339356D01*
X109416819Y-82347272D01*
X109415946Y-82347670D01*
X109386828Y-82359981D01*
X109372403Y-82364514D01*
X109370186Y-82350809D01*
X109368289Y-82312925D01*
X109366847Y-82255715D01*
X109365998Y-82184027D01*
X109365829Y-82131565D01*
X109366692Y-82030047D01*
X109370070Y-81953032D01*
X109377142Y-81896023D01*
X109389088Y-81854526D01*
X109407090Y-81824043D01*
X109432327Y-81800080D01*
X109457247Y-81783355D01*
X109517171Y-81761097D01*
X109586911Y-81756076D01*
X109652600Y-81768752D01*
G36*
X110153595Y-81776966D02*
G01*
X110211021Y-81814497D01*
X110238719Y-81848096D01*
X110260662Y-81909064D01*
X110262405Y-81957308D01*
X110258457Y-82021816D01*
X110109686Y-82086934D01*
X110037349Y-82120202D01*
X109990084Y-82146964D01*
X109965507Y-82170144D01*
X109961237Y-82192667D01*
X109974889Y-82217455D01*
X109989943Y-82233886D01*
X110033746Y-82260235D01*
X110081389Y-82262081D01*
X110125145Y-82241546D01*
X110157289Y-82200752D01*
X110163038Y-82186347D01*
X110190576Y-82141356D01*
X110222258Y-82122182D01*
X110265714Y-82105779D01*
X110265714Y-82167966D01*
X110261872Y-82210283D01*
X110246823Y-82245969D01*
X110215280Y-82286943D01*
X110210592Y-82292267D01*
X110175506Y-82328720D01*
X110145347Y-82348283D01*
X110107615Y-82357283D01*
X110076335Y-82360230D01*
X110020385Y-82360965D01*
X109980555Y-82351660D01*
X109955708Y-82337846D01*
X109916656Y-82307467D01*
X109889625Y-82274613D01*
X109872517Y-82233294D01*
X109863238Y-82177521D01*
X109859693Y-82101305D01*
X109859410Y-82062622D01*
X109860372Y-82016247D01*
X109948007Y-82016247D01*
X109949023Y-82041126D01*
X109951556Y-82045200D01*
X109968274Y-82039665D01*
X110004249Y-82025017D01*
X110052331Y-82004190D01*
X110062386Y-81999714D01*
X110123152Y-81968814D01*
X110156632Y-81941657D01*
X110163990Y-81916220D01*
X110146391Y-81890481D01*
X110131856Y-81879109D01*
X110079410Y-81856364D01*
X110030322Y-81860122D01*
X109989227Y-81887884D01*
X109960758Y-81937152D01*
X109951631Y-81976257D01*
X109948007Y-82016247D01*
X109860372Y-82016247D01*
X109861285Y-81972249D01*
X109868196Y-81905384D01*
X109881884Y-81856695D01*
X109904096Y-81820849D01*
X109936574Y-81792513D01*
X109950733Y-81783355D01*
X110015053Y-81759507D01*
X110085473Y-81758006D01*
X110153595Y-81776966D01*
G37*
X110153595Y-81776966D02*
X110211021Y-81814497D01*
X110238719Y-81848096D01*
X110260662Y-81909064D01*
X110262405Y-81957308D01*
X110258457Y-82021816D01*
X110109686Y-82086934D01*
X110037349Y-82120202D01*
X109990084Y-82146964D01*
X109965507Y-82170144D01*
X109961237Y-82192667D01*
X109974889Y-82217455D01*
X109989943Y-82233886D01*
X110033746Y-82260235D01*
X110081389Y-82262081D01*
X110125145Y-82241546D01*
X110157289Y-82200752D01*
X110163038Y-82186347D01*
X110190576Y-82141356D01*
X110222258Y-82122182D01*
X110265714Y-82105779D01*
X110265714Y-82167966D01*
X110261872Y-82210283D01*
X110246823Y-82245969D01*
X110215280Y-82286943D01*
X110210592Y-82292267D01*
X110175506Y-82328720D01*
X110145347Y-82348283D01*
X110107615Y-82357283D01*
X110076335Y-82360230D01*
X110020385Y-82360965D01*
X109980555Y-82351660D01*
X109955708Y-82337846D01*
X109916656Y-82307467D01*
X109889625Y-82274613D01*
X109872517Y-82233294D01*
X109863238Y-82177521D01*
X109859693Y-82101305D01*
X109859410Y-82062622D01*
X109860372Y-82016247D01*
X109948007Y-82016247D01*
X109949023Y-82041126D01*
X109951556Y-82045200D01*
X109968274Y-82039665D01*
X110004249Y-82025017D01*
X110052331Y-82004190D01*
X110062386Y-81999714D01*
X110123152Y-81968814D01*
X110156632Y-81941657D01*
X110163990Y-81916220D01*
X110146391Y-81890481D01*
X110131856Y-81879109D01*
X110079410Y-81856364D01*
X110030322Y-81860122D01*
X109989227Y-81887884D01*
X109960758Y-81937152D01*
X109951631Y-81976257D01*
X109948007Y-82016247D01*
X109860372Y-82016247D01*
X109861285Y-81972249D01*
X109868196Y-81905384D01*
X109881884Y-81856695D01*
X109904096Y-81820849D01*
X109936574Y-81792513D01*
X109950733Y-81783355D01*
X110015053Y-81759507D01*
X110085473Y-81758006D01*
X110153595Y-81776966D01*
G36*
X107103910Y-77052348D02*
G01*
X107182454Y-77052778D01*
X107239298Y-77053942D01*
X107278105Y-77056207D01*
X107302538Y-77059940D01*
X107316262Y-77065506D01*
X107322940Y-77073273D01*
X107326236Y-77083605D01*
X107326556Y-77084943D01*
X107331562Y-77109079D01*
X107340829Y-77156701D01*
X107353392Y-77222741D01*
X107368287Y-77302128D01*
X107384551Y-77389796D01*
X107385119Y-77392875D01*
X107401410Y-77478789D01*
X107416652Y-77554696D01*
X107429861Y-77616045D01*
X107440054Y-77658282D01*
X107446248Y-77676855D01*
X107446543Y-77677184D01*
X107464788Y-77686253D01*
X107502405Y-77701367D01*
X107551271Y-77719262D01*
X107551543Y-77719358D01*
X107613093Y-77742493D01*
X107685657Y-77771965D01*
X107754057Y-77801597D01*
X107757294Y-77803062D01*
X107868702Y-77853626D01*
X108115399Y-77685160D01*
X108191077Y-77633803D01*
X108259631Y-77587889D01*
X108317088Y-77550030D01*
X108359476Y-77522837D01*
X108382825Y-77508921D01*
X108385042Y-77507889D01*
X108402010Y-77512484D01*
X108433701Y-77534655D01*
X108481352Y-77575447D01*
X108546198Y-77635905D01*
X108612397Y-77700227D01*
X108676214Y-77763612D01*
X108733329Y-77821451D01*
X108780305Y-77870175D01*
X108813703Y-77906210D01*
X108830085Y-77925984D01*
X108830694Y-77927002D01*
X108832505Y-77940572D01*
X108825683Y-77962733D01*
X108808540Y-77996478D01*
X108779393Y-78044800D01*
X108736555Y-78110692D01*
X108679448Y-78195517D01*
X108628766Y-78270177D01*
X108583461Y-78337140D01*
X108546150Y-78392516D01*
X108519452Y-78432420D01*
X108505985Y-78452962D01*
X108505137Y-78454356D01*
X108506781Y-78474038D01*
X108519245Y-78512293D01*
X108540048Y-78561889D01*
X108547462Y-78577728D01*
X108579814Y-78648290D01*
X108614328Y-78728353D01*
X108642365Y-78797629D01*
X108662568Y-78849045D01*
X108678615Y-78888119D01*
X108687888Y-78908541D01*
X108689041Y-78910114D01*
X108706096Y-78912721D01*
X108746298Y-78919863D01*
X108804302Y-78930523D01*
X108874763Y-78943685D01*
X108952335Y-78958333D01*
X109031672Y-78973449D01*
X109107431Y-78988018D01*
X109174264Y-79001022D01*
X109226828Y-79011445D01*
X109259776Y-79018270D01*
X109267857Y-79020199D01*
X109276205Y-79024962D01*
X109282506Y-79035718D01*
X109287045Y-79056098D01*
X109290104Y-79089734D01*
X109291967Y-79140255D01*
X109292918Y-79211292D01*
X109293240Y-79306476D01*
X109293257Y-79345492D01*
X109293257Y-79662799D01*
X109217057Y-79677839D01*
X109174663Y-79685995D01*
X109111400Y-79697899D01*
X109034962Y-79712116D01*
X108953043Y-79727210D01*
X108930400Y-79731355D01*
X108854806Y-79746053D01*
X108788953Y-79760505D01*
X108738366Y-79773375D01*
X108708574Y-79783322D01*
X108703612Y-79786287D01*
X108691426Y-79807283D01*
X108673953Y-79847967D01*
X108654577Y-79900322D01*
X108650734Y-79911600D01*
X108625339Y-79981523D01*
X108593817Y-80060418D01*
X108562969Y-80131266D01*
X108562817Y-80131595D01*
X108511447Y-80242733D01*
X108680399Y-80491253D01*
X108849352Y-80739772D01*
X108632429Y-80957058D01*
X108566819Y-81021726D01*
X108506979Y-81078733D01*
X108456267Y-81125033D01*
X108418046Y-81157584D01*
X108395675Y-81173343D01*
X108392466Y-81174343D01*
X108373626Y-81166469D01*
X108335180Y-81144578D01*
X108281330Y-81111267D01*
X108216276Y-81069131D01*
X108145940Y-81021943D01*
X108074555Y-80973810D01*
X108010908Y-80931928D01*
X107959041Y-80898871D01*
X107922995Y-80877218D01*
X107906867Y-80869543D01*
X107887189Y-80876037D01*
X107849875Y-80893150D01*
X107802621Y-80917326D01*
X107797612Y-80920013D01*
X107733977Y-80951927D01*
X107690341Y-80967579D01*
X107663202Y-80967745D01*
X107649057Y-80953204D01*
X107648975Y-80953000D01*
X107641905Y-80935779D01*
X107625042Y-80894899D01*
X107599695Y-80833525D01*
X107567171Y-80754819D01*
X107528778Y-80661947D01*
X107485822Y-80558072D01*
X107444222Y-80457502D01*
X107398504Y-80346516D01*
X107356526Y-80243703D01*
X107319548Y-80152215D01*
X107288827Y-80075201D01*
X107265622Y-80015815D01*
X107251190Y-79977209D01*
X107246743Y-79962800D01*
X107257896Y-79946272D01*
X107287069Y-79919930D01*
X107325971Y-79890887D01*
X107436757Y-79799039D01*
X107523351Y-79693759D01*
X107584716Y-79577266D01*
X107619815Y-79451776D01*
X107627608Y-79319507D01*
X107621943Y-79258457D01*
X107591078Y-79131795D01*
X107537920Y-79019941D01*
X107465767Y-78924001D01*
X107377917Y-78845076D01*
X107277665Y-78784270D01*
X107168310Y-78742687D01*
X107053147Y-78721428D01*
X106935475Y-78721599D01*
X106818590Y-78744301D01*
X106705789Y-78790638D01*
X106600369Y-78861713D01*
X106556368Y-78901911D01*
X106471979Y-79005129D01*
X106413222Y-79117925D01*
X106379704Y-79237010D01*
X106371035Y-79359095D01*
X106386823Y-79480893D01*
X106426678Y-79599116D01*
X106490207Y-79710475D01*
X106577021Y-79811684D01*
X106674029Y-79890887D01*
X106714437Y-79921162D01*
X106742982Y-79947219D01*
X106753257Y-79962825D01*
X106747877Y-79979843D01*
X106732575Y-80020500D01*
X106708612Y-80081642D01*
X106677244Y-80160119D01*
X106639732Y-80252780D01*
X106597333Y-80356472D01*
X106555663Y-80457526D01*
X106509690Y-80568607D01*
X106467107Y-80671541D01*
X106429221Y-80763165D01*
X106397340Y-80840316D01*
X106372771Y-80899831D01*
X106356820Y-80938544D01*
X106350910Y-80953000D01*
X106336948Y-80967685D01*
X106309940Y-80967642D01*
X106266413Y-80952099D01*
X106202890Y-80920284D01*
X106202388Y-80920013D01*
X106154560Y-80895323D01*
X106115897Y-80877338D01*
X106094095Y-80869614D01*
X106093133Y-80869543D01*
X106076721Y-80877378D01*
X106040487Y-80899165D01*
X105988474Y-80932328D01*
X105924725Y-80974291D01*
X105854060Y-81021943D01*
X105782116Y-81070191D01*
X105717274Y-81112151D01*
X105663735Y-81145227D01*
X105625697Y-81166821D01*
X105607533Y-81174343D01*
X105590808Y-81164457D01*
X105557180Y-81136826D01*
X105510010Y-81094495D01*
X105452658Y-81040505D01*
X105388484Y-80977899D01*
X105367497Y-80956983D01*
X105150499Y-80739623D01*
X105315668Y-80497220D01*
X105365864Y-80422781D01*
X105409919Y-80355972D01*
X105445362Y-80300665D01*
X105469719Y-80260729D01*
X105480522Y-80240036D01*
X105480838Y-80238563D01*
X105475143Y-80219058D01*
X105459826Y-80179822D01*
X105437537Y-80127430D01*
X105421893Y-80092355D01*
X105392641Y-80025201D01*
X105365094Y-79957358D01*
X105343737Y-79900034D01*
X105337935Y-79882572D01*
X105321452Y-79835938D01*
X105305340Y-79799905D01*
X105296490Y-79786287D01*
X105276960Y-79777952D01*
X105234334Y-79766137D01*
X105174145Y-79752181D01*
X105101922Y-79737422D01*
X105069600Y-79731355D01*
X104987522Y-79716273D01*
X104908795Y-79701669D01*
X104841109Y-79688980D01*
X104792160Y-79679642D01*
X104782943Y-79677839D01*
X104706743Y-79662799D01*
X104706743Y-79345492D01*
X104706914Y-79241154D01*
X104707616Y-79162213D01*
X104709134Y-79105038D01*
X104711749Y-79065999D01*
X104715746Y-79041465D01*
X104721409Y-79027805D01*
X104729020Y-79021389D01*
X104732143Y-79020199D01*
X104750978Y-79015980D01*
X104792588Y-79007562D01*
X104851630Y-78995961D01*
X104922757Y-78982195D01*
X105000625Y-78967280D01*
X105079887Y-78952232D01*
X105155198Y-78938069D01*
X105221213Y-78925806D01*
X105272587Y-78916461D01*
X105303975Y-78911050D01*
X105310959Y-78910114D01*
X105317285Y-78897596D01*
X105331290Y-78864246D01*
X105350355Y-78816377D01*
X105357634Y-78797629D01*
X105386996Y-78725195D01*
X105421571Y-78645170D01*
X105452537Y-78577728D01*
X105475323Y-78526159D01*
X105490482Y-78483785D01*
X105495542Y-78457834D01*
X105494736Y-78454356D01*
X105484041Y-78437936D01*
X105459620Y-78401417D01*
X105424095Y-78348687D01*
X105380087Y-78283635D01*
X105330217Y-78210151D01*
X105320356Y-78195645D01*
X105262492Y-78109704D01*
X105219956Y-78044261D01*
X105191054Y-77996304D01*
X105174090Y-77962820D01*
X105167367Y-77940795D01*
X105169190Y-77927217D01*
X105169236Y-77927131D01*
X105183586Y-77909297D01*
X105215323Y-77874817D01*
X105261010Y-77827268D01*
X105317204Y-77770222D01*
X105380468Y-77707255D01*
X105387602Y-77700227D01*
X105467330Y-77623020D01*
X105528857Y-77566330D01*
X105573421Y-77529110D01*
X105602257Y-77510315D01*
X105614958Y-77507889D01*
X105633494Y-77518471D01*
X105671961Y-77542916D01*
X105726386Y-77578612D01*
X105792798Y-77622947D01*
X105867225Y-77673311D01*
X105884601Y-77685160D01*
X106131297Y-77853626D01*
X106242706Y-77803062D01*
X106310457Y-77773595D01*
X106383183Y-77743959D01*
X106445703Y-77720330D01*
X106448457Y-77719358D01*
X106497360Y-77701457D01*
X106535057Y-77686320D01*
X106553425Y-77677210D01*
X106553456Y-77677184D01*
X106559285Y-77660717D01*
X106569192Y-77620219D01*
X106582195Y-77560242D01*
X106597309Y-77485340D01*
X106613552Y-77400064D01*
X106614881Y-77392875D01*
X106631175Y-77305014D01*
X106646133Y-77225260D01*
X106658791Y-77158681D01*
X106668186Y-77110347D01*
X106673354Y-77085325D01*
X106673444Y-77084943D01*
X106676589Y-77074299D01*
X106682704Y-77066262D01*
X106695453Y-77060467D01*
X106718500Y-77056547D01*
X106755509Y-77054135D01*
X106810144Y-77052865D01*
X106886067Y-77052371D01*
X106986944Y-77052286D01*
X107000000Y-77052286D01*
X107103910Y-77052348D01*
G37*
X107103910Y-77052348D02*
X107182454Y-77052778D01*
X107239298Y-77053942D01*
X107278105Y-77056207D01*
X107302538Y-77059940D01*
X107316262Y-77065506D01*
X107322940Y-77073273D01*
X107326236Y-77083605D01*
X107326556Y-77084943D01*
X107331562Y-77109079D01*
X107340829Y-77156701D01*
X107353392Y-77222741D01*
X107368287Y-77302128D01*
X107384551Y-77389796D01*
X107385119Y-77392875D01*
X107401410Y-77478789D01*
X107416652Y-77554696D01*
X107429861Y-77616045D01*
X107440054Y-77658282D01*
X107446248Y-77676855D01*
X107446543Y-77677184D01*
X107464788Y-77686253D01*
X107502405Y-77701367D01*
X107551271Y-77719262D01*
X107551543Y-77719358D01*
X107613093Y-77742493D01*
X107685657Y-77771965D01*
X107754057Y-77801597D01*
X107757294Y-77803062D01*
X107868702Y-77853626D01*
X108115399Y-77685160D01*
X108191077Y-77633803D01*
X108259631Y-77587889D01*
X108317088Y-77550030D01*
X108359476Y-77522837D01*
X108382825Y-77508921D01*
X108385042Y-77507889D01*
X108402010Y-77512484D01*
X108433701Y-77534655D01*
X108481352Y-77575447D01*
X108546198Y-77635905D01*
X108612397Y-77700227D01*
X108676214Y-77763612D01*
X108733329Y-77821451D01*
X108780305Y-77870175D01*
X108813703Y-77906210D01*
X108830085Y-77925984D01*
X108830694Y-77927002D01*
X108832505Y-77940572D01*
X108825683Y-77962733D01*
X108808540Y-77996478D01*
X108779393Y-78044800D01*
X108736555Y-78110692D01*
X108679448Y-78195517D01*
X108628766Y-78270177D01*
X108583461Y-78337140D01*
X108546150Y-78392516D01*
X108519452Y-78432420D01*
X108505985Y-78452962D01*
X108505137Y-78454356D01*
X108506781Y-78474038D01*
X108519245Y-78512293D01*
X108540048Y-78561889D01*
X108547462Y-78577728D01*
X108579814Y-78648290D01*
X108614328Y-78728353D01*
X108642365Y-78797629D01*
X108662568Y-78849045D01*
X108678615Y-78888119D01*
X108687888Y-78908541D01*
X108689041Y-78910114D01*
X108706096Y-78912721D01*
X108746298Y-78919863D01*
X108804302Y-78930523D01*
X108874763Y-78943685D01*
X108952335Y-78958333D01*
X109031672Y-78973449D01*
X109107431Y-78988018D01*
X109174264Y-79001022D01*
X109226828Y-79011445D01*
X109259776Y-79018270D01*
X109267857Y-79020199D01*
X109276205Y-79024962D01*
X109282506Y-79035718D01*
X109287045Y-79056098D01*
X109290104Y-79089734D01*
X109291967Y-79140255D01*
X109292918Y-79211292D01*
X109293240Y-79306476D01*
X109293257Y-79345492D01*
X109293257Y-79662799D01*
X109217057Y-79677839D01*
X109174663Y-79685995D01*
X109111400Y-79697899D01*
X109034962Y-79712116D01*
X108953043Y-79727210D01*
X108930400Y-79731355D01*
X108854806Y-79746053D01*
X108788953Y-79760505D01*
X108738366Y-79773375D01*
X108708574Y-79783322D01*
X108703612Y-79786287D01*
X108691426Y-79807283D01*
X108673953Y-79847967D01*
X108654577Y-79900322D01*
X108650734Y-79911600D01*
X108625339Y-79981523D01*
X108593817Y-80060418D01*
X108562969Y-80131266D01*
X108562817Y-80131595D01*
X108511447Y-80242733D01*
X108680399Y-80491253D01*
X108849352Y-80739772D01*
X108632429Y-80957058D01*
X108566819Y-81021726D01*
X108506979Y-81078733D01*
X108456267Y-81125033D01*
X108418046Y-81157584D01*
X108395675Y-81173343D01*
X108392466Y-81174343D01*
X108373626Y-81166469D01*
X108335180Y-81144578D01*
X108281330Y-81111267D01*
X108216276Y-81069131D01*
X108145940Y-81021943D01*
X108074555Y-80973810D01*
X108010908Y-80931928D01*
X107959041Y-80898871D01*
X107922995Y-80877218D01*
X107906867Y-80869543D01*
X107887189Y-80876037D01*
X107849875Y-80893150D01*
X107802621Y-80917326D01*
X107797612Y-80920013D01*
X107733977Y-80951927D01*
X107690341Y-80967579D01*
X107663202Y-80967745D01*
X107649057Y-80953204D01*
X107648975Y-80953000D01*
X107641905Y-80935779D01*
X107625042Y-80894899D01*
X107599695Y-80833525D01*
X107567171Y-80754819D01*
X107528778Y-80661947D01*
X107485822Y-80558072D01*
X107444222Y-80457502D01*
X107398504Y-80346516D01*
X107356526Y-80243703D01*
X107319548Y-80152215D01*
X107288827Y-80075201D01*
X107265622Y-80015815D01*
X107251190Y-79977209D01*
X107246743Y-79962800D01*
X107257896Y-79946272D01*
X107287069Y-79919930D01*
X107325971Y-79890887D01*
X107436757Y-79799039D01*
X107523351Y-79693759D01*
X107584716Y-79577266D01*
X107619815Y-79451776D01*
X107627608Y-79319507D01*
X107621943Y-79258457D01*
X107591078Y-79131795D01*
X107537920Y-79019941D01*
X107465767Y-78924001D01*
X107377917Y-78845076D01*
X107277665Y-78784270D01*
X107168310Y-78742687D01*
X107053147Y-78721428D01*
X106935475Y-78721599D01*
X106818590Y-78744301D01*
X106705789Y-78790638D01*
X106600369Y-78861713D01*
X106556368Y-78901911D01*
X106471979Y-79005129D01*
X106413222Y-79117925D01*
X106379704Y-79237010D01*
X106371035Y-79359095D01*
X106386823Y-79480893D01*
X106426678Y-79599116D01*
X106490207Y-79710475D01*
X106577021Y-79811684D01*
X106674029Y-79890887D01*
X106714437Y-79921162D01*
X106742982Y-79947219D01*
X106753257Y-79962825D01*
X106747877Y-79979843D01*
X106732575Y-80020500D01*
X106708612Y-80081642D01*
X106677244Y-80160119D01*
X106639732Y-80252780D01*
X106597333Y-80356472D01*
X106555663Y-80457526D01*
X106509690Y-80568607D01*
X106467107Y-80671541D01*
X106429221Y-80763165D01*
X106397340Y-80840316D01*
X106372771Y-80899831D01*
X106356820Y-80938544D01*
X106350910Y-80953000D01*
X106336948Y-80967685D01*
X106309940Y-80967642D01*
X106266413Y-80952099D01*
X106202890Y-80920284D01*
X106202388Y-80920013D01*
X106154560Y-80895323D01*
X106115897Y-80877338D01*
X106094095Y-80869614D01*
X106093133Y-80869543D01*
X106076721Y-80877378D01*
X106040487Y-80899165D01*
X105988474Y-80932328D01*
X105924725Y-80974291D01*
X105854060Y-81021943D01*
X105782116Y-81070191D01*
X105717274Y-81112151D01*
X105663735Y-81145227D01*
X105625697Y-81166821D01*
X105607533Y-81174343D01*
X105590808Y-81164457D01*
X105557180Y-81136826D01*
X105510010Y-81094495D01*
X105452658Y-81040505D01*
X105388484Y-80977899D01*
X105367497Y-80956983D01*
X105150499Y-80739623D01*
X105315668Y-80497220D01*
X105365864Y-80422781D01*
X105409919Y-80355972D01*
X105445362Y-80300665D01*
X105469719Y-80260729D01*
X105480522Y-80240036D01*
X105480838Y-80238563D01*
X105475143Y-80219058D01*
X105459826Y-80179822D01*
X105437537Y-80127430D01*
X105421893Y-80092355D01*
X105392641Y-80025201D01*
X105365094Y-79957358D01*
X105343737Y-79900034D01*
X105337935Y-79882572D01*
X105321452Y-79835938D01*
X105305340Y-79799905D01*
X105296490Y-79786287D01*
X105276960Y-79777952D01*
X105234334Y-79766137D01*
X105174145Y-79752181D01*
X105101922Y-79737422D01*
X105069600Y-79731355D01*
X104987522Y-79716273D01*
X104908795Y-79701669D01*
X104841109Y-79688980D01*
X104792160Y-79679642D01*
X104782943Y-79677839D01*
X104706743Y-79662799D01*
X104706743Y-79345492D01*
X104706914Y-79241154D01*
X104707616Y-79162213D01*
X104709134Y-79105038D01*
X104711749Y-79065999D01*
X104715746Y-79041465D01*
X104721409Y-79027805D01*
X104729020Y-79021389D01*
X104732143Y-79020199D01*
X104750978Y-79015980D01*
X104792588Y-79007562D01*
X104851630Y-78995961D01*
X104922757Y-78982195D01*
X105000625Y-78967280D01*
X105079887Y-78952232D01*
X105155198Y-78938069D01*
X105221213Y-78925806D01*
X105272587Y-78916461D01*
X105303975Y-78911050D01*
X105310959Y-78910114D01*
X105317285Y-78897596D01*
X105331290Y-78864246D01*
X105350355Y-78816377D01*
X105357634Y-78797629D01*
X105386996Y-78725195D01*
X105421571Y-78645170D01*
X105452537Y-78577728D01*
X105475323Y-78526159D01*
X105490482Y-78483785D01*
X105495542Y-78457834D01*
X105494736Y-78454356D01*
X105484041Y-78437936D01*
X105459620Y-78401417D01*
X105424095Y-78348687D01*
X105380087Y-78283635D01*
X105330217Y-78210151D01*
X105320356Y-78195645D01*
X105262492Y-78109704D01*
X105219956Y-78044261D01*
X105191054Y-77996304D01*
X105174090Y-77962820D01*
X105167367Y-77940795D01*
X105169190Y-77927217D01*
X105169236Y-77927131D01*
X105183586Y-77909297D01*
X105215323Y-77874817D01*
X105261010Y-77827268D01*
X105317204Y-77770222D01*
X105380468Y-77707255D01*
X105387602Y-77700227D01*
X105467330Y-77623020D01*
X105528857Y-77566330D01*
X105573421Y-77529110D01*
X105602257Y-77510315D01*
X105614958Y-77507889D01*
X105633494Y-77518471D01*
X105671961Y-77542916D01*
X105726386Y-77578612D01*
X105792798Y-77622947D01*
X105867225Y-77673311D01*
X105884601Y-77685160D01*
X106131297Y-77853626D01*
X106242706Y-77803062D01*
X106310457Y-77773595D01*
X106383183Y-77743959D01*
X106445703Y-77720330D01*
X106448457Y-77719358D01*
X106497360Y-77701457D01*
X106535057Y-77686320D01*
X106553425Y-77677210D01*
X106553456Y-77677184D01*
X106559285Y-77660717D01*
X106569192Y-77620219D01*
X106582195Y-77560242D01*
X106597309Y-77485340D01*
X106613552Y-77400064D01*
X106614881Y-77392875D01*
X106631175Y-77305014D01*
X106646133Y-77225260D01*
X106658791Y-77158681D01*
X106668186Y-77110347D01*
X106673354Y-77085325D01*
X106673444Y-77084943D01*
X106676589Y-77074299D01*
X106682704Y-77066262D01*
X106695453Y-77060467D01*
X106718500Y-77056547D01*
X106755509Y-77054135D01*
X106810144Y-77052865D01*
X106886067Y-77052371D01*
X106986944Y-77052286D01*
X107000000Y-77052286D01*
X107103910Y-77052348D01*
%TO.C,GRAF1*%
G36*
X145935412Y-68852281D02*
G01*
X145998520Y-68853088D01*
X146071885Y-68853844D01*
X146153065Y-68854535D01*
X146239617Y-68855145D01*
X146329098Y-68855659D01*
X146419066Y-68856063D01*
X146507078Y-68856342D01*
X146590690Y-68856480D01*
X146621212Y-68856492D01*
X147016500Y-68856500D01*
X147016500Y-69262900D01*
X146032250Y-69262900D01*
X146032250Y-73358650D01*
X146629150Y-73358650D01*
X146629150Y-69847338D01*
X146484687Y-69845631D01*
X146340225Y-69843925D01*
X146338513Y-69705757D01*
X146336802Y-69567589D01*
X146676903Y-69569232D01*
X147017005Y-69570875D01*
X147018340Y-71667962D01*
X147019675Y-73765050D01*
X145644900Y-73765050D01*
X145644900Y-68848078D01*
X145935412Y-68852281D01*
G37*
X145935412Y-68852281D02*
X145998520Y-68853088D01*
X146071885Y-68853844D01*
X146153065Y-68854535D01*
X146239617Y-68855145D01*
X146329098Y-68855659D01*
X146419066Y-68856063D01*
X146507078Y-68856342D01*
X146590690Y-68856480D01*
X146621212Y-68856492D01*
X147016500Y-68856500D01*
X147016500Y-69262900D01*
X146032250Y-69262900D01*
X146032250Y-73358650D01*
X146629150Y-73358650D01*
X146629150Y-69847338D01*
X146484687Y-69845631D01*
X146340225Y-69843925D01*
X146338513Y-69705757D01*
X146336802Y-69567589D01*
X146676903Y-69569232D01*
X147017005Y-69570875D01*
X147018340Y-71667962D01*
X147019675Y-73765050D01*
X145644900Y-73765050D01*
X145644900Y-68848078D01*
X145935412Y-68852281D01*
G36*
X144598737Y-68851709D02*
G01*
X145286125Y-68853325D01*
X145287720Y-71309187D01*
X145289316Y-73765050D01*
X143911350Y-73765050D01*
X143911350Y-69262900D01*
X144305050Y-69262900D01*
X144305050Y-73358650D01*
X144895600Y-73358650D01*
X144895600Y-69262900D01*
X144305050Y-69262900D01*
X143911350Y-69262900D01*
X143911350Y-68850093D01*
X144598737Y-68851709D01*
G37*
X144598737Y-68851709D02*
X145286125Y-68853325D01*
X145287720Y-71309187D01*
X145289316Y-73765050D01*
X143911350Y-73765050D01*
X143911350Y-69262900D01*
X144305050Y-69262900D01*
X144305050Y-73358650D01*
X144895600Y-73358650D01*
X144895600Y-69262900D01*
X144305050Y-69262900D01*
X143911350Y-69262900D01*
X143911350Y-68850093D01*
X144598737Y-68851709D01*
G36*
X142566728Y-71105987D02*
G01*
X142568325Y-73355475D01*
X143062037Y-73357101D01*
X143555750Y-73358727D01*
X143555750Y-73765050D01*
X142177800Y-73765050D01*
X142177800Y-68856500D01*
X142565132Y-68856500D01*
X142566728Y-71105987D01*
G37*
X142566728Y-71105987D02*
X142568325Y-73355475D01*
X143062037Y-73357101D01*
X143555750Y-73358727D01*
X143555750Y-73765050D01*
X142177800Y-73765050D01*
X142177800Y-68856500D01*
X142565132Y-68856500D01*
X142566728Y-71105987D01*
G36*
X141820620Y-71309187D02*
G01*
X141822216Y-73765050D01*
X141434850Y-73765050D01*
X141434850Y-73358650D01*
X140837950Y-73358650D01*
X140837950Y-73765050D01*
X140444233Y-73765050D01*
X140445829Y-71309187D01*
X140447158Y-69262900D01*
X140837950Y-69262900D01*
X140837950Y-73085725D01*
X141134812Y-73084075D01*
X141431675Y-73082425D01*
X141433272Y-71172662D01*
X141434870Y-69262900D01*
X140837950Y-69262900D01*
X140447158Y-69262900D01*
X140447425Y-68853325D01*
X141819025Y-68853325D01*
X141820620Y-71309187D01*
G37*
X141820620Y-71309187D02*
X141822216Y-73765050D01*
X141434850Y-73765050D01*
X141434850Y-73358650D01*
X140837950Y-73358650D01*
X140837950Y-73765050D01*
X140444233Y-73765050D01*
X140445829Y-71309187D01*
X140447158Y-69262900D01*
X140837950Y-69262900D01*
X140837950Y-73085725D01*
X141134812Y-73084075D01*
X141431675Y-73082425D01*
X141433272Y-71172662D01*
X141434870Y-69262900D01*
X140837950Y-69262900D01*
X140447158Y-69262900D01*
X140447425Y-68853325D01*
X141819025Y-68853325D01*
X141820620Y-71309187D01*
G36*
X140088650Y-73765050D02*
G01*
X139701300Y-73765050D01*
X139701300Y-69262900D01*
X139104400Y-69262900D01*
X139104400Y-73765050D01*
X138717050Y-73765050D01*
X138715509Y-71513975D01*
X138715393Y-71343382D01*
X138715279Y-71174999D01*
X138715166Y-71009333D01*
X138715057Y-70846892D01*
X138714951Y-70688185D01*
X138714848Y-70533718D01*
X138714748Y-70383999D01*
X138714653Y-70239538D01*
X138714562Y-70100841D01*
X138714475Y-69968417D01*
X138714394Y-69842774D01*
X138714318Y-69724418D01*
X138714247Y-69613860D01*
X138714183Y-69511605D01*
X138714125Y-69418163D01*
X138714073Y-69334041D01*
X138714029Y-69259748D01*
X138713991Y-69195790D01*
X138713961Y-69142676D01*
X138713940Y-69100914D01*
X138713926Y-69071012D01*
X138713922Y-69058112D01*
X138713875Y-68853325D01*
X139401262Y-68853098D01*
X140088650Y-68852872D01*
X140088650Y-73765050D01*
G37*
X140088650Y-73765050D02*
X139701300Y-73765050D01*
X139701300Y-69262900D01*
X139104400Y-69262900D01*
X139104400Y-73765050D01*
X138717050Y-73765050D01*
X138715509Y-71513975D01*
X138715393Y-71343382D01*
X138715279Y-71174999D01*
X138715166Y-71009333D01*
X138715057Y-70846892D01*
X138714951Y-70688185D01*
X138714848Y-70533718D01*
X138714748Y-70383999D01*
X138714653Y-70239538D01*
X138714562Y-70100841D01*
X138714475Y-69968417D01*
X138714394Y-69842774D01*
X138714318Y-69724418D01*
X138714247Y-69613860D01*
X138714183Y-69511605D01*
X138714125Y-69418163D01*
X138714073Y-69334041D01*
X138714029Y-69259748D01*
X138713991Y-69195790D01*
X138713961Y-69142676D01*
X138713940Y-69100914D01*
X138713926Y-69071012D01*
X138713922Y-69058112D01*
X138713875Y-68853325D01*
X139401262Y-68853098D01*
X140088650Y-68852872D01*
X140088650Y-73765050D01*
G36*
X138355100Y-73765050D02*
G01*
X137967750Y-73765050D01*
X137967750Y-73358650D01*
X137370850Y-73358650D01*
X137370850Y-73765050D01*
X136983500Y-73765050D01*
X136983372Y-73563437D01*
X136983360Y-73541822D01*
X136983346Y-73508014D01*
X136983329Y-73462520D01*
X136983309Y-73405845D01*
X136983286Y-73338496D01*
X136983262Y-73260980D01*
X136983234Y-73173804D01*
X136983205Y-73077474D01*
X136983174Y-72972497D01*
X136983141Y-72859379D01*
X136983106Y-72738627D01*
X136983070Y-72610748D01*
X136983032Y-72476247D01*
X136982993Y-72335632D01*
X136982953Y-72189410D01*
X136982912Y-72038086D01*
X136982870Y-71882168D01*
X136982827Y-71722162D01*
X136982784Y-71558575D01*
X136982740Y-71391913D01*
X136982696Y-71222682D01*
X136982667Y-71107575D01*
X136982195Y-69262900D01*
X137370850Y-69262900D01*
X137370850Y-73085725D01*
X137667712Y-73084075D01*
X137964575Y-73082425D01*
X137966172Y-71172662D01*
X137967770Y-69262900D01*
X137370850Y-69262900D01*
X136982195Y-69262900D01*
X136982090Y-68853325D01*
X137668595Y-68853098D01*
X138355100Y-68852872D01*
X138355100Y-73765050D01*
G37*
X138355100Y-73765050D02*
X137967750Y-73765050D01*
X137967750Y-73358650D01*
X137370850Y-73358650D01*
X137370850Y-73765050D01*
X136983500Y-73765050D01*
X136983372Y-73563437D01*
X136983360Y-73541822D01*
X136983346Y-73508014D01*
X136983329Y-73462520D01*
X136983309Y-73405845D01*
X136983286Y-73338496D01*
X136983262Y-73260980D01*
X136983234Y-73173804D01*
X136983205Y-73077474D01*
X136983174Y-72972497D01*
X136983141Y-72859379D01*
X136983106Y-72738627D01*
X136983070Y-72610748D01*
X136983032Y-72476247D01*
X136982993Y-72335632D01*
X136982953Y-72189410D01*
X136982912Y-72038086D01*
X136982870Y-71882168D01*
X136982827Y-71722162D01*
X136982784Y-71558575D01*
X136982740Y-71391913D01*
X136982696Y-71222682D01*
X136982667Y-71107575D01*
X136982195Y-69262900D01*
X137370850Y-69262900D01*
X137370850Y-73085725D01*
X137667712Y-73084075D01*
X137964575Y-73082425D01*
X137966172Y-71172662D01*
X137967770Y-69262900D01*
X137370850Y-69262900D01*
X136982195Y-69262900D01*
X136982090Y-68853325D01*
X137668595Y-68853098D01*
X138355100Y-68852872D01*
X138355100Y-73765050D01*
G36*
X147016500Y-74641350D02*
G01*
X146527550Y-74641350D01*
X146527550Y-79143500D01*
X146133850Y-79143500D01*
X146133850Y-74641350D01*
X145644900Y-74641350D01*
X145644900Y-74234950D01*
X147016500Y-74234950D01*
X147016500Y-74641350D01*
G37*
X147016500Y-74641350D02*
X146527550Y-74641350D01*
X146527550Y-79143500D01*
X146133850Y-79143500D01*
X146133850Y-74641350D01*
X145644900Y-74641350D01*
X145644900Y-74234950D01*
X147016500Y-74234950D01*
X147016500Y-74641350D01*
G36*
X143555750Y-75498522D02*
G01*
X143062037Y-75500148D01*
X142568325Y-75501775D01*
X142566726Y-77322637D01*
X142565128Y-79143500D01*
X142177800Y-79143500D01*
X142177800Y-74959181D01*
X142566227Y-74959181D01*
X142566297Y-75001195D01*
X142566542Y-75036245D01*
X142566952Y-75062800D01*
X142567519Y-75079330D01*
X142568039Y-75084220D01*
X142571377Y-75086165D01*
X142580368Y-75087789D01*
X142595905Y-75089117D01*
X142618886Y-75090172D01*
X142650204Y-75090979D01*
X142690756Y-75091561D01*
X142741437Y-75091942D01*
X142803141Y-75092147D01*
X142866575Y-75092200D01*
X143162050Y-75092200D01*
X143162050Y-74641224D01*
X142865187Y-74642874D01*
X142568325Y-74644525D01*
X142566651Y-74860382D01*
X142566342Y-74911733D01*
X142566227Y-74959181D01*
X142177800Y-74959181D01*
X142177800Y-74234950D01*
X143555750Y-74234950D01*
X143555750Y-75498522D01*
G37*
X143555750Y-75498522D02*
X143062037Y-75500148D01*
X142568325Y-75501775D01*
X142566726Y-77322637D01*
X142565128Y-79143500D01*
X142177800Y-79143500D01*
X142177800Y-74959181D01*
X142566227Y-74959181D01*
X142566297Y-75001195D01*
X142566542Y-75036245D01*
X142566952Y-75062800D01*
X142567519Y-75079330D01*
X142568039Y-75084220D01*
X142571377Y-75086165D01*
X142580368Y-75087789D01*
X142595905Y-75089117D01*
X142618886Y-75090172D01*
X142650204Y-75090979D01*
X142690756Y-75091561D01*
X142741437Y-75091942D01*
X142803141Y-75092147D01*
X142866575Y-75092200D01*
X143162050Y-75092200D01*
X143162050Y-74641224D01*
X142865187Y-74642874D01*
X142568325Y-74644525D01*
X142566651Y-74860382D01*
X142566342Y-74911733D01*
X142566227Y-74959181D01*
X142177800Y-74959181D01*
X142177800Y-74234950D01*
X143555750Y-74234950D01*
X143555750Y-75498522D01*
G36*
X141822200Y-74641350D02*
G01*
X141326900Y-74641350D01*
X141326900Y-79143500D01*
X140939550Y-79143500D01*
X140939550Y-74641350D01*
X140444250Y-74641350D01*
X140444250Y-74234950D01*
X141822200Y-74234950D01*
X141822200Y-74641350D01*
G37*
X141822200Y-74641350D02*
X141326900Y-74641350D01*
X141326900Y-79143500D01*
X140939550Y-79143500D01*
X140939550Y-74641350D01*
X140444250Y-74641350D01*
X140444250Y-74234950D01*
X141822200Y-74234950D01*
X141822200Y-74641350D01*
G36*
X144298700Y-78737100D02*
G01*
X144895600Y-78737100D01*
X144895600Y-74234950D01*
X145282950Y-74234950D01*
X145284490Y-76486025D01*
X145284606Y-76656617D01*
X145284720Y-76825000D01*
X145284833Y-76990666D01*
X145284942Y-77153107D01*
X145285048Y-77311814D01*
X145285151Y-77466281D01*
X145285251Y-77616000D01*
X145285346Y-77760461D01*
X145285437Y-77899158D01*
X145285524Y-78031582D01*
X145285605Y-78157225D01*
X145285681Y-78275581D01*
X145285752Y-78386139D01*
X145285816Y-78488394D01*
X145285874Y-78581836D01*
X145285926Y-78665958D01*
X145285970Y-78740251D01*
X145286008Y-78804209D01*
X145286038Y-78857323D01*
X145286059Y-78899085D01*
X145286073Y-78928987D01*
X145286077Y-78941887D01*
X145286125Y-79146675D01*
X144598737Y-79146901D01*
X143911350Y-79147127D01*
X143911350Y-74234950D01*
X144298700Y-74234950D01*
X144298700Y-78737100D01*
G37*
X144298700Y-78737100D02*
X144895600Y-78737100D01*
X144895600Y-74234950D01*
X145282950Y-74234950D01*
X145284490Y-76486025D01*
X145284606Y-76656617D01*
X145284720Y-76825000D01*
X145284833Y-76990666D01*
X145284942Y-77153107D01*
X145285048Y-77311814D01*
X145285151Y-77466281D01*
X145285251Y-77616000D01*
X145285346Y-77760461D01*
X145285437Y-77899158D01*
X145285524Y-78031582D01*
X145285605Y-78157225D01*
X145285681Y-78275581D01*
X145285752Y-78386139D01*
X145285816Y-78488394D01*
X145285874Y-78581836D01*
X145285926Y-78665958D01*
X145285970Y-78740251D01*
X145286008Y-78804209D01*
X145286038Y-78857323D01*
X145286059Y-78899085D01*
X145286073Y-78928987D01*
X145286077Y-78941887D01*
X145286125Y-79146675D01*
X144598737Y-79146901D01*
X143911350Y-79147127D01*
X143911350Y-74234950D01*
X144298700Y-74234950D01*
X144298700Y-78737100D01*
G36*
X139104400Y-78737100D02*
G01*
X139701300Y-78737100D01*
X139701300Y-74234950D01*
X140088650Y-74234950D01*
X140088650Y-79147095D01*
X139402373Y-79147095D01*
X139310147Y-79147064D01*
X139221541Y-79146975D01*
X139137377Y-79146831D01*
X139058473Y-79146637D01*
X138985649Y-79146396D01*
X138919725Y-79146112D01*
X138861520Y-79145790D01*
X138811855Y-79145434D01*
X138771547Y-79145047D01*
X138741419Y-79144634D01*
X138722288Y-79144199D01*
X138714974Y-79143745D01*
X138714925Y-79143710D01*
X138714846Y-79137187D01*
X138714780Y-79118398D01*
X138714725Y-79087776D01*
X138714682Y-79045754D01*
X138714651Y-78992765D01*
X138714631Y-78929243D01*
X138714623Y-78855622D01*
X138714625Y-78772333D01*
X138714639Y-78679812D01*
X138714663Y-78578492D01*
X138714698Y-78468804D01*
X138714744Y-78351184D01*
X138714799Y-78226065D01*
X138714865Y-78093879D01*
X138714941Y-77955060D01*
X138715026Y-77810042D01*
X138715121Y-77659258D01*
X138715226Y-77503141D01*
X138715340Y-77342124D01*
X138715463Y-77176642D01*
X138715595Y-77007127D01*
X138715735Y-76834012D01*
X138715859Y-76687637D01*
X138717965Y-74234950D01*
X139104400Y-74234950D01*
X139104400Y-78737100D01*
G37*
X139104400Y-78737100D02*
X139701300Y-78737100D01*
X139701300Y-74234950D01*
X140088650Y-74234950D01*
X140088650Y-79147095D01*
X139402373Y-79147095D01*
X139310147Y-79147064D01*
X139221541Y-79146975D01*
X139137377Y-79146831D01*
X139058473Y-79146637D01*
X138985649Y-79146396D01*
X138919725Y-79146112D01*
X138861520Y-79145790D01*
X138811855Y-79145434D01*
X138771547Y-79145047D01*
X138741419Y-79144634D01*
X138722288Y-79144199D01*
X138714974Y-79143745D01*
X138714925Y-79143710D01*
X138714846Y-79137187D01*
X138714780Y-79118398D01*
X138714725Y-79087776D01*
X138714682Y-79045754D01*
X138714651Y-78992765D01*
X138714631Y-78929243D01*
X138714623Y-78855622D01*
X138714625Y-78772333D01*
X138714639Y-78679812D01*
X138714663Y-78578492D01*
X138714698Y-78468804D01*
X138714744Y-78351184D01*
X138714799Y-78226065D01*
X138714865Y-78093879D01*
X138714941Y-77955060D01*
X138715026Y-77810042D01*
X138715121Y-77659258D01*
X138715226Y-77503141D01*
X138715340Y-77342124D01*
X138715463Y-77176642D01*
X138715595Y-77007127D01*
X138715735Y-76834012D01*
X138715859Y-76687637D01*
X138717965Y-74234950D01*
X139104400Y-74234950D01*
X139104400Y-78737100D01*
G36*
X138355100Y-79149850D02*
G01*
X137670358Y-79149850D01*
X137578164Y-79149811D01*
X137489542Y-79149699D01*
X137405319Y-79149519D01*
X137326320Y-79149275D01*
X137253370Y-79148972D01*
X137187295Y-79148617D01*
X137128920Y-79148213D01*
X137079070Y-79147766D01*
X137038572Y-79147281D01*
X137008250Y-79146764D01*
X136988929Y-79146218D01*
X136981437Y-79145649D01*
X136981383Y-79145616D01*
X136981079Y-79139033D01*
X136980782Y-79120182D01*
X136980490Y-79089499D01*
X136980206Y-79047417D01*
X136979930Y-78994368D01*
X136979662Y-78930787D01*
X136979403Y-78857108D01*
X136979155Y-78773763D01*
X136978918Y-78681186D01*
X136978692Y-78579811D01*
X136978478Y-78470070D01*
X136978278Y-78352399D01*
X136978091Y-78227230D01*
X136977919Y-78094997D01*
X136977762Y-77956133D01*
X136977622Y-77811072D01*
X136977498Y-77660247D01*
X136977392Y-77504092D01*
X136977304Y-77343040D01*
X136977235Y-77177526D01*
X136977186Y-77007981D01*
X136977157Y-76834841D01*
X136977150Y-76688166D01*
X136977150Y-74641350D01*
X137370850Y-74641350D01*
X137370850Y-78737100D01*
X137967750Y-78737100D01*
X137967750Y-74641350D01*
X137370850Y-74641350D01*
X136977150Y-74641350D01*
X136977150Y-74234950D01*
X138355100Y-74234950D01*
X138355100Y-79149850D01*
G37*
X138355100Y-79149850D02*
X137670358Y-79149850D01*
X137578164Y-79149811D01*
X137489542Y-79149699D01*
X137405319Y-79149519D01*
X137326320Y-79149275D01*
X137253370Y-79148972D01*
X137187295Y-79148617D01*
X137128920Y-79148213D01*
X137079070Y-79147766D01*
X137038572Y-79147281D01*
X137008250Y-79146764D01*
X136988929Y-79146218D01*
X136981437Y-79145649D01*
X136981383Y-79145616D01*
X136981079Y-79139033D01*
X136980782Y-79120182D01*
X136980490Y-79089499D01*
X136980206Y-79047417D01*
X136979930Y-78994368D01*
X136979662Y-78930787D01*
X136979403Y-78857108D01*
X136979155Y-78773763D01*
X136978918Y-78681186D01*
X136978692Y-78579811D01*
X136978478Y-78470070D01*
X136978278Y-78352399D01*
X136978091Y-78227230D01*
X136977919Y-78094997D01*
X136977762Y-77956133D01*
X136977622Y-77811072D01*
X136977498Y-77660247D01*
X136977392Y-77504092D01*
X136977304Y-77343040D01*
X136977235Y-77177526D01*
X136977186Y-77007981D01*
X136977157Y-76834841D01*
X136977150Y-76688166D01*
X136977150Y-74641350D01*
X137370850Y-74641350D01*
X137370850Y-78737100D01*
X137967750Y-78737100D01*
X137967750Y-74641350D01*
X137370850Y-74641350D01*
X136977150Y-74641350D01*
X136977150Y-74234950D01*
X138355100Y-74234950D01*
X138355100Y-79149850D01*
G36*
X142174991Y-65975735D02*
G01*
X142390629Y-65982774D01*
X142598909Y-65995337D01*
X142609600Y-65996151D01*
X142928374Y-66027031D01*
X143244574Y-66070289D01*
X143557904Y-66125818D01*
X143868072Y-66193510D01*
X144174782Y-66273257D01*
X144477741Y-66364950D01*
X144776654Y-66468480D01*
X145071227Y-66583741D01*
X145361166Y-66710622D01*
X145646177Y-66849017D01*
X145925965Y-66998816D01*
X146200237Y-67159912D01*
X146468699Y-67332196D01*
X146724400Y-67510716D01*
X146972396Y-67698759D01*
X147213921Y-67897428D01*
X147448286Y-68106041D01*
X147674801Y-68323919D01*
X147892777Y-68550380D01*
X148101524Y-68784742D01*
X148300355Y-69026326D01*
X148433860Y-69200161D01*
X148618876Y-69458787D01*
X148793230Y-69724146D01*
X148956761Y-69995861D01*
X149109306Y-70273556D01*
X149250704Y-70556854D01*
X149380794Y-70845380D01*
X149499413Y-71138756D01*
X149606399Y-71436608D01*
X149701591Y-71738557D01*
X149784827Y-72044229D01*
X149855945Y-72353246D01*
X149909055Y-72631575D01*
X149937042Y-72804235D01*
X149961037Y-72975168D01*
X149981439Y-73147803D01*
X149998648Y-73325570D01*
X150013063Y-73511896D01*
X150014931Y-73539625D01*
X150017042Y-73579936D01*
X150018835Y-73631142D01*
X150020311Y-73691464D01*
X150021469Y-73759124D01*
X150022310Y-73832341D01*
X150022833Y-73909338D01*
X150023039Y-73988334D01*
X150022926Y-74067552D01*
X150022496Y-74145212D01*
X150021748Y-74219534D01*
X150020681Y-74288741D01*
X150019296Y-74351053D01*
X150017593Y-74404691D01*
X150015571Y-74447876D01*
X150014991Y-74457200D01*
X149993639Y-74725334D01*
X149965676Y-74984351D01*
X149930812Y-75236148D01*
X149888757Y-75482622D01*
X149839221Y-75725671D01*
X149787955Y-75943241D01*
X149703741Y-76253427D01*
X149607846Y-76558673D01*
X149500362Y-76858811D01*
X149381378Y-77153671D01*
X149250984Y-77443085D01*
X149109271Y-77726882D01*
X148956329Y-78004895D01*
X148792247Y-78276954D01*
X148617117Y-78542889D01*
X148431028Y-78802532D01*
X148234070Y-79055714D01*
X148026334Y-79302265D01*
X147954446Y-79383239D01*
X147922488Y-79418069D01*
X147882958Y-79460027D01*
X147837387Y-79507566D01*
X147787310Y-79559144D01*
X147734262Y-79613214D01*
X147679776Y-79668232D01*
X147625386Y-79722654D01*
X147572626Y-79774935D01*
X147523031Y-79823529D01*
X147478134Y-79866893D01*
X147439469Y-79903481D01*
X147419725Y-79921698D01*
X147177164Y-80134082D01*
X146927826Y-80335786D01*
X146671968Y-80526703D01*
X146409846Y-80706729D01*
X146141717Y-80875757D01*
X145867836Y-81033681D01*
X145588462Y-81180395D01*
X145303851Y-81315794D01*
X145014258Y-81439772D01*
X144719941Y-81552223D01*
X144421156Y-81653041D01*
X144118160Y-81742120D01*
X143811210Y-81819355D01*
X143500562Y-81884638D01*
X143186472Y-81937866D01*
X142869198Y-81978931D01*
X142548996Y-82007728D01*
X142333375Y-82020087D01*
X142294019Y-82021469D01*
X142244526Y-82022637D01*
X142187151Y-82023583D01*
X142124151Y-82024301D01*
X142057781Y-82024782D01*
X141990295Y-82025020D01*
X141923951Y-82025006D01*
X141861003Y-82024734D01*
X141803708Y-82024196D01*
X141754319Y-82023385D01*
X141715094Y-82022293D01*
X141711075Y-82022138D01*
X141389278Y-82003071D01*
X141070045Y-81971720D01*
X140753659Y-81928190D01*
X140440404Y-81872587D01*
X140130562Y-81805016D01*
X139824416Y-81725583D01*
X139522249Y-81634392D01*
X139224345Y-81531550D01*
X138930987Y-81417162D01*
X138642457Y-81291333D01*
X138359038Y-81154168D01*
X138081015Y-81005773D01*
X137808669Y-80846253D01*
X137542285Y-80675714D01*
X137282144Y-80494261D01*
X137028530Y-80302000D01*
X136973975Y-80258532D01*
X136762582Y-80082109D01*
X136553698Y-79894938D01*
X136349323Y-79698964D01*
X136151459Y-79496129D01*
X135962107Y-79288375D01*
X135894199Y-79210175D01*
X135696322Y-78969527D01*
X135507571Y-78720284D01*
X135328302Y-78463034D01*
X135158871Y-78198365D01*
X134999632Y-77926867D01*
X134850941Y-77649127D01*
X134713153Y-77365734D01*
X134586623Y-77077277D01*
X134544962Y-76974975D01*
X134433049Y-76677599D01*
X134333287Y-76376886D01*
X134245687Y-76073211D01*
X134170261Y-75766952D01*
X134107022Y-75458484D01*
X134055980Y-75148185D01*
X134017150Y-74836431D01*
X133990541Y-74523599D01*
X133976167Y-74210065D01*
X133974743Y-74000000D01*
X134059475Y-74000000D01*
X134059580Y-74096293D01*
X134059947Y-74181638D01*
X134060658Y-74257786D01*
X134061792Y-74326488D01*
X134063429Y-74389495D01*
X134065649Y-74448557D01*
X134068532Y-74505424D01*
X134072159Y-74561849D01*
X134076609Y-74619581D01*
X134081963Y-74680371D01*
X134088301Y-74745971D01*
X134095702Y-74818131D01*
X134097812Y-74838200D01*
X134137267Y-75151784D01*
X134189082Y-75462810D01*
X134253113Y-75770937D01*
X134329214Y-76075827D01*
X134417242Y-76377138D01*
X134517051Y-76674531D01*
X134628497Y-76967665D01*
X134751435Y-77256201D01*
X134885722Y-77539799D01*
X135031211Y-77818118D01*
X135187758Y-78090819D01*
X135355219Y-78357562D01*
X135533450Y-78618007D01*
X135722304Y-78871813D01*
X135915722Y-79111595D01*
X135974700Y-79181174D01*
X136031615Y-79246716D01*
X136088272Y-79310173D01*
X136146476Y-79373500D01*
X136208032Y-79438647D01*
X136274744Y-79507568D01*
X136348418Y-79582215D01*
X136379871Y-79613744D01*
X136508278Y-79740062D01*
X136632218Y-79857562D01*
X136753963Y-79968192D01*
X136875785Y-80073898D01*
X136999956Y-80176628D01*
X137128745Y-80278330D01*
X137264427Y-80380950D01*
X137337040Y-80434290D01*
X137579212Y-80603233D01*
X137830297Y-80764170D01*
X138089121Y-80916523D01*
X138354511Y-81059718D01*
X138625290Y-81193179D01*
X138900285Y-81316331D01*
X139178321Y-81428598D01*
X139458223Y-81529404D01*
X139738818Y-81618175D01*
X139774325Y-81628524D01*
X140003846Y-81691549D01*
X140229880Y-81746941D01*
X140454561Y-81795055D01*
X140680028Y-81836244D01*
X140908415Y-81870863D01*
X141141859Y-81899267D01*
X141382498Y-81921810D01*
X141632466Y-81938847D01*
X141650750Y-81939864D01*
X141678707Y-81940894D01*
X141717779Y-81941600D01*
X141766385Y-81942002D01*
X141822944Y-81942121D01*
X141885874Y-81941975D01*
X141953596Y-81941584D01*
X142024528Y-81940970D01*
X142097089Y-81940150D01*
X142169698Y-81939146D01*
X142240776Y-81937976D01*
X142308740Y-81936661D01*
X142372010Y-81935221D01*
X142429005Y-81933675D01*
X142478144Y-81932043D01*
X142517846Y-81930346D01*
X142546100Y-81928635D01*
X142690558Y-81916665D01*
X142825841Y-81903570D01*
X142955455Y-81888923D01*
X143082903Y-81872300D01*
X143211692Y-81853277D01*
X143339850Y-81832359D01*
X143649490Y-81773295D01*
X143956131Y-81701975D01*
X144259392Y-81618569D01*
X144558895Y-81523249D01*
X144854263Y-81416185D01*
X145145116Y-81297547D01*
X145431077Y-81167506D01*
X145711766Y-81026233D01*
X145986806Y-80873898D01*
X146255819Y-80710672D01*
X146518425Y-80536725D01*
X146774247Y-80352227D01*
X146981575Y-80190866D01*
X147189717Y-80017043D01*
X147394452Y-79833804D01*
X147593631Y-79643227D01*
X147785102Y-79447393D01*
X147966715Y-79248381D01*
X148022169Y-79184632D01*
X148225140Y-78938812D01*
X148417637Y-78685875D01*
X148599532Y-78426036D01*
X148770694Y-78159510D01*
X148930991Y-77886511D01*
X149080295Y-77607255D01*
X149218473Y-77321957D01*
X149345396Y-77030832D01*
X149376354Y-76954666D01*
X149488636Y-76657325D01*
X149588792Y-76356408D01*
X149676748Y-76052227D01*
X149752428Y-75745092D01*
X149815756Y-75435316D01*
X149866658Y-75123210D01*
X149905058Y-74809086D01*
X149911817Y-74739775D01*
X149917793Y-74674465D01*
X149922893Y-74615676D01*
X149927185Y-74561664D01*
X149930737Y-74510687D01*
X149933618Y-74461004D01*
X149935894Y-74410873D01*
X149937634Y-74358551D01*
X149938907Y-74302296D01*
X149939779Y-74240367D01*
X149940319Y-74171022D01*
X149940595Y-74092518D01*
X149940674Y-74003113D01*
X149940675Y-74000000D01*
X149940600Y-73910211D01*
X149940332Y-73831379D01*
X149939801Y-73761763D01*
X149938941Y-73699620D01*
X149937683Y-73643208D01*
X149935959Y-73590785D01*
X149933701Y-73540610D01*
X149930841Y-73490940D01*
X149927312Y-73440033D01*
X149923045Y-73386147D01*
X149917972Y-73327541D01*
X149912026Y-73262471D01*
X149911817Y-73260225D01*
X149876271Y-72946587D01*
X149828284Y-72635048D01*
X149767999Y-72325996D01*
X149695559Y-72019818D01*
X149611109Y-71716902D01*
X149514791Y-71417635D01*
X149406748Y-71122406D01*
X149287124Y-70831601D01*
X149156061Y-70545608D01*
X149013704Y-70264815D01*
X148860196Y-69989610D01*
X148695679Y-69720379D01*
X148520297Y-69457511D01*
X148490694Y-69415300D01*
X148303809Y-69161644D01*
X148106646Y-68915341D01*
X147899486Y-68676690D01*
X147682611Y-68445990D01*
X147456304Y-68223539D01*
X147220846Y-68009637D01*
X146976519Y-67804582D01*
X146953000Y-67785687D01*
X146709432Y-67598764D01*
X146457192Y-67420822D01*
X146196942Y-67252232D01*
X145929348Y-67093367D01*
X145655075Y-66944601D01*
X145374787Y-66806305D01*
X145089149Y-66678853D01*
X144798825Y-66562617D01*
X144717800Y-66532502D01*
X144434472Y-66435024D01*
X144148299Y-66348738D01*
X143858533Y-66273486D01*
X143564427Y-66209108D01*
X143265234Y-66155447D01*
X142960209Y-66112344D01*
X142648604Y-66079641D01*
X142539750Y-66070767D01*
X142488630Y-66067595D01*
X142426592Y-66064898D01*
X142355407Y-66062679D01*
X142276847Y-66060935D01*
X142192685Y-66059667D01*
X142104691Y-66058876D01*
X142014639Y-66058561D01*
X141924300Y-66058722D01*
X141835447Y-66059359D01*
X141749851Y-66060473D01*
X141669284Y-66062062D01*
X141595520Y-66064128D01*
X141530329Y-66066670D01*
X141475483Y-66069689D01*
X141460250Y-66070767D01*
X141184454Y-66095598D01*
X140917162Y-66127842D01*
X140656314Y-66167858D01*
X140399856Y-66216002D01*
X140145729Y-66272631D01*
X139891876Y-66338104D01*
X139842681Y-66351805D01*
X139542873Y-66442852D01*
X139246573Y-66545948D01*
X138954304Y-66660819D01*
X138666593Y-66787187D01*
X138383963Y-66924778D01*
X138106940Y-67073317D01*
X137836048Y-67232527D01*
X137571812Y-67402134D01*
X137314756Y-67581861D01*
X137065405Y-67771434D01*
X136930372Y-67880928D01*
X136785437Y-68004537D01*
X136638871Y-68135990D01*
X136493080Y-68272948D01*
X136350470Y-68413072D01*
X136213447Y-68554023D01*
X136084417Y-68693463D01*
X136021431Y-68764425D01*
X135817557Y-69007239D01*
X135624008Y-69257244D01*
X135440935Y-69514096D01*
X135268488Y-69777449D01*
X135106817Y-70046959D01*
X134956073Y-70322283D01*
X134816408Y-70603076D01*
X134687970Y-70888995D01*
X134570912Y-71179694D01*
X134465383Y-71474830D01*
X134371534Y-71774058D01*
X134289515Y-72077035D01*
X134219478Y-72383415D01*
X134161572Y-72692856D01*
X134115949Y-73005012D01*
X134097812Y-73161800D01*
X134090121Y-73235953D01*
X134083514Y-73303091D01*
X134077912Y-73364965D01*
X134073235Y-73423324D01*
X134069401Y-73479920D01*
X134066332Y-73536504D01*
X134063947Y-73594826D01*
X134062166Y-73656638D01*
X134060909Y-73723689D01*
X134060096Y-73797731D01*
X134059647Y-73880515D01*
X134059481Y-73973791D01*
X134059475Y-74000000D01*
X133974743Y-74000000D01*
X133974039Y-73896206D01*
X133984169Y-73582399D01*
X134006569Y-73269019D01*
X134041252Y-72956445D01*
X134088229Y-72645052D01*
X134147512Y-72335217D01*
X134219113Y-72027317D01*
X134303045Y-71721728D01*
X134370756Y-71504450D01*
X134475926Y-71203487D01*
X134592745Y-70907463D01*
X134721048Y-70616663D01*
X134860665Y-70331376D01*
X135011429Y-70051888D01*
X135173174Y-69778485D01*
X135345731Y-69511455D01*
X135528932Y-69251084D01*
X135722611Y-68997661D01*
X135926599Y-68751470D01*
X136078462Y-68580275D01*
X136108217Y-68548295D01*
X136145594Y-68509116D01*
X136189029Y-68464307D01*
X136236954Y-68415433D01*
X136287803Y-68364061D01*
X136340008Y-68311757D01*
X136392004Y-68260090D01*
X136442222Y-68210624D01*
X136489097Y-68164928D01*
X136531062Y-68124568D01*
X136566549Y-68091110D01*
X136580275Y-68078462D01*
X136821047Y-67867276D01*
X137069184Y-67666321D01*
X137324396Y-67475760D01*
X137586395Y-67295753D01*
X137854890Y-67126464D01*
X138129594Y-66968054D01*
X138410216Y-66820685D01*
X138696469Y-66684520D01*
X138988061Y-66559720D01*
X139284705Y-66446447D01*
X139586111Y-66344863D01*
X139777500Y-66287174D01*
X140086397Y-66204847D01*
X140398110Y-66134900D01*
X140712588Y-66077345D01*
X141029775Y-66032191D01*
X141314200Y-66002451D01*
X141521597Y-65987578D01*
X141736707Y-65978156D01*
X141955760Y-65974202D01*
X142174991Y-65975735D01*
G37*
X142174991Y-65975735D02*
X142390629Y-65982774D01*
X142598909Y-65995337D01*
X142609600Y-65996151D01*
X142928374Y-66027031D01*
X143244574Y-66070289D01*
X143557904Y-66125818D01*
X143868072Y-66193510D01*
X144174782Y-66273257D01*
X144477741Y-66364950D01*
X144776654Y-66468480D01*
X145071227Y-66583741D01*
X145361166Y-66710622D01*
X145646177Y-66849017D01*
X145925965Y-66998816D01*
X146200237Y-67159912D01*
X146468699Y-67332196D01*
X146724400Y-67510716D01*
X146972396Y-67698759D01*
X147213921Y-67897428D01*
X147448286Y-68106041D01*
X147674801Y-68323919D01*
X147892777Y-68550380D01*
X148101524Y-68784742D01*
X148300355Y-69026326D01*
X148433860Y-69200161D01*
X148618876Y-69458787D01*
X148793230Y-69724146D01*
X148956761Y-69995861D01*
X149109306Y-70273556D01*
X149250704Y-70556854D01*
X149380794Y-70845380D01*
X149499413Y-71138756D01*
X149606399Y-71436608D01*
X149701591Y-71738557D01*
X149784827Y-72044229D01*
X149855945Y-72353246D01*
X149909055Y-72631575D01*
X149937042Y-72804235D01*
X149961037Y-72975168D01*
X149981439Y-73147803D01*
X149998648Y-73325570D01*
X150013063Y-73511896D01*
X150014931Y-73539625D01*
X150017042Y-73579936D01*
X150018835Y-73631142D01*
X150020311Y-73691464D01*
X150021469Y-73759124D01*
X150022310Y-73832341D01*
X150022833Y-73909338D01*
X150023039Y-73988334D01*
X150022926Y-74067552D01*
X150022496Y-74145212D01*
X150021748Y-74219534D01*
X150020681Y-74288741D01*
X150019296Y-74351053D01*
X150017593Y-74404691D01*
X150015571Y-74447876D01*
X150014991Y-74457200D01*
X149993639Y-74725334D01*
X149965676Y-74984351D01*
X149930812Y-75236148D01*
X149888757Y-75482622D01*
X149839221Y-75725671D01*
X149787955Y-75943241D01*
X149703741Y-76253427D01*
X149607846Y-76558673D01*
X149500362Y-76858811D01*
X149381378Y-77153671D01*
X149250984Y-77443085D01*
X149109271Y-77726882D01*
X148956329Y-78004895D01*
X148792247Y-78276954D01*
X148617117Y-78542889D01*
X148431028Y-78802532D01*
X148234070Y-79055714D01*
X148026334Y-79302265D01*
X147954446Y-79383239D01*
X147922488Y-79418069D01*
X147882958Y-79460027D01*
X147837387Y-79507566D01*
X147787310Y-79559144D01*
X147734262Y-79613214D01*
X147679776Y-79668232D01*
X147625386Y-79722654D01*
X147572626Y-79774935D01*
X147523031Y-79823529D01*
X147478134Y-79866893D01*
X147439469Y-79903481D01*
X147419725Y-79921698D01*
X147177164Y-80134082D01*
X146927826Y-80335786D01*
X146671968Y-80526703D01*
X146409846Y-80706729D01*
X146141717Y-80875757D01*
X145867836Y-81033681D01*
X145588462Y-81180395D01*
X145303851Y-81315794D01*
X145014258Y-81439772D01*
X144719941Y-81552223D01*
X144421156Y-81653041D01*
X144118160Y-81742120D01*
X143811210Y-81819355D01*
X143500562Y-81884638D01*
X143186472Y-81937866D01*
X142869198Y-81978931D01*
X142548996Y-82007728D01*
X142333375Y-82020087D01*
X142294019Y-82021469D01*
X142244526Y-82022637D01*
X142187151Y-82023583D01*
X142124151Y-82024301D01*
X142057781Y-82024782D01*
X141990295Y-82025020D01*
X141923951Y-82025006D01*
X141861003Y-82024734D01*
X141803708Y-82024196D01*
X141754319Y-82023385D01*
X141715094Y-82022293D01*
X141711075Y-82022138D01*
X141389278Y-82003071D01*
X141070045Y-81971720D01*
X140753659Y-81928190D01*
X140440404Y-81872587D01*
X140130562Y-81805016D01*
X139824416Y-81725583D01*
X139522249Y-81634392D01*
X139224345Y-81531550D01*
X138930987Y-81417162D01*
X138642457Y-81291333D01*
X138359038Y-81154168D01*
X138081015Y-81005773D01*
X137808669Y-80846253D01*
X137542285Y-80675714D01*
X137282144Y-80494261D01*
X137028530Y-80302000D01*
X136973975Y-80258532D01*
X136762582Y-80082109D01*
X136553698Y-79894938D01*
X136349323Y-79698964D01*
X136151459Y-79496129D01*
X135962107Y-79288375D01*
X135894199Y-79210175D01*
X135696322Y-78969527D01*
X135507571Y-78720284D01*
X135328302Y-78463034D01*
X135158871Y-78198365D01*
X134999632Y-77926867D01*
X134850941Y-77649127D01*
X134713153Y-77365734D01*
X134586623Y-77077277D01*
X134544962Y-76974975D01*
X134433049Y-76677599D01*
X134333287Y-76376886D01*
X134245687Y-76073211D01*
X134170261Y-75766952D01*
X134107022Y-75458484D01*
X134055980Y-75148185D01*
X134017150Y-74836431D01*
X133990541Y-74523599D01*
X133976167Y-74210065D01*
X133974743Y-74000000D01*
X134059475Y-74000000D01*
X134059580Y-74096293D01*
X134059947Y-74181638D01*
X134060658Y-74257786D01*
X134061792Y-74326488D01*
X134063429Y-74389495D01*
X134065649Y-74448557D01*
X134068532Y-74505424D01*
X134072159Y-74561849D01*
X134076609Y-74619581D01*
X134081963Y-74680371D01*
X134088301Y-74745971D01*
X134095702Y-74818131D01*
X134097812Y-74838200D01*
X134137267Y-75151784D01*
X134189082Y-75462810D01*
X134253113Y-75770937D01*
X134329214Y-76075827D01*
X134417242Y-76377138D01*
X134517051Y-76674531D01*
X134628497Y-76967665D01*
X134751435Y-77256201D01*
X134885722Y-77539799D01*
X135031211Y-77818118D01*
X135187758Y-78090819D01*
X135355219Y-78357562D01*
X135533450Y-78618007D01*
X135722304Y-78871813D01*
X135915722Y-79111595D01*
X135974700Y-79181174D01*
X136031615Y-79246716D01*
X136088272Y-79310173D01*
X136146476Y-79373500D01*
X136208032Y-79438647D01*
X136274744Y-79507568D01*
X136348418Y-79582215D01*
X136379871Y-79613744D01*
X136508278Y-79740062D01*
X136632218Y-79857562D01*
X136753963Y-79968192D01*
X136875785Y-80073898D01*
X136999956Y-80176628D01*
X137128745Y-80278330D01*
X137264427Y-80380950D01*
X137337040Y-80434290D01*
X137579212Y-80603233D01*
X137830297Y-80764170D01*
X138089121Y-80916523D01*
X138354511Y-81059718D01*
X138625290Y-81193179D01*
X138900285Y-81316331D01*
X139178321Y-81428598D01*
X139458223Y-81529404D01*
X139738818Y-81618175D01*
X139774325Y-81628524D01*
X140003846Y-81691549D01*
X140229880Y-81746941D01*
X140454561Y-81795055D01*
X140680028Y-81836244D01*
X140908415Y-81870863D01*
X141141859Y-81899267D01*
X141382498Y-81921810D01*
X141632466Y-81938847D01*
X141650750Y-81939864D01*
X141678707Y-81940894D01*
X141717779Y-81941600D01*
X141766385Y-81942002D01*
X141822944Y-81942121D01*
X141885874Y-81941975D01*
X141953596Y-81941584D01*
X142024528Y-81940970D01*
X142097089Y-81940150D01*
X142169698Y-81939146D01*
X142240776Y-81937976D01*
X142308740Y-81936661D01*
X142372010Y-81935221D01*
X142429005Y-81933675D01*
X142478144Y-81932043D01*
X142517846Y-81930346D01*
X142546100Y-81928635D01*
X142690558Y-81916665D01*
X142825841Y-81903570D01*
X142955455Y-81888923D01*
X143082903Y-81872300D01*
X143211692Y-81853277D01*
X143339850Y-81832359D01*
X143649490Y-81773295D01*
X143956131Y-81701975D01*
X144259392Y-81618569D01*
X144558895Y-81523249D01*
X144854263Y-81416185D01*
X145145116Y-81297547D01*
X145431077Y-81167506D01*
X145711766Y-81026233D01*
X145986806Y-80873898D01*
X146255819Y-80710672D01*
X146518425Y-80536725D01*
X146774247Y-80352227D01*
X146981575Y-80190866D01*
X147189717Y-80017043D01*
X147394452Y-79833804D01*
X147593631Y-79643227D01*
X147785102Y-79447393D01*
X147966715Y-79248381D01*
X148022169Y-79184632D01*
X148225140Y-78938812D01*
X148417637Y-78685875D01*
X148599532Y-78426036D01*
X148770694Y-78159510D01*
X148930991Y-77886511D01*
X149080295Y-77607255D01*
X149218473Y-77321957D01*
X149345396Y-77030832D01*
X149376354Y-76954666D01*
X149488636Y-76657325D01*
X149588792Y-76356408D01*
X149676748Y-76052227D01*
X149752428Y-75745092D01*
X149815756Y-75435316D01*
X149866658Y-75123210D01*
X149905058Y-74809086D01*
X149911817Y-74739775D01*
X149917793Y-74674465D01*
X149922893Y-74615676D01*
X149927185Y-74561664D01*
X149930737Y-74510687D01*
X149933618Y-74461004D01*
X149935894Y-74410873D01*
X149937634Y-74358551D01*
X149938907Y-74302296D01*
X149939779Y-74240367D01*
X149940319Y-74171022D01*
X149940595Y-74092518D01*
X149940674Y-74003113D01*
X149940675Y-74000000D01*
X149940600Y-73910211D01*
X149940332Y-73831379D01*
X149939801Y-73761763D01*
X149938941Y-73699620D01*
X149937683Y-73643208D01*
X149935959Y-73590785D01*
X149933701Y-73540610D01*
X149930841Y-73490940D01*
X149927312Y-73440033D01*
X149923045Y-73386147D01*
X149917972Y-73327541D01*
X149912026Y-73262471D01*
X149911817Y-73260225D01*
X149876271Y-72946587D01*
X149828284Y-72635048D01*
X149767999Y-72325996D01*
X149695559Y-72019818D01*
X149611109Y-71716902D01*
X149514791Y-71417635D01*
X149406748Y-71122406D01*
X149287124Y-70831601D01*
X149156061Y-70545608D01*
X149013704Y-70264815D01*
X148860196Y-69989610D01*
X148695679Y-69720379D01*
X148520297Y-69457511D01*
X148490694Y-69415300D01*
X148303809Y-69161644D01*
X148106646Y-68915341D01*
X147899486Y-68676690D01*
X147682611Y-68445990D01*
X147456304Y-68223539D01*
X147220846Y-68009637D01*
X146976519Y-67804582D01*
X146953000Y-67785687D01*
X146709432Y-67598764D01*
X146457192Y-67420822D01*
X146196942Y-67252232D01*
X145929348Y-67093367D01*
X145655075Y-66944601D01*
X145374787Y-66806305D01*
X145089149Y-66678853D01*
X144798825Y-66562617D01*
X144717800Y-66532502D01*
X144434472Y-66435024D01*
X144148299Y-66348738D01*
X143858533Y-66273486D01*
X143564427Y-66209108D01*
X143265234Y-66155447D01*
X142960209Y-66112344D01*
X142648604Y-66079641D01*
X142539750Y-66070767D01*
X142488630Y-66067595D01*
X142426592Y-66064898D01*
X142355407Y-66062679D01*
X142276847Y-66060935D01*
X142192685Y-66059667D01*
X142104691Y-66058876D01*
X142014639Y-66058561D01*
X141924300Y-66058722D01*
X141835447Y-66059359D01*
X141749851Y-66060473D01*
X141669284Y-66062062D01*
X141595520Y-66064128D01*
X141530329Y-66066670D01*
X141475483Y-66069689D01*
X141460250Y-66070767D01*
X141184454Y-66095598D01*
X140917162Y-66127842D01*
X140656314Y-66167858D01*
X140399856Y-66216002D01*
X140145729Y-66272631D01*
X139891876Y-66338104D01*
X139842681Y-66351805D01*
X139542873Y-66442852D01*
X139246573Y-66545948D01*
X138954304Y-66660819D01*
X138666593Y-66787187D01*
X138383963Y-66924778D01*
X138106940Y-67073317D01*
X137836048Y-67232527D01*
X137571812Y-67402134D01*
X137314756Y-67581861D01*
X137065405Y-67771434D01*
X136930372Y-67880928D01*
X136785437Y-68004537D01*
X136638871Y-68135990D01*
X136493080Y-68272948D01*
X136350470Y-68413072D01*
X136213447Y-68554023D01*
X136084417Y-68693463D01*
X136021431Y-68764425D01*
X135817557Y-69007239D01*
X135624008Y-69257244D01*
X135440935Y-69514096D01*
X135268488Y-69777449D01*
X135106817Y-70046959D01*
X134956073Y-70322283D01*
X134816408Y-70603076D01*
X134687970Y-70888995D01*
X134570912Y-71179694D01*
X134465383Y-71474830D01*
X134371534Y-71774058D01*
X134289515Y-72077035D01*
X134219478Y-72383415D01*
X134161572Y-72692856D01*
X134115949Y-73005012D01*
X134097812Y-73161800D01*
X134090121Y-73235953D01*
X134083514Y-73303091D01*
X134077912Y-73364965D01*
X134073235Y-73423324D01*
X134069401Y-73479920D01*
X134066332Y-73536504D01*
X134063947Y-73594826D01*
X134062166Y-73656638D01*
X134060909Y-73723689D01*
X134060096Y-73797731D01*
X134059647Y-73880515D01*
X134059481Y-73973791D01*
X134059475Y-74000000D01*
X133974743Y-74000000D01*
X133974039Y-73896206D01*
X133984169Y-73582399D01*
X134006569Y-73269019D01*
X134041252Y-72956445D01*
X134088229Y-72645052D01*
X134147512Y-72335217D01*
X134219113Y-72027317D01*
X134303045Y-71721728D01*
X134370756Y-71504450D01*
X134475926Y-71203487D01*
X134592745Y-70907463D01*
X134721048Y-70616663D01*
X134860665Y-70331376D01*
X135011429Y-70051888D01*
X135173174Y-69778485D01*
X135345731Y-69511455D01*
X135528932Y-69251084D01*
X135722611Y-68997661D01*
X135926599Y-68751470D01*
X136078462Y-68580275D01*
X136108217Y-68548295D01*
X136145594Y-68509116D01*
X136189029Y-68464307D01*
X136236954Y-68415433D01*
X136287803Y-68364061D01*
X136340008Y-68311757D01*
X136392004Y-68260090D01*
X136442222Y-68210624D01*
X136489097Y-68164928D01*
X136531062Y-68124568D01*
X136566549Y-68091110D01*
X136580275Y-68078462D01*
X136821047Y-67867276D01*
X137069184Y-67666321D01*
X137324396Y-67475760D01*
X137586395Y-67295753D01*
X137854890Y-67126464D01*
X138129594Y-66968054D01*
X138410216Y-66820685D01*
X138696469Y-66684520D01*
X138988061Y-66559720D01*
X139284705Y-66446447D01*
X139586111Y-66344863D01*
X139777500Y-66287174D01*
X140086397Y-66204847D01*
X140398110Y-66134900D01*
X140712588Y-66077345D01*
X141029775Y-66032191D01*
X141314200Y-66002451D01*
X141521597Y-65987578D01*
X141736707Y-65978156D01*
X141955760Y-65974202D01*
X142174991Y-65975735D01*
D13*
%TO.C,J6*%
X122750000Y-150420000D02*
X122750000Y-156440000D01*
X122750000Y-156440000D02*
X128050000Y-156440000D01*
X128050000Y-156440000D02*
X128050000Y-150420000D01*
X128050000Y-150420000D02*
X122750000Y-150420000D01*
X122460000Y-151450000D02*
X122460000Y-155450000D01*
X124130000Y-156440000D02*
X124130000Y-155440000D01*
X124130000Y-155440000D02*
X126670000Y-155440000D01*
X126670000Y-155440000D02*
X126670000Y-156440000D01*
X124130000Y-155440000D02*
X124380000Y-154910000D01*
X124380000Y-154910000D02*
X126420000Y-154910000D01*
X126420000Y-154910000D02*
X126670000Y-155440000D01*
X124380000Y-156440000D02*
X124380000Y-155440000D01*
X126420000Y-156440000D02*
X126420000Y-155440000D01*
X123330000Y-150420000D02*
X123330000Y-151020000D01*
X123330000Y-151020000D02*
X124930000Y-151020000D01*
X124930000Y-151020000D02*
X124930000Y-150420000D01*
X125870000Y-150420000D02*
X125870000Y-151020000D01*
X125870000Y-151020000D02*
X127470000Y-151020000D01*
X127470000Y-151020000D02*
X127470000Y-150420000D01*
%TO.C,J5*%
X107840000Y-150420000D02*
X107840000Y-156440000D01*
X107840000Y-156440000D02*
X113140000Y-156440000D01*
X113140000Y-156440000D02*
X113140000Y-150420000D01*
X113140000Y-150420000D02*
X107840000Y-150420000D01*
X107550000Y-151450000D02*
X107550000Y-155450000D01*
X109220000Y-156440000D02*
X109220000Y-155440000D01*
X109220000Y-155440000D02*
X111760000Y-155440000D01*
X111760000Y-155440000D02*
X111760000Y-156440000D01*
X109220000Y-155440000D02*
X109470000Y-154910000D01*
X109470000Y-154910000D02*
X111510000Y-154910000D01*
X111510000Y-154910000D02*
X111760000Y-155440000D01*
X109470000Y-156440000D02*
X109470000Y-155440000D01*
X111510000Y-156440000D02*
X111510000Y-155440000D01*
X108420000Y-150420000D02*
X108420000Y-151020000D01*
X108420000Y-151020000D02*
X110020000Y-151020000D01*
X110020000Y-151020000D02*
X110020000Y-150420000D01*
X110960000Y-150420000D02*
X110960000Y-151020000D01*
X110960000Y-151020000D02*
X112560000Y-151020000D01*
X112560000Y-151020000D02*
X112560000Y-150420000D01*
%TO.C,J3*%
X123180000Y-67451000D02*
X123180000Y-68051000D01*
X124780000Y-67451000D02*
X123180000Y-67451000D01*
X124780000Y-68051000D02*
X124780000Y-67451000D01*
X125720000Y-67451000D02*
X125720000Y-68051000D01*
X127320000Y-67451000D02*
X125720000Y-67451000D01*
X127320000Y-68051000D02*
X127320000Y-67451000D01*
X124230000Y-62031000D02*
X124230000Y-63031000D01*
X126270000Y-62031000D02*
X126270000Y-63031000D01*
X124230000Y-63561000D02*
X123980000Y-63031000D01*
X126270000Y-63561000D02*
X124230000Y-63561000D01*
X126520000Y-63031000D02*
X126270000Y-63561000D01*
X123980000Y-63031000D02*
X123980000Y-62031000D01*
X126520000Y-63031000D02*
X123980000Y-63031000D01*
X126520000Y-62031000D02*
X126520000Y-63031000D01*
X128190000Y-67021000D02*
X128190000Y-63021000D01*
X122600000Y-68051000D02*
X127900000Y-68051000D01*
X122600000Y-62031000D02*
X122600000Y-68051000D01*
X127900000Y-62031000D02*
X122600000Y-62031000D01*
X127900000Y-68051000D02*
X127900000Y-62031000D01*
%TO.C,J2*%
X138166000Y-67451000D02*
X138166000Y-68051000D01*
X139766000Y-67451000D02*
X138166000Y-67451000D01*
X139766000Y-68051000D02*
X139766000Y-67451000D01*
X140706000Y-67451000D02*
X140706000Y-68051000D01*
X142306000Y-67451000D02*
X140706000Y-67451000D01*
X142306000Y-68051000D02*
X142306000Y-67451000D01*
X139216000Y-62031000D02*
X139216000Y-63031000D01*
X141256000Y-62031000D02*
X141256000Y-63031000D01*
X139216000Y-63561000D02*
X138966000Y-63031000D01*
X141256000Y-63561000D02*
X139216000Y-63561000D01*
X141506000Y-63031000D02*
X141256000Y-63561000D01*
X138966000Y-63031000D02*
X138966000Y-62031000D01*
X141506000Y-63031000D02*
X138966000Y-63031000D01*
X141506000Y-62031000D02*
X141506000Y-63031000D01*
X143176000Y-67021000D02*
X143176000Y-63021000D01*
X137586000Y-68051000D02*
X142886000Y-68051000D01*
X137586000Y-62031000D02*
X137586000Y-68051000D01*
X142886000Y-62031000D02*
X137586000Y-62031000D01*
X142886000Y-68051000D02*
X142886000Y-62031000D01*
%TO.C,J1*%
X153660000Y-67451000D02*
X153660000Y-68051000D01*
X155260000Y-67451000D02*
X153660000Y-67451000D01*
X155260000Y-68051000D02*
X155260000Y-67451000D01*
X156200000Y-67451000D02*
X156200000Y-68051000D01*
X157800000Y-67451000D02*
X156200000Y-67451000D01*
X157800000Y-68051000D02*
X157800000Y-67451000D01*
X154710000Y-62031000D02*
X154710000Y-63031000D01*
X156750000Y-62031000D02*
X156750000Y-63031000D01*
X154710000Y-63561000D02*
X154460000Y-63031000D01*
X156750000Y-63561000D02*
X154710000Y-63561000D01*
X157000000Y-63031000D02*
X156750000Y-63561000D01*
X154460000Y-63031000D02*
X154460000Y-62031000D01*
X157000000Y-63031000D02*
X154460000Y-63031000D01*
X157000000Y-62031000D02*
X157000000Y-63031000D01*
X158670000Y-67021000D02*
X158670000Y-63021000D01*
X153080000Y-68051000D02*
X158380000Y-68051000D01*
X153080000Y-62031000D02*
X153080000Y-68051000D01*
X158380000Y-62031000D02*
X153080000Y-62031000D01*
X158380000Y-68051000D02*
X158380000Y-62031000D01*
%TO.C,RV5*%
X122720000Y-80605000D02*
X122720000Y-70835000D01*
X127790000Y-80605000D02*
X127790000Y-70835000D01*
X122720000Y-80605000D02*
X127790000Y-80605000D01*
X122720000Y-70835000D02*
X127790000Y-70835000D01*
%TO.C,U3*%
X140760000Y-87090000D02*
X139510000Y-87090000D01*
X139510000Y-87090000D02*
X139510000Y-104990000D01*
X139510000Y-104990000D02*
X144010000Y-104990000D01*
X144010000Y-104990000D02*
X144010000Y-87090000D01*
X144010000Y-87090000D02*
X142760000Y-87090000D01*
X136510000Y-87030000D02*
X136510000Y-105050000D01*
X136510000Y-105050000D02*
X147010000Y-105050000D01*
X147010000Y-105050000D02*
X147010000Y-87030000D01*
X147010000Y-87030000D02*
X136510000Y-87030000D01*
X142760000Y-87090000D02*
G75*
G02*
X140760000Y-87090000I-1000000J0D01*
G01*
%TO.C,R17*%
X157730000Y-80570000D02*
X157730000Y-80900000D01*
X157730000Y-80900000D02*
X151190000Y-80900000D01*
X151190000Y-80900000D02*
X151190000Y-80570000D01*
X157730000Y-78490000D02*
X157730000Y-78160000D01*
X157730000Y-78160000D02*
X151190000Y-78160000D01*
X151190000Y-78160000D02*
X151190000Y-78490000D01*
%TO.C,R16*%
X157730000Y-88190000D02*
X157730000Y-88520000D01*
X157730000Y-88520000D02*
X151190000Y-88520000D01*
X151190000Y-88520000D02*
X151190000Y-88190000D01*
X157730000Y-86110000D02*
X157730000Y-85780000D01*
X157730000Y-85780000D02*
X151190000Y-85780000D01*
X151190000Y-85780000D02*
X151190000Y-86110000D01*
%TO.C,R15*%
X151190000Y-89920000D02*
X151190000Y-89590000D01*
X151190000Y-89590000D02*
X157730000Y-89590000D01*
X157730000Y-89590000D02*
X157730000Y-89920000D01*
X151190000Y-92000000D02*
X151190000Y-92330000D01*
X151190000Y-92330000D02*
X157730000Y-92330000D01*
X157730000Y-92330000D02*
X157730000Y-92000000D01*
%TO.C,R14*%
X157730000Y-113590000D02*
X157730000Y-113920000D01*
X157730000Y-113920000D02*
X151190000Y-113920000D01*
X151190000Y-113920000D02*
X151190000Y-113590000D01*
X157730000Y-111510000D02*
X157730000Y-111180000D01*
X157730000Y-111180000D02*
X151190000Y-111180000D01*
X151190000Y-111180000D02*
X151190000Y-111510000D01*
%TO.C,R13*%
X157730000Y-105970000D02*
X157730000Y-106300000D01*
X157730000Y-106300000D02*
X151190000Y-106300000D01*
X151190000Y-106300000D02*
X151190000Y-105970000D01*
X157730000Y-103890000D02*
X157730000Y-103560000D01*
X157730000Y-103560000D02*
X151190000Y-103560000D01*
X151190000Y-103560000D02*
X151190000Y-103890000D01*
%TO.C,R12*%
X125790000Y-103890000D02*
X125790000Y-103560000D01*
X125790000Y-103560000D02*
X132330000Y-103560000D01*
X132330000Y-103560000D02*
X132330000Y-103890000D01*
X125790000Y-105970000D02*
X125790000Y-106300000D01*
X125790000Y-106300000D02*
X132330000Y-106300000D01*
X132330000Y-106300000D02*
X132330000Y-105970000D01*
%TO.C,R11*%
X132330000Y-102160000D02*
X132330000Y-102490000D01*
X132330000Y-102490000D02*
X125790000Y-102490000D01*
X125790000Y-102490000D02*
X125790000Y-102160000D01*
X132330000Y-100080000D02*
X132330000Y-99750000D01*
X132330000Y-99750000D02*
X125790000Y-99750000D01*
X125790000Y-99750000D02*
X125790000Y-100080000D01*
%TO.C,R10*%
X151190000Y-100080000D02*
X151190000Y-99750000D01*
X151190000Y-99750000D02*
X157730000Y-99750000D01*
X157730000Y-99750000D02*
X157730000Y-100080000D01*
X151190000Y-102160000D02*
X151190000Y-102490000D01*
X151190000Y-102490000D02*
X157730000Y-102490000D01*
X157730000Y-102490000D02*
X157730000Y-102160000D01*
%TO.C,R9*%
X112780000Y-125980000D02*
X112450000Y-125980000D01*
X112450000Y-125980000D02*
X112450000Y-119440000D01*
X112450000Y-119440000D02*
X112780000Y-119440000D01*
X114860000Y-125980000D02*
X115190000Y-125980000D01*
X115190000Y-125980000D02*
X115190000Y-119440000D01*
X115190000Y-119440000D02*
X114860000Y-119440000D01*
%TO.C,R8*%
X103430000Y-119440000D02*
X103760000Y-119440000D01*
X103760000Y-119440000D02*
X103760000Y-125980000D01*
X103760000Y-125980000D02*
X103430000Y-125980000D01*
X101350000Y-119440000D02*
X101020000Y-119440000D01*
X101020000Y-119440000D02*
X101020000Y-125980000D01*
X101020000Y-125980000D02*
X101350000Y-125980000D01*
%TO.C,R7*%
X97540000Y-125980000D02*
X97210000Y-125980000D01*
X97210000Y-125980000D02*
X97210000Y-119440000D01*
X97210000Y-119440000D02*
X97540000Y-119440000D01*
X99620000Y-125980000D02*
X99950000Y-125980000D01*
X99950000Y-125980000D02*
X99950000Y-119440000D01*
X99950000Y-119440000D02*
X99620000Y-119440000D01*
%TO.C,R6*%
X125790000Y-86110000D02*
X125790000Y-85780000D01*
X125790000Y-85780000D02*
X132330000Y-85780000D01*
X132330000Y-85780000D02*
X132330000Y-86110000D01*
X125790000Y-88190000D02*
X125790000Y-88520000D01*
X125790000Y-88520000D02*
X132330000Y-88520000D01*
X132330000Y-88520000D02*
X132330000Y-88190000D01*
%TO.C,R3*%
X128830000Y-119440000D02*
X129160000Y-119440000D01*
X129160000Y-119440000D02*
X129160000Y-125980000D01*
X129160000Y-125980000D02*
X128830000Y-125980000D01*
X126750000Y-119440000D02*
X126420000Y-119440000D01*
X126420000Y-119440000D02*
X126420000Y-125980000D01*
X126420000Y-125980000D02*
X126750000Y-125980000D01*
%TO.C,R2*%
X142800000Y-119440000D02*
X143130000Y-119440000D01*
X143130000Y-119440000D02*
X143130000Y-125980000D01*
X143130000Y-125980000D02*
X142800000Y-125980000D01*
X140720000Y-119440000D02*
X140390000Y-119440000D01*
X140390000Y-119440000D02*
X140390000Y-125980000D01*
X140390000Y-125980000D02*
X140720000Y-125980000D01*
%TO.C,R1*%
X158040000Y-119440000D02*
X158370000Y-119440000D01*
X158370000Y-119440000D02*
X158370000Y-125980000D01*
X158370000Y-125980000D02*
X158040000Y-125980000D01*
X155960000Y-119440000D02*
X155630000Y-119440000D01*
X155630000Y-119440000D02*
X155630000Y-125980000D01*
X155630000Y-125980000D02*
X155960000Y-125980000D01*
%TO.C,J4*%
X107530000Y-98290000D02*
X107530000Y-105670000D01*
X108030000Y-98290000D02*
X107550000Y-98290000D01*
X107530000Y-93790000D02*
X108040000Y-93790000D01*
X107530000Y-86420000D02*
X107530000Y-93770000D01*
X107530000Y-86420000D02*
X108030000Y-85920000D01*
X99780000Y-86420000D02*
X107530000Y-86420000D01*
X99780000Y-86420000D02*
X99230000Y-85870000D01*
X99780000Y-105670000D02*
X99780000Y-86420000D01*
X99780000Y-105670000D02*
X99230000Y-106220000D01*
X107530000Y-105670000D02*
X99780000Y-105670000D01*
X108080000Y-106220000D02*
X107530000Y-105670000D01*
X108080000Y-85870000D02*
X108080000Y-106220000D01*
X99230000Y-85870000D02*
X108080000Y-85870000D01*
X99230000Y-106220000D02*
X99230000Y-85870000D01*
X108080000Y-106220000D02*
X99230000Y-106220000D01*
X108335000Y-106470000D02*
X98985000Y-106470000D01*
X108335000Y-85610000D02*
X108335000Y-106470000D01*
X98985000Y-85610000D02*
X108335000Y-85610000D01*
X98985000Y-106470000D02*
X98985000Y-85610000D01*
%TO.C,D4*%
X108890000Y-124830000D02*
X111130000Y-124830000D01*
X111130000Y-124830000D02*
X111130000Y-120590000D01*
X111130000Y-120590000D02*
X108890000Y-120590000D01*
X108890000Y-120590000D02*
X108890000Y-124830000D01*
X110010000Y-125480000D02*
X110010000Y-124830000D01*
X110010000Y-119940000D02*
X110010000Y-120590000D01*
X108890000Y-124110000D02*
X111130000Y-124110000D01*
X108890000Y-123990000D02*
X111130000Y-123990000D01*
X108890000Y-124230000D02*
X111130000Y-124230000D01*
%TO.C,D3*%
X107320000Y-120590000D02*
X105080000Y-120590000D01*
X105080000Y-120590000D02*
X105080000Y-124830000D01*
X105080000Y-124830000D02*
X107320000Y-124830000D01*
X107320000Y-124830000D02*
X107320000Y-120590000D01*
X106200000Y-119940000D02*
X106200000Y-120590000D01*
X106200000Y-125480000D02*
X106200000Y-124830000D01*
X107320000Y-121310000D02*
X105080000Y-121310000D01*
X107320000Y-121430000D02*
X105080000Y-121430000D01*
X107320000Y-121190000D02*
X105080000Y-121190000D01*
%TO.C,D2*%
X114020000Y-102990000D02*
X111080000Y-102990000D01*
X114020000Y-103230000D02*
X111080000Y-103230000D01*
X114020000Y-103110000D02*
X111080000Y-103110000D01*
X111080000Y-107650000D02*
X111210000Y-107650000D01*
X111080000Y-102210000D02*
X111080000Y-107650000D01*
X111210000Y-102210000D02*
X111080000Y-102210000D01*
X114020000Y-107650000D02*
X113890000Y-107650000D01*
X114020000Y-102210000D02*
X114020000Y-107650000D01*
X113890000Y-102210000D02*
X114020000Y-102210000D01*
%TO.C,D1*%
X114020000Y-85210000D02*
X111080000Y-85210000D01*
X114020000Y-85450000D02*
X111080000Y-85450000D01*
X114020000Y-85330000D02*
X111080000Y-85330000D01*
X111080000Y-89870000D02*
X111210000Y-89870000D01*
X111080000Y-84430000D02*
X111080000Y-89870000D01*
X111210000Y-84430000D02*
X111080000Y-84430000D01*
X114020000Y-89870000D02*
X113890000Y-89870000D01*
X114020000Y-84430000D02*
X114020000Y-89870000D01*
X113890000Y-84430000D02*
X114020000Y-84430000D01*
%TO.C,C7*%
X152569000Y-82420000D02*
X151311000Y-82420000D01*
X152569000Y-84260000D02*
X151311000Y-84260000D01*
%TO.C,C6*%
X152529000Y-95120000D02*
X151271000Y-95120000D01*
X152529000Y-96960000D02*
X151271000Y-96960000D01*
%TO.C,C5*%
X132249000Y-95120000D02*
X130991000Y-95120000D01*
X132249000Y-96960000D02*
X130991000Y-96960000D01*
%TO.C,C4*%
X152569000Y-107820000D02*
X151311000Y-107820000D01*
X152569000Y-109660000D02*
X151311000Y-109660000D01*
%TO.C,C3*%
X121184775Y-110465000D02*
X121184775Y-109965000D01*
X121434775Y-110215000D02*
X120934775Y-110215000D01*
X116029000Y-109024000D02*
X116029000Y-108456000D01*
X116069000Y-109258000D02*
X116069000Y-108222000D01*
X116109000Y-109417000D02*
X116109000Y-108063000D01*
X116149000Y-109545000D02*
X116149000Y-107935000D01*
X116189000Y-109655000D02*
X116189000Y-107825000D01*
X116229000Y-109751000D02*
X116229000Y-107729000D01*
X116269000Y-109838000D02*
X116269000Y-107642000D01*
X116309000Y-109918000D02*
X116309000Y-107562000D01*
X116349000Y-109991000D02*
X116349000Y-107489000D01*
X116389000Y-110059000D02*
X116389000Y-107421000D01*
X116429000Y-110123000D02*
X116429000Y-107357000D01*
X116469000Y-110183000D02*
X116469000Y-107297000D01*
X116509000Y-110240000D02*
X116509000Y-107240000D01*
X116549000Y-110294000D02*
X116549000Y-107186000D01*
X116589000Y-110345000D02*
X116589000Y-107135000D01*
X116629000Y-107700000D02*
X116629000Y-107087000D01*
X116629000Y-110393000D02*
X116629000Y-109780000D01*
X116669000Y-107700000D02*
X116669000Y-107041000D01*
X116669000Y-110439000D02*
X116669000Y-109780000D01*
X116709000Y-107700000D02*
X116709000Y-106997000D01*
X116709000Y-110483000D02*
X116709000Y-109780000D01*
X116749000Y-107700000D02*
X116749000Y-106955000D01*
X116749000Y-110525000D02*
X116749000Y-109780000D01*
X116789000Y-107700000D02*
X116789000Y-106914000D01*
X116789000Y-110566000D02*
X116789000Y-109780000D01*
X116829000Y-107700000D02*
X116829000Y-106876000D01*
X116829000Y-110604000D02*
X116829000Y-109780000D01*
X116869000Y-107700000D02*
X116869000Y-106839000D01*
X116869000Y-110641000D02*
X116869000Y-109780000D01*
X116909000Y-107700000D02*
X116909000Y-106803000D01*
X116909000Y-110677000D02*
X116909000Y-109780000D01*
X116949000Y-107700000D02*
X116949000Y-106769000D01*
X116949000Y-110711000D02*
X116949000Y-109780000D01*
X116989000Y-107700000D02*
X116989000Y-106736000D01*
X116989000Y-110744000D02*
X116989000Y-109780000D01*
X117029000Y-107700000D02*
X117029000Y-106705000D01*
X117029000Y-110775000D02*
X117029000Y-109780000D01*
X117069000Y-107700000D02*
X117069000Y-106675000D01*
X117069000Y-110805000D02*
X117069000Y-109780000D01*
X117109000Y-107700000D02*
X117109000Y-106645000D01*
X117109000Y-110835000D02*
X117109000Y-109780000D01*
X117149000Y-107700000D02*
X117149000Y-106618000D01*
X117149000Y-110862000D02*
X117149000Y-109780000D01*
X117189000Y-107700000D02*
X117189000Y-106591000D01*
X117189000Y-110889000D02*
X117189000Y-109780000D01*
X117229000Y-107700000D02*
X117229000Y-106565000D01*
X117229000Y-110915000D02*
X117229000Y-109780000D01*
X117269000Y-107700000D02*
X117269000Y-106540000D01*
X117269000Y-110940000D02*
X117269000Y-109780000D01*
X117309000Y-107700000D02*
X117309000Y-106516000D01*
X117309000Y-110964000D02*
X117309000Y-109780000D01*
X117349000Y-107700000D02*
X117349000Y-106493000D01*
X117349000Y-110987000D02*
X117349000Y-109780000D01*
X117389000Y-107700000D02*
X117389000Y-106472000D01*
X117389000Y-111008000D02*
X117389000Y-109780000D01*
X117429000Y-107700000D02*
X117429000Y-106450000D01*
X117429000Y-111030000D02*
X117429000Y-109780000D01*
X117469000Y-107700000D02*
X117469000Y-106430000D01*
X117469000Y-111050000D02*
X117469000Y-109780000D01*
X117509000Y-107700000D02*
X117509000Y-106411000D01*
X117509000Y-111069000D02*
X117509000Y-109780000D01*
X117549000Y-107700000D02*
X117549000Y-106392000D01*
X117549000Y-111088000D02*
X117549000Y-109780000D01*
X117589000Y-107700000D02*
X117589000Y-106375000D01*
X117589000Y-111105000D02*
X117589000Y-109780000D01*
X117629000Y-107700000D02*
X117629000Y-106358000D01*
X117629000Y-111122000D02*
X117629000Y-109780000D01*
X117669000Y-107700000D02*
X117669000Y-106342000D01*
X117669000Y-111138000D02*
X117669000Y-109780000D01*
X117709000Y-107700000D02*
X117709000Y-106326000D01*
X117709000Y-111154000D02*
X117709000Y-109780000D01*
X117749000Y-107700000D02*
X117749000Y-106312000D01*
X117749000Y-111168000D02*
X117749000Y-109780000D01*
X117789000Y-107700000D02*
X117789000Y-106298000D01*
X117789000Y-111182000D02*
X117789000Y-109780000D01*
X117829000Y-107700000D02*
X117829000Y-106285000D01*
X117829000Y-111195000D02*
X117829000Y-109780000D01*
X117869000Y-107700000D02*
X117869000Y-106272000D01*
X117869000Y-111208000D02*
X117869000Y-109780000D01*
X117909000Y-107700000D02*
X117909000Y-106260000D01*
X117909000Y-111220000D02*
X117909000Y-109780000D01*
X117950000Y-107700000D02*
X117950000Y-106249000D01*
X117950000Y-111231000D02*
X117950000Y-109780000D01*
X117990000Y-107700000D02*
X117990000Y-106239000D01*
X117990000Y-111241000D02*
X117990000Y-109780000D01*
X118030000Y-107700000D02*
X118030000Y-106229000D01*
X118030000Y-111251000D02*
X118030000Y-109780000D01*
X118070000Y-107700000D02*
X118070000Y-106220000D01*
X118070000Y-111260000D02*
X118070000Y-109780000D01*
X118110000Y-107700000D02*
X118110000Y-106212000D01*
X118110000Y-111268000D02*
X118110000Y-109780000D01*
X118150000Y-107700000D02*
X118150000Y-106204000D01*
X118150000Y-111276000D02*
X118150000Y-109780000D01*
X118190000Y-107700000D02*
X118190000Y-106197000D01*
X118190000Y-111283000D02*
X118190000Y-109780000D01*
X118230000Y-107700000D02*
X118230000Y-106190000D01*
X118230000Y-111290000D02*
X118230000Y-109780000D01*
X118270000Y-107700000D02*
X118270000Y-106184000D01*
X118270000Y-111296000D02*
X118270000Y-109780000D01*
X118310000Y-107700000D02*
X118310000Y-106179000D01*
X118310000Y-111301000D02*
X118310000Y-109780000D01*
X118350000Y-107700000D02*
X118350000Y-106175000D01*
X118350000Y-111305000D02*
X118350000Y-109780000D01*
X118390000Y-107700000D02*
X118390000Y-106171000D01*
X118390000Y-111309000D02*
X118390000Y-109780000D01*
X118430000Y-107700000D02*
X118430000Y-106167000D01*
X118430000Y-111313000D02*
X118430000Y-109780000D01*
X118470000Y-107700000D02*
X118470000Y-106164000D01*
X118470000Y-111316000D02*
X118470000Y-109780000D01*
X118510000Y-107700000D02*
X118510000Y-106162000D01*
X118510000Y-111318000D02*
X118510000Y-109780000D01*
X118550000Y-107700000D02*
X118550000Y-106161000D01*
X118550000Y-111319000D02*
X118550000Y-109780000D01*
X118590000Y-111320000D02*
X118590000Y-109780000D01*
X118590000Y-107700000D02*
X118590000Y-106160000D01*
X118630000Y-111320000D02*
X118630000Y-109780000D01*
X118630000Y-107700000D02*
X118630000Y-106160000D01*
X121250000Y-108740000D02*
G75*
G03*
X121250000Y-108740000I-2620000J0D01*
G01*
%TO.C,C2*%
X116075225Y-81615000D02*
X116075225Y-82115000D01*
X115825225Y-81865000D02*
X116325225Y-81865000D01*
X121231000Y-83056000D02*
X121231000Y-83624000D01*
X121191000Y-82822000D02*
X121191000Y-83858000D01*
X121151000Y-82663000D02*
X121151000Y-84017000D01*
X121111000Y-82535000D02*
X121111000Y-84145000D01*
X121071000Y-82425000D02*
X121071000Y-84255000D01*
X121031000Y-82329000D02*
X121031000Y-84351000D01*
X120991000Y-82242000D02*
X120991000Y-84438000D01*
X120951000Y-82162000D02*
X120951000Y-84518000D01*
X120911000Y-82089000D02*
X120911000Y-84591000D01*
X120871000Y-82021000D02*
X120871000Y-84659000D01*
X120831000Y-81957000D02*
X120831000Y-84723000D01*
X120791000Y-81897000D02*
X120791000Y-84783000D01*
X120751000Y-81840000D02*
X120751000Y-84840000D01*
X120711000Y-81786000D02*
X120711000Y-84894000D01*
X120671000Y-81735000D02*
X120671000Y-84945000D01*
X120631000Y-84380000D02*
X120631000Y-84993000D01*
X120631000Y-81687000D02*
X120631000Y-82300000D01*
X120591000Y-84380000D02*
X120591000Y-85039000D01*
X120591000Y-81641000D02*
X120591000Y-82300000D01*
X120551000Y-84380000D02*
X120551000Y-85083000D01*
X120551000Y-81597000D02*
X120551000Y-82300000D01*
X120511000Y-84380000D02*
X120511000Y-85125000D01*
X120511000Y-81555000D02*
X120511000Y-82300000D01*
X120471000Y-84380000D02*
X120471000Y-85166000D01*
X120471000Y-81514000D02*
X120471000Y-82300000D01*
X120431000Y-84380000D02*
X120431000Y-85204000D01*
X120431000Y-81476000D02*
X120431000Y-82300000D01*
X120391000Y-84380000D02*
X120391000Y-85241000D01*
X120391000Y-81439000D02*
X120391000Y-82300000D01*
X120351000Y-84380000D02*
X120351000Y-85277000D01*
X120351000Y-81403000D02*
X120351000Y-82300000D01*
X120311000Y-84380000D02*
X120311000Y-85311000D01*
X120311000Y-81369000D02*
X120311000Y-82300000D01*
X120271000Y-84380000D02*
X120271000Y-85344000D01*
X120271000Y-81336000D02*
X120271000Y-82300000D01*
X120231000Y-84380000D02*
X120231000Y-85375000D01*
X120231000Y-81305000D02*
X120231000Y-82300000D01*
X120191000Y-84380000D02*
X120191000Y-85405000D01*
X120191000Y-81275000D02*
X120191000Y-82300000D01*
X120151000Y-84380000D02*
X120151000Y-85435000D01*
X120151000Y-81245000D02*
X120151000Y-82300000D01*
X120111000Y-84380000D02*
X120111000Y-85462000D01*
X120111000Y-81218000D02*
X120111000Y-82300000D01*
X120071000Y-84380000D02*
X120071000Y-85489000D01*
X120071000Y-81191000D02*
X120071000Y-82300000D01*
X120031000Y-84380000D02*
X120031000Y-85515000D01*
X120031000Y-81165000D02*
X120031000Y-82300000D01*
X119991000Y-84380000D02*
X119991000Y-85540000D01*
X119991000Y-81140000D02*
X119991000Y-82300000D01*
X119951000Y-84380000D02*
X119951000Y-85564000D01*
X119951000Y-81116000D02*
X119951000Y-82300000D01*
X119911000Y-84380000D02*
X119911000Y-85587000D01*
X119911000Y-81093000D02*
X119911000Y-82300000D01*
X119871000Y-84380000D02*
X119871000Y-85608000D01*
X119871000Y-81072000D02*
X119871000Y-82300000D01*
X119831000Y-84380000D02*
X119831000Y-85630000D01*
X119831000Y-81050000D02*
X119831000Y-82300000D01*
X119791000Y-84380000D02*
X119791000Y-85650000D01*
X119791000Y-81030000D02*
X119791000Y-82300000D01*
X119751000Y-84380000D02*
X119751000Y-85669000D01*
X119751000Y-81011000D02*
X119751000Y-82300000D01*
X119711000Y-84380000D02*
X119711000Y-85688000D01*
X119711000Y-80992000D02*
X119711000Y-82300000D01*
X119671000Y-84380000D02*
X119671000Y-85705000D01*
X119671000Y-80975000D02*
X119671000Y-82300000D01*
X119631000Y-84380000D02*
X119631000Y-85722000D01*
X119631000Y-80958000D02*
X119631000Y-82300000D01*
X119591000Y-84380000D02*
X119591000Y-85738000D01*
X119591000Y-80942000D02*
X119591000Y-82300000D01*
X119551000Y-84380000D02*
X119551000Y-85754000D01*
X119551000Y-80926000D02*
X119551000Y-82300000D01*
X119511000Y-84380000D02*
X119511000Y-85768000D01*
X119511000Y-80912000D02*
X119511000Y-82300000D01*
X119471000Y-84380000D02*
X119471000Y-85782000D01*
X119471000Y-80898000D02*
X119471000Y-82300000D01*
X119431000Y-84380000D02*
X119431000Y-85795000D01*
X119431000Y-80885000D02*
X119431000Y-82300000D01*
X119391000Y-84380000D02*
X119391000Y-85808000D01*
X119391000Y-80872000D02*
X119391000Y-82300000D01*
X119351000Y-84380000D02*
X119351000Y-85820000D01*
X119351000Y-80860000D02*
X119351000Y-82300000D01*
X119310000Y-84380000D02*
X119310000Y-85831000D01*
X119310000Y-80849000D02*
X119310000Y-82300000D01*
X119270000Y-84380000D02*
X119270000Y-85841000D01*
X119270000Y-80839000D02*
X119270000Y-82300000D01*
X119230000Y-84380000D02*
X119230000Y-85851000D01*
X119230000Y-80829000D02*
X119230000Y-82300000D01*
X119190000Y-84380000D02*
X119190000Y-85860000D01*
X119190000Y-80820000D02*
X119190000Y-82300000D01*
X119150000Y-84380000D02*
X119150000Y-85868000D01*
X119150000Y-80812000D02*
X119150000Y-82300000D01*
X119110000Y-84380000D02*
X119110000Y-85876000D01*
X119110000Y-80804000D02*
X119110000Y-82300000D01*
X119070000Y-84380000D02*
X119070000Y-85883000D01*
X119070000Y-80797000D02*
X119070000Y-82300000D01*
X119030000Y-84380000D02*
X119030000Y-85890000D01*
X119030000Y-80790000D02*
X119030000Y-82300000D01*
X118990000Y-84380000D02*
X118990000Y-85896000D01*
X118990000Y-80784000D02*
X118990000Y-82300000D01*
X118950000Y-84380000D02*
X118950000Y-85901000D01*
X118950000Y-80779000D02*
X118950000Y-82300000D01*
X118910000Y-84380000D02*
X118910000Y-85905000D01*
X118910000Y-80775000D02*
X118910000Y-82300000D01*
X118870000Y-84380000D02*
X118870000Y-85909000D01*
X118870000Y-80771000D02*
X118870000Y-82300000D01*
X118830000Y-84380000D02*
X118830000Y-85913000D01*
X118830000Y-80767000D02*
X118830000Y-82300000D01*
X118790000Y-84380000D02*
X118790000Y-85916000D01*
X118790000Y-80764000D02*
X118790000Y-82300000D01*
X118750000Y-84380000D02*
X118750000Y-85918000D01*
X118750000Y-80762000D02*
X118750000Y-82300000D01*
X118710000Y-84380000D02*
X118710000Y-85919000D01*
X118710000Y-80761000D02*
X118710000Y-82300000D01*
X118670000Y-80760000D02*
X118670000Y-82300000D01*
X118670000Y-84380000D02*
X118670000Y-85920000D01*
X118630000Y-80760000D02*
X118630000Y-82300000D01*
X118630000Y-84380000D02*
X118630000Y-85920000D01*
X121250000Y-83340000D02*
G75*
G03*
X121250000Y-83340000I-2620000J0D01*
G01*
%TO.C,J6*%
D10*
X125150000Y-148919285D02*
X125150000Y-149455000D01*
X125114285Y-149562142D01*
X125042857Y-149633571D01*
X124935714Y-149669285D01*
X124864285Y-149669285D01*
X125828571Y-148919285D02*
X125685714Y-148919285D01*
X125614285Y-148955000D01*
X125578571Y-148990714D01*
X125507142Y-149097857D01*
X125471428Y-149240714D01*
X125471428Y-149526428D01*
X125507142Y-149597857D01*
X125542857Y-149633571D01*
X125614285Y-149669285D01*
X125757142Y-149669285D01*
X125828571Y-149633571D01*
X125864285Y-149597857D01*
X125900000Y-149526428D01*
X125900000Y-149347857D01*
X125864285Y-149276428D01*
X125828571Y-149240714D01*
X125757142Y-149205000D01*
X125614285Y-149205000D01*
X125542857Y-149240714D01*
X125507142Y-149276428D01*
X125471428Y-149347857D01*
%TO.C,J5*%
X110240000Y-148919285D02*
X110240000Y-149455000D01*
X110204285Y-149562142D01*
X110132857Y-149633571D01*
X110025714Y-149669285D01*
X109954285Y-149669285D01*
X110954285Y-148919285D02*
X110597142Y-148919285D01*
X110561428Y-149276428D01*
X110597142Y-149240714D01*
X110668571Y-149205000D01*
X110847142Y-149205000D01*
X110918571Y-149240714D01*
X110954285Y-149276428D01*
X110990000Y-149347857D01*
X110990000Y-149526428D01*
X110954285Y-149597857D01*
X110918571Y-149633571D01*
X110847142Y-149669285D01*
X110668571Y-149669285D01*
X110597142Y-149633571D01*
X110561428Y-149597857D01*
%TO.C,J3*%
X125000000Y-68730285D02*
X125000000Y-69266000D01*
X124964285Y-69373142D01*
X124892857Y-69444571D01*
X124785714Y-69480285D01*
X124714285Y-69480285D01*
X125285714Y-68730285D02*
X125750000Y-68730285D01*
X125500000Y-69016000D01*
X125607142Y-69016000D01*
X125678571Y-69051714D01*
X125714285Y-69087428D01*
X125750000Y-69158857D01*
X125750000Y-69337428D01*
X125714285Y-69408857D01*
X125678571Y-69444571D01*
X125607142Y-69480285D01*
X125392857Y-69480285D01*
X125321428Y-69444571D01*
X125285714Y-69408857D01*
%TO.C,J2*%
X139986000Y-68730285D02*
X139986000Y-69266000D01*
X139950285Y-69373142D01*
X139878857Y-69444571D01*
X139771714Y-69480285D01*
X139700285Y-69480285D01*
X140307428Y-68801714D02*
X140343142Y-68766000D01*
X140414571Y-68730285D01*
X140593142Y-68730285D01*
X140664571Y-68766000D01*
X140700285Y-68801714D01*
X140736000Y-68873142D01*
X140736000Y-68944571D01*
X140700285Y-69051714D01*
X140271714Y-69480285D01*
X140736000Y-69480285D01*
%TO.C,J1*%
X155480000Y-68730285D02*
X155480000Y-69266000D01*
X155444285Y-69373142D01*
X155372857Y-69444571D01*
X155265714Y-69480285D01*
X155194285Y-69480285D01*
X156230000Y-69480285D02*
X155801428Y-69480285D01*
X156015714Y-69480285D02*
X156015714Y-68730285D01*
X155944285Y-68837428D01*
X155872857Y-68908857D01*
X155801428Y-68944571D01*
%TO.C,RV5*%
X121929285Y-76166428D02*
X121572142Y-76416428D01*
X121929285Y-76595000D02*
X121179285Y-76595000D01*
X121179285Y-76309285D01*
X121215000Y-76237857D01*
X121250714Y-76202142D01*
X121322142Y-76166428D01*
X121429285Y-76166428D01*
X121500714Y-76202142D01*
X121536428Y-76237857D01*
X121572142Y-76309285D01*
X121572142Y-76595000D01*
X121179285Y-75952142D02*
X121929285Y-75702142D01*
X121179285Y-75452142D01*
X121179285Y-74845000D02*
X121179285Y-75202142D01*
X121536428Y-75237857D01*
X121500714Y-75202142D01*
X121465000Y-75130714D01*
X121465000Y-74952142D01*
X121500714Y-74880714D01*
X121536428Y-74845000D01*
X121607857Y-74809285D01*
X121786428Y-74809285D01*
X121857857Y-74845000D01*
X121893571Y-74880714D01*
X121929285Y-74952142D01*
X121929285Y-75130714D01*
X121893571Y-75202142D01*
X121857857Y-75237857D01*
%TO.C,U3*%
X141188571Y-85679285D02*
X141188571Y-86286428D01*
X141224285Y-86357857D01*
X141260000Y-86393571D01*
X141331428Y-86429285D01*
X141474285Y-86429285D01*
X141545714Y-86393571D01*
X141581428Y-86357857D01*
X141617142Y-86286428D01*
X141617142Y-85679285D01*
X141902857Y-85679285D02*
X142367142Y-85679285D01*
X142117142Y-85965000D01*
X142224285Y-85965000D01*
X142295714Y-86000714D01*
X142331428Y-86036428D01*
X142367142Y-86107857D01*
X142367142Y-86286428D01*
X142331428Y-86357857D01*
X142295714Y-86393571D01*
X142224285Y-86429285D01*
X142010000Y-86429285D01*
X141938571Y-86393571D01*
X141902857Y-86357857D01*
X141349285Y-97629285D02*
X141349285Y-97200714D01*
X142099285Y-97415000D02*
X141349285Y-97415000D01*
X142099285Y-96593571D02*
X142099285Y-96950714D01*
X141349285Y-96950714D01*
X141349285Y-96200714D02*
X141349285Y-96129285D01*
X141385000Y-96057857D01*
X141420714Y-96022142D01*
X141492142Y-95986428D01*
X141635000Y-95950714D01*
X141813571Y-95950714D01*
X141956428Y-95986428D01*
X142027857Y-96022142D01*
X142063571Y-96057857D01*
X142099285Y-96129285D01*
X142099285Y-96200714D01*
X142063571Y-96272142D01*
X142027857Y-96307857D01*
X141956428Y-96343571D01*
X141813571Y-96379285D01*
X141635000Y-96379285D01*
X141492142Y-96343571D01*
X141420714Y-96307857D01*
X141385000Y-96272142D01*
X141349285Y-96200714D01*
X141349285Y-95700714D02*
X141349285Y-95200714D01*
X142099285Y-95522142D01*
X141599285Y-94593571D02*
X142099285Y-94593571D01*
X141313571Y-94772142D02*
X141849285Y-94950714D01*
X141849285Y-94486428D01*
%TO.C,R17*%
X153977857Y-77339285D02*
X153727857Y-76982142D01*
X153549285Y-77339285D02*
X153549285Y-76589285D01*
X153835000Y-76589285D01*
X153906428Y-76625000D01*
X153942142Y-76660714D01*
X153977857Y-76732142D01*
X153977857Y-76839285D01*
X153942142Y-76910714D01*
X153906428Y-76946428D01*
X153835000Y-76982142D01*
X153549285Y-76982142D01*
X154692142Y-77339285D02*
X154263571Y-77339285D01*
X154477857Y-77339285D02*
X154477857Y-76589285D01*
X154406428Y-76696428D01*
X154335000Y-76767857D01*
X154263571Y-76803571D01*
X154942142Y-76589285D02*
X155442142Y-76589285D01*
X155120714Y-77339285D01*
X154370714Y-79869285D02*
X153942142Y-79869285D01*
X154156428Y-79869285D02*
X154156428Y-79119285D01*
X154085000Y-79226428D01*
X154013571Y-79297857D01*
X153942142Y-79333571D01*
X154692142Y-79869285D02*
X154692142Y-79119285D01*
X154763571Y-79583571D02*
X154977857Y-79869285D01*
X154977857Y-79369285D02*
X154692142Y-79655000D01*
%TO.C,R16*%
X153822857Y-85429285D02*
X153572857Y-85072142D01*
X153394285Y-85429285D02*
X153394285Y-84679285D01*
X153680000Y-84679285D01*
X153751428Y-84715000D01*
X153787142Y-84750714D01*
X153822857Y-84822142D01*
X153822857Y-84929285D01*
X153787142Y-85000714D01*
X153751428Y-85036428D01*
X153680000Y-85072142D01*
X153394285Y-85072142D01*
X154537142Y-85429285D02*
X154108571Y-85429285D01*
X154322857Y-85429285D02*
X154322857Y-84679285D01*
X154251428Y-84786428D01*
X154180000Y-84857857D01*
X154108571Y-84893571D01*
X155180000Y-84679285D02*
X155037142Y-84679285D01*
X154965714Y-84715000D01*
X154930000Y-84750714D01*
X154858571Y-84857857D01*
X154822857Y-85000714D01*
X154822857Y-85286428D01*
X154858571Y-85357857D01*
X154894285Y-85393571D01*
X154965714Y-85429285D01*
X155108571Y-85429285D01*
X155180000Y-85393571D01*
X155215714Y-85357857D01*
X155251428Y-85286428D01*
X155251428Y-85107857D01*
X155215714Y-85036428D01*
X155180000Y-85000714D01*
X155108571Y-84965000D01*
X154965714Y-84965000D01*
X154894285Y-85000714D01*
X154858571Y-85036428D01*
X154822857Y-85107857D01*
X154013571Y-87489285D02*
X153585000Y-87489285D01*
X153799285Y-87489285D02*
X153799285Y-86739285D01*
X153727857Y-86846428D01*
X153656428Y-86917857D01*
X153585000Y-86953571D01*
X154477857Y-86739285D02*
X154549285Y-86739285D01*
X154620714Y-86775000D01*
X154656428Y-86810714D01*
X154692142Y-86882142D01*
X154727857Y-87025000D01*
X154727857Y-87203571D01*
X154692142Y-87346428D01*
X154656428Y-87417857D01*
X154620714Y-87453571D01*
X154549285Y-87489285D01*
X154477857Y-87489285D01*
X154406428Y-87453571D01*
X154370714Y-87417857D01*
X154335000Y-87346428D01*
X154299285Y-87203571D01*
X154299285Y-87025000D01*
X154335000Y-86882142D01*
X154370714Y-86810714D01*
X154406428Y-86775000D01*
X154477857Y-86739285D01*
X155049285Y-87489285D02*
X155049285Y-86739285D01*
X155120714Y-87203571D02*
X155335000Y-87489285D01*
X155335000Y-86989285D02*
X155049285Y-87275000D01*
%TO.C,R15*%
X153977857Y-89267285D02*
X153727857Y-88910142D01*
X153549285Y-89267285D02*
X153549285Y-88517285D01*
X153835000Y-88517285D01*
X153906428Y-88553000D01*
X153942142Y-88588714D01*
X153977857Y-88660142D01*
X153977857Y-88767285D01*
X153942142Y-88838714D01*
X153906428Y-88874428D01*
X153835000Y-88910142D01*
X153549285Y-88910142D01*
X154692142Y-89267285D02*
X154263571Y-89267285D01*
X154477857Y-89267285D02*
X154477857Y-88517285D01*
X154406428Y-88624428D01*
X154335000Y-88695857D01*
X154263571Y-88731571D01*
X155370714Y-88517285D02*
X155013571Y-88517285D01*
X154977857Y-88874428D01*
X155013571Y-88838714D01*
X155085000Y-88803000D01*
X155263571Y-88803000D01*
X155335000Y-88838714D01*
X155370714Y-88874428D01*
X155406428Y-88945857D01*
X155406428Y-89124428D01*
X155370714Y-89195857D01*
X155335000Y-89231571D01*
X155263571Y-89267285D01*
X155085000Y-89267285D01*
X155013571Y-89231571D01*
X154977857Y-89195857D01*
X154013571Y-91299285D02*
X153585000Y-91299285D01*
X153799285Y-91299285D02*
X153799285Y-90549285D01*
X153727857Y-90656428D01*
X153656428Y-90727857D01*
X153585000Y-90763571D01*
X154477857Y-90549285D02*
X154549285Y-90549285D01*
X154620714Y-90585000D01*
X154656428Y-90620714D01*
X154692142Y-90692142D01*
X154727857Y-90835000D01*
X154727857Y-91013571D01*
X154692142Y-91156428D01*
X154656428Y-91227857D01*
X154620714Y-91263571D01*
X154549285Y-91299285D01*
X154477857Y-91299285D01*
X154406428Y-91263571D01*
X154370714Y-91227857D01*
X154335000Y-91156428D01*
X154299285Y-91013571D01*
X154299285Y-90835000D01*
X154335000Y-90692142D01*
X154370714Y-90620714D01*
X154406428Y-90585000D01*
X154477857Y-90549285D01*
X155049285Y-91299285D02*
X155049285Y-90549285D01*
X155120714Y-91013571D02*
X155335000Y-91299285D01*
X155335000Y-90799285D02*
X155049285Y-91085000D01*
%TO.C,R14*%
X153949857Y-110702285D02*
X153699857Y-110345142D01*
X153521285Y-110702285D02*
X153521285Y-109952285D01*
X153807000Y-109952285D01*
X153878428Y-109988000D01*
X153914142Y-110023714D01*
X153949857Y-110095142D01*
X153949857Y-110202285D01*
X153914142Y-110273714D01*
X153878428Y-110309428D01*
X153807000Y-110345142D01*
X153521285Y-110345142D01*
X154664142Y-110702285D02*
X154235571Y-110702285D01*
X154449857Y-110702285D02*
X154449857Y-109952285D01*
X154378428Y-110059428D01*
X154307000Y-110130857D01*
X154235571Y-110166571D01*
X155307000Y-110202285D02*
X155307000Y-110702285D01*
X155128428Y-109916571D02*
X154949857Y-110452285D01*
X155414142Y-110452285D01*
X154370714Y-112889285D02*
X153942142Y-112889285D01*
X154156428Y-112889285D02*
X154156428Y-112139285D01*
X154085000Y-112246428D01*
X154013571Y-112317857D01*
X153942142Y-112353571D01*
X154692142Y-112889285D02*
X154692142Y-112139285D01*
X154763571Y-112603571D02*
X154977857Y-112889285D01*
X154977857Y-112389285D02*
X154692142Y-112675000D01*
%TO.C,R13*%
X153949857Y-103336285D02*
X153699857Y-102979142D01*
X153521285Y-103336285D02*
X153521285Y-102586285D01*
X153807000Y-102586285D01*
X153878428Y-102622000D01*
X153914142Y-102657714D01*
X153949857Y-102729142D01*
X153949857Y-102836285D01*
X153914142Y-102907714D01*
X153878428Y-102943428D01*
X153807000Y-102979142D01*
X153521285Y-102979142D01*
X154664142Y-103336285D02*
X154235571Y-103336285D01*
X154449857Y-103336285D02*
X154449857Y-102586285D01*
X154378428Y-102693428D01*
X154307000Y-102764857D01*
X154235571Y-102800571D01*
X154914142Y-102586285D02*
X155378428Y-102586285D01*
X155128428Y-102872000D01*
X155235571Y-102872000D01*
X155307000Y-102907714D01*
X155342714Y-102943428D01*
X155378428Y-103014857D01*
X155378428Y-103193428D01*
X155342714Y-103264857D01*
X155307000Y-103300571D01*
X155235571Y-103336285D01*
X155021285Y-103336285D01*
X154949857Y-103300571D01*
X154914142Y-103264857D01*
X154013571Y-105269285D02*
X153585000Y-105269285D01*
X153799285Y-105269285D02*
X153799285Y-104519285D01*
X153727857Y-104626428D01*
X153656428Y-104697857D01*
X153585000Y-104733571D01*
X154477857Y-104519285D02*
X154549285Y-104519285D01*
X154620714Y-104555000D01*
X154656428Y-104590714D01*
X154692142Y-104662142D01*
X154727857Y-104805000D01*
X154727857Y-104983571D01*
X154692142Y-105126428D01*
X154656428Y-105197857D01*
X154620714Y-105233571D01*
X154549285Y-105269285D01*
X154477857Y-105269285D01*
X154406428Y-105233571D01*
X154370714Y-105197857D01*
X154335000Y-105126428D01*
X154299285Y-104983571D01*
X154299285Y-104805000D01*
X154335000Y-104662142D01*
X154370714Y-104590714D01*
X154406428Y-104555000D01*
X154477857Y-104519285D01*
X155049285Y-105269285D02*
X155049285Y-104519285D01*
X155120714Y-104983571D02*
X155335000Y-105269285D01*
X155335000Y-104769285D02*
X155049285Y-105055000D01*
%TO.C,R12*%
X128577857Y-103237285D02*
X128327857Y-102880142D01*
X128149285Y-103237285D02*
X128149285Y-102487285D01*
X128435000Y-102487285D01*
X128506428Y-102523000D01*
X128542142Y-102558714D01*
X128577857Y-102630142D01*
X128577857Y-102737285D01*
X128542142Y-102808714D01*
X128506428Y-102844428D01*
X128435000Y-102880142D01*
X128149285Y-102880142D01*
X129292142Y-103237285D02*
X128863571Y-103237285D01*
X129077857Y-103237285D02*
X129077857Y-102487285D01*
X129006428Y-102594428D01*
X128935000Y-102665857D01*
X128863571Y-102701571D01*
X129577857Y-102558714D02*
X129613571Y-102523000D01*
X129685000Y-102487285D01*
X129863571Y-102487285D01*
X129935000Y-102523000D01*
X129970714Y-102558714D01*
X130006428Y-102630142D01*
X130006428Y-102701571D01*
X129970714Y-102808714D01*
X129542142Y-103237285D01*
X130006428Y-103237285D01*
X128613571Y-105269285D02*
X128185000Y-105269285D01*
X128399285Y-105269285D02*
X128399285Y-104519285D01*
X128327857Y-104626428D01*
X128256428Y-104697857D01*
X128185000Y-104733571D01*
X129077857Y-104519285D02*
X129149285Y-104519285D01*
X129220714Y-104555000D01*
X129256428Y-104590714D01*
X129292142Y-104662142D01*
X129327857Y-104805000D01*
X129327857Y-104983571D01*
X129292142Y-105126428D01*
X129256428Y-105197857D01*
X129220714Y-105233571D01*
X129149285Y-105269285D01*
X129077857Y-105269285D01*
X129006428Y-105233571D01*
X128970714Y-105197857D01*
X128935000Y-105126428D01*
X128899285Y-104983571D01*
X128899285Y-104805000D01*
X128935000Y-104662142D01*
X128970714Y-104590714D01*
X129006428Y-104555000D01*
X129077857Y-104519285D01*
X129649285Y-105269285D02*
X129649285Y-104519285D01*
X129720714Y-104983571D02*
X129935000Y-105269285D01*
X129935000Y-104769285D02*
X129649285Y-105055000D01*
%TO.C,R11*%
X128517857Y-99339285D02*
X128267857Y-98982142D01*
X128089285Y-99339285D02*
X128089285Y-98589285D01*
X128375000Y-98589285D01*
X128446428Y-98625000D01*
X128482142Y-98660714D01*
X128517857Y-98732142D01*
X128517857Y-98839285D01*
X128482142Y-98910714D01*
X128446428Y-98946428D01*
X128375000Y-98982142D01*
X128089285Y-98982142D01*
X129232142Y-99339285D02*
X128803571Y-99339285D01*
X129017857Y-99339285D02*
X129017857Y-98589285D01*
X128946428Y-98696428D01*
X128875000Y-98767857D01*
X128803571Y-98803571D01*
X129946428Y-99339285D02*
X129517857Y-99339285D01*
X129732142Y-99339285D02*
X129732142Y-98589285D01*
X129660714Y-98696428D01*
X129589285Y-98767857D01*
X129517857Y-98803571D01*
X128613571Y-101459285D02*
X128185000Y-101459285D01*
X128399285Y-101459285D02*
X128399285Y-100709285D01*
X128327857Y-100816428D01*
X128256428Y-100887857D01*
X128185000Y-100923571D01*
X129077857Y-100709285D02*
X129149285Y-100709285D01*
X129220714Y-100745000D01*
X129256428Y-100780714D01*
X129292142Y-100852142D01*
X129327857Y-100995000D01*
X129327857Y-101173571D01*
X129292142Y-101316428D01*
X129256428Y-101387857D01*
X129220714Y-101423571D01*
X129149285Y-101459285D01*
X129077857Y-101459285D01*
X129006428Y-101423571D01*
X128970714Y-101387857D01*
X128935000Y-101316428D01*
X128899285Y-101173571D01*
X128899285Y-100995000D01*
X128935000Y-100852142D01*
X128970714Y-100780714D01*
X129006428Y-100745000D01*
X129077857Y-100709285D01*
X129649285Y-101459285D02*
X129649285Y-100709285D01*
X129720714Y-101173571D02*
X129935000Y-101459285D01*
X129935000Y-100959285D02*
X129649285Y-101245000D01*
%TO.C,R10*%
X153977857Y-99427285D02*
X153727857Y-99070142D01*
X153549285Y-99427285D02*
X153549285Y-98677285D01*
X153835000Y-98677285D01*
X153906428Y-98713000D01*
X153942142Y-98748714D01*
X153977857Y-98820142D01*
X153977857Y-98927285D01*
X153942142Y-98998714D01*
X153906428Y-99034428D01*
X153835000Y-99070142D01*
X153549285Y-99070142D01*
X154692142Y-99427285D02*
X154263571Y-99427285D01*
X154477857Y-99427285D02*
X154477857Y-98677285D01*
X154406428Y-98784428D01*
X154335000Y-98855857D01*
X154263571Y-98891571D01*
X155156428Y-98677285D02*
X155227857Y-98677285D01*
X155299285Y-98713000D01*
X155335000Y-98748714D01*
X155370714Y-98820142D01*
X155406428Y-98963000D01*
X155406428Y-99141571D01*
X155370714Y-99284428D01*
X155335000Y-99355857D01*
X155299285Y-99391571D01*
X155227857Y-99427285D01*
X155156428Y-99427285D01*
X155085000Y-99391571D01*
X155049285Y-99355857D01*
X155013571Y-99284428D01*
X154977857Y-99141571D01*
X154977857Y-98963000D01*
X155013571Y-98820142D01*
X155049285Y-98748714D01*
X155085000Y-98713000D01*
X155156428Y-98677285D01*
X154013571Y-101459285D02*
X153585000Y-101459285D01*
X153799285Y-101459285D02*
X153799285Y-100709285D01*
X153727857Y-100816428D01*
X153656428Y-100887857D01*
X153585000Y-100923571D01*
X154477857Y-100709285D02*
X154549285Y-100709285D01*
X154620714Y-100745000D01*
X154656428Y-100780714D01*
X154692142Y-100852142D01*
X154727857Y-100995000D01*
X154727857Y-101173571D01*
X154692142Y-101316428D01*
X154656428Y-101387857D01*
X154620714Y-101423571D01*
X154549285Y-101459285D01*
X154477857Y-101459285D01*
X154406428Y-101423571D01*
X154370714Y-101387857D01*
X154335000Y-101316428D01*
X154299285Y-101173571D01*
X154299285Y-100995000D01*
X154335000Y-100852142D01*
X154370714Y-100780714D01*
X154406428Y-100745000D01*
X154477857Y-100709285D01*
X155049285Y-101459285D02*
X155049285Y-100709285D01*
X155120714Y-101173571D02*
X155335000Y-101459285D01*
X155335000Y-100959285D02*
X155049285Y-101245000D01*
%TO.C,R9*%
X112127285Y-122835000D02*
X111770142Y-123085000D01*
X112127285Y-123263571D02*
X111377285Y-123263571D01*
X111377285Y-122977857D01*
X111413000Y-122906428D01*
X111448714Y-122870714D01*
X111520142Y-122835000D01*
X111627285Y-122835000D01*
X111698714Y-122870714D01*
X111734428Y-122906428D01*
X111770142Y-122977857D01*
X111770142Y-123263571D01*
X112127285Y-122477857D02*
X112127285Y-122335000D01*
X112091571Y-122263571D01*
X112055857Y-122227857D01*
X111948714Y-122156428D01*
X111805857Y-122120714D01*
X111520142Y-122120714D01*
X111448714Y-122156428D01*
X111413000Y-122192142D01*
X111377285Y-122263571D01*
X111377285Y-122406428D01*
X111413000Y-122477857D01*
X111448714Y-122513571D01*
X111520142Y-122549285D01*
X111698714Y-122549285D01*
X111770142Y-122513571D01*
X111805857Y-122477857D01*
X111841571Y-122406428D01*
X111841571Y-122263571D01*
X111805857Y-122192142D01*
X111770142Y-122156428D01*
X111698714Y-122120714D01*
X114159285Y-123156428D02*
X114159285Y-123585000D01*
X114159285Y-123370714D02*
X113409285Y-123370714D01*
X113516428Y-123442142D01*
X113587857Y-123513571D01*
X113623571Y-123585000D01*
X113409285Y-122477857D02*
X113409285Y-122835000D01*
X113766428Y-122870714D01*
X113730714Y-122835000D01*
X113695000Y-122763571D01*
X113695000Y-122585000D01*
X113730714Y-122513571D01*
X113766428Y-122477857D01*
X113837857Y-122442142D01*
X114016428Y-122442142D01*
X114087857Y-122477857D01*
X114123571Y-122513571D01*
X114159285Y-122585000D01*
X114159285Y-122763571D01*
X114123571Y-122835000D01*
X114087857Y-122870714D01*
X114159285Y-122120714D02*
X113409285Y-122120714D01*
X113873571Y-122049285D02*
X114159285Y-121835000D01*
X113659285Y-121835000D02*
X113945000Y-122120714D01*
%TO.C,R8*%
X100923285Y-122835000D02*
X100566142Y-123085000D01*
X100923285Y-123263571D02*
X100173285Y-123263571D01*
X100173285Y-122977857D01*
X100209000Y-122906428D01*
X100244714Y-122870714D01*
X100316142Y-122835000D01*
X100423285Y-122835000D01*
X100494714Y-122870714D01*
X100530428Y-122906428D01*
X100566142Y-122977857D01*
X100566142Y-123263571D01*
X100494714Y-122406428D02*
X100459000Y-122477857D01*
X100423285Y-122513571D01*
X100351857Y-122549285D01*
X100316142Y-122549285D01*
X100244714Y-122513571D01*
X100209000Y-122477857D01*
X100173285Y-122406428D01*
X100173285Y-122263571D01*
X100209000Y-122192142D01*
X100244714Y-122156428D01*
X100316142Y-122120714D01*
X100351857Y-122120714D01*
X100423285Y-122156428D01*
X100459000Y-122192142D01*
X100494714Y-122263571D01*
X100494714Y-122406428D01*
X100530428Y-122477857D01*
X100566142Y-122513571D01*
X100637571Y-122549285D01*
X100780428Y-122549285D01*
X100851857Y-122513571D01*
X100887571Y-122477857D01*
X100923285Y-122406428D01*
X100923285Y-122263571D01*
X100887571Y-122192142D01*
X100851857Y-122156428D01*
X100780428Y-122120714D01*
X100637571Y-122120714D01*
X100566142Y-122156428D01*
X100530428Y-122192142D01*
X100494714Y-122263571D01*
X101979285Y-123227857D02*
X101979285Y-123370714D01*
X102015000Y-123442142D01*
X102050714Y-123477857D01*
X102157857Y-123549285D01*
X102300714Y-123585000D01*
X102586428Y-123585000D01*
X102657857Y-123549285D01*
X102693571Y-123513571D01*
X102729285Y-123442142D01*
X102729285Y-123299285D01*
X102693571Y-123227857D01*
X102657857Y-123192142D01*
X102586428Y-123156428D01*
X102407857Y-123156428D01*
X102336428Y-123192142D01*
X102300714Y-123227857D01*
X102265000Y-123299285D01*
X102265000Y-123442142D01*
X102300714Y-123513571D01*
X102336428Y-123549285D01*
X102407857Y-123585000D01*
X102300714Y-122727857D02*
X102265000Y-122799285D01*
X102229285Y-122835000D01*
X102157857Y-122870714D01*
X102122142Y-122870714D01*
X102050714Y-122835000D01*
X102015000Y-122799285D01*
X101979285Y-122727857D01*
X101979285Y-122585000D01*
X102015000Y-122513571D01*
X102050714Y-122477857D01*
X102122142Y-122442142D01*
X102157857Y-122442142D01*
X102229285Y-122477857D01*
X102265000Y-122513571D01*
X102300714Y-122585000D01*
X102300714Y-122727857D01*
X102336428Y-122799285D01*
X102372142Y-122835000D01*
X102443571Y-122870714D01*
X102586428Y-122870714D01*
X102657857Y-122835000D01*
X102693571Y-122799285D01*
X102729285Y-122727857D01*
X102729285Y-122585000D01*
X102693571Y-122513571D01*
X102657857Y-122477857D01*
X102586428Y-122442142D01*
X102443571Y-122442142D01*
X102372142Y-122477857D01*
X102336428Y-122513571D01*
X102300714Y-122585000D01*
X102729285Y-122120714D02*
X101979285Y-122120714D01*
X102443571Y-122049285D02*
X102729285Y-121835000D01*
X102229285Y-121835000D02*
X102515000Y-122120714D01*
%TO.C,R7*%
X96887285Y-122835000D02*
X96530142Y-123085000D01*
X96887285Y-123263571D02*
X96137285Y-123263571D01*
X96137285Y-122977857D01*
X96173000Y-122906428D01*
X96208714Y-122870714D01*
X96280142Y-122835000D01*
X96387285Y-122835000D01*
X96458714Y-122870714D01*
X96494428Y-122906428D01*
X96530142Y-122977857D01*
X96530142Y-123263571D01*
X96137285Y-122585000D02*
X96137285Y-122085000D01*
X96887285Y-122406428D01*
X98919285Y-123156428D02*
X98919285Y-123585000D01*
X98919285Y-123370714D02*
X98169285Y-123370714D01*
X98276428Y-123442142D01*
X98347857Y-123513571D01*
X98383571Y-123585000D01*
X98169285Y-122477857D02*
X98169285Y-122835000D01*
X98526428Y-122870714D01*
X98490714Y-122835000D01*
X98455000Y-122763571D01*
X98455000Y-122585000D01*
X98490714Y-122513571D01*
X98526428Y-122477857D01*
X98597857Y-122442142D01*
X98776428Y-122442142D01*
X98847857Y-122477857D01*
X98883571Y-122513571D01*
X98919285Y-122585000D01*
X98919285Y-122763571D01*
X98883571Y-122835000D01*
X98847857Y-122870714D01*
X98919285Y-122120714D02*
X98169285Y-122120714D01*
X98633571Y-122049285D02*
X98919285Y-121835000D01*
X98419285Y-121835000D02*
X98705000Y-122120714D01*
%TO.C,R6*%
X128935000Y-85457285D02*
X128685000Y-85100142D01*
X128506428Y-85457285D02*
X128506428Y-84707285D01*
X128792142Y-84707285D01*
X128863571Y-84743000D01*
X128899285Y-84778714D01*
X128935000Y-84850142D01*
X128935000Y-84957285D01*
X128899285Y-85028714D01*
X128863571Y-85064428D01*
X128792142Y-85100142D01*
X128506428Y-85100142D01*
X129577857Y-84707285D02*
X129435000Y-84707285D01*
X129363571Y-84743000D01*
X129327857Y-84778714D01*
X129256428Y-84885857D01*
X129220714Y-85028714D01*
X129220714Y-85314428D01*
X129256428Y-85385857D01*
X129292142Y-85421571D01*
X129363571Y-85457285D01*
X129506428Y-85457285D01*
X129577857Y-85421571D01*
X129613571Y-85385857D01*
X129649285Y-85314428D01*
X129649285Y-85135857D01*
X129613571Y-85064428D01*
X129577857Y-85028714D01*
X129506428Y-84993000D01*
X129363571Y-84993000D01*
X129292142Y-85028714D01*
X129256428Y-85064428D01*
X129220714Y-85135857D01*
X128613571Y-87489285D02*
X128185000Y-87489285D01*
X128399285Y-87489285D02*
X128399285Y-86739285D01*
X128327857Y-86846428D01*
X128256428Y-86917857D01*
X128185000Y-86953571D01*
X129292142Y-86739285D02*
X128935000Y-86739285D01*
X128899285Y-87096428D01*
X128935000Y-87060714D01*
X129006428Y-87025000D01*
X129185000Y-87025000D01*
X129256428Y-87060714D01*
X129292142Y-87096428D01*
X129327857Y-87167857D01*
X129327857Y-87346428D01*
X129292142Y-87417857D01*
X129256428Y-87453571D01*
X129185000Y-87489285D01*
X129006428Y-87489285D01*
X128935000Y-87453571D01*
X128899285Y-87417857D01*
X129649285Y-87489285D02*
X129649285Y-86739285D01*
X129720714Y-87203571D02*
X129935000Y-87489285D01*
X129935000Y-86989285D02*
X129649285Y-87275000D01*
%TO.C,R3*%
X125688285Y-122835000D02*
X125331142Y-123085000D01*
X125688285Y-123263571D02*
X124938285Y-123263571D01*
X124938285Y-122977857D01*
X124974000Y-122906428D01*
X125009714Y-122870714D01*
X125081142Y-122835000D01*
X125188285Y-122835000D01*
X125259714Y-122870714D01*
X125295428Y-122906428D01*
X125331142Y-122977857D01*
X125331142Y-123263571D01*
X124938285Y-122585000D02*
X124938285Y-122120714D01*
X125224000Y-122370714D01*
X125224000Y-122263571D01*
X125259714Y-122192142D01*
X125295428Y-122156428D01*
X125366857Y-122120714D01*
X125545428Y-122120714D01*
X125616857Y-122156428D01*
X125652571Y-122192142D01*
X125688285Y-122263571D01*
X125688285Y-122477857D01*
X125652571Y-122549285D01*
X125616857Y-122585000D01*
X128129285Y-123513571D02*
X128129285Y-123942142D01*
X128129285Y-123727857D02*
X127379285Y-123727857D01*
X127486428Y-123799285D01*
X127557857Y-123870714D01*
X127593571Y-123942142D01*
X127450714Y-123227857D02*
X127415000Y-123192142D01*
X127379285Y-123120714D01*
X127379285Y-122942142D01*
X127415000Y-122870714D01*
X127450714Y-122835000D01*
X127522142Y-122799285D01*
X127593571Y-122799285D01*
X127700714Y-122835000D01*
X128129285Y-123263571D01*
X128129285Y-122799285D01*
X127379285Y-122335000D02*
X127379285Y-122263571D01*
X127415000Y-122192142D01*
X127450714Y-122156428D01*
X127522142Y-122120714D01*
X127665000Y-122085000D01*
X127843571Y-122085000D01*
X127986428Y-122120714D01*
X128057857Y-122156428D01*
X128093571Y-122192142D01*
X128129285Y-122263571D01*
X128129285Y-122335000D01*
X128093571Y-122406428D01*
X128057857Y-122442142D01*
X127986428Y-122477857D01*
X127843571Y-122513571D01*
X127665000Y-122513571D01*
X127522142Y-122477857D01*
X127450714Y-122442142D01*
X127415000Y-122406428D01*
X127379285Y-122335000D01*
X128129285Y-121763571D02*
X127379285Y-121763571D01*
X127843571Y-121692142D02*
X128129285Y-121477857D01*
X127629285Y-121477857D02*
X127915000Y-121763571D01*
%TO.C,R2*%
X139658285Y-122934000D02*
X139301142Y-123184000D01*
X139658285Y-123362571D02*
X138908285Y-123362571D01*
X138908285Y-123076857D01*
X138944000Y-123005428D01*
X138979714Y-122969714D01*
X139051142Y-122934000D01*
X139158285Y-122934000D01*
X139229714Y-122969714D01*
X139265428Y-123005428D01*
X139301142Y-123076857D01*
X139301142Y-123362571D01*
X138979714Y-122648285D02*
X138944000Y-122612571D01*
X138908285Y-122541142D01*
X138908285Y-122362571D01*
X138944000Y-122291142D01*
X138979714Y-122255428D01*
X139051142Y-122219714D01*
X139122571Y-122219714D01*
X139229714Y-122255428D01*
X139658285Y-122684000D01*
X139658285Y-122219714D01*
X142099285Y-123513571D02*
X142099285Y-123942142D01*
X142099285Y-123727857D02*
X141349285Y-123727857D01*
X141456428Y-123799285D01*
X141527857Y-123870714D01*
X141563571Y-123942142D01*
X141420714Y-123227857D02*
X141385000Y-123192142D01*
X141349285Y-123120714D01*
X141349285Y-122942142D01*
X141385000Y-122870714D01*
X141420714Y-122835000D01*
X141492142Y-122799285D01*
X141563571Y-122799285D01*
X141670714Y-122835000D01*
X142099285Y-123263571D01*
X142099285Y-122799285D01*
X141349285Y-122335000D02*
X141349285Y-122263571D01*
X141385000Y-122192142D01*
X141420714Y-122156428D01*
X141492142Y-122120714D01*
X141635000Y-122085000D01*
X141813571Y-122085000D01*
X141956428Y-122120714D01*
X142027857Y-122156428D01*
X142063571Y-122192142D01*
X142099285Y-122263571D01*
X142099285Y-122335000D01*
X142063571Y-122406428D01*
X142027857Y-122442142D01*
X141956428Y-122477857D01*
X141813571Y-122513571D01*
X141635000Y-122513571D01*
X141492142Y-122477857D01*
X141420714Y-122442142D01*
X141385000Y-122406428D01*
X141349285Y-122335000D01*
X142099285Y-121763571D02*
X141349285Y-121763571D01*
X141813571Y-121692142D02*
X142099285Y-121477857D01*
X141599285Y-121477857D02*
X141885000Y-121763571D01*
%TO.C,R1*%
X155025285Y-122807000D02*
X154668142Y-123057000D01*
X155025285Y-123235571D02*
X154275285Y-123235571D01*
X154275285Y-122949857D01*
X154311000Y-122878428D01*
X154346714Y-122842714D01*
X154418142Y-122807000D01*
X154525285Y-122807000D01*
X154596714Y-122842714D01*
X154632428Y-122878428D01*
X154668142Y-122949857D01*
X154668142Y-123235571D01*
X155025285Y-122092714D02*
X155025285Y-122521285D01*
X155025285Y-122307000D02*
X154275285Y-122307000D01*
X154382428Y-122378428D01*
X154453857Y-122449857D01*
X154489571Y-122521285D01*
X157339285Y-123513571D02*
X157339285Y-123942142D01*
X157339285Y-123727857D02*
X156589285Y-123727857D01*
X156696428Y-123799285D01*
X156767857Y-123870714D01*
X156803571Y-123942142D01*
X156660714Y-123227857D02*
X156625000Y-123192142D01*
X156589285Y-123120714D01*
X156589285Y-122942142D01*
X156625000Y-122870714D01*
X156660714Y-122835000D01*
X156732142Y-122799285D01*
X156803571Y-122799285D01*
X156910714Y-122835000D01*
X157339285Y-123263571D01*
X157339285Y-122799285D01*
X156589285Y-122335000D02*
X156589285Y-122263571D01*
X156625000Y-122192142D01*
X156660714Y-122156428D01*
X156732142Y-122120714D01*
X156875000Y-122085000D01*
X157053571Y-122085000D01*
X157196428Y-122120714D01*
X157267857Y-122156428D01*
X157303571Y-122192142D01*
X157339285Y-122263571D01*
X157339285Y-122335000D01*
X157303571Y-122406428D01*
X157267857Y-122442142D01*
X157196428Y-122477857D01*
X157053571Y-122513571D01*
X156875000Y-122513571D01*
X156732142Y-122477857D01*
X156660714Y-122442142D01*
X156625000Y-122406428D01*
X156589285Y-122335000D01*
X157339285Y-121763571D02*
X156589285Y-121763571D01*
X157053571Y-121692142D02*
X157339285Y-121477857D01*
X156839285Y-121477857D02*
X157125000Y-121763571D01*
%TO.C,J4*%
X110530000Y-95039285D02*
X110530000Y-95575000D01*
X110494285Y-95682142D01*
X110422857Y-95753571D01*
X110315714Y-95789285D01*
X110244285Y-95789285D01*
X111208571Y-95289285D02*
X111208571Y-95789285D01*
X111030000Y-95003571D02*
X110851428Y-95539285D01*
X111315714Y-95539285D01*
X99858571Y-107572380D02*
X99525238Y-107096190D01*
X99287142Y-107572380D02*
X99287142Y-106572380D01*
X99668095Y-106572380D01*
X99763333Y-106620000D01*
X99810952Y-106667619D01*
X99858571Y-106762857D01*
X99858571Y-106905714D01*
X99810952Y-107000952D01*
X99763333Y-107048571D01*
X99668095Y-107096190D01*
X99287142Y-107096190D01*
X100287142Y-107048571D02*
X100620476Y-107048571D01*
X100763333Y-107572380D02*
X100287142Y-107572380D01*
X100287142Y-106572380D01*
X100763333Y-106572380D01*
X101191904Y-107572380D02*
X101191904Y-106572380D01*
X101430000Y-106572380D01*
X101572857Y-106620000D01*
X101668095Y-106715238D01*
X101715714Y-106810476D01*
X101763333Y-107000952D01*
X101763333Y-107143809D01*
X101715714Y-107334285D01*
X101668095Y-107429523D01*
X101572857Y-107524761D01*
X101430000Y-107572380D01*
X101191904Y-107572380D01*
X102906190Y-107524761D02*
X103049047Y-107572380D01*
X103287142Y-107572380D01*
X103382380Y-107524761D01*
X103430000Y-107477142D01*
X103477619Y-107381904D01*
X103477619Y-107286666D01*
X103430000Y-107191428D01*
X103382380Y-107143809D01*
X103287142Y-107096190D01*
X103096666Y-107048571D01*
X103001428Y-107000952D01*
X102953809Y-106953333D01*
X102906190Y-106858095D01*
X102906190Y-106762857D01*
X102953809Y-106667619D01*
X103001428Y-106620000D01*
X103096666Y-106572380D01*
X103334761Y-106572380D01*
X103477619Y-106620000D01*
X103763333Y-106572380D02*
X104334761Y-106572380D01*
X104049047Y-107572380D02*
X104049047Y-106572380D01*
X105239523Y-107572380D02*
X104906190Y-107096190D01*
X104668095Y-107572380D02*
X104668095Y-106572380D01*
X105049047Y-106572380D01*
X105144285Y-106620000D01*
X105191904Y-106667619D01*
X105239523Y-106762857D01*
X105239523Y-106905714D01*
X105191904Y-107000952D01*
X105144285Y-107048571D01*
X105049047Y-107096190D01*
X104668095Y-107096190D01*
X105668095Y-107572380D02*
X105668095Y-106572380D01*
X106144285Y-107572380D02*
X106144285Y-106572380D01*
X106525238Y-106572380D01*
X106620476Y-106620000D01*
X106668095Y-106667619D01*
X106715714Y-106762857D01*
X106715714Y-106905714D01*
X106668095Y-107000952D01*
X106620476Y-107048571D01*
X106525238Y-107096190D01*
X106144285Y-107096190D01*
X107144285Y-107048571D02*
X107477619Y-107048571D01*
X107620476Y-107572380D02*
X107144285Y-107572380D01*
X107144285Y-106572380D01*
X107620476Y-106572380D01*
X102168095Y-108691428D02*
X102930000Y-108691428D01*
X103930000Y-109072380D02*
X103358571Y-109072380D01*
X103644285Y-109072380D02*
X103644285Y-108072380D01*
X103549047Y-108215238D01*
X103453809Y-108310476D01*
X103358571Y-108358095D01*
X104310952Y-108167619D02*
X104358571Y-108120000D01*
X104453809Y-108072380D01*
X104691904Y-108072380D01*
X104787142Y-108120000D01*
X104834761Y-108167619D01*
X104882380Y-108262857D01*
X104882380Y-108358095D01*
X104834761Y-108500952D01*
X104263333Y-109072380D01*
X104882380Y-109072380D01*
X105168095Y-108072380D02*
X105501428Y-109072380D01*
X105834761Y-108072380D01*
X102168095Y-84691428D02*
X102930000Y-84691428D01*
X102549047Y-85072380D02*
X102549047Y-84310476D01*
X103930000Y-85072380D02*
X103358571Y-85072380D01*
X103644285Y-85072380D02*
X103644285Y-84072380D01*
X103549047Y-84215238D01*
X103453809Y-84310476D01*
X103358571Y-84358095D01*
X104310952Y-84167619D02*
X104358571Y-84120000D01*
X104453809Y-84072380D01*
X104691904Y-84072380D01*
X104787142Y-84120000D01*
X104834761Y-84167619D01*
X104882380Y-84262857D01*
X104882380Y-84358095D01*
X104834761Y-84500952D01*
X104263333Y-85072380D01*
X104882380Y-85072380D01*
X105168095Y-84072380D02*
X105501428Y-85072380D01*
X105834761Y-84072380D01*
%TO.C,D4*%
X108444285Y-123108571D02*
X107694285Y-123108571D01*
X107694285Y-122930000D01*
X107730000Y-122822857D01*
X107801428Y-122751428D01*
X107872857Y-122715714D01*
X108015714Y-122680000D01*
X108122857Y-122680000D01*
X108265714Y-122715714D01*
X108337142Y-122751428D01*
X108408571Y-122822857D01*
X108444285Y-122930000D01*
X108444285Y-123108571D01*
X107944285Y-122037142D02*
X108444285Y-122037142D01*
X107658571Y-122215714D02*
X108194285Y-122394285D01*
X108194285Y-121930000D01*
X108444285Y-126716428D02*
X107694285Y-126716428D01*
X108444285Y-126287857D02*
X108015714Y-126609285D01*
X107694285Y-126287857D02*
X108122857Y-126716428D01*
X110349285Y-124317142D02*
X110349285Y-124745714D01*
X110349285Y-124531428D02*
X109599285Y-124531428D01*
X109706428Y-124602857D01*
X109777857Y-124674285D01*
X109813571Y-124745714D01*
X110349285Y-123995714D02*
X109599285Y-123995714D01*
X110349285Y-123567142D01*
X109599285Y-123567142D01*
X109849285Y-122888571D02*
X110349285Y-122888571D01*
X109563571Y-123067142D02*
X110099285Y-123245714D01*
X110099285Y-122781428D01*
X110349285Y-122102857D02*
X110349285Y-122531428D01*
X110349285Y-122317142D02*
X109599285Y-122317142D01*
X109706428Y-122388571D01*
X109777857Y-122460000D01*
X109813571Y-122531428D01*
X109849285Y-121460000D02*
X110349285Y-121460000D01*
X109563571Y-121638571D02*
X110099285Y-121817142D01*
X110099285Y-121352857D01*
X109920714Y-120960000D02*
X109885000Y-121031428D01*
X109849285Y-121067142D01*
X109777857Y-121102857D01*
X109742142Y-121102857D01*
X109670714Y-121067142D01*
X109635000Y-121031428D01*
X109599285Y-120960000D01*
X109599285Y-120817142D01*
X109635000Y-120745714D01*
X109670714Y-120710000D01*
X109742142Y-120674285D01*
X109777857Y-120674285D01*
X109849285Y-120710000D01*
X109885000Y-120745714D01*
X109920714Y-120817142D01*
X109920714Y-120960000D01*
X109956428Y-121031428D01*
X109992142Y-121067142D01*
X110063571Y-121102857D01*
X110206428Y-121102857D01*
X110277857Y-121067142D01*
X110313571Y-121031428D01*
X110349285Y-120960000D01*
X110349285Y-120817142D01*
X110313571Y-120745714D01*
X110277857Y-120710000D01*
X110206428Y-120674285D01*
X110063571Y-120674285D01*
X109992142Y-120710000D01*
X109956428Y-120745714D01*
X109920714Y-120817142D01*
%TO.C,D3*%
X104860285Y-123235571D02*
X104110285Y-123235571D01*
X104110285Y-123057000D01*
X104146000Y-122949857D01*
X104217428Y-122878428D01*
X104288857Y-122842714D01*
X104431714Y-122807000D01*
X104538857Y-122807000D01*
X104681714Y-122842714D01*
X104753142Y-122878428D01*
X104824571Y-122949857D01*
X104860285Y-123057000D01*
X104860285Y-123235571D01*
X104110285Y-122557000D02*
X104110285Y-122092714D01*
X104396000Y-122342714D01*
X104396000Y-122235571D01*
X104431714Y-122164142D01*
X104467428Y-122128428D01*
X104538857Y-122092714D01*
X104717428Y-122092714D01*
X104788857Y-122128428D01*
X104824571Y-122164142D01*
X104860285Y-122235571D01*
X104860285Y-122449857D01*
X104824571Y-122521285D01*
X104788857Y-122557000D01*
X108444285Y-119096428D02*
X107694285Y-119096428D01*
X108444285Y-118667857D02*
X108015714Y-118989285D01*
X107694285Y-118667857D02*
X108122857Y-119096428D01*
X106539285Y-124317142D02*
X106539285Y-124745714D01*
X106539285Y-124531428D02*
X105789285Y-124531428D01*
X105896428Y-124602857D01*
X105967857Y-124674285D01*
X106003571Y-124745714D01*
X106539285Y-123995714D02*
X105789285Y-123995714D01*
X106539285Y-123567142D01*
X105789285Y-123567142D01*
X106039285Y-122888571D02*
X106539285Y-122888571D01*
X105753571Y-123067142D02*
X106289285Y-123245714D01*
X106289285Y-122781428D01*
X106539285Y-122102857D02*
X106539285Y-122531428D01*
X106539285Y-122317142D02*
X105789285Y-122317142D01*
X105896428Y-122388571D01*
X105967857Y-122460000D01*
X106003571Y-122531428D01*
X106039285Y-121460000D02*
X106539285Y-121460000D01*
X105753571Y-121638571D02*
X106289285Y-121817142D01*
X106289285Y-121352857D01*
X106110714Y-120960000D02*
X106075000Y-121031428D01*
X106039285Y-121067142D01*
X105967857Y-121102857D01*
X105932142Y-121102857D01*
X105860714Y-121067142D01*
X105825000Y-121031428D01*
X105789285Y-120960000D01*
X105789285Y-120817142D01*
X105825000Y-120745714D01*
X105860714Y-120710000D01*
X105932142Y-120674285D01*
X105967857Y-120674285D01*
X106039285Y-120710000D01*
X106075000Y-120745714D01*
X106110714Y-120817142D01*
X106110714Y-120960000D01*
X106146428Y-121031428D01*
X106182142Y-121067142D01*
X106253571Y-121102857D01*
X106396428Y-121102857D01*
X106467857Y-121067142D01*
X106503571Y-121031428D01*
X106539285Y-120960000D01*
X106539285Y-120817142D01*
X106503571Y-120745714D01*
X106467857Y-120710000D01*
X106396428Y-120674285D01*
X106253571Y-120674285D01*
X106182142Y-120710000D01*
X106146428Y-120745714D01*
X106110714Y-120817142D01*
%TO.C,D2*%
X110575285Y-106118571D02*
X109825285Y-106118571D01*
X109825285Y-105940000D01*
X109861000Y-105832857D01*
X109932428Y-105761428D01*
X110003857Y-105725714D01*
X110146714Y-105690000D01*
X110253857Y-105690000D01*
X110396714Y-105725714D01*
X110468142Y-105761428D01*
X110539571Y-105832857D01*
X110575285Y-105940000D01*
X110575285Y-106118571D01*
X109896714Y-105404285D02*
X109861000Y-105368571D01*
X109825285Y-105297142D01*
X109825285Y-105118571D01*
X109861000Y-105047142D01*
X109896714Y-105011428D01*
X109968142Y-104975714D01*
X110039571Y-104975714D01*
X110146714Y-105011428D01*
X110575285Y-105440000D01*
X110575285Y-104975714D01*
X115175285Y-101316428D02*
X114425285Y-101316428D01*
X115175285Y-100887857D02*
X114746714Y-101209285D01*
X114425285Y-100887857D02*
X114853857Y-101316428D01*
X112210714Y-106965714D02*
X112175000Y-106930000D01*
X112139285Y-106858571D01*
X112139285Y-106680000D01*
X112175000Y-106608571D01*
X112210714Y-106572857D01*
X112282142Y-106537142D01*
X112353571Y-106537142D01*
X112460714Y-106572857D01*
X112889285Y-107001428D01*
X112889285Y-106537142D01*
X112889285Y-106215714D02*
X112139285Y-106215714D01*
X112889285Y-105787142D01*
X112139285Y-105787142D01*
X112139285Y-105072857D02*
X112139285Y-105430000D01*
X112496428Y-105465714D01*
X112460714Y-105430000D01*
X112425000Y-105358571D01*
X112425000Y-105180000D01*
X112460714Y-105108571D01*
X112496428Y-105072857D01*
X112567857Y-105037142D01*
X112746428Y-105037142D01*
X112817857Y-105072857D01*
X112853571Y-105108571D01*
X112889285Y-105180000D01*
X112889285Y-105358571D01*
X112853571Y-105430000D01*
X112817857Y-105465714D01*
X112460714Y-104608571D02*
X112425000Y-104680000D01*
X112389285Y-104715714D01*
X112317857Y-104751428D01*
X112282142Y-104751428D01*
X112210714Y-104715714D01*
X112175000Y-104680000D01*
X112139285Y-104608571D01*
X112139285Y-104465714D01*
X112175000Y-104394285D01*
X112210714Y-104358571D01*
X112282142Y-104322857D01*
X112317857Y-104322857D01*
X112389285Y-104358571D01*
X112425000Y-104394285D01*
X112460714Y-104465714D01*
X112460714Y-104608571D01*
X112496428Y-104680000D01*
X112532142Y-104715714D01*
X112603571Y-104751428D01*
X112746428Y-104751428D01*
X112817857Y-104715714D01*
X112853571Y-104680000D01*
X112889285Y-104608571D01*
X112889285Y-104465714D01*
X112853571Y-104394285D01*
X112817857Y-104358571D01*
X112746428Y-104322857D01*
X112603571Y-104322857D01*
X112532142Y-104358571D01*
X112496428Y-104394285D01*
X112460714Y-104465714D01*
X112889285Y-103608571D02*
X112889285Y-104037142D01*
X112889285Y-103822857D02*
X112139285Y-103822857D01*
X112246428Y-103894285D01*
X112317857Y-103965714D01*
X112353571Y-104037142D01*
X112139285Y-103358571D02*
X112139285Y-102858571D01*
X112889285Y-103180000D01*
%TO.C,D1*%
X110448285Y-88310571D02*
X109698285Y-88310571D01*
X109698285Y-88132000D01*
X109734000Y-88024857D01*
X109805428Y-87953428D01*
X109876857Y-87917714D01*
X110019714Y-87882000D01*
X110126857Y-87882000D01*
X110269714Y-87917714D01*
X110341142Y-87953428D01*
X110412571Y-88024857D01*
X110448285Y-88132000D01*
X110448285Y-88310571D01*
X110448285Y-87167714D02*
X110448285Y-87596285D01*
X110448285Y-87382000D02*
X109698285Y-87382000D01*
X109805428Y-87453428D01*
X109876857Y-87524857D01*
X109912571Y-87596285D01*
X115175285Y-83536428D02*
X114425285Y-83536428D01*
X115175285Y-83107857D02*
X114746714Y-83429285D01*
X114425285Y-83107857D02*
X114853857Y-83536428D01*
X112210714Y-89185714D02*
X112175000Y-89150000D01*
X112139285Y-89078571D01*
X112139285Y-88900000D01*
X112175000Y-88828571D01*
X112210714Y-88792857D01*
X112282142Y-88757142D01*
X112353571Y-88757142D01*
X112460714Y-88792857D01*
X112889285Y-89221428D01*
X112889285Y-88757142D01*
X112889285Y-88435714D02*
X112139285Y-88435714D01*
X112889285Y-88007142D01*
X112139285Y-88007142D01*
X112139285Y-87292857D02*
X112139285Y-87650000D01*
X112496428Y-87685714D01*
X112460714Y-87650000D01*
X112425000Y-87578571D01*
X112425000Y-87400000D01*
X112460714Y-87328571D01*
X112496428Y-87292857D01*
X112567857Y-87257142D01*
X112746428Y-87257142D01*
X112817857Y-87292857D01*
X112853571Y-87328571D01*
X112889285Y-87400000D01*
X112889285Y-87578571D01*
X112853571Y-87650000D01*
X112817857Y-87685714D01*
X112460714Y-86828571D02*
X112425000Y-86900000D01*
X112389285Y-86935714D01*
X112317857Y-86971428D01*
X112282142Y-86971428D01*
X112210714Y-86935714D01*
X112175000Y-86900000D01*
X112139285Y-86828571D01*
X112139285Y-86685714D01*
X112175000Y-86614285D01*
X112210714Y-86578571D01*
X112282142Y-86542857D01*
X112317857Y-86542857D01*
X112389285Y-86578571D01*
X112425000Y-86614285D01*
X112460714Y-86685714D01*
X112460714Y-86828571D01*
X112496428Y-86900000D01*
X112532142Y-86935714D01*
X112603571Y-86971428D01*
X112746428Y-86971428D01*
X112817857Y-86935714D01*
X112853571Y-86900000D01*
X112889285Y-86828571D01*
X112889285Y-86685714D01*
X112853571Y-86614285D01*
X112817857Y-86578571D01*
X112746428Y-86542857D01*
X112603571Y-86542857D01*
X112532142Y-86578571D01*
X112496428Y-86614285D01*
X112460714Y-86685714D01*
X112889285Y-85828571D02*
X112889285Y-86257142D01*
X112889285Y-86042857D02*
X112139285Y-86042857D01*
X112246428Y-86114285D01*
X112317857Y-86185714D01*
X112353571Y-86257142D01*
X112139285Y-85578571D02*
X112139285Y-85078571D01*
X112889285Y-85400000D01*
%TO.C,C7*%
X150243000Y-81928857D02*
X150207285Y-81964571D01*
X150100142Y-82000285D01*
X150028714Y-82000285D01*
X149921571Y-81964571D01*
X149850142Y-81893142D01*
X149814428Y-81821714D01*
X149778714Y-81678857D01*
X149778714Y-81571714D01*
X149814428Y-81428857D01*
X149850142Y-81357428D01*
X149921571Y-81286000D01*
X150028714Y-81250285D01*
X150100142Y-81250285D01*
X150207285Y-81286000D01*
X150243000Y-81321714D01*
X150493000Y-81250285D02*
X150993000Y-81250285D01*
X150671571Y-82000285D01*
X152013285Y-81250285D02*
X152477571Y-81250285D01*
X152227571Y-81536000D01*
X152334714Y-81536000D01*
X152406142Y-81571714D01*
X152441857Y-81607428D01*
X152477571Y-81678857D01*
X152477571Y-81857428D01*
X152441857Y-81928857D01*
X152406142Y-81964571D01*
X152334714Y-82000285D01*
X152120428Y-82000285D01*
X152049000Y-81964571D01*
X152013285Y-81928857D01*
X152727571Y-81250285D02*
X153191857Y-81250285D01*
X152941857Y-81536000D01*
X153049000Y-81536000D01*
X153120428Y-81571714D01*
X153156142Y-81607428D01*
X153191857Y-81678857D01*
X153191857Y-81857428D01*
X153156142Y-81928857D01*
X153120428Y-81964571D01*
X153049000Y-82000285D01*
X152834714Y-82000285D01*
X152763285Y-81964571D01*
X152727571Y-81928857D01*
X153656142Y-81250285D02*
X153727571Y-81250285D01*
X153799000Y-81286000D01*
X153834714Y-81321714D01*
X153870428Y-81393142D01*
X153906142Y-81536000D01*
X153906142Y-81714571D01*
X153870428Y-81857428D01*
X153834714Y-81928857D01*
X153799000Y-81964571D01*
X153727571Y-82000285D01*
X153656142Y-82000285D01*
X153584714Y-81964571D01*
X153549000Y-81928857D01*
X153513285Y-81857428D01*
X153477571Y-81714571D01*
X153477571Y-81536000D01*
X153513285Y-81393142D01*
X153549000Y-81321714D01*
X153584714Y-81286000D01*
X153656142Y-81250285D01*
X154799000Y-81500285D02*
X154799000Y-82250285D01*
X154799000Y-81536000D02*
X154870428Y-81500285D01*
X155013285Y-81500285D01*
X155084714Y-81536000D01*
X155120428Y-81571714D01*
X155156142Y-81643142D01*
X155156142Y-81857428D01*
X155120428Y-81928857D01*
X155084714Y-81964571D01*
X155013285Y-82000285D01*
X154870428Y-82000285D01*
X154799000Y-81964571D01*
X155727571Y-81607428D02*
X155477571Y-81607428D01*
X155477571Y-82000285D02*
X155477571Y-81250285D01*
X155834714Y-81250285D01*
%TO.C,C6*%
X150116000Y-94628857D02*
X150080285Y-94664571D01*
X149973142Y-94700285D01*
X149901714Y-94700285D01*
X149794571Y-94664571D01*
X149723142Y-94593142D01*
X149687428Y-94521714D01*
X149651714Y-94378857D01*
X149651714Y-94271714D01*
X149687428Y-94128857D01*
X149723142Y-94057428D01*
X149794571Y-93986000D01*
X149901714Y-93950285D01*
X149973142Y-93950285D01*
X150080285Y-93986000D01*
X150116000Y-94021714D01*
X150758857Y-93950285D02*
X150616000Y-93950285D01*
X150544571Y-93986000D01*
X150508857Y-94021714D01*
X150437428Y-94128857D01*
X150401714Y-94271714D01*
X150401714Y-94557428D01*
X150437428Y-94628857D01*
X150473142Y-94664571D01*
X150544571Y-94700285D01*
X150687428Y-94700285D01*
X150758857Y-94664571D01*
X150794571Y-94628857D01*
X150830285Y-94557428D01*
X150830285Y-94378857D01*
X150794571Y-94307428D01*
X150758857Y-94271714D01*
X150687428Y-94236000D01*
X150544571Y-94236000D01*
X150473142Y-94271714D01*
X150437428Y-94307428D01*
X150401714Y-94378857D01*
X152183857Y-93950285D02*
X152255285Y-93950285D01*
X152326714Y-93986000D01*
X152362428Y-94021714D01*
X152398142Y-94093142D01*
X152433857Y-94236000D01*
X152433857Y-94414571D01*
X152398142Y-94557428D01*
X152362428Y-94628857D01*
X152326714Y-94664571D01*
X152255285Y-94700285D01*
X152183857Y-94700285D01*
X152112428Y-94664571D01*
X152076714Y-94628857D01*
X152041000Y-94557428D01*
X152005285Y-94414571D01*
X152005285Y-94236000D01*
X152041000Y-94093142D01*
X152076714Y-94021714D01*
X152112428Y-93986000D01*
X152183857Y-93950285D01*
X152755285Y-94628857D02*
X152791000Y-94664571D01*
X152755285Y-94700285D01*
X152719571Y-94664571D01*
X152755285Y-94628857D01*
X152755285Y-94700285D01*
X153505285Y-94700285D02*
X153076714Y-94700285D01*
X153291000Y-94700285D02*
X153291000Y-93950285D01*
X153219571Y-94057428D01*
X153148142Y-94128857D01*
X153076714Y-94164571D01*
X154148142Y-94200285D02*
X154148142Y-94700285D01*
X153826714Y-94200285D02*
X153826714Y-94593142D01*
X153862428Y-94664571D01*
X153933857Y-94700285D01*
X154041000Y-94700285D01*
X154112428Y-94664571D01*
X154148142Y-94628857D01*
X154755285Y-94307428D02*
X154505285Y-94307428D01*
X154505285Y-94700285D02*
X154505285Y-93950285D01*
X154862428Y-93950285D01*
%TO.C,C5*%
X129669000Y-94501857D02*
X129633285Y-94537571D01*
X129526142Y-94573285D01*
X129454714Y-94573285D01*
X129347571Y-94537571D01*
X129276142Y-94466142D01*
X129240428Y-94394714D01*
X129204714Y-94251857D01*
X129204714Y-94144714D01*
X129240428Y-94001857D01*
X129276142Y-93930428D01*
X129347571Y-93859000D01*
X129454714Y-93823285D01*
X129526142Y-93823285D01*
X129633285Y-93859000D01*
X129669000Y-93894714D01*
X130347571Y-93823285D02*
X129990428Y-93823285D01*
X129954714Y-94180428D01*
X129990428Y-94144714D01*
X130061857Y-94109000D01*
X130240428Y-94109000D01*
X130311857Y-94144714D01*
X130347571Y-94180428D01*
X130383285Y-94251857D01*
X130383285Y-94430428D01*
X130347571Y-94501857D01*
X130311857Y-94537571D01*
X130240428Y-94573285D01*
X130061857Y-94573285D01*
X129990428Y-94537571D01*
X129954714Y-94501857D01*
X132498857Y-93823285D02*
X132570285Y-93823285D01*
X132641714Y-93859000D01*
X132677428Y-93894714D01*
X132713142Y-93966142D01*
X132748857Y-94109000D01*
X132748857Y-94287571D01*
X132713142Y-94430428D01*
X132677428Y-94501857D01*
X132641714Y-94537571D01*
X132570285Y-94573285D01*
X132498857Y-94573285D01*
X132427428Y-94537571D01*
X132391714Y-94501857D01*
X132356000Y-94430428D01*
X132320285Y-94287571D01*
X132320285Y-94109000D01*
X132356000Y-93966142D01*
X132391714Y-93894714D01*
X132427428Y-93859000D01*
X132498857Y-93823285D01*
X133070285Y-94501857D02*
X133106000Y-94537571D01*
X133070285Y-94573285D01*
X133034571Y-94537571D01*
X133070285Y-94501857D01*
X133070285Y-94573285D01*
X133820285Y-94573285D02*
X133391714Y-94573285D01*
X133606000Y-94573285D02*
X133606000Y-93823285D01*
X133534571Y-93930428D01*
X133463142Y-94001857D01*
X133391714Y-94037571D01*
X134463142Y-94073285D02*
X134463142Y-94573285D01*
X134141714Y-94073285D02*
X134141714Y-94466142D01*
X134177428Y-94537571D01*
X134248857Y-94573285D01*
X134356000Y-94573285D01*
X134427428Y-94537571D01*
X134463142Y-94501857D01*
X135070285Y-94180428D02*
X134820285Y-94180428D01*
X134820285Y-94573285D02*
X134820285Y-93823285D01*
X135177428Y-93823285D01*
%TO.C,C4*%
X150243000Y-107328857D02*
X150207285Y-107364571D01*
X150100142Y-107400285D01*
X150028714Y-107400285D01*
X149921571Y-107364571D01*
X149850142Y-107293142D01*
X149814428Y-107221714D01*
X149778714Y-107078857D01*
X149778714Y-106971714D01*
X149814428Y-106828857D01*
X149850142Y-106757428D01*
X149921571Y-106686000D01*
X150028714Y-106650285D01*
X150100142Y-106650285D01*
X150207285Y-106686000D01*
X150243000Y-106721714D01*
X150885857Y-106900285D02*
X150885857Y-107400285D01*
X150707285Y-106614571D02*
X150528714Y-107150285D01*
X150993000Y-107150285D01*
X152267285Y-106650285D02*
X152731571Y-106650285D01*
X152481571Y-106936000D01*
X152588714Y-106936000D01*
X152660142Y-106971714D01*
X152695857Y-107007428D01*
X152731571Y-107078857D01*
X152731571Y-107257428D01*
X152695857Y-107328857D01*
X152660142Y-107364571D01*
X152588714Y-107400285D01*
X152374428Y-107400285D01*
X152303000Y-107364571D01*
X152267285Y-107328857D01*
X152981571Y-106650285D02*
X153445857Y-106650285D01*
X153195857Y-106936000D01*
X153303000Y-106936000D01*
X153374428Y-106971714D01*
X153410142Y-107007428D01*
X153445857Y-107078857D01*
X153445857Y-107257428D01*
X153410142Y-107328857D01*
X153374428Y-107364571D01*
X153303000Y-107400285D01*
X153088714Y-107400285D01*
X153017285Y-107364571D01*
X152981571Y-107328857D01*
X153910142Y-106650285D02*
X153981571Y-106650285D01*
X154053000Y-106686000D01*
X154088714Y-106721714D01*
X154124428Y-106793142D01*
X154160142Y-106936000D01*
X154160142Y-107114571D01*
X154124428Y-107257428D01*
X154088714Y-107328857D01*
X154053000Y-107364571D01*
X153981571Y-107400285D01*
X153910142Y-107400285D01*
X153838714Y-107364571D01*
X153803000Y-107328857D01*
X153767285Y-107257428D01*
X153731571Y-107114571D01*
X153731571Y-106936000D01*
X153767285Y-106793142D01*
X153803000Y-106721714D01*
X153838714Y-106686000D01*
X153910142Y-106650285D01*
X155053000Y-106900285D02*
X155053000Y-107650285D01*
X155053000Y-106936000D02*
X155124428Y-106900285D01*
X155267285Y-106900285D01*
X155338714Y-106936000D01*
X155374428Y-106971714D01*
X155410142Y-107043142D01*
X155410142Y-107257428D01*
X155374428Y-107328857D01*
X155338714Y-107364571D01*
X155267285Y-107400285D01*
X155124428Y-107400285D01*
X155053000Y-107364571D01*
X155981571Y-107007428D02*
X155731571Y-107007428D01*
X155731571Y-107400285D02*
X155731571Y-106650285D01*
X156088714Y-106650285D01*
%TO.C,C3*%
X115953000Y-105677857D02*
X115917285Y-105713571D01*
X115810142Y-105749285D01*
X115738714Y-105749285D01*
X115631571Y-105713571D01*
X115560142Y-105642142D01*
X115524428Y-105570714D01*
X115488714Y-105427857D01*
X115488714Y-105320714D01*
X115524428Y-105177857D01*
X115560142Y-105106428D01*
X115631571Y-105035000D01*
X115738714Y-104999285D01*
X115810142Y-104999285D01*
X115917285Y-105035000D01*
X115953000Y-105070714D01*
X116203000Y-104999285D02*
X116667285Y-104999285D01*
X116417285Y-105285000D01*
X116524428Y-105285000D01*
X116595857Y-105320714D01*
X116631571Y-105356428D01*
X116667285Y-105427857D01*
X116667285Y-105606428D01*
X116631571Y-105677857D01*
X116595857Y-105713571D01*
X116524428Y-105749285D01*
X116310142Y-105749285D01*
X116238714Y-105713571D01*
X116203000Y-105677857D01*
X120100428Y-105749285D02*
X119671857Y-105749285D01*
X119886142Y-105749285D02*
X119886142Y-104999285D01*
X119814714Y-105106428D01*
X119743285Y-105177857D01*
X119671857Y-105213571D01*
X120564714Y-104999285D02*
X120636142Y-104999285D01*
X120707571Y-105035000D01*
X120743285Y-105070714D01*
X120779000Y-105142142D01*
X120814714Y-105285000D01*
X120814714Y-105463571D01*
X120779000Y-105606428D01*
X120743285Y-105677857D01*
X120707571Y-105713571D01*
X120636142Y-105749285D01*
X120564714Y-105749285D01*
X120493285Y-105713571D01*
X120457571Y-105677857D01*
X120421857Y-105606428D01*
X120386142Y-105463571D01*
X120386142Y-105285000D01*
X120421857Y-105142142D01*
X120457571Y-105070714D01*
X120493285Y-105035000D01*
X120564714Y-104999285D01*
X121457571Y-105249285D02*
X121457571Y-105749285D01*
X121136142Y-105249285D02*
X121136142Y-105642142D01*
X121171857Y-105713571D01*
X121243285Y-105749285D01*
X121350428Y-105749285D01*
X121421857Y-105713571D01*
X121457571Y-105677857D01*
X122064714Y-105356428D02*
X121814714Y-105356428D01*
X121814714Y-105749285D02*
X121814714Y-104999285D01*
X122171857Y-104999285D01*
%TO.C,C2*%
X116505000Y-80107857D02*
X116469285Y-80143571D01*
X116362142Y-80179285D01*
X116290714Y-80179285D01*
X116183571Y-80143571D01*
X116112142Y-80072142D01*
X116076428Y-80000714D01*
X116040714Y-79857857D01*
X116040714Y-79750714D01*
X116076428Y-79607857D01*
X116112142Y-79536428D01*
X116183571Y-79465000D01*
X116290714Y-79429285D01*
X116362142Y-79429285D01*
X116469285Y-79465000D01*
X116505000Y-79500714D01*
X116790714Y-79500714D02*
X116826428Y-79465000D01*
X116897857Y-79429285D01*
X117076428Y-79429285D01*
X117147857Y-79465000D01*
X117183571Y-79500714D01*
X117219285Y-79572142D01*
X117219285Y-79643571D01*
X117183571Y-79750714D01*
X116755000Y-80179285D01*
X117219285Y-80179285D01*
X119826428Y-80179285D02*
X119397857Y-80179285D01*
X119612142Y-80179285D02*
X119612142Y-79429285D01*
X119540714Y-79536428D01*
X119469285Y-79607857D01*
X119397857Y-79643571D01*
X120290714Y-79429285D02*
X120362142Y-79429285D01*
X120433571Y-79465000D01*
X120469285Y-79500714D01*
X120505000Y-79572142D01*
X120540714Y-79715000D01*
X120540714Y-79893571D01*
X120505000Y-80036428D01*
X120469285Y-80107857D01*
X120433571Y-80143571D01*
X120362142Y-80179285D01*
X120290714Y-80179285D01*
X120219285Y-80143571D01*
X120183571Y-80107857D01*
X120147857Y-80036428D01*
X120112142Y-79893571D01*
X120112142Y-79715000D01*
X120147857Y-79572142D01*
X120183571Y-79500714D01*
X120219285Y-79465000D01*
X120290714Y-79429285D01*
X121183571Y-79679285D02*
X121183571Y-80179285D01*
X120862142Y-79679285D02*
X120862142Y-80072142D01*
X120897857Y-80143571D01*
X120969285Y-80179285D01*
X121076428Y-80179285D01*
X121147857Y-80143571D01*
X121183571Y-80107857D01*
X121790714Y-79786428D02*
X121540714Y-79786428D01*
X121540714Y-80179285D02*
X121540714Y-79429285D01*
X121897857Y-79429285D01*
%TD*%
M02*
