%TF.GenerationSoftware,KiCad,Pcbnew,5.1.9-73d0e3b20d~88~ubuntu20.04.1*%
%TF.CreationDate,2021-04-01T11:15:01-04:00*%
%TF.ProjectId,ao_dc_mixer,616f5f64-635f-46d6-9978-65722e6b6963,rev?*%
%TF.SameCoordinates,Original*%
%TF.FileFunction,Soldermask,Bot*%
%TF.FilePolarity,Negative*%
%FSLAX46Y46*%
G04 Gerber Fmt 4.6, Leading zero omitted, Abs format (unit mm)*
G04 Created by KiCad (PCBNEW 5.1.9-73d0e3b20d~88~ubuntu20.04.1) date 2021-04-01 11:15:01*
%MOMM*%
%LPD*%
G01*
G04 APERTURE LIST*
%ADD10C,3.200000*%
%ADD11C,2.500000*%
%ADD12R,2.500000X2.500000*%
%ADD13O,1.740000X2.200000*%
%ADD14C,1.440000*%
%ADD15O,2.400000X1.600000*%
%ADD16R,2.400000X1.600000*%
%ADD17O,1.600000X1.600000*%
%ADD18C,1.600000*%
%ADD19O,1.727200X1.727200*%
%ADD20R,1.727200X1.727200*%
%ADD21R,1.600000X1.600000*%
%ADD22O,2.200000X2.200000*%
%ADD23R,2.200000X2.200000*%
G04 APERTURE END LIST*
D10*
%TO.C,H2*%
X160000000Y-155000000D03*
%TD*%
%TO.C,H1*%
X100000000Y-155000000D03*
%TD*%
D11*
%TO.C,RV4*%
X102000000Y-65000000D03*
X97000000Y-140000000D03*
D12*
X102000000Y-135000000D03*
%TD*%
D13*
%TO.C,J6*%
X126670000Y-153450000D03*
G36*
G01*
X123260000Y-154300001D02*
X123260000Y-152599999D01*
G75*
G02*
X123509999Y-152350000I249999J0D01*
G01*
X124750001Y-152350000D01*
G75*
G02*
X125000000Y-152599999I0J-249999D01*
G01*
X125000000Y-154300001D01*
G75*
G02*
X124750001Y-154550000I-249999J0D01*
G01*
X123509999Y-154550000D01*
G75*
G02*
X123260000Y-154300001I0J249999D01*
G01*
G37*
%TD*%
%TO.C,J5*%
X111760000Y-153450000D03*
G36*
G01*
X108350000Y-154300001D02*
X108350000Y-152599999D01*
G75*
G02*
X108599999Y-152350000I249999J0D01*
G01*
X109840001Y-152350000D01*
G75*
G02*
X110090000Y-152599999I0J-249999D01*
G01*
X110090000Y-154300001D01*
G75*
G02*
X109840001Y-154550000I-249999J0D01*
G01*
X108599999Y-154550000D01*
G75*
G02*
X108350000Y-154300001I0J249999D01*
G01*
G37*
%TD*%
%TO.C,J3*%
G36*
G01*
X127390000Y-64170999D02*
X127390000Y-65871001D01*
G75*
G02*
X127140001Y-66121000I-249999J0D01*
G01*
X125899999Y-66121000D01*
G75*
G02*
X125650000Y-65871001I0J249999D01*
G01*
X125650000Y-64170999D01*
G75*
G02*
X125899999Y-63921000I249999J0D01*
G01*
X127140001Y-63921000D01*
G75*
G02*
X127390000Y-64170999I0J-249999D01*
G01*
G37*
X123980000Y-65021000D03*
%TD*%
%TO.C,J2*%
G36*
G01*
X142376000Y-64170999D02*
X142376000Y-65871001D01*
G75*
G02*
X142126001Y-66121000I-249999J0D01*
G01*
X140885999Y-66121000D01*
G75*
G02*
X140636000Y-65871001I0J249999D01*
G01*
X140636000Y-64170999D01*
G75*
G02*
X140885999Y-63921000I249999J0D01*
G01*
X142126001Y-63921000D01*
G75*
G02*
X142376000Y-64170999I0J-249999D01*
G01*
G37*
X138966000Y-65021000D03*
%TD*%
%TO.C,J1*%
G36*
G01*
X157870000Y-64170999D02*
X157870000Y-65871001D01*
G75*
G02*
X157620001Y-66121000I-249999J0D01*
G01*
X156379999Y-66121000D01*
G75*
G02*
X156130000Y-65871001I0J249999D01*
G01*
X156130000Y-64170999D01*
G75*
G02*
X156379999Y-63921000I249999J0D01*
G01*
X157620001Y-63921000D01*
G75*
G02*
X157870000Y-64170999I0J-249999D01*
G01*
G37*
X154460000Y-65021000D03*
%TD*%
D14*
%TO.C,RV5*%
X125250000Y-78260000D03*
X125250000Y-75720000D03*
X125250000Y-73180000D03*
%TD*%
D15*
%TO.C,U3*%
X145570000Y-88420000D03*
X137950000Y-103660000D03*
X145570000Y-90960000D03*
X137950000Y-101120000D03*
X145570000Y-93500000D03*
X137950000Y-98580000D03*
X145570000Y-96040000D03*
X137950000Y-96040000D03*
X145570000Y-98580000D03*
X137950000Y-93500000D03*
X145570000Y-101120000D03*
X137950000Y-90960000D03*
X145570000Y-103660000D03*
D16*
X137950000Y-88420000D03*
%TD*%
D11*
%TO.C,RV6*%
X117000000Y-65000000D03*
X112000000Y-140000000D03*
D12*
X117000000Y-135000000D03*
%TD*%
D11*
%TO.C,RV3*%
X132000000Y-65000000D03*
X127000000Y-140000000D03*
D12*
X132000000Y-135000000D03*
%TD*%
D11*
%TO.C,RV2*%
X147000000Y-65000000D03*
X142000000Y-140000000D03*
D12*
X147000000Y-135000000D03*
%TD*%
D11*
%TO.C,RV1*%
X162000000Y-65000000D03*
X157000000Y-140000000D03*
D12*
X162000000Y-135000000D03*
%TD*%
D17*
%TO.C,R17*%
X150650000Y-79530000D03*
D18*
X158270000Y-79530000D03*
%TD*%
D17*
%TO.C,R16*%
X150650000Y-87150000D03*
D18*
X158270000Y-87150000D03*
%TD*%
D17*
%TO.C,R15*%
X158270000Y-90960000D03*
D18*
X150650000Y-90960000D03*
%TD*%
D17*
%TO.C,R14*%
X150650000Y-112550000D03*
D18*
X158270000Y-112550000D03*
%TD*%
D17*
%TO.C,R13*%
X150650000Y-104930000D03*
D18*
X158270000Y-104930000D03*
%TD*%
D17*
%TO.C,R12*%
X132870000Y-104930000D03*
D18*
X125250000Y-104930000D03*
%TD*%
D17*
%TO.C,R11*%
X125250000Y-101120000D03*
D18*
X132870000Y-101120000D03*
%TD*%
D17*
%TO.C,R10*%
X158270000Y-101120000D03*
D18*
X150650000Y-101120000D03*
%TD*%
D17*
%TO.C,R9*%
X113820000Y-118900000D03*
D18*
X113820000Y-126520000D03*
%TD*%
D17*
%TO.C,R8*%
X102390000Y-126520000D03*
D18*
X102390000Y-118900000D03*
%TD*%
D17*
%TO.C,R7*%
X98580000Y-118900000D03*
D18*
X98580000Y-126520000D03*
%TD*%
D17*
%TO.C,R6*%
X132870000Y-87150000D03*
D18*
X125250000Y-87150000D03*
%TD*%
D17*
%TO.C,R3*%
X127790000Y-126520000D03*
D18*
X127790000Y-118900000D03*
%TD*%
D17*
%TO.C,R2*%
X141760000Y-126520000D03*
D18*
X141760000Y-118900000D03*
%TD*%
D17*
%TO.C,R1*%
X157000000Y-126520000D03*
D18*
X157000000Y-118900000D03*
%TD*%
D19*
%TO.C,J4*%
X102390000Y-90960000D03*
X104930000Y-90960000D03*
X102390000Y-93500000D03*
X104930000Y-93500000D03*
X102390000Y-96040000D03*
X104930000Y-96040000D03*
X102390000Y-98580000D03*
X104930000Y-98580000D03*
X102390000Y-101120000D03*
D20*
X104930000Y-101120000D03*
%TD*%
D17*
%TO.C,D4*%
X110010000Y-118900000D03*
D21*
X110010000Y-126520000D03*
%TD*%
D17*
%TO.C,D3*%
X106200000Y-126520000D03*
D21*
X106200000Y-118900000D03*
%TD*%
D22*
%TO.C,D2*%
X112550000Y-108740000D03*
D23*
X112550000Y-101120000D03*
%TD*%
D22*
%TO.C,D1*%
X112550000Y-90960000D03*
D23*
X112550000Y-83340000D03*
%TD*%
D18*
%TO.C,C7*%
X150690000Y-83340000D03*
X153190000Y-83340000D03*
%TD*%
%TO.C,C6*%
X150650000Y-96040000D03*
X153150000Y-96040000D03*
%TD*%
%TO.C,C5*%
X130370000Y-96040000D03*
X132870000Y-96040000D03*
%TD*%
%TO.C,C4*%
X150690000Y-108740000D03*
X153190000Y-108740000D03*
%TD*%
%TO.C,C3*%
X117630000Y-108740000D03*
D21*
X119630000Y-108740000D03*
%TD*%
D18*
%TO.C,C2*%
X119630000Y-83340000D03*
D21*
X117630000Y-83340000D03*
%TD*%
M02*
