M48
; DRILL file {KiCad 5.1.9-73d0e3b20d~88~ubuntu20.04.1} date Thu Apr  1 11:15:07 2021
; FORMAT={-:-/ absolute / inch / decimal}
; #@! TF.CreationDate,2021-04-01T11:15:07-04:00
; #@! TF.GenerationSoftware,Kicad,Pcbnew,5.1.9-73d0e3b20d~88~ubuntu20.04.1
; #@! TF.FileFunction,Plated,1,2,PTH
FMAT,2
INCH
T1C0.0315
T2C0.0400
T3C0.0433
T4C0.0472
T5C0.0689
%
G90
G05
T1
X3.8811Y-4.6811
X3.8811Y-4.9811
X4.0311Y-4.6811
X4.0311Y-4.9811
X4.1811Y-4.6811
X4.1811Y-4.9811
X4.3311Y-4.6811
X4.3311Y-4.9811
X4.4811Y-4.6811
X4.4811Y-4.9811
X4.6311Y-3.2811
X4.6311Y-4.2811
X4.7098Y-3.2811
X4.7098Y-4.2811
X4.9311Y-2.8811
X4.9311Y-2.9811
X4.9311Y-3.0811
X4.9311Y-3.4311
X4.9311Y-3.9811
X4.9311Y-4.1311
X5.0311Y-4.6811
X5.0311Y-4.9811
X5.1327Y-3.7811
X5.2311Y-3.4311
X5.2311Y-3.7811
X5.2311Y-3.9811
X5.2311Y-4.1311
X5.4311Y-3.4811
X5.4311Y-3.5811
X5.4311Y-3.6811
X5.4311Y-3.7811
X5.4311Y-3.8811
X5.4311Y-3.9811
X5.4311Y-4.0811
X5.5811Y-4.6811
X5.5811Y-4.9811
X5.7311Y-3.4811
X5.7311Y-3.5811
X5.7311Y-3.6811
X5.7311Y-3.7811
X5.7311Y-3.8811
X5.7311Y-3.9811
X5.7311Y-4.0811
X5.9311Y-3.1311
X5.9311Y-3.4311
X5.9311Y-3.5811
X5.9311Y-3.7811
X5.9311Y-3.9811
X5.9311Y-4.1311
X5.9311Y-4.4311
X5.9327Y-3.2811
X5.9327Y-4.2811
X6.0295Y-3.7811
X6.0311Y-3.2811
X6.0311Y-4.2811
X6.1811Y-4.6811
X6.1811Y-4.9811
X6.2311Y-3.1311
X6.2311Y-3.4311
X6.2311Y-3.5811
X6.2311Y-3.9811
X6.2311Y-4.1311
X6.2311Y-4.4311
T2
X4.0311Y-3.5811
X4.0311Y-3.6811
X4.0311Y-3.7811
X4.0311Y-3.8811
X4.0311Y-3.9811
X4.1311Y-3.5811
X4.1311Y-3.6811
X4.1311Y-3.7811
X4.1311Y-3.8811
X4.1311Y-3.9811
T3
X4.4311Y-3.2811
X4.4311Y-3.5811
X4.4311Y-3.9811
X4.4311Y-4.2811
T4
X4.3Y-6.0413
X4.4Y-6.0413
X4.8811Y-2.5599
X4.887Y-6.0413
X4.9811Y-2.5599
X4.987Y-6.0413
X5.4711Y-2.5599
X5.5711Y-2.5599
X6.0811Y-2.5599
X6.1811Y-2.5599
T5
X3.8189Y-5.5118
X4.0157Y-2.5591
X4.0157Y-5.315
X4.4094Y-5.5118
X4.6063Y-2.5591
X4.6063Y-5.315
X5.0Y-5.5118
X5.1969Y-2.5591
X5.1969Y-5.315
X5.5906Y-5.5118
X5.7874Y-2.5591
X5.7874Y-5.315
X6.1811Y-5.5118
X6.378Y-2.5591
X6.378Y-5.315
T0
M30
