%TF.GenerationSoftware,KiCad,Pcbnew,5.1.9-73d0e3b20d~88~ubuntu20.04.1*%
%TF.CreationDate,2021-04-01T11:15:01-04:00*%
%TF.ProjectId,ao_dc_mixer,616f5f64-635f-46d6-9978-65722e6b6963,rev?*%
%TF.SameCoordinates,Original*%
%TF.FileFunction,Legend,Bot*%
%TF.FilePolarity,Positive*%
%FSLAX46Y46*%
G04 Gerber Fmt 4.6, Leading zero omitted, Abs format (unit mm)*
G04 Created by KiCad (PCBNEW 5.1.9-73d0e3b20d~88~ubuntu20.04.1) date 2021-04-01 11:15:01*
%MOMM*%
%LPD*%
G01*
G04 APERTURE LIST*
%ADD10C,0.120000*%
%ADD11C,0.150000*%
G04 APERTURE END LIST*
D10*
%TO.C,RV4*%
X100000000Y-70000000D02*
X99250000Y-70750000D01*
X100750000Y-70750000D02*
X100000000Y-70000000D01*
X101500000Y-70000000D02*
X98500000Y-70000000D01*
X100000000Y-130000000D02*
X99250000Y-129250000D01*
X100780000Y-129280000D02*
X100000000Y-130000000D01*
X101500000Y-130000000D02*
X98500000Y-130000000D01*
X100000000Y-130000000D02*
X100000000Y-70000000D01*
X101500000Y-137085000D02*
X102000000Y-136585000D01*
X102500000Y-137085000D02*
X101500000Y-137085000D01*
X102000000Y-136585000D02*
X102500000Y-137085000D01*
X106370000Y-55780000D02*
X93630000Y-55780000D01*
X106370000Y-144220000D02*
X93630000Y-144220000D01*
X93630000Y-144220000D02*
X93630000Y-55780000D01*
X106370000Y-144220000D02*
X106370000Y-55780000D01*
%TO.C,RV6*%
X115000000Y-70000000D02*
X114250000Y-70750000D01*
X115750000Y-70750000D02*
X115000000Y-70000000D01*
X116500000Y-70000000D02*
X113500000Y-70000000D01*
X115000000Y-130000000D02*
X114250000Y-129250000D01*
X115780000Y-129280000D02*
X115000000Y-130000000D01*
X116500000Y-130000000D02*
X113500000Y-130000000D01*
X115000000Y-130000000D02*
X115000000Y-70000000D01*
X116500000Y-137085000D02*
X117000000Y-136585000D01*
X117500000Y-137085000D02*
X116500000Y-137085000D01*
X117000000Y-136585000D02*
X117500000Y-137085000D01*
X121370000Y-55780000D02*
X108630000Y-55780000D01*
X121370000Y-144220000D02*
X108630000Y-144220000D01*
X108630000Y-144220000D02*
X108630000Y-55780000D01*
X121370000Y-144220000D02*
X121370000Y-55780000D01*
%TO.C,RV3*%
X130000000Y-70000000D02*
X129250000Y-70750000D01*
X130750000Y-70750000D02*
X130000000Y-70000000D01*
X131500000Y-70000000D02*
X128500000Y-70000000D01*
X130000000Y-130000000D02*
X129250000Y-129250000D01*
X130780000Y-129280000D02*
X130000000Y-130000000D01*
X131500000Y-130000000D02*
X128500000Y-130000000D01*
X130000000Y-130000000D02*
X130000000Y-70000000D01*
X131500000Y-137085000D02*
X132000000Y-136585000D01*
X132500000Y-137085000D02*
X131500000Y-137085000D01*
X132000000Y-136585000D02*
X132500000Y-137085000D01*
X136370000Y-55780000D02*
X123630000Y-55780000D01*
X136370000Y-144220000D02*
X123630000Y-144220000D01*
X123630000Y-144220000D02*
X123630000Y-55780000D01*
X136370000Y-144220000D02*
X136370000Y-55780000D01*
%TO.C,RV2*%
X145000000Y-70000000D02*
X144250000Y-70750000D01*
X145750000Y-70750000D02*
X145000000Y-70000000D01*
X146500000Y-70000000D02*
X143500000Y-70000000D01*
X145000000Y-130000000D02*
X144250000Y-129250000D01*
X145780000Y-129280000D02*
X145000000Y-130000000D01*
X146500000Y-130000000D02*
X143500000Y-130000000D01*
X145000000Y-130000000D02*
X145000000Y-70000000D01*
X146500000Y-137085000D02*
X147000000Y-136585000D01*
X147500000Y-137085000D02*
X146500000Y-137085000D01*
X147000000Y-136585000D02*
X147500000Y-137085000D01*
X151370000Y-55780000D02*
X138630000Y-55780000D01*
X151370000Y-144220000D02*
X138630000Y-144220000D01*
X138630000Y-144220000D02*
X138630000Y-55780000D01*
X151370000Y-144220000D02*
X151370000Y-55780000D01*
%TO.C,RV1*%
X160000000Y-70000000D02*
X159250000Y-70750000D01*
X160750000Y-70750000D02*
X160000000Y-70000000D01*
X161500000Y-70000000D02*
X158500000Y-70000000D01*
X160000000Y-130000000D02*
X159250000Y-129250000D01*
X160780000Y-129280000D02*
X160000000Y-130000000D01*
X161500000Y-130000000D02*
X158500000Y-130000000D01*
X160000000Y-130000000D02*
X160000000Y-70000000D01*
X161500000Y-137085000D02*
X162000000Y-136585000D01*
X162500000Y-137085000D02*
X161500000Y-137085000D01*
X162000000Y-136585000D02*
X162500000Y-137085000D01*
X166370000Y-55780000D02*
X153630000Y-55780000D01*
X166370000Y-144220000D02*
X153630000Y-144220000D01*
X153630000Y-144220000D02*
X153630000Y-55780000D01*
X166370000Y-144220000D02*
X166370000Y-55780000D01*
%TO.C,RV4*%
D11*
X100095238Y-145452380D02*
X100428571Y-144976190D01*
X100666666Y-145452380D02*
X100666666Y-144452380D01*
X100285714Y-144452380D01*
X100190476Y-144500000D01*
X100142857Y-144547619D01*
X100095238Y-144642857D01*
X100095238Y-144785714D01*
X100142857Y-144880952D01*
X100190476Y-144928571D01*
X100285714Y-144976190D01*
X100666666Y-144976190D01*
X99809523Y-144452380D02*
X99476190Y-145452380D01*
X99142857Y-144452380D01*
X98380952Y-144785714D02*
X98380952Y-145452380D01*
X98619047Y-144404761D02*
X98857142Y-145119047D01*
X98238095Y-145119047D01*
%TO.C,RV6*%
X115595238Y-145452380D02*
X115928571Y-144976190D01*
X116166666Y-145452380D02*
X116166666Y-144452380D01*
X115785714Y-144452380D01*
X115690476Y-144500000D01*
X115642857Y-144547619D01*
X115595238Y-144642857D01*
X115595238Y-144785714D01*
X115642857Y-144880952D01*
X115690476Y-144928571D01*
X115785714Y-144976190D01*
X116166666Y-144976190D01*
X115309523Y-144452380D02*
X114976190Y-145452380D01*
X114642857Y-144452380D01*
X113880952Y-144452380D02*
X114071428Y-144452380D01*
X114166666Y-144500000D01*
X114214285Y-144547619D01*
X114309523Y-144690476D01*
X114357142Y-144880952D01*
X114357142Y-145261904D01*
X114309523Y-145357142D01*
X114261904Y-145404761D01*
X114166666Y-145452380D01*
X113976190Y-145452380D01*
X113880952Y-145404761D01*
X113833333Y-145357142D01*
X113785714Y-145261904D01*
X113785714Y-145023809D01*
X113833333Y-144928571D01*
X113880952Y-144880952D01*
X113976190Y-144833333D01*
X114166666Y-144833333D01*
X114261904Y-144880952D01*
X114309523Y-144928571D01*
X114357142Y-145023809D01*
%TO.C,RV3*%
X130595238Y-145452380D02*
X130928571Y-144976190D01*
X131166666Y-145452380D02*
X131166666Y-144452380D01*
X130785714Y-144452380D01*
X130690476Y-144500000D01*
X130642857Y-144547619D01*
X130595238Y-144642857D01*
X130595238Y-144785714D01*
X130642857Y-144880952D01*
X130690476Y-144928571D01*
X130785714Y-144976190D01*
X131166666Y-144976190D01*
X130309523Y-144452380D02*
X129976190Y-145452380D01*
X129642857Y-144452380D01*
X129404761Y-144452380D02*
X128785714Y-144452380D01*
X129119047Y-144833333D01*
X128976190Y-144833333D01*
X128880952Y-144880952D01*
X128833333Y-144928571D01*
X128785714Y-145023809D01*
X128785714Y-145261904D01*
X128833333Y-145357142D01*
X128880952Y-145404761D01*
X128976190Y-145452380D01*
X129261904Y-145452380D01*
X129357142Y-145404761D01*
X129404761Y-145357142D01*
%TO.C,RV2*%
X145595238Y-145452380D02*
X145928571Y-144976190D01*
X146166666Y-145452380D02*
X146166666Y-144452380D01*
X145785714Y-144452380D01*
X145690476Y-144500000D01*
X145642857Y-144547619D01*
X145595238Y-144642857D01*
X145595238Y-144785714D01*
X145642857Y-144880952D01*
X145690476Y-144928571D01*
X145785714Y-144976190D01*
X146166666Y-144976190D01*
X145309523Y-144452380D02*
X144976190Y-145452380D01*
X144642857Y-144452380D01*
X144357142Y-144547619D02*
X144309523Y-144500000D01*
X144214285Y-144452380D01*
X143976190Y-144452380D01*
X143880952Y-144500000D01*
X143833333Y-144547619D01*
X143785714Y-144642857D01*
X143785714Y-144738095D01*
X143833333Y-144880952D01*
X144404761Y-145452380D01*
X143785714Y-145452380D01*
%TO.C,RV1*%
X160595238Y-145452380D02*
X160928571Y-144976190D01*
X161166666Y-145452380D02*
X161166666Y-144452380D01*
X160785714Y-144452380D01*
X160690476Y-144500000D01*
X160642857Y-144547619D01*
X160595238Y-144642857D01*
X160595238Y-144785714D01*
X160642857Y-144880952D01*
X160690476Y-144928571D01*
X160785714Y-144976190D01*
X161166666Y-144976190D01*
X160309523Y-144452380D02*
X159976190Y-145452380D01*
X159642857Y-144452380D01*
X158785714Y-145452380D02*
X159357142Y-145452380D01*
X159071428Y-145452380D02*
X159071428Y-144452380D01*
X159166666Y-144595238D01*
X159261904Y-144690476D01*
X159357142Y-144738095D01*
%TD*%
M02*
