%TF.GenerationSoftware,KiCad,Pcbnew,5.1.9-73d0e3b20d~88~ubuntu20.04.1*%
%TF.CreationDate,2021-04-01T11:15:01-04:00*%
%TF.ProjectId,ao_dc_mixer,616f5f64-635f-46d6-9978-65722e6b6963,rev?*%
%TF.SameCoordinates,Original*%
%TF.FileFunction,Copper,L2,Bot*%
%TF.FilePolarity,Positive*%
%FSLAX46Y46*%
G04 Gerber Fmt 4.6, Leading zero omitted, Abs format (unit mm)*
G04 Created by KiCad (PCBNEW 5.1.9-73d0e3b20d~88~ubuntu20.04.1) date 2021-04-01 11:15:01*
%MOMM*%
%LPD*%
G01*
G04 APERTURE LIST*
%TA.AperFunction,ComponentPad*%
%ADD10C,2.500000*%
%TD*%
%TA.AperFunction,ComponentPad*%
%ADD11R,2.500000X2.500000*%
%TD*%
%TA.AperFunction,ComponentPad*%
%ADD12O,1.740000X2.200000*%
%TD*%
%TA.AperFunction,ComponentPad*%
%ADD13C,1.440000*%
%TD*%
%TA.AperFunction,ComponentPad*%
%ADD14O,2.400000X1.600000*%
%TD*%
%TA.AperFunction,ComponentPad*%
%ADD15R,2.400000X1.600000*%
%TD*%
%TA.AperFunction,ComponentPad*%
%ADD16O,1.600000X1.600000*%
%TD*%
%TA.AperFunction,ComponentPad*%
%ADD17C,1.600000*%
%TD*%
%TA.AperFunction,ComponentPad*%
%ADD18O,1.727200X1.727200*%
%TD*%
%TA.AperFunction,ComponentPad*%
%ADD19R,1.727200X1.727200*%
%TD*%
%TA.AperFunction,ComponentPad*%
%ADD20R,1.600000X1.600000*%
%TD*%
%TA.AperFunction,ComponentPad*%
%ADD21O,2.200000X2.200000*%
%TD*%
%TA.AperFunction,ComponentPad*%
%ADD22R,2.200000X2.200000*%
%TD*%
%TA.AperFunction,Conductor*%
%ADD23C,0.750000*%
%TD*%
%TA.AperFunction,Conductor*%
%ADD24C,0.250000*%
%TD*%
%TA.AperFunction,Conductor*%
%ADD25C,0.254000*%
%TD*%
%TA.AperFunction,Conductor*%
%ADD26C,0.100000*%
%TD*%
G04 APERTURE END LIST*
D10*
%TO.P,RV4,3*%
%TO.N,+12V*%
X102000000Y-65000000D03*
%TO.P,RV4,2*%
%TO.N,Net-(R7-Pad1)*%
X97000000Y-140000000D03*
D11*
%TO.P,RV4,1*%
%TO.N,-12V*%
X102000000Y-135000000D03*
%TD*%
D12*
%TO.P,J6,2*%
%TO.N,GND*%
X126670000Y-153450000D03*
%TO.P,J6,1*%
%TO.N,/OUT*%
%TA.AperFunction,ComponentPad*%
G36*
G01*
X123260000Y-154300001D02*
X123260000Y-152599999D01*
G75*
G02*
X123509999Y-152350000I249999J0D01*
G01*
X124750001Y-152350000D01*
G75*
G02*
X125000000Y-152599999I0J-249999D01*
G01*
X125000000Y-154300001D01*
G75*
G02*
X124750001Y-154550000I-249999J0D01*
G01*
X123509999Y-154550000D01*
G75*
G02*
X123260000Y-154300001I0J249999D01*
G01*
G37*
%TD.AperFunction*%
%TD*%
%TO.P,J5,2*%
%TO.N,GND*%
X111760000Y-153450000D03*
%TO.P,J5,1*%
%TO.N,/~OUT*%
%TA.AperFunction,ComponentPad*%
G36*
G01*
X108350000Y-154300001D02*
X108350000Y-152599999D01*
G75*
G02*
X108599999Y-152350000I249999J0D01*
G01*
X109840001Y-152350000D01*
G75*
G02*
X110090000Y-152599999I0J-249999D01*
G01*
X110090000Y-154300001D01*
G75*
G02*
X109840001Y-154550000I-249999J0D01*
G01*
X108599999Y-154550000D01*
G75*
G02*
X108350000Y-154300001I0J249999D01*
G01*
G37*
%TD.AperFunction*%
%TD*%
%TO.P,J3,1*%
%TO.N,/IN3*%
%TA.AperFunction,ComponentPad*%
G36*
G01*
X127390000Y-64170999D02*
X127390000Y-65871001D01*
G75*
G02*
X127140001Y-66121000I-249999J0D01*
G01*
X125899999Y-66121000D01*
G75*
G02*
X125650000Y-65871001I0J249999D01*
G01*
X125650000Y-64170999D01*
G75*
G02*
X125899999Y-63921000I249999J0D01*
G01*
X127140001Y-63921000D01*
G75*
G02*
X127390000Y-64170999I0J-249999D01*
G01*
G37*
%TD.AperFunction*%
%TO.P,J3,2*%
%TO.N,GND*%
X123980000Y-65021000D03*
%TD*%
%TO.P,J2,1*%
%TO.N,/IN2*%
%TA.AperFunction,ComponentPad*%
G36*
G01*
X142376000Y-64170999D02*
X142376000Y-65871001D01*
G75*
G02*
X142126001Y-66121000I-249999J0D01*
G01*
X140885999Y-66121000D01*
G75*
G02*
X140636000Y-65871001I0J249999D01*
G01*
X140636000Y-64170999D01*
G75*
G02*
X140885999Y-63921000I249999J0D01*
G01*
X142126001Y-63921000D01*
G75*
G02*
X142376000Y-64170999I0J-249999D01*
G01*
G37*
%TD.AperFunction*%
%TO.P,J2,2*%
%TO.N,GND*%
X138966000Y-65021000D03*
%TD*%
%TO.P,J1,1*%
%TO.N,/IN1*%
%TA.AperFunction,ComponentPad*%
G36*
G01*
X157870000Y-64170999D02*
X157870000Y-65871001D01*
G75*
G02*
X157620001Y-66121000I-249999J0D01*
G01*
X156379999Y-66121000D01*
G75*
G02*
X156130000Y-65871001I0J249999D01*
G01*
X156130000Y-64170999D01*
G75*
G02*
X156379999Y-63921000I249999J0D01*
G01*
X157620001Y-63921000D01*
G75*
G02*
X157870000Y-64170999I0J-249999D01*
G01*
G37*
%TD.AperFunction*%
%TO.P,J1,2*%
%TO.N,GND*%
X154460000Y-65021000D03*
%TD*%
D13*
%TO.P,RV5,3*%
%TO.N,Net-(R6-Pad1)*%
X125250000Y-78260000D03*
%TO.P,RV5,2*%
X125250000Y-75720000D03*
%TO.P,RV5,1*%
%TO.N,Net-(RV5-Pad1)*%
X125250000Y-73180000D03*
%TD*%
D14*
%TO.P,U3,14*%
%TO.N,Net-(C7-Pad2)*%
X145570000Y-88420000D03*
%TO.P,U3,7*%
%TO.N,Net-(R12-Pad1)*%
X137950000Y-103660000D03*
%TO.P,U3,13*%
%TO.N,Net-(C7-Pad1)*%
X145570000Y-90960000D03*
%TO.P,U3,6*%
%TO.N,Net-(R11-Pad1)*%
X137950000Y-101120000D03*
%TO.P,U3,12*%
%TO.N,Net-(R12-Pad1)*%
X145570000Y-93500000D03*
%TO.P,U3,5*%
%TO.N,/V_BIAS*%
X137950000Y-98580000D03*
%TO.P,U3,11*%
%TO.N,-12V*%
X145570000Y-96040000D03*
%TO.P,U3,4*%
%TO.N,+12V*%
X137950000Y-96040000D03*
%TO.P,U3,10*%
%TO.N,/V_BIAS*%
X145570000Y-98580000D03*
%TO.P,U3,3*%
%TO.N,GND*%
X137950000Y-93500000D03*
%TO.P,U3,9*%
%TO.N,Net-(C4-Pad1)*%
X145570000Y-101120000D03*
%TO.P,U3,2*%
%TO.N,Net-(R1-Pad1)*%
X137950000Y-90960000D03*
%TO.P,U3,8*%
%TO.N,Net-(C4-Pad2)*%
X145570000Y-103660000D03*
D15*
%TO.P,U3,1*%
%TO.N,Net-(R10-Pad2)*%
X137950000Y-88420000D03*
%TD*%
D10*
%TO.P,RV6,3*%
%TO.N,Net-(RV5-Pad1)*%
X117000000Y-65000000D03*
%TO.P,RV6,2*%
X112000000Y-140000000D03*
D11*
%TO.P,RV6,1*%
%TO.N,Net-(R10-Pad2)*%
X117000000Y-135000000D03*
%TD*%
D10*
%TO.P,RV3,3*%
%TO.N,/IN3*%
X132000000Y-65000000D03*
%TO.P,RV3,2*%
%TO.N,Net-(R3-Pad2)*%
X127000000Y-140000000D03*
D11*
%TO.P,RV3,1*%
%TO.N,GND*%
X132000000Y-135000000D03*
%TD*%
D10*
%TO.P,RV2,3*%
%TO.N,/IN2*%
X147000000Y-65000000D03*
%TO.P,RV2,2*%
%TO.N,Net-(R2-Pad2)*%
X142000000Y-140000000D03*
D11*
%TO.P,RV2,1*%
%TO.N,GND*%
X147000000Y-135000000D03*
%TD*%
D10*
%TO.P,RV1,3*%
%TO.N,/IN1*%
X162000000Y-65000000D03*
%TO.P,RV1,2*%
%TO.N,Net-(R1-Pad2)*%
X157000000Y-140000000D03*
D11*
%TO.P,RV1,1*%
%TO.N,GND*%
X162000000Y-135000000D03*
%TD*%
D16*
%TO.P,R17,2*%
%TO.N,Net-(C7-Pad2)*%
X150650000Y-79530000D03*
D17*
%TO.P,R17,1*%
%TO.N,/~OUT*%
X158270000Y-79530000D03*
%TD*%
D16*
%TO.P,R16,2*%
%TO.N,Net-(C7-Pad1)*%
X150650000Y-87150000D03*
D17*
%TO.P,R16,1*%
%TO.N,/~OUT*%
X158270000Y-87150000D03*
%TD*%
D16*
%TO.P,R15,2*%
%TO.N,/OUT*%
X158270000Y-90960000D03*
D17*
%TO.P,R15,1*%
%TO.N,Net-(C7-Pad1)*%
X150650000Y-90960000D03*
%TD*%
D16*
%TO.P,R14,2*%
%TO.N,Net-(C4-Pad2)*%
X150650000Y-112550000D03*
D17*
%TO.P,R14,1*%
%TO.N,/OUT*%
X158270000Y-112550000D03*
%TD*%
D16*
%TO.P,R13,2*%
%TO.N,Net-(C4-Pad1)*%
X150650000Y-104930000D03*
D17*
%TO.P,R13,1*%
%TO.N,/OUT*%
X158270000Y-104930000D03*
%TD*%
D16*
%TO.P,R12,2*%
%TO.N,Net-(R11-Pad1)*%
X132870000Y-104930000D03*
D17*
%TO.P,R12,1*%
%TO.N,Net-(R12-Pad1)*%
X125250000Y-104930000D03*
%TD*%
D16*
%TO.P,R11,2*%
%TO.N,GND*%
X125250000Y-101120000D03*
D17*
%TO.P,R11,1*%
%TO.N,Net-(R11-Pad1)*%
X132870000Y-101120000D03*
%TD*%
D16*
%TO.P,R10,2*%
%TO.N,Net-(R10-Pad2)*%
X158270000Y-101120000D03*
D17*
%TO.P,R10,1*%
%TO.N,Net-(C4-Pad1)*%
X150650000Y-101120000D03*
%TD*%
D16*
%TO.P,R9,2*%
%TO.N,GND*%
X113820000Y-118900000D03*
D17*
%TO.P,R9,1*%
%TO.N,/V_BIAS*%
X113820000Y-126520000D03*
%TD*%
D16*
%TO.P,R8,2*%
%TO.N,GND*%
X102390000Y-126520000D03*
D17*
%TO.P,R8,1*%
%TO.N,Net-(D3-Pad1)*%
X102390000Y-118900000D03*
%TD*%
D16*
%TO.P,R7,2*%
%TO.N,Net-(D3-Pad1)*%
X98580000Y-118900000D03*
D17*
%TO.P,R7,1*%
%TO.N,Net-(R7-Pad1)*%
X98580000Y-126520000D03*
%TD*%
D16*
%TO.P,R6,2*%
%TO.N,Net-(R1-Pad1)*%
X132870000Y-87150000D03*
D17*
%TO.P,R6,1*%
%TO.N,Net-(R6-Pad1)*%
X125250000Y-87150000D03*
%TD*%
D16*
%TO.P,R3,2*%
%TO.N,Net-(R3-Pad2)*%
X127790000Y-126520000D03*
D17*
%TO.P,R3,1*%
%TO.N,Net-(R1-Pad1)*%
X127790000Y-118900000D03*
%TD*%
D16*
%TO.P,R2,2*%
%TO.N,Net-(R2-Pad2)*%
X141760000Y-126520000D03*
D17*
%TO.P,R2,1*%
%TO.N,Net-(R1-Pad1)*%
X141760000Y-118900000D03*
%TD*%
D16*
%TO.P,R1,2*%
%TO.N,Net-(R1-Pad2)*%
X157000000Y-126520000D03*
D17*
%TO.P,R1,1*%
%TO.N,Net-(R1-Pad1)*%
X157000000Y-118900000D03*
%TD*%
D18*
%TO.P,J4,10*%
%TO.N,Net-(D1-Pad2)*%
X102390000Y-90960000D03*
%TO.P,J4,9*%
X104930000Y-90960000D03*
%TO.P,J4,8*%
%TO.N,GND*%
X102390000Y-93500000D03*
%TO.P,J4,7*%
X104930000Y-93500000D03*
%TO.P,J4,6*%
X102390000Y-96040000D03*
%TO.P,J4,5*%
X104930000Y-96040000D03*
%TO.P,J4,4*%
X102390000Y-98580000D03*
%TO.P,J4,3*%
X104930000Y-98580000D03*
%TO.P,J4,2*%
%TO.N,Net-(D2-Pad1)*%
X102390000Y-101120000D03*
D19*
%TO.P,J4,1*%
X104930000Y-101120000D03*
%TD*%
D16*
%TO.P,D4,2*%
%TO.N,Net-(D3-Pad1)*%
X110010000Y-118900000D03*
D20*
%TO.P,D4,1*%
%TO.N,/V_BIAS*%
X110010000Y-126520000D03*
%TD*%
D16*
%TO.P,D3,2*%
%TO.N,/V_BIAS*%
X106200000Y-126520000D03*
D20*
%TO.P,D3,1*%
%TO.N,Net-(D3-Pad1)*%
X106200000Y-118900000D03*
%TD*%
D21*
%TO.P,D2,2*%
%TO.N,-12V*%
X112550000Y-108740000D03*
D22*
%TO.P,D2,1*%
%TO.N,Net-(D2-Pad1)*%
X112550000Y-101120000D03*
%TD*%
D21*
%TO.P,D1,2*%
%TO.N,Net-(D1-Pad2)*%
X112550000Y-90960000D03*
D22*
%TO.P,D1,1*%
%TO.N,+12V*%
X112550000Y-83340000D03*
%TD*%
D17*
%TO.P,C7,2*%
%TO.N,Net-(C7-Pad2)*%
X150690000Y-83340000D03*
%TO.P,C7,1*%
%TO.N,Net-(C7-Pad1)*%
X153190000Y-83340000D03*
%TD*%
%TO.P,C6,2*%
%TO.N,-12V*%
X150650000Y-96040000D03*
%TO.P,C6,1*%
%TO.N,GND*%
X153150000Y-96040000D03*
%TD*%
%TO.P,C5,2*%
%TO.N,GND*%
X130370000Y-96040000D03*
%TO.P,C5,1*%
%TO.N,+12V*%
X132870000Y-96040000D03*
%TD*%
%TO.P,C4,2*%
%TO.N,Net-(C4-Pad2)*%
X150690000Y-108740000D03*
%TO.P,C4,1*%
%TO.N,Net-(C4-Pad1)*%
X153190000Y-108740000D03*
%TD*%
%TO.P,C3,2*%
%TO.N,-12V*%
X117630000Y-108740000D03*
D20*
%TO.P,C3,1*%
%TO.N,GND*%
X119630000Y-108740000D03*
%TD*%
D17*
%TO.P,C2,2*%
%TO.N,GND*%
X119630000Y-83340000D03*
D20*
%TO.P,C2,1*%
%TO.N,+12V*%
X117630000Y-83340000D03*
%TD*%
D23*
%TO.N,+12V*%
X112550000Y-83340000D02*
X116254700Y-83340000D01*
X117630000Y-83340000D02*
X116254700Y-83340000D01*
X117630000Y-83340000D02*
X126625400Y-92335400D01*
X126625400Y-92335400D02*
X129165400Y-92335400D01*
X129165400Y-92335400D02*
X132870000Y-96040000D01*
X132870000Y-96040000D02*
X137950000Y-96040000D01*
%TO.N,-12V*%
X117630000Y-108740000D02*
X114225300Y-108740000D01*
X112550000Y-108740000D02*
X114225300Y-108740000D01*
X150650000Y-96040000D02*
X145570000Y-96040000D01*
X143665000Y-96040000D02*
X145570000Y-96040000D01*
X140998000Y-98707000D02*
X143665000Y-96040000D01*
X133564900Y-110391000D02*
X140998000Y-102957900D01*
X118392000Y-110391000D02*
X133564900Y-110391000D01*
X117630000Y-109629000D02*
X118392000Y-110391000D01*
X140998000Y-102957900D02*
X140998000Y-98707000D01*
X117630000Y-108740000D02*
X117630000Y-109629000D01*
D24*
%TO.N,Net-(C4-Pad2)*%
X145610000Y-103660000D02*
X150690000Y-108740000D01*
%TO.N,Net-(C4-Pad1)*%
X150650000Y-104930000D02*
X150650000Y-106055300D01*
X153190000Y-108740000D02*
X153190000Y-108595300D01*
X153190000Y-108595300D02*
X150650000Y-106055300D01*
%TO.N,Net-(C7-Pad1)*%
X150650000Y-87150000D02*
X150650000Y-86024700D01*
X153190000Y-83340000D02*
X153190000Y-83484700D01*
X153190000Y-83484700D02*
X150650000Y-86024700D01*
D23*
%TO.N,Net-(D1-Pad2)*%
X104930000Y-90960000D02*
X102390000Y-90960000D01*
X112550000Y-90960000D02*
X104930000Y-90960000D01*
%TO.N,Net-(D2-Pad1)*%
X104930000Y-101120000D02*
X102390000Y-101120000D01*
X112550000Y-101120000D02*
X104930000Y-101120000D01*
D24*
%TO.N,Net-(D3-Pad1)*%
X98580000Y-118900000D02*
X102390000Y-118900000D01*
X106200000Y-118900000D02*
X102390000Y-118900000D01*
X110010000Y-118900000D02*
X106200000Y-118900000D01*
%TO.N,/V_BIAS*%
X110010000Y-126520000D02*
X113820000Y-126520000D01*
X106200000Y-126520000D02*
X110010000Y-126520000D01*
X147095300Y-98580000D02*
X145570000Y-98580000D01*
X147095300Y-101586400D02*
X147095300Y-98580000D01*
X146291700Y-102390000D02*
X147095300Y-101586400D01*
X144639800Y-102390000D02*
X146291700Y-102390000D01*
X132193800Y-114836000D02*
X144639800Y-102390000D01*
X125504000Y-114836000D02*
X132193800Y-114836000D01*
X113820000Y-126520000D02*
X125504000Y-114836000D01*
%TO.N,Net-(R12-Pad1)*%
X145570000Y-93500000D02*
X144044700Y-93500000D01*
X144044700Y-93500000D02*
X139993000Y-97551700D01*
X139993000Y-97551700D02*
X139993000Y-101617000D01*
X139993000Y-101617000D02*
X137950000Y-103660000D01*
X135283000Y-106327000D02*
X137950000Y-103660000D01*
X126647000Y-106327000D02*
X135283000Y-106327000D01*
X125250000Y-104930000D02*
X126647000Y-106327000D01*
%TO.N,Net-(R1-Pad1)*%
X141760000Y-118900000D02*
X127790000Y-118900000D01*
X157000000Y-118900000D02*
X141760000Y-118900000D01*
X134140000Y-87150000D02*
X137950000Y-90960000D01*
X132870000Y-87150000D02*
X134140000Y-87150000D01*
%TO.N,Net-(R10-Pad2)*%
X137950000Y-88420000D02*
X139475300Y-88420000D01*
X158270000Y-101120000D02*
X156634900Y-101120000D01*
X156634900Y-101120000D02*
X151900000Y-96385100D01*
X151900000Y-96385100D02*
X151900000Y-95695700D01*
X151900000Y-95695700D02*
X148434300Y-92230000D01*
X148434300Y-92230000D02*
X143285300Y-92230000D01*
X143285300Y-92230000D02*
X139475300Y-88420000D01*
%TD*%
D25*
%TO.N,GND*%
X166315001Y-157315000D02*
X93685000Y-157315000D01*
X93685000Y-154779872D01*
X97765000Y-154779872D01*
X97765000Y-155220128D01*
X97850890Y-155651925D01*
X98019369Y-156058669D01*
X98263962Y-156424729D01*
X98575271Y-156736038D01*
X98941331Y-156980631D01*
X99348075Y-157149110D01*
X99779872Y-157235000D01*
X100220128Y-157235000D01*
X100651925Y-157149110D01*
X101058669Y-156980631D01*
X101424729Y-156736038D01*
X101736038Y-156424729D01*
X101980631Y-156058669D01*
X102149110Y-155651925D01*
X102235000Y-155220128D01*
X102235000Y-154779872D01*
X102149110Y-154348075D01*
X101980631Y-153941331D01*
X101736038Y-153575271D01*
X101424729Y-153263962D01*
X101058669Y-153019369D01*
X100651925Y-152850890D01*
X100220128Y-152765000D01*
X99779872Y-152765000D01*
X99348075Y-152850890D01*
X98941331Y-153019369D01*
X98575271Y-153263962D01*
X98263962Y-153575271D01*
X98019369Y-153941331D01*
X97850890Y-154348075D01*
X97765000Y-154779872D01*
X93685000Y-154779872D01*
X93685000Y-152599999D01*
X107711928Y-152599999D01*
X107711928Y-154300001D01*
X107728992Y-154473255D01*
X107779528Y-154639851D01*
X107861595Y-154793387D01*
X107972038Y-154927962D01*
X108106613Y-155038405D01*
X108260149Y-155120472D01*
X108426745Y-155171008D01*
X108599999Y-155188072D01*
X109840001Y-155188072D01*
X110013255Y-155171008D01*
X110179851Y-155120472D01*
X110333387Y-155038405D01*
X110467962Y-154927962D01*
X110578405Y-154793387D01*
X110636507Y-154684686D01*
X110789506Y-154840536D01*
X111034563Y-155007571D01*
X111307498Y-155123588D01*
X111399969Y-155141302D01*
X111633000Y-155020246D01*
X111633000Y-153577000D01*
X111887000Y-153577000D01*
X111887000Y-155020246D01*
X112120031Y-155141302D01*
X112212502Y-155123588D01*
X112485437Y-155007571D01*
X112730494Y-154840536D01*
X112938256Y-154628903D01*
X113100738Y-154380804D01*
X113211696Y-154105773D01*
X113266866Y-153814380D01*
X113110586Y-153577000D01*
X111887000Y-153577000D01*
X111633000Y-153577000D01*
X111613000Y-153577000D01*
X111613000Y-153323000D01*
X111633000Y-153323000D01*
X111633000Y-151879754D01*
X111887000Y-151879754D01*
X111887000Y-153323000D01*
X113110586Y-153323000D01*
X113266866Y-153085620D01*
X113211696Y-152794227D01*
X113133338Y-152599999D01*
X122621928Y-152599999D01*
X122621928Y-154300001D01*
X122638992Y-154473255D01*
X122689528Y-154639851D01*
X122771595Y-154793387D01*
X122882038Y-154927962D01*
X123016613Y-155038405D01*
X123170149Y-155120472D01*
X123336745Y-155171008D01*
X123509999Y-155188072D01*
X124750001Y-155188072D01*
X124923255Y-155171008D01*
X125089851Y-155120472D01*
X125243387Y-155038405D01*
X125377962Y-154927962D01*
X125488405Y-154793387D01*
X125546507Y-154684686D01*
X125699506Y-154840536D01*
X125944563Y-155007571D01*
X126217498Y-155123588D01*
X126309969Y-155141302D01*
X126543000Y-155020246D01*
X126543000Y-153577000D01*
X126797000Y-153577000D01*
X126797000Y-155020246D01*
X127030031Y-155141302D01*
X127122502Y-155123588D01*
X127395437Y-155007571D01*
X127640494Y-154840536D01*
X127700048Y-154779872D01*
X157765000Y-154779872D01*
X157765000Y-155220128D01*
X157850890Y-155651925D01*
X158019369Y-156058669D01*
X158263962Y-156424729D01*
X158575271Y-156736038D01*
X158941331Y-156980631D01*
X159348075Y-157149110D01*
X159779872Y-157235000D01*
X160220128Y-157235000D01*
X160651925Y-157149110D01*
X161058669Y-156980631D01*
X161424729Y-156736038D01*
X161736038Y-156424729D01*
X161980631Y-156058669D01*
X162149110Y-155651925D01*
X162235000Y-155220128D01*
X162235000Y-154779872D01*
X162149110Y-154348075D01*
X161980631Y-153941331D01*
X161736038Y-153575271D01*
X161424729Y-153263962D01*
X161058669Y-153019369D01*
X160651925Y-152850890D01*
X160220128Y-152765000D01*
X159779872Y-152765000D01*
X159348075Y-152850890D01*
X158941331Y-153019369D01*
X158575271Y-153263962D01*
X158263962Y-153575271D01*
X158019369Y-153941331D01*
X157850890Y-154348075D01*
X157765000Y-154779872D01*
X127700048Y-154779872D01*
X127848256Y-154628903D01*
X128010738Y-154380804D01*
X128121696Y-154105773D01*
X128176866Y-153814380D01*
X128020586Y-153577000D01*
X126797000Y-153577000D01*
X126543000Y-153577000D01*
X126523000Y-153577000D01*
X126523000Y-153323000D01*
X126543000Y-153323000D01*
X126543000Y-151879754D01*
X126797000Y-151879754D01*
X126797000Y-153323000D01*
X128020586Y-153323000D01*
X128176866Y-153085620D01*
X128121696Y-152794227D01*
X128010738Y-152519196D01*
X127848256Y-152271097D01*
X127640494Y-152059464D01*
X127395437Y-151892429D01*
X127122502Y-151776412D01*
X127030031Y-151758698D01*
X126797000Y-151879754D01*
X126543000Y-151879754D01*
X126309969Y-151758698D01*
X126217498Y-151776412D01*
X125944563Y-151892429D01*
X125699506Y-152059464D01*
X125546507Y-152215314D01*
X125488405Y-152106613D01*
X125377962Y-151972038D01*
X125243387Y-151861595D01*
X125089851Y-151779528D01*
X124923255Y-151728992D01*
X124750001Y-151711928D01*
X123509999Y-151711928D01*
X123336745Y-151728992D01*
X123170149Y-151779528D01*
X123016613Y-151861595D01*
X122882038Y-151972038D01*
X122771595Y-152106613D01*
X122689528Y-152260149D01*
X122638992Y-152426745D01*
X122621928Y-152599999D01*
X113133338Y-152599999D01*
X113100738Y-152519196D01*
X112938256Y-152271097D01*
X112730494Y-152059464D01*
X112485437Y-151892429D01*
X112212502Y-151776412D01*
X112120031Y-151758698D01*
X111887000Y-151879754D01*
X111633000Y-151879754D01*
X111399969Y-151758698D01*
X111307498Y-151776412D01*
X111034563Y-151892429D01*
X110789506Y-152059464D01*
X110636507Y-152215314D01*
X110578405Y-152106613D01*
X110467962Y-151972038D01*
X110333387Y-151861595D01*
X110179851Y-151779528D01*
X110013255Y-151728992D01*
X109840001Y-151711928D01*
X108599999Y-151711928D01*
X108426745Y-151728992D01*
X108260149Y-151779528D01*
X108106613Y-151861595D01*
X107972038Y-151972038D01*
X107861595Y-152106613D01*
X107779528Y-152260149D01*
X107728992Y-152426745D01*
X107711928Y-152599999D01*
X93685000Y-152599999D01*
X93685000Y-139814344D01*
X95115000Y-139814344D01*
X95115000Y-140185656D01*
X95187439Y-140549834D01*
X95329534Y-140892882D01*
X95535825Y-141201618D01*
X95798382Y-141464175D01*
X96107118Y-141670466D01*
X96450166Y-141812561D01*
X96814344Y-141885000D01*
X97185656Y-141885000D01*
X97549834Y-141812561D01*
X97892882Y-141670466D01*
X98201618Y-141464175D01*
X98464175Y-141201618D01*
X98670466Y-140892882D01*
X98812561Y-140549834D01*
X98885000Y-140185656D01*
X98885000Y-139814344D01*
X110115000Y-139814344D01*
X110115000Y-140185656D01*
X110187439Y-140549834D01*
X110329534Y-140892882D01*
X110535825Y-141201618D01*
X110798382Y-141464175D01*
X111107118Y-141670466D01*
X111450166Y-141812561D01*
X111814344Y-141885000D01*
X112185656Y-141885000D01*
X112549834Y-141812561D01*
X112892882Y-141670466D01*
X113201618Y-141464175D01*
X113464175Y-141201618D01*
X113670466Y-140892882D01*
X113812561Y-140549834D01*
X113885000Y-140185656D01*
X113885000Y-139814344D01*
X125115000Y-139814344D01*
X125115000Y-140185656D01*
X125187439Y-140549834D01*
X125329534Y-140892882D01*
X125535825Y-141201618D01*
X125798382Y-141464175D01*
X126107118Y-141670466D01*
X126450166Y-141812561D01*
X126814344Y-141885000D01*
X127185656Y-141885000D01*
X127549834Y-141812561D01*
X127892882Y-141670466D01*
X128201618Y-141464175D01*
X128464175Y-141201618D01*
X128670466Y-140892882D01*
X128812561Y-140549834D01*
X128885000Y-140185656D01*
X128885000Y-139814344D01*
X140115000Y-139814344D01*
X140115000Y-140185656D01*
X140187439Y-140549834D01*
X140329534Y-140892882D01*
X140535825Y-141201618D01*
X140798382Y-141464175D01*
X141107118Y-141670466D01*
X141450166Y-141812561D01*
X141814344Y-141885000D01*
X142185656Y-141885000D01*
X142549834Y-141812561D01*
X142892882Y-141670466D01*
X143201618Y-141464175D01*
X143464175Y-141201618D01*
X143670466Y-140892882D01*
X143812561Y-140549834D01*
X143885000Y-140185656D01*
X143885000Y-139814344D01*
X155115000Y-139814344D01*
X155115000Y-140185656D01*
X155187439Y-140549834D01*
X155329534Y-140892882D01*
X155535825Y-141201618D01*
X155798382Y-141464175D01*
X156107118Y-141670466D01*
X156450166Y-141812561D01*
X156814344Y-141885000D01*
X157185656Y-141885000D01*
X157549834Y-141812561D01*
X157892882Y-141670466D01*
X158201618Y-141464175D01*
X158464175Y-141201618D01*
X158670466Y-140892882D01*
X158812561Y-140549834D01*
X158885000Y-140185656D01*
X158885000Y-139814344D01*
X158812561Y-139450166D01*
X158670466Y-139107118D01*
X158464175Y-138798382D01*
X158201618Y-138535825D01*
X157892882Y-138329534D01*
X157549834Y-138187439D01*
X157185656Y-138115000D01*
X156814344Y-138115000D01*
X156450166Y-138187439D01*
X156107118Y-138329534D01*
X155798382Y-138535825D01*
X155535825Y-138798382D01*
X155329534Y-139107118D01*
X155187439Y-139450166D01*
X155115000Y-139814344D01*
X143885000Y-139814344D01*
X143812561Y-139450166D01*
X143670466Y-139107118D01*
X143464175Y-138798382D01*
X143201618Y-138535825D01*
X142892882Y-138329534D01*
X142549834Y-138187439D01*
X142185656Y-138115000D01*
X141814344Y-138115000D01*
X141450166Y-138187439D01*
X141107118Y-138329534D01*
X140798382Y-138535825D01*
X140535825Y-138798382D01*
X140329534Y-139107118D01*
X140187439Y-139450166D01*
X140115000Y-139814344D01*
X128885000Y-139814344D01*
X128812561Y-139450166D01*
X128670466Y-139107118D01*
X128464175Y-138798382D01*
X128201618Y-138535825D01*
X127892882Y-138329534D01*
X127549834Y-138187439D01*
X127185656Y-138115000D01*
X126814344Y-138115000D01*
X126450166Y-138187439D01*
X126107118Y-138329534D01*
X125798382Y-138535825D01*
X125535825Y-138798382D01*
X125329534Y-139107118D01*
X125187439Y-139450166D01*
X125115000Y-139814344D01*
X113885000Y-139814344D01*
X113812561Y-139450166D01*
X113670466Y-139107118D01*
X113464175Y-138798382D01*
X113201618Y-138535825D01*
X112892882Y-138329534D01*
X112549834Y-138187439D01*
X112185656Y-138115000D01*
X111814344Y-138115000D01*
X111450166Y-138187439D01*
X111107118Y-138329534D01*
X110798382Y-138535825D01*
X110535825Y-138798382D01*
X110329534Y-139107118D01*
X110187439Y-139450166D01*
X110115000Y-139814344D01*
X98885000Y-139814344D01*
X98812561Y-139450166D01*
X98670466Y-139107118D01*
X98464175Y-138798382D01*
X98201618Y-138535825D01*
X97892882Y-138329534D01*
X97549834Y-138187439D01*
X97185656Y-138115000D01*
X96814344Y-138115000D01*
X96450166Y-138187439D01*
X96107118Y-138329534D01*
X95798382Y-138535825D01*
X95535825Y-138798382D01*
X95329534Y-139107118D01*
X95187439Y-139450166D01*
X95115000Y-139814344D01*
X93685000Y-139814344D01*
X93685000Y-133750000D01*
X100111928Y-133750000D01*
X100111928Y-136250000D01*
X100124188Y-136374482D01*
X100160498Y-136494180D01*
X100219463Y-136604494D01*
X100298815Y-136701185D01*
X100395506Y-136780537D01*
X100505820Y-136839502D01*
X100625518Y-136875812D01*
X100750000Y-136888072D01*
X103250000Y-136888072D01*
X103374482Y-136875812D01*
X103494180Y-136839502D01*
X103604494Y-136780537D01*
X103701185Y-136701185D01*
X103780537Y-136604494D01*
X103839502Y-136494180D01*
X103875812Y-136374482D01*
X103888072Y-136250000D01*
X103888072Y-133750000D01*
X115111928Y-133750000D01*
X115111928Y-136250000D01*
X115124188Y-136374482D01*
X115160498Y-136494180D01*
X115219463Y-136604494D01*
X115298815Y-136701185D01*
X115395506Y-136780537D01*
X115505820Y-136839502D01*
X115625518Y-136875812D01*
X115750000Y-136888072D01*
X118250000Y-136888072D01*
X118374482Y-136875812D01*
X118494180Y-136839502D01*
X118604494Y-136780537D01*
X118701185Y-136701185D01*
X118780537Y-136604494D01*
X118839502Y-136494180D01*
X118875812Y-136374482D01*
X118888072Y-136250000D01*
X130111928Y-136250000D01*
X130124188Y-136374482D01*
X130160498Y-136494180D01*
X130219463Y-136604494D01*
X130298815Y-136701185D01*
X130395506Y-136780537D01*
X130505820Y-136839502D01*
X130625518Y-136875812D01*
X130750000Y-136888072D01*
X131714250Y-136885000D01*
X131873000Y-136726250D01*
X131873000Y-135127000D01*
X132127000Y-135127000D01*
X132127000Y-136726250D01*
X132285750Y-136885000D01*
X133250000Y-136888072D01*
X133374482Y-136875812D01*
X133494180Y-136839502D01*
X133604494Y-136780537D01*
X133701185Y-136701185D01*
X133780537Y-136604494D01*
X133839502Y-136494180D01*
X133875812Y-136374482D01*
X133888072Y-136250000D01*
X145111928Y-136250000D01*
X145124188Y-136374482D01*
X145160498Y-136494180D01*
X145219463Y-136604494D01*
X145298815Y-136701185D01*
X145395506Y-136780537D01*
X145505820Y-136839502D01*
X145625518Y-136875812D01*
X145750000Y-136888072D01*
X146714250Y-136885000D01*
X146873000Y-136726250D01*
X146873000Y-135127000D01*
X147127000Y-135127000D01*
X147127000Y-136726250D01*
X147285750Y-136885000D01*
X148250000Y-136888072D01*
X148374482Y-136875812D01*
X148494180Y-136839502D01*
X148604494Y-136780537D01*
X148701185Y-136701185D01*
X148780537Y-136604494D01*
X148839502Y-136494180D01*
X148875812Y-136374482D01*
X148888072Y-136250000D01*
X160111928Y-136250000D01*
X160124188Y-136374482D01*
X160160498Y-136494180D01*
X160219463Y-136604494D01*
X160298815Y-136701185D01*
X160395506Y-136780537D01*
X160505820Y-136839502D01*
X160625518Y-136875812D01*
X160750000Y-136888072D01*
X161714250Y-136885000D01*
X161873000Y-136726250D01*
X161873000Y-135127000D01*
X162127000Y-135127000D01*
X162127000Y-136726250D01*
X162285750Y-136885000D01*
X163250000Y-136888072D01*
X163374482Y-136875812D01*
X163494180Y-136839502D01*
X163604494Y-136780537D01*
X163701185Y-136701185D01*
X163780537Y-136604494D01*
X163839502Y-136494180D01*
X163875812Y-136374482D01*
X163888072Y-136250000D01*
X163885000Y-135285750D01*
X163726250Y-135127000D01*
X162127000Y-135127000D01*
X161873000Y-135127000D01*
X160273750Y-135127000D01*
X160115000Y-135285750D01*
X160111928Y-136250000D01*
X148888072Y-136250000D01*
X148885000Y-135285750D01*
X148726250Y-135127000D01*
X147127000Y-135127000D01*
X146873000Y-135127000D01*
X145273750Y-135127000D01*
X145115000Y-135285750D01*
X145111928Y-136250000D01*
X133888072Y-136250000D01*
X133885000Y-135285750D01*
X133726250Y-135127000D01*
X132127000Y-135127000D01*
X131873000Y-135127000D01*
X130273750Y-135127000D01*
X130115000Y-135285750D01*
X130111928Y-136250000D01*
X118888072Y-136250000D01*
X118888072Y-133750000D01*
X130111928Y-133750000D01*
X130115000Y-134714250D01*
X130273750Y-134873000D01*
X131873000Y-134873000D01*
X131873000Y-133273750D01*
X132127000Y-133273750D01*
X132127000Y-134873000D01*
X133726250Y-134873000D01*
X133885000Y-134714250D01*
X133888072Y-133750000D01*
X145111928Y-133750000D01*
X145115000Y-134714250D01*
X145273750Y-134873000D01*
X146873000Y-134873000D01*
X146873000Y-133273750D01*
X147127000Y-133273750D01*
X147127000Y-134873000D01*
X148726250Y-134873000D01*
X148885000Y-134714250D01*
X148888072Y-133750000D01*
X160111928Y-133750000D01*
X160115000Y-134714250D01*
X160273750Y-134873000D01*
X161873000Y-134873000D01*
X161873000Y-133273750D01*
X162127000Y-133273750D01*
X162127000Y-134873000D01*
X163726250Y-134873000D01*
X163885000Y-134714250D01*
X163888072Y-133750000D01*
X163875812Y-133625518D01*
X163839502Y-133505820D01*
X163780537Y-133395506D01*
X163701185Y-133298815D01*
X163604494Y-133219463D01*
X163494180Y-133160498D01*
X163374482Y-133124188D01*
X163250000Y-133111928D01*
X162285750Y-133115000D01*
X162127000Y-133273750D01*
X161873000Y-133273750D01*
X161714250Y-133115000D01*
X160750000Y-133111928D01*
X160625518Y-133124188D01*
X160505820Y-133160498D01*
X160395506Y-133219463D01*
X160298815Y-133298815D01*
X160219463Y-133395506D01*
X160160498Y-133505820D01*
X160124188Y-133625518D01*
X160111928Y-133750000D01*
X148888072Y-133750000D01*
X148875812Y-133625518D01*
X148839502Y-133505820D01*
X148780537Y-133395506D01*
X148701185Y-133298815D01*
X148604494Y-133219463D01*
X148494180Y-133160498D01*
X148374482Y-133124188D01*
X148250000Y-133111928D01*
X147285750Y-133115000D01*
X147127000Y-133273750D01*
X146873000Y-133273750D01*
X146714250Y-133115000D01*
X145750000Y-133111928D01*
X145625518Y-133124188D01*
X145505820Y-133160498D01*
X145395506Y-133219463D01*
X145298815Y-133298815D01*
X145219463Y-133395506D01*
X145160498Y-133505820D01*
X145124188Y-133625518D01*
X145111928Y-133750000D01*
X133888072Y-133750000D01*
X133875812Y-133625518D01*
X133839502Y-133505820D01*
X133780537Y-133395506D01*
X133701185Y-133298815D01*
X133604494Y-133219463D01*
X133494180Y-133160498D01*
X133374482Y-133124188D01*
X133250000Y-133111928D01*
X132285750Y-133115000D01*
X132127000Y-133273750D01*
X131873000Y-133273750D01*
X131714250Y-133115000D01*
X130750000Y-133111928D01*
X130625518Y-133124188D01*
X130505820Y-133160498D01*
X130395506Y-133219463D01*
X130298815Y-133298815D01*
X130219463Y-133395506D01*
X130160498Y-133505820D01*
X130124188Y-133625518D01*
X130111928Y-133750000D01*
X118888072Y-133750000D01*
X118875812Y-133625518D01*
X118839502Y-133505820D01*
X118780537Y-133395506D01*
X118701185Y-133298815D01*
X118604494Y-133219463D01*
X118494180Y-133160498D01*
X118374482Y-133124188D01*
X118250000Y-133111928D01*
X115750000Y-133111928D01*
X115625518Y-133124188D01*
X115505820Y-133160498D01*
X115395506Y-133219463D01*
X115298815Y-133298815D01*
X115219463Y-133395506D01*
X115160498Y-133505820D01*
X115124188Y-133625518D01*
X115111928Y-133750000D01*
X103888072Y-133750000D01*
X103875812Y-133625518D01*
X103839502Y-133505820D01*
X103780537Y-133395506D01*
X103701185Y-133298815D01*
X103604494Y-133219463D01*
X103494180Y-133160498D01*
X103374482Y-133124188D01*
X103250000Y-133111928D01*
X100750000Y-133111928D01*
X100625518Y-133124188D01*
X100505820Y-133160498D01*
X100395506Y-133219463D01*
X100298815Y-133298815D01*
X100219463Y-133395506D01*
X100160498Y-133505820D01*
X100124188Y-133625518D01*
X100111928Y-133750000D01*
X93685000Y-133750000D01*
X93685000Y-126378665D01*
X97145000Y-126378665D01*
X97145000Y-126661335D01*
X97200147Y-126938574D01*
X97308320Y-127199727D01*
X97465363Y-127434759D01*
X97665241Y-127634637D01*
X97900273Y-127791680D01*
X98161426Y-127899853D01*
X98438665Y-127955000D01*
X98721335Y-127955000D01*
X98998574Y-127899853D01*
X99259727Y-127791680D01*
X99494759Y-127634637D01*
X99694637Y-127434759D01*
X99851680Y-127199727D01*
X99959853Y-126938574D01*
X99973684Y-126869040D01*
X100998091Y-126869040D01*
X101092930Y-127133881D01*
X101237615Y-127375131D01*
X101426586Y-127583519D01*
X101652580Y-127751037D01*
X101906913Y-127871246D01*
X102040961Y-127911904D01*
X102263000Y-127789915D01*
X102263000Y-126647000D01*
X102517000Y-126647000D01*
X102517000Y-127789915D01*
X102739039Y-127911904D01*
X102873087Y-127871246D01*
X103127420Y-127751037D01*
X103353414Y-127583519D01*
X103542385Y-127375131D01*
X103687070Y-127133881D01*
X103781909Y-126869040D01*
X103660624Y-126647000D01*
X102517000Y-126647000D01*
X102263000Y-126647000D01*
X101119376Y-126647000D01*
X100998091Y-126869040D01*
X99973684Y-126869040D01*
X100015000Y-126661335D01*
X100015000Y-126378665D01*
X99973685Y-126170960D01*
X100998091Y-126170960D01*
X101119376Y-126393000D01*
X102263000Y-126393000D01*
X102263000Y-125250085D01*
X102517000Y-125250085D01*
X102517000Y-126393000D01*
X103660624Y-126393000D01*
X103668454Y-126378665D01*
X104765000Y-126378665D01*
X104765000Y-126661335D01*
X104820147Y-126938574D01*
X104928320Y-127199727D01*
X105085363Y-127434759D01*
X105285241Y-127634637D01*
X105520273Y-127791680D01*
X105781426Y-127899853D01*
X106058665Y-127955000D01*
X106341335Y-127955000D01*
X106618574Y-127899853D01*
X106879727Y-127791680D01*
X107114759Y-127634637D01*
X107314637Y-127434759D01*
X107418043Y-127280000D01*
X108571928Y-127280000D01*
X108571928Y-127320000D01*
X108584188Y-127444482D01*
X108620498Y-127564180D01*
X108679463Y-127674494D01*
X108758815Y-127771185D01*
X108855506Y-127850537D01*
X108965820Y-127909502D01*
X109085518Y-127945812D01*
X109210000Y-127958072D01*
X110810000Y-127958072D01*
X110934482Y-127945812D01*
X111054180Y-127909502D01*
X111164494Y-127850537D01*
X111261185Y-127771185D01*
X111340537Y-127674494D01*
X111399502Y-127564180D01*
X111435812Y-127444482D01*
X111448072Y-127320000D01*
X111448072Y-127280000D01*
X112601957Y-127280000D01*
X112705363Y-127434759D01*
X112905241Y-127634637D01*
X113140273Y-127791680D01*
X113401426Y-127899853D01*
X113678665Y-127955000D01*
X113961335Y-127955000D01*
X114238574Y-127899853D01*
X114499727Y-127791680D01*
X114734759Y-127634637D01*
X114934637Y-127434759D01*
X115091680Y-127199727D01*
X115199853Y-126938574D01*
X115255000Y-126661335D01*
X115255000Y-126378665D01*
X126355000Y-126378665D01*
X126355000Y-126661335D01*
X126410147Y-126938574D01*
X126518320Y-127199727D01*
X126675363Y-127434759D01*
X126875241Y-127634637D01*
X127110273Y-127791680D01*
X127371426Y-127899853D01*
X127648665Y-127955000D01*
X127931335Y-127955000D01*
X128208574Y-127899853D01*
X128469727Y-127791680D01*
X128704759Y-127634637D01*
X128904637Y-127434759D01*
X129061680Y-127199727D01*
X129169853Y-126938574D01*
X129225000Y-126661335D01*
X129225000Y-126378665D01*
X140325000Y-126378665D01*
X140325000Y-126661335D01*
X140380147Y-126938574D01*
X140488320Y-127199727D01*
X140645363Y-127434759D01*
X140845241Y-127634637D01*
X141080273Y-127791680D01*
X141341426Y-127899853D01*
X141618665Y-127955000D01*
X141901335Y-127955000D01*
X142178574Y-127899853D01*
X142439727Y-127791680D01*
X142674759Y-127634637D01*
X142874637Y-127434759D01*
X143031680Y-127199727D01*
X143139853Y-126938574D01*
X143195000Y-126661335D01*
X143195000Y-126378665D01*
X155565000Y-126378665D01*
X155565000Y-126661335D01*
X155620147Y-126938574D01*
X155728320Y-127199727D01*
X155885363Y-127434759D01*
X156085241Y-127634637D01*
X156320273Y-127791680D01*
X156581426Y-127899853D01*
X156858665Y-127955000D01*
X157141335Y-127955000D01*
X157418574Y-127899853D01*
X157679727Y-127791680D01*
X157914759Y-127634637D01*
X158114637Y-127434759D01*
X158271680Y-127199727D01*
X158379853Y-126938574D01*
X158435000Y-126661335D01*
X158435000Y-126378665D01*
X158379853Y-126101426D01*
X158271680Y-125840273D01*
X158114637Y-125605241D01*
X157914759Y-125405363D01*
X157679727Y-125248320D01*
X157418574Y-125140147D01*
X157141335Y-125085000D01*
X156858665Y-125085000D01*
X156581426Y-125140147D01*
X156320273Y-125248320D01*
X156085241Y-125405363D01*
X155885363Y-125605241D01*
X155728320Y-125840273D01*
X155620147Y-126101426D01*
X155565000Y-126378665D01*
X143195000Y-126378665D01*
X143139853Y-126101426D01*
X143031680Y-125840273D01*
X142874637Y-125605241D01*
X142674759Y-125405363D01*
X142439727Y-125248320D01*
X142178574Y-125140147D01*
X141901335Y-125085000D01*
X141618665Y-125085000D01*
X141341426Y-125140147D01*
X141080273Y-125248320D01*
X140845241Y-125405363D01*
X140645363Y-125605241D01*
X140488320Y-125840273D01*
X140380147Y-126101426D01*
X140325000Y-126378665D01*
X129225000Y-126378665D01*
X129169853Y-126101426D01*
X129061680Y-125840273D01*
X128904637Y-125605241D01*
X128704759Y-125405363D01*
X128469727Y-125248320D01*
X128208574Y-125140147D01*
X127931335Y-125085000D01*
X127648665Y-125085000D01*
X127371426Y-125140147D01*
X127110273Y-125248320D01*
X126875241Y-125405363D01*
X126675363Y-125605241D01*
X126518320Y-125840273D01*
X126410147Y-126101426D01*
X126355000Y-126378665D01*
X115255000Y-126378665D01*
X115218688Y-126196113D01*
X122656136Y-118758665D01*
X126355000Y-118758665D01*
X126355000Y-119041335D01*
X126410147Y-119318574D01*
X126518320Y-119579727D01*
X126675363Y-119814759D01*
X126875241Y-120014637D01*
X127110273Y-120171680D01*
X127371426Y-120279853D01*
X127648665Y-120335000D01*
X127931335Y-120335000D01*
X128208574Y-120279853D01*
X128469727Y-120171680D01*
X128704759Y-120014637D01*
X128904637Y-119814759D01*
X129008043Y-119660000D01*
X140541957Y-119660000D01*
X140645363Y-119814759D01*
X140845241Y-120014637D01*
X141080273Y-120171680D01*
X141341426Y-120279853D01*
X141618665Y-120335000D01*
X141901335Y-120335000D01*
X142178574Y-120279853D01*
X142439727Y-120171680D01*
X142674759Y-120014637D01*
X142874637Y-119814759D01*
X142978043Y-119660000D01*
X155781957Y-119660000D01*
X155885363Y-119814759D01*
X156085241Y-120014637D01*
X156320273Y-120171680D01*
X156581426Y-120279853D01*
X156858665Y-120335000D01*
X157141335Y-120335000D01*
X157418574Y-120279853D01*
X157679727Y-120171680D01*
X157914759Y-120014637D01*
X158114637Y-119814759D01*
X158271680Y-119579727D01*
X158379853Y-119318574D01*
X158435000Y-119041335D01*
X158435000Y-118758665D01*
X158379853Y-118481426D01*
X158271680Y-118220273D01*
X158114637Y-117985241D01*
X157914759Y-117785363D01*
X157679727Y-117628320D01*
X157418574Y-117520147D01*
X157141335Y-117465000D01*
X156858665Y-117465000D01*
X156581426Y-117520147D01*
X156320273Y-117628320D01*
X156085241Y-117785363D01*
X155885363Y-117985241D01*
X155781957Y-118140000D01*
X142978043Y-118140000D01*
X142874637Y-117985241D01*
X142674759Y-117785363D01*
X142439727Y-117628320D01*
X142178574Y-117520147D01*
X141901335Y-117465000D01*
X141618665Y-117465000D01*
X141341426Y-117520147D01*
X141080273Y-117628320D01*
X140845241Y-117785363D01*
X140645363Y-117985241D01*
X140541957Y-118140000D01*
X129008043Y-118140000D01*
X128904637Y-117985241D01*
X128704759Y-117785363D01*
X128469727Y-117628320D01*
X128208574Y-117520147D01*
X127931335Y-117465000D01*
X127648665Y-117465000D01*
X127371426Y-117520147D01*
X127110273Y-117628320D01*
X126875241Y-117785363D01*
X126675363Y-117985241D01*
X126518320Y-118220273D01*
X126410147Y-118481426D01*
X126355000Y-118758665D01*
X122656136Y-118758665D01*
X125818802Y-115596000D01*
X132156478Y-115596000D01*
X132193800Y-115599676D01*
X132231122Y-115596000D01*
X132231133Y-115596000D01*
X132342786Y-115585003D01*
X132486047Y-115541546D01*
X132618076Y-115470974D01*
X132733801Y-115376001D01*
X132757604Y-115346997D01*
X135695936Y-112408665D01*
X149215000Y-112408665D01*
X149215000Y-112691335D01*
X149270147Y-112968574D01*
X149378320Y-113229727D01*
X149535363Y-113464759D01*
X149735241Y-113664637D01*
X149970273Y-113821680D01*
X150231426Y-113929853D01*
X150508665Y-113985000D01*
X150791335Y-113985000D01*
X151068574Y-113929853D01*
X151329727Y-113821680D01*
X151564759Y-113664637D01*
X151764637Y-113464759D01*
X151921680Y-113229727D01*
X152029853Y-112968574D01*
X152085000Y-112691335D01*
X152085000Y-112408665D01*
X156835000Y-112408665D01*
X156835000Y-112691335D01*
X156890147Y-112968574D01*
X156998320Y-113229727D01*
X157155363Y-113464759D01*
X157355241Y-113664637D01*
X157590273Y-113821680D01*
X157851426Y-113929853D01*
X158128665Y-113985000D01*
X158411335Y-113985000D01*
X158688574Y-113929853D01*
X158949727Y-113821680D01*
X159184759Y-113664637D01*
X159384637Y-113464759D01*
X159541680Y-113229727D01*
X159649853Y-112968574D01*
X159705000Y-112691335D01*
X159705000Y-112408665D01*
X159649853Y-112131426D01*
X159541680Y-111870273D01*
X159384637Y-111635241D01*
X159184759Y-111435363D01*
X158949727Y-111278320D01*
X158688574Y-111170147D01*
X158411335Y-111115000D01*
X158128665Y-111115000D01*
X157851426Y-111170147D01*
X157590273Y-111278320D01*
X157355241Y-111435363D01*
X157155363Y-111635241D01*
X156998320Y-111870273D01*
X156890147Y-112131426D01*
X156835000Y-112408665D01*
X152085000Y-112408665D01*
X152029853Y-112131426D01*
X151921680Y-111870273D01*
X151764637Y-111635241D01*
X151564759Y-111435363D01*
X151329727Y-111278320D01*
X151068574Y-111170147D01*
X150791335Y-111115000D01*
X150508665Y-111115000D01*
X150231426Y-111170147D01*
X149970273Y-111278320D01*
X149735241Y-111435363D01*
X149535363Y-111635241D01*
X149378320Y-111870273D01*
X149270147Y-112131426D01*
X149215000Y-112408665D01*
X135695936Y-112408665D01*
X143856968Y-104247634D01*
X143971068Y-104461101D01*
X144150392Y-104679608D01*
X144368899Y-104858932D01*
X144618192Y-104992182D01*
X144888691Y-105074236D01*
X145099508Y-105095000D01*
X145970199Y-105095000D01*
X149291312Y-108416114D01*
X149255000Y-108598665D01*
X149255000Y-108881335D01*
X149310147Y-109158574D01*
X149418320Y-109419727D01*
X149575363Y-109654759D01*
X149775241Y-109854637D01*
X150010273Y-110011680D01*
X150271426Y-110119853D01*
X150548665Y-110175000D01*
X150831335Y-110175000D01*
X151108574Y-110119853D01*
X151369727Y-110011680D01*
X151604759Y-109854637D01*
X151804637Y-109654759D01*
X151940000Y-109452173D01*
X152075363Y-109654759D01*
X152275241Y-109854637D01*
X152510273Y-110011680D01*
X152771426Y-110119853D01*
X153048665Y-110175000D01*
X153331335Y-110175000D01*
X153608574Y-110119853D01*
X153869727Y-110011680D01*
X154104759Y-109854637D01*
X154304637Y-109654759D01*
X154461680Y-109419727D01*
X154569853Y-109158574D01*
X154625000Y-108881335D01*
X154625000Y-108598665D01*
X154569853Y-108321426D01*
X154461680Y-108060273D01*
X154304637Y-107825241D01*
X154104759Y-107625363D01*
X153869727Y-107468320D01*
X153608574Y-107360147D01*
X153331335Y-107305000D01*
X153048665Y-107305000D01*
X152986807Y-107317305D01*
X151639449Y-105969947D01*
X151764637Y-105844759D01*
X151921680Y-105609727D01*
X152029853Y-105348574D01*
X152085000Y-105071335D01*
X152085000Y-104788665D01*
X156835000Y-104788665D01*
X156835000Y-105071335D01*
X156890147Y-105348574D01*
X156998320Y-105609727D01*
X157155363Y-105844759D01*
X157355241Y-106044637D01*
X157590273Y-106201680D01*
X157851426Y-106309853D01*
X158128665Y-106365000D01*
X158411335Y-106365000D01*
X158688574Y-106309853D01*
X158949727Y-106201680D01*
X159184759Y-106044637D01*
X159384637Y-105844759D01*
X159541680Y-105609727D01*
X159649853Y-105348574D01*
X159705000Y-105071335D01*
X159705000Y-104788665D01*
X159649853Y-104511426D01*
X159541680Y-104250273D01*
X159384637Y-104015241D01*
X159184759Y-103815363D01*
X158949727Y-103658320D01*
X158688574Y-103550147D01*
X158411335Y-103495000D01*
X158128665Y-103495000D01*
X157851426Y-103550147D01*
X157590273Y-103658320D01*
X157355241Y-103815363D01*
X157155363Y-104015241D01*
X156998320Y-104250273D01*
X156890147Y-104511426D01*
X156835000Y-104788665D01*
X152085000Y-104788665D01*
X152029853Y-104511426D01*
X151921680Y-104250273D01*
X151764637Y-104015241D01*
X151564759Y-103815363D01*
X151329727Y-103658320D01*
X151068574Y-103550147D01*
X150791335Y-103495000D01*
X150508665Y-103495000D01*
X150231426Y-103550147D01*
X149970273Y-103658320D01*
X149735241Y-103815363D01*
X149535363Y-104015241D01*
X149378320Y-104250273D01*
X149270147Y-104511426D01*
X149215000Y-104788665D01*
X149215000Y-105071335D01*
X149270147Y-105348574D01*
X149378320Y-105609727D01*
X149535363Y-105844759D01*
X149735241Y-106044637D01*
X149895843Y-106151948D01*
X149898411Y-106178015D01*
X149900998Y-106204285D01*
X149944454Y-106347546D01*
X150015026Y-106479576D01*
X150086201Y-106566302D01*
X150110000Y-106595301D01*
X150138998Y-106619099D01*
X150824898Y-107305000D01*
X150548665Y-107305000D01*
X150366114Y-107341312D01*
X147279341Y-104254540D01*
X147302182Y-104211808D01*
X147384236Y-103941309D01*
X147411943Y-103660000D01*
X147384236Y-103378691D01*
X147302182Y-103108192D01*
X147168932Y-102858899D01*
X147046629Y-102709872D01*
X147606304Y-102150198D01*
X147635301Y-102126401D01*
X147661632Y-102094317D01*
X147730274Y-102010677D01*
X147800846Y-101878647D01*
X147816755Y-101826201D01*
X147844303Y-101735386D01*
X147855300Y-101623733D01*
X147855300Y-101623723D01*
X147858976Y-101586401D01*
X147855300Y-101549078D01*
X147855300Y-100978665D01*
X149215000Y-100978665D01*
X149215000Y-101261335D01*
X149270147Y-101538574D01*
X149378320Y-101799727D01*
X149535363Y-102034759D01*
X149735241Y-102234637D01*
X149970273Y-102391680D01*
X150231426Y-102499853D01*
X150508665Y-102555000D01*
X150791335Y-102555000D01*
X151068574Y-102499853D01*
X151329727Y-102391680D01*
X151564759Y-102234637D01*
X151764637Y-102034759D01*
X151921680Y-101799727D01*
X152029853Y-101538574D01*
X152085000Y-101261335D01*
X152085000Y-100978665D01*
X152029853Y-100701426D01*
X151921680Y-100440273D01*
X151764637Y-100205241D01*
X151564759Y-100005363D01*
X151329727Y-99848320D01*
X151068574Y-99740147D01*
X150791335Y-99685000D01*
X150508665Y-99685000D01*
X150231426Y-99740147D01*
X149970273Y-99848320D01*
X149735241Y-100005363D01*
X149535363Y-100205241D01*
X149378320Y-100440273D01*
X149270147Y-100701426D01*
X149215000Y-100978665D01*
X147855300Y-100978665D01*
X147855300Y-98617333D01*
X147858977Y-98580000D01*
X147844303Y-98431014D01*
X147800846Y-98287753D01*
X147730274Y-98155724D01*
X147635301Y-98039999D01*
X147519576Y-97945026D01*
X147387547Y-97874454D01*
X147244286Y-97830997D01*
X147194139Y-97826058D01*
X147168932Y-97778899D01*
X146989608Y-97560392D01*
X146771101Y-97381068D01*
X146638142Y-97310000D01*
X146771101Y-97238932D01*
X146989608Y-97059608D01*
X146997493Y-97050000D01*
X149630604Y-97050000D01*
X149735241Y-97154637D01*
X149970273Y-97311680D01*
X150231426Y-97419853D01*
X150508665Y-97475000D01*
X150791335Y-97475000D01*
X151068574Y-97419853D01*
X151329727Y-97311680D01*
X151564759Y-97154637D01*
X151579747Y-97139649D01*
X156071101Y-101631003D01*
X156094899Y-101660001D01*
X156210624Y-101754974D01*
X156342653Y-101825546D01*
X156485914Y-101869003D01*
X156597567Y-101880000D01*
X156597575Y-101880000D01*
X156634900Y-101883676D01*
X156672225Y-101880000D01*
X157051957Y-101880000D01*
X157155363Y-102034759D01*
X157355241Y-102234637D01*
X157590273Y-102391680D01*
X157851426Y-102499853D01*
X158128665Y-102555000D01*
X158411335Y-102555000D01*
X158688574Y-102499853D01*
X158949727Y-102391680D01*
X159184759Y-102234637D01*
X159384637Y-102034759D01*
X159541680Y-101799727D01*
X159649853Y-101538574D01*
X159705000Y-101261335D01*
X159705000Y-100978665D01*
X159649853Y-100701426D01*
X159541680Y-100440273D01*
X159384637Y-100205241D01*
X159184759Y-100005363D01*
X158949727Y-99848320D01*
X158688574Y-99740147D01*
X158411335Y-99685000D01*
X158128665Y-99685000D01*
X157851426Y-99740147D01*
X157590273Y-99848320D01*
X157355241Y-100005363D01*
X157155363Y-100205241D01*
X157051957Y-100360000D01*
X156949702Y-100360000D01*
X153875130Y-97285428D01*
X153891514Y-97276671D01*
X153963097Y-97032702D01*
X153150000Y-96219605D01*
X153135858Y-96233748D01*
X152956253Y-96054143D01*
X152970395Y-96040000D01*
X153329605Y-96040000D01*
X154142702Y-96853097D01*
X154386671Y-96781514D01*
X154507571Y-96526004D01*
X154576300Y-96251816D01*
X154590217Y-95969488D01*
X154548787Y-95689870D01*
X154453603Y-95423708D01*
X154386671Y-95298486D01*
X154142702Y-95226903D01*
X153329605Y-96040000D01*
X152970395Y-96040000D01*
X152956253Y-96025858D01*
X153135858Y-95846253D01*
X153150000Y-95860395D01*
X153963097Y-95047298D01*
X153891514Y-94803329D01*
X153636004Y-94682429D01*
X153361816Y-94613700D01*
X153079488Y-94599783D01*
X152799870Y-94641213D01*
X152533708Y-94736397D01*
X152408486Y-94803329D01*
X152336903Y-95047296D01*
X152220630Y-94931023D01*
X152215377Y-94936276D01*
X148998104Y-91719003D01*
X148974301Y-91689999D01*
X148858576Y-91595026D01*
X148726547Y-91524454D01*
X148583286Y-91480997D01*
X148471633Y-91470000D01*
X148471622Y-91470000D01*
X148434300Y-91466324D01*
X148396978Y-91470000D01*
X147314864Y-91470000D01*
X147384236Y-91241309D01*
X147411943Y-90960000D01*
X147398023Y-90818665D01*
X149215000Y-90818665D01*
X149215000Y-91101335D01*
X149270147Y-91378574D01*
X149378320Y-91639727D01*
X149535363Y-91874759D01*
X149735241Y-92074637D01*
X149970273Y-92231680D01*
X150231426Y-92339853D01*
X150508665Y-92395000D01*
X150791335Y-92395000D01*
X151068574Y-92339853D01*
X151329727Y-92231680D01*
X151564759Y-92074637D01*
X151764637Y-91874759D01*
X151921680Y-91639727D01*
X152029853Y-91378574D01*
X152085000Y-91101335D01*
X152085000Y-90818665D01*
X156835000Y-90818665D01*
X156835000Y-91101335D01*
X156890147Y-91378574D01*
X156998320Y-91639727D01*
X157155363Y-91874759D01*
X157355241Y-92074637D01*
X157590273Y-92231680D01*
X157851426Y-92339853D01*
X158128665Y-92395000D01*
X158411335Y-92395000D01*
X158688574Y-92339853D01*
X158949727Y-92231680D01*
X159184759Y-92074637D01*
X159384637Y-91874759D01*
X159541680Y-91639727D01*
X159649853Y-91378574D01*
X159705000Y-91101335D01*
X159705000Y-90818665D01*
X159649853Y-90541426D01*
X159541680Y-90280273D01*
X159384637Y-90045241D01*
X159184759Y-89845363D01*
X158949727Y-89688320D01*
X158688574Y-89580147D01*
X158411335Y-89525000D01*
X158128665Y-89525000D01*
X157851426Y-89580147D01*
X157590273Y-89688320D01*
X157355241Y-89845363D01*
X157155363Y-90045241D01*
X156998320Y-90280273D01*
X156890147Y-90541426D01*
X156835000Y-90818665D01*
X152085000Y-90818665D01*
X152029853Y-90541426D01*
X151921680Y-90280273D01*
X151764637Y-90045241D01*
X151564759Y-89845363D01*
X151329727Y-89688320D01*
X151068574Y-89580147D01*
X150791335Y-89525000D01*
X150508665Y-89525000D01*
X150231426Y-89580147D01*
X149970273Y-89688320D01*
X149735241Y-89845363D01*
X149535363Y-90045241D01*
X149378320Y-90280273D01*
X149270147Y-90541426D01*
X149215000Y-90818665D01*
X147398023Y-90818665D01*
X147384236Y-90678691D01*
X147302182Y-90408192D01*
X147168932Y-90158899D01*
X146989608Y-89940392D01*
X146771101Y-89761068D01*
X146638142Y-89690000D01*
X146771101Y-89618932D01*
X146989608Y-89439608D01*
X147168932Y-89221101D01*
X147302182Y-88971808D01*
X147384236Y-88701309D01*
X147411943Y-88420000D01*
X147384236Y-88138691D01*
X147302182Y-87868192D01*
X147168932Y-87618899D01*
X146989608Y-87400392D01*
X146771101Y-87221068D01*
X146521808Y-87087818D01*
X146260873Y-87008665D01*
X149215000Y-87008665D01*
X149215000Y-87291335D01*
X149270147Y-87568574D01*
X149378320Y-87829727D01*
X149535363Y-88064759D01*
X149735241Y-88264637D01*
X149970273Y-88421680D01*
X150231426Y-88529853D01*
X150508665Y-88585000D01*
X150791335Y-88585000D01*
X151068574Y-88529853D01*
X151329727Y-88421680D01*
X151564759Y-88264637D01*
X151764637Y-88064759D01*
X151921680Y-87829727D01*
X152029853Y-87568574D01*
X152085000Y-87291335D01*
X152085000Y-87008665D01*
X156835000Y-87008665D01*
X156835000Y-87291335D01*
X156890147Y-87568574D01*
X156998320Y-87829727D01*
X157155363Y-88064759D01*
X157355241Y-88264637D01*
X157590273Y-88421680D01*
X157851426Y-88529853D01*
X158128665Y-88585000D01*
X158411335Y-88585000D01*
X158688574Y-88529853D01*
X158949727Y-88421680D01*
X159184759Y-88264637D01*
X159384637Y-88064759D01*
X159541680Y-87829727D01*
X159649853Y-87568574D01*
X159705000Y-87291335D01*
X159705000Y-87008665D01*
X159649853Y-86731426D01*
X159541680Y-86470273D01*
X159384637Y-86235241D01*
X159184759Y-86035363D01*
X158949727Y-85878320D01*
X158688574Y-85770147D01*
X158411335Y-85715000D01*
X158128665Y-85715000D01*
X157851426Y-85770147D01*
X157590273Y-85878320D01*
X157355241Y-86035363D01*
X157155363Y-86235241D01*
X156998320Y-86470273D01*
X156890147Y-86731426D01*
X156835000Y-87008665D01*
X152085000Y-87008665D01*
X152029853Y-86731426D01*
X151921680Y-86470273D01*
X151764637Y-86235241D01*
X151639449Y-86110053D01*
X152986807Y-84762695D01*
X153048665Y-84775000D01*
X153331335Y-84775000D01*
X153608574Y-84719853D01*
X153869727Y-84611680D01*
X154104759Y-84454637D01*
X154304637Y-84254759D01*
X154461680Y-84019727D01*
X154569853Y-83758574D01*
X154625000Y-83481335D01*
X154625000Y-83198665D01*
X154569853Y-82921426D01*
X154461680Y-82660273D01*
X154304637Y-82425241D01*
X154104759Y-82225363D01*
X153869727Y-82068320D01*
X153608574Y-81960147D01*
X153331335Y-81905000D01*
X153048665Y-81905000D01*
X152771426Y-81960147D01*
X152510273Y-82068320D01*
X152275241Y-82225363D01*
X152075363Y-82425241D01*
X151940000Y-82627827D01*
X151804637Y-82425241D01*
X151604759Y-82225363D01*
X151369727Y-82068320D01*
X151108574Y-81960147D01*
X150831335Y-81905000D01*
X150548665Y-81905000D01*
X150271426Y-81960147D01*
X150010273Y-82068320D01*
X149775241Y-82225363D01*
X149575363Y-82425241D01*
X149418320Y-82660273D01*
X149310147Y-82921426D01*
X149255000Y-83198665D01*
X149255000Y-83481335D01*
X149310147Y-83758574D01*
X149418320Y-84019727D01*
X149575363Y-84254759D01*
X149775241Y-84454637D01*
X150010273Y-84611680D01*
X150271426Y-84719853D01*
X150548665Y-84775000D01*
X150824898Y-84775000D01*
X150138998Y-85460901D01*
X150110000Y-85484699D01*
X150086202Y-85513697D01*
X150086201Y-85513698D01*
X150015026Y-85600424D01*
X149944454Y-85732454D01*
X149900998Y-85875715D01*
X149895843Y-85928052D01*
X149735241Y-86035363D01*
X149535363Y-86235241D01*
X149378320Y-86470273D01*
X149270147Y-86731426D01*
X149215000Y-87008665D01*
X146260873Y-87008665D01*
X146251309Y-87005764D01*
X146040492Y-86985000D01*
X145099508Y-86985000D01*
X144888691Y-87005764D01*
X144618192Y-87087818D01*
X144368899Y-87221068D01*
X144150392Y-87400392D01*
X143971068Y-87618899D01*
X143837818Y-87868192D01*
X143755764Y-88138691D01*
X143728057Y-88420000D01*
X143755764Y-88701309D01*
X143837818Y-88971808D01*
X143971068Y-89221101D01*
X144150392Y-89439608D01*
X144368899Y-89618932D01*
X144501858Y-89690000D01*
X144368899Y-89761068D01*
X144150392Y-89940392D01*
X143971068Y-90158899D01*
X143837818Y-90408192D01*
X143755764Y-90678691D01*
X143728057Y-90960000D01*
X143755764Y-91241309D01*
X143825136Y-91470000D01*
X143600102Y-91470000D01*
X140039104Y-87909003D01*
X140015301Y-87879999D01*
X139899576Y-87785026D01*
X139788072Y-87725425D01*
X139788072Y-87620000D01*
X139775812Y-87495518D01*
X139739502Y-87375820D01*
X139680537Y-87265506D01*
X139601185Y-87168815D01*
X139504494Y-87089463D01*
X139394180Y-87030498D01*
X139274482Y-86994188D01*
X139150000Y-86981928D01*
X136750000Y-86981928D01*
X136625518Y-86994188D01*
X136505820Y-87030498D01*
X136395506Y-87089463D01*
X136298815Y-87168815D01*
X136219463Y-87265506D01*
X136160498Y-87375820D01*
X136124188Y-87495518D01*
X136111928Y-87620000D01*
X136111928Y-88047127D01*
X134703804Y-86639003D01*
X134680001Y-86609999D01*
X134564276Y-86515026D01*
X134432247Y-86444454D01*
X134288986Y-86400997D01*
X134177333Y-86390000D01*
X134177322Y-86390000D01*
X134140000Y-86386324D01*
X134102678Y-86390000D01*
X134088043Y-86390000D01*
X133984637Y-86235241D01*
X133784759Y-86035363D01*
X133549727Y-85878320D01*
X133288574Y-85770147D01*
X133011335Y-85715000D01*
X132728665Y-85715000D01*
X132451426Y-85770147D01*
X132190273Y-85878320D01*
X131955241Y-86035363D01*
X131755363Y-86235241D01*
X131598320Y-86470273D01*
X131490147Y-86731426D01*
X131435000Y-87008665D01*
X131435000Y-87291335D01*
X131490147Y-87568574D01*
X131598320Y-87829727D01*
X131755363Y-88064759D01*
X131955241Y-88264637D01*
X132190273Y-88421680D01*
X132451426Y-88529853D01*
X132728665Y-88585000D01*
X133011335Y-88585000D01*
X133288574Y-88529853D01*
X133549727Y-88421680D01*
X133784759Y-88264637D01*
X133982297Y-88067099D01*
X136254592Y-90339393D01*
X136217818Y-90408192D01*
X136135764Y-90678691D01*
X136108057Y-90960000D01*
X136135764Y-91241309D01*
X136217818Y-91511808D01*
X136351068Y-91761101D01*
X136530392Y-91979608D01*
X136748899Y-92158932D01*
X136876741Y-92227265D01*
X136647161Y-92377399D01*
X136445500Y-92575105D01*
X136286285Y-92808354D01*
X136175633Y-93068182D01*
X136158096Y-93150961D01*
X136280085Y-93373000D01*
X137823000Y-93373000D01*
X137823000Y-93353000D01*
X138077000Y-93353000D01*
X138077000Y-93373000D01*
X139619915Y-93373000D01*
X139741904Y-93150961D01*
X139724367Y-93068182D01*
X139613715Y-92808354D01*
X139454500Y-92575105D01*
X139252839Y-92377399D01*
X139023259Y-92227265D01*
X139151101Y-92158932D01*
X139369608Y-91979608D01*
X139548932Y-91761101D01*
X139682182Y-91511808D01*
X139764236Y-91241309D01*
X139791943Y-90960000D01*
X139764236Y-90678691D01*
X139682182Y-90408192D01*
X139548932Y-90158899D01*
X139369608Y-89940392D01*
X139256518Y-89847581D01*
X139274482Y-89845812D01*
X139394180Y-89809502D01*
X139504494Y-89750537D01*
X139601185Y-89671185D01*
X139623948Y-89643449D01*
X142721500Y-92741002D01*
X142745299Y-92770001D01*
X142861024Y-92864974D01*
X142993053Y-92935546D01*
X143136314Y-92979003D01*
X143247967Y-92990000D01*
X143247975Y-92990000D01*
X143285300Y-92993676D01*
X143322625Y-92990000D01*
X143479898Y-92990000D01*
X139482003Y-96987896D01*
X139452999Y-97011699D01*
X139397871Y-97078874D01*
X139358026Y-97127424D01*
X139337533Y-97165764D01*
X139287454Y-97259454D01*
X139243997Y-97402715D01*
X139239022Y-97453223D01*
X139151101Y-97381068D01*
X139018142Y-97310000D01*
X139151101Y-97238932D01*
X139369608Y-97059608D01*
X139548932Y-96841101D01*
X139682182Y-96591808D01*
X139764236Y-96321309D01*
X139791943Y-96040000D01*
X139764236Y-95758691D01*
X139682182Y-95488192D01*
X139548932Y-95238899D01*
X139369608Y-95020392D01*
X139151101Y-94841068D01*
X139023259Y-94772735D01*
X139252839Y-94622601D01*
X139454500Y-94424895D01*
X139613715Y-94191646D01*
X139724367Y-93931818D01*
X139741904Y-93849039D01*
X139619915Y-93627000D01*
X138077000Y-93627000D01*
X138077000Y-93647000D01*
X137823000Y-93647000D01*
X137823000Y-93627000D01*
X136280085Y-93627000D01*
X136158096Y-93849039D01*
X136175633Y-93931818D01*
X136286285Y-94191646D01*
X136445500Y-94424895D01*
X136647161Y-94622601D01*
X136876741Y-94772735D01*
X136748899Y-94841068D01*
X136530392Y-95020392D01*
X136522507Y-95030000D01*
X133889396Y-95030000D01*
X133784759Y-94925363D01*
X133549727Y-94768320D01*
X133288574Y-94660147D01*
X133011335Y-94605000D01*
X132863356Y-94605000D01*
X129914661Y-91656306D01*
X129883033Y-91617767D01*
X129729240Y-91491553D01*
X129553780Y-91397768D01*
X129363394Y-91340015D01*
X129215008Y-91325400D01*
X129165400Y-91320514D01*
X129115792Y-91325400D01*
X127043756Y-91325400D01*
X122727021Y-87008665D01*
X123815000Y-87008665D01*
X123815000Y-87291335D01*
X123870147Y-87568574D01*
X123978320Y-87829727D01*
X124135363Y-88064759D01*
X124335241Y-88264637D01*
X124570273Y-88421680D01*
X124831426Y-88529853D01*
X125108665Y-88585000D01*
X125391335Y-88585000D01*
X125668574Y-88529853D01*
X125929727Y-88421680D01*
X126164759Y-88264637D01*
X126364637Y-88064759D01*
X126521680Y-87829727D01*
X126629853Y-87568574D01*
X126685000Y-87291335D01*
X126685000Y-87008665D01*
X126629853Y-86731426D01*
X126521680Y-86470273D01*
X126364637Y-86235241D01*
X126164759Y-86035363D01*
X125929727Y-85878320D01*
X125668574Y-85770147D01*
X125391335Y-85715000D01*
X125108665Y-85715000D01*
X124831426Y-85770147D01*
X124570273Y-85878320D01*
X124335241Y-86035363D01*
X124135363Y-86235241D01*
X123978320Y-86470273D01*
X123870147Y-86731426D01*
X123815000Y-87008665D01*
X122727021Y-87008665D01*
X120321669Y-84603314D01*
X120371514Y-84576671D01*
X120443097Y-84332702D01*
X119630000Y-83519605D01*
X119615858Y-83533748D01*
X119436253Y-83354143D01*
X119450395Y-83340000D01*
X119809605Y-83340000D01*
X120622702Y-84153097D01*
X120866671Y-84081514D01*
X120987571Y-83826004D01*
X121056300Y-83551816D01*
X121070217Y-83269488D01*
X121028787Y-82989870D01*
X120933603Y-82723708D01*
X120866671Y-82598486D01*
X120622702Y-82526903D01*
X119809605Y-83340000D01*
X119450395Y-83340000D01*
X119436253Y-83325858D01*
X119615858Y-83146253D01*
X119630000Y-83160395D01*
X120443097Y-82347298D01*
X120371514Y-82103329D01*
X120116004Y-81982429D01*
X119841816Y-81913700D01*
X119559488Y-81899783D01*
X119279870Y-81941213D01*
X119013708Y-82036397D01*
X118891691Y-82101616D01*
X118881185Y-82088815D01*
X118784494Y-82009463D01*
X118674180Y-81950498D01*
X118554482Y-81914188D01*
X118430000Y-81901928D01*
X116830000Y-81901928D01*
X116705518Y-81914188D01*
X116585820Y-81950498D01*
X116475506Y-82009463D01*
X116378815Y-82088815D01*
X116299463Y-82185506D01*
X116240498Y-82295820D01*
X116230130Y-82330000D01*
X114288072Y-82330000D01*
X114288072Y-82240000D01*
X114275812Y-82115518D01*
X114239502Y-81995820D01*
X114180537Y-81885506D01*
X114101185Y-81788815D01*
X114004494Y-81709463D01*
X113894180Y-81650498D01*
X113774482Y-81614188D01*
X113650000Y-81601928D01*
X111450000Y-81601928D01*
X111325518Y-81614188D01*
X111205820Y-81650498D01*
X111095506Y-81709463D01*
X110998815Y-81788815D01*
X110919463Y-81885506D01*
X110860498Y-81995820D01*
X110824188Y-82115518D01*
X110811928Y-82240000D01*
X110811928Y-84440000D01*
X110824188Y-84564482D01*
X110860498Y-84684180D01*
X110919463Y-84794494D01*
X110998815Y-84891185D01*
X111095506Y-84970537D01*
X111205820Y-85029502D01*
X111325518Y-85065812D01*
X111450000Y-85078072D01*
X113650000Y-85078072D01*
X113774482Y-85065812D01*
X113894180Y-85029502D01*
X114004494Y-84970537D01*
X114101185Y-84891185D01*
X114180537Y-84794494D01*
X114239502Y-84684180D01*
X114275812Y-84564482D01*
X114288072Y-84440000D01*
X114288072Y-84350000D01*
X116230130Y-84350000D01*
X116240498Y-84384180D01*
X116299463Y-84494494D01*
X116378815Y-84591185D01*
X116475506Y-84670537D01*
X116585820Y-84729502D01*
X116705518Y-84765812D01*
X116830000Y-84778072D01*
X117639717Y-84778072D01*
X125876143Y-93014499D01*
X125907767Y-93053033D01*
X126061560Y-93179247D01*
X126135355Y-93218691D01*
X126237020Y-93273032D01*
X126427405Y-93330785D01*
X126625400Y-93350286D01*
X126675008Y-93345400D01*
X128747045Y-93345400D01*
X130039891Y-94638247D01*
X130019870Y-94641213D01*
X129753708Y-94736397D01*
X129628486Y-94803329D01*
X129556903Y-95047298D01*
X130370000Y-95860395D01*
X130384143Y-95846253D01*
X130563748Y-96025858D01*
X130549605Y-96040000D01*
X131362702Y-96853097D01*
X131606671Y-96781514D01*
X131620324Y-96752659D01*
X131755363Y-96954759D01*
X131955241Y-97154637D01*
X132190273Y-97311680D01*
X132451426Y-97419853D01*
X132728665Y-97475000D01*
X133011335Y-97475000D01*
X133288574Y-97419853D01*
X133549727Y-97311680D01*
X133784759Y-97154637D01*
X133889396Y-97050000D01*
X136522507Y-97050000D01*
X136530392Y-97059608D01*
X136748899Y-97238932D01*
X136881858Y-97310000D01*
X136748899Y-97381068D01*
X136530392Y-97560392D01*
X136351068Y-97778899D01*
X136217818Y-98028192D01*
X136135764Y-98298691D01*
X136108057Y-98580000D01*
X136135764Y-98861309D01*
X136217818Y-99131808D01*
X136351068Y-99381101D01*
X136530392Y-99599608D01*
X136748899Y-99778932D01*
X136881858Y-99850000D01*
X136748899Y-99921068D01*
X136530392Y-100100392D01*
X136351068Y-100318899D01*
X136217818Y-100568192D01*
X136135764Y-100838691D01*
X136108057Y-101120000D01*
X136135764Y-101401309D01*
X136217818Y-101671808D01*
X136351068Y-101921101D01*
X136530392Y-102139608D01*
X136748899Y-102318932D01*
X136881858Y-102390000D01*
X136748899Y-102461068D01*
X136530392Y-102640392D01*
X136351068Y-102858899D01*
X136217818Y-103108192D01*
X136135764Y-103378691D01*
X136108057Y-103660000D01*
X136135764Y-103941309D01*
X136217818Y-104211808D01*
X136254592Y-104280607D01*
X134968199Y-105567000D01*
X134159378Y-105567000D01*
X134249853Y-105348574D01*
X134305000Y-105071335D01*
X134305000Y-104788665D01*
X134249853Y-104511426D01*
X134141680Y-104250273D01*
X133984637Y-104015241D01*
X133784759Y-103815363D01*
X133549727Y-103658320D01*
X133288574Y-103550147D01*
X133011335Y-103495000D01*
X132728665Y-103495000D01*
X132451426Y-103550147D01*
X132190273Y-103658320D01*
X131955241Y-103815363D01*
X131755363Y-104015241D01*
X131598320Y-104250273D01*
X131490147Y-104511426D01*
X131435000Y-104788665D01*
X131435000Y-105071335D01*
X131490147Y-105348574D01*
X131580622Y-105567000D01*
X126961802Y-105567000D01*
X126648688Y-105253886D01*
X126685000Y-105071335D01*
X126685000Y-104788665D01*
X126629853Y-104511426D01*
X126521680Y-104250273D01*
X126364637Y-104015241D01*
X126164759Y-103815363D01*
X125929727Y-103658320D01*
X125668574Y-103550147D01*
X125391335Y-103495000D01*
X125108665Y-103495000D01*
X124831426Y-103550147D01*
X124570273Y-103658320D01*
X124335241Y-103815363D01*
X124135363Y-104015241D01*
X123978320Y-104250273D01*
X123870147Y-104511426D01*
X123815000Y-104788665D01*
X123815000Y-105071335D01*
X123870147Y-105348574D01*
X123978320Y-105609727D01*
X124135363Y-105844759D01*
X124335241Y-106044637D01*
X124570273Y-106201680D01*
X124831426Y-106309853D01*
X125108665Y-106365000D01*
X125391335Y-106365000D01*
X125573886Y-106328688D01*
X126083201Y-106838003D01*
X126106999Y-106867001D01*
X126222724Y-106961974D01*
X126354753Y-107032546D01*
X126498014Y-107076003D01*
X126609667Y-107087000D01*
X126609676Y-107087000D01*
X126646999Y-107090676D01*
X126684322Y-107087000D01*
X135245678Y-107087000D01*
X135283000Y-107090676D01*
X135320322Y-107087000D01*
X135320333Y-107087000D01*
X135431986Y-107076003D01*
X135460057Y-107067488D01*
X133146545Y-109381000D01*
X121067122Y-109381000D01*
X121065000Y-109025750D01*
X120906250Y-108867000D01*
X119757000Y-108867000D01*
X119757000Y-108887000D01*
X119503000Y-108887000D01*
X119503000Y-108867000D01*
X119483000Y-108867000D01*
X119483000Y-108613000D01*
X119503000Y-108613000D01*
X119503000Y-107463750D01*
X119757000Y-107463750D01*
X119757000Y-108613000D01*
X120906250Y-108613000D01*
X121065000Y-108454250D01*
X121068072Y-107940000D01*
X121055812Y-107815518D01*
X121019502Y-107695820D01*
X120960537Y-107585506D01*
X120881185Y-107488815D01*
X120784494Y-107409463D01*
X120674180Y-107350498D01*
X120554482Y-107314188D01*
X120430000Y-107301928D01*
X119915750Y-107305000D01*
X119757000Y-107463750D01*
X119503000Y-107463750D01*
X119344250Y-107305000D01*
X118830000Y-107301928D01*
X118705518Y-107314188D01*
X118585820Y-107350498D01*
X118475506Y-107409463D01*
X118378815Y-107488815D01*
X118365210Y-107505393D01*
X118309727Y-107468320D01*
X118048574Y-107360147D01*
X117771335Y-107305000D01*
X117488665Y-107305000D01*
X117211426Y-107360147D01*
X116950273Y-107468320D01*
X116715241Y-107625363D01*
X116610604Y-107730000D01*
X113961807Y-107730000D01*
X113897663Y-107634002D01*
X113655998Y-107392337D01*
X113371831Y-107202463D01*
X113056081Y-107071675D01*
X112720883Y-107005000D01*
X112379117Y-107005000D01*
X112043919Y-107071675D01*
X111728169Y-107202463D01*
X111444002Y-107392337D01*
X111202337Y-107634002D01*
X111012463Y-107918169D01*
X110881675Y-108233919D01*
X110815000Y-108569117D01*
X110815000Y-108910883D01*
X110881675Y-109246081D01*
X111012463Y-109561831D01*
X111202337Y-109845998D01*
X111444002Y-110087663D01*
X111728169Y-110277537D01*
X112043919Y-110408325D01*
X112379117Y-110475000D01*
X112720883Y-110475000D01*
X113056081Y-110408325D01*
X113371831Y-110277537D01*
X113655998Y-110087663D01*
X113897663Y-109845998D01*
X113961807Y-109750000D01*
X116610604Y-109750000D01*
X116628826Y-109768222D01*
X116634615Y-109826994D01*
X116692368Y-110017379D01*
X116692369Y-110017380D01*
X116786154Y-110192840D01*
X116912368Y-110346633D01*
X116950901Y-110378256D01*
X117642743Y-111070099D01*
X117674367Y-111108633D01*
X117828160Y-111234847D01*
X117909493Y-111278320D01*
X118003620Y-111328632D01*
X118194005Y-111386385D01*
X118392000Y-111405886D01*
X118441608Y-111401000D01*
X133515292Y-111401000D01*
X133564900Y-111405886D01*
X133762894Y-111386385D01*
X133953280Y-111328632D01*
X134128740Y-111234847D01*
X134282533Y-111108633D01*
X134314161Y-111070094D01*
X141677100Y-103707156D01*
X141715633Y-103675533D01*
X141841847Y-103521740D01*
X141935632Y-103346280D01*
X141993385Y-103155894D01*
X141993604Y-103153676D01*
X142012886Y-102957900D01*
X142008000Y-102908292D01*
X142008000Y-99125355D01*
X144083356Y-97050000D01*
X144142507Y-97050000D01*
X144150392Y-97059608D01*
X144368899Y-97238932D01*
X144501858Y-97310000D01*
X144368899Y-97381068D01*
X144150392Y-97560392D01*
X143971068Y-97778899D01*
X143837818Y-98028192D01*
X143755764Y-98298691D01*
X143728057Y-98580000D01*
X143755764Y-98861309D01*
X143837818Y-99131808D01*
X143971068Y-99381101D01*
X144150392Y-99599608D01*
X144368899Y-99778932D01*
X144501858Y-99850000D01*
X144368899Y-99921068D01*
X144150392Y-100100392D01*
X143971068Y-100318899D01*
X143837818Y-100568192D01*
X143755764Y-100838691D01*
X143728057Y-101120000D01*
X143755764Y-101401309D01*
X143837818Y-101671808D01*
X143971068Y-101921101D01*
X143999388Y-101955610D01*
X131878999Y-114076000D01*
X125541322Y-114076000D01*
X125503999Y-114072324D01*
X125466676Y-114076000D01*
X125466667Y-114076000D01*
X125355014Y-114086997D01*
X125211753Y-114130454D01*
X125079724Y-114201026D01*
X124963999Y-114295999D01*
X124940201Y-114324997D01*
X114143887Y-125121312D01*
X113961335Y-125085000D01*
X113678665Y-125085000D01*
X113401426Y-125140147D01*
X113140273Y-125248320D01*
X112905241Y-125405363D01*
X112705363Y-125605241D01*
X112601957Y-125760000D01*
X111448072Y-125760000D01*
X111448072Y-125720000D01*
X111435812Y-125595518D01*
X111399502Y-125475820D01*
X111340537Y-125365506D01*
X111261185Y-125268815D01*
X111164494Y-125189463D01*
X111054180Y-125130498D01*
X110934482Y-125094188D01*
X110810000Y-125081928D01*
X109210000Y-125081928D01*
X109085518Y-125094188D01*
X108965820Y-125130498D01*
X108855506Y-125189463D01*
X108758815Y-125268815D01*
X108679463Y-125365506D01*
X108620498Y-125475820D01*
X108584188Y-125595518D01*
X108571928Y-125720000D01*
X108571928Y-125760000D01*
X107418043Y-125760000D01*
X107314637Y-125605241D01*
X107114759Y-125405363D01*
X106879727Y-125248320D01*
X106618574Y-125140147D01*
X106341335Y-125085000D01*
X106058665Y-125085000D01*
X105781426Y-125140147D01*
X105520273Y-125248320D01*
X105285241Y-125405363D01*
X105085363Y-125605241D01*
X104928320Y-125840273D01*
X104820147Y-126101426D01*
X104765000Y-126378665D01*
X103668454Y-126378665D01*
X103781909Y-126170960D01*
X103687070Y-125906119D01*
X103542385Y-125664869D01*
X103353414Y-125456481D01*
X103127420Y-125288963D01*
X102873087Y-125168754D01*
X102739039Y-125128096D01*
X102517000Y-125250085D01*
X102263000Y-125250085D01*
X102040961Y-125128096D01*
X101906913Y-125168754D01*
X101652580Y-125288963D01*
X101426586Y-125456481D01*
X101237615Y-125664869D01*
X101092930Y-125906119D01*
X100998091Y-126170960D01*
X99973685Y-126170960D01*
X99959853Y-126101426D01*
X99851680Y-125840273D01*
X99694637Y-125605241D01*
X99494759Y-125405363D01*
X99259727Y-125248320D01*
X98998574Y-125140147D01*
X98721335Y-125085000D01*
X98438665Y-125085000D01*
X98161426Y-125140147D01*
X97900273Y-125248320D01*
X97665241Y-125405363D01*
X97465363Y-125605241D01*
X97308320Y-125840273D01*
X97200147Y-126101426D01*
X97145000Y-126378665D01*
X93685000Y-126378665D01*
X93685000Y-118758665D01*
X97145000Y-118758665D01*
X97145000Y-119041335D01*
X97200147Y-119318574D01*
X97308320Y-119579727D01*
X97465363Y-119814759D01*
X97665241Y-120014637D01*
X97900273Y-120171680D01*
X98161426Y-120279853D01*
X98438665Y-120335000D01*
X98721335Y-120335000D01*
X98998574Y-120279853D01*
X99259727Y-120171680D01*
X99494759Y-120014637D01*
X99694637Y-119814759D01*
X99798043Y-119660000D01*
X101171957Y-119660000D01*
X101275363Y-119814759D01*
X101475241Y-120014637D01*
X101710273Y-120171680D01*
X101971426Y-120279853D01*
X102248665Y-120335000D01*
X102531335Y-120335000D01*
X102808574Y-120279853D01*
X103069727Y-120171680D01*
X103304759Y-120014637D01*
X103504637Y-119814759D01*
X103608043Y-119660000D01*
X104761928Y-119660000D01*
X104761928Y-119700000D01*
X104774188Y-119824482D01*
X104810498Y-119944180D01*
X104869463Y-120054494D01*
X104948815Y-120151185D01*
X105045506Y-120230537D01*
X105155820Y-120289502D01*
X105275518Y-120325812D01*
X105400000Y-120338072D01*
X107000000Y-120338072D01*
X107124482Y-120325812D01*
X107244180Y-120289502D01*
X107354494Y-120230537D01*
X107451185Y-120151185D01*
X107530537Y-120054494D01*
X107589502Y-119944180D01*
X107625812Y-119824482D01*
X107638072Y-119700000D01*
X107638072Y-119660000D01*
X108791957Y-119660000D01*
X108895363Y-119814759D01*
X109095241Y-120014637D01*
X109330273Y-120171680D01*
X109591426Y-120279853D01*
X109868665Y-120335000D01*
X110151335Y-120335000D01*
X110428574Y-120279853D01*
X110689727Y-120171680D01*
X110924759Y-120014637D01*
X111124637Y-119814759D01*
X111281680Y-119579727D01*
X111389853Y-119318574D01*
X111403684Y-119249040D01*
X112428091Y-119249040D01*
X112522930Y-119513881D01*
X112667615Y-119755131D01*
X112856586Y-119963519D01*
X113082580Y-120131037D01*
X113336913Y-120251246D01*
X113470961Y-120291904D01*
X113693000Y-120169915D01*
X113693000Y-119027000D01*
X113947000Y-119027000D01*
X113947000Y-120169915D01*
X114169039Y-120291904D01*
X114303087Y-120251246D01*
X114557420Y-120131037D01*
X114783414Y-119963519D01*
X114972385Y-119755131D01*
X115117070Y-119513881D01*
X115211909Y-119249040D01*
X115090624Y-119027000D01*
X113947000Y-119027000D01*
X113693000Y-119027000D01*
X112549376Y-119027000D01*
X112428091Y-119249040D01*
X111403684Y-119249040D01*
X111445000Y-119041335D01*
X111445000Y-118758665D01*
X111403685Y-118550960D01*
X112428091Y-118550960D01*
X112549376Y-118773000D01*
X113693000Y-118773000D01*
X113693000Y-117630085D01*
X113947000Y-117630085D01*
X113947000Y-118773000D01*
X115090624Y-118773000D01*
X115211909Y-118550960D01*
X115117070Y-118286119D01*
X114972385Y-118044869D01*
X114783414Y-117836481D01*
X114557420Y-117668963D01*
X114303087Y-117548754D01*
X114169039Y-117508096D01*
X113947000Y-117630085D01*
X113693000Y-117630085D01*
X113470961Y-117508096D01*
X113336913Y-117548754D01*
X113082580Y-117668963D01*
X112856586Y-117836481D01*
X112667615Y-118044869D01*
X112522930Y-118286119D01*
X112428091Y-118550960D01*
X111403685Y-118550960D01*
X111389853Y-118481426D01*
X111281680Y-118220273D01*
X111124637Y-117985241D01*
X110924759Y-117785363D01*
X110689727Y-117628320D01*
X110428574Y-117520147D01*
X110151335Y-117465000D01*
X109868665Y-117465000D01*
X109591426Y-117520147D01*
X109330273Y-117628320D01*
X109095241Y-117785363D01*
X108895363Y-117985241D01*
X108791957Y-118140000D01*
X107638072Y-118140000D01*
X107638072Y-118100000D01*
X107625812Y-117975518D01*
X107589502Y-117855820D01*
X107530537Y-117745506D01*
X107451185Y-117648815D01*
X107354494Y-117569463D01*
X107244180Y-117510498D01*
X107124482Y-117474188D01*
X107000000Y-117461928D01*
X105400000Y-117461928D01*
X105275518Y-117474188D01*
X105155820Y-117510498D01*
X105045506Y-117569463D01*
X104948815Y-117648815D01*
X104869463Y-117745506D01*
X104810498Y-117855820D01*
X104774188Y-117975518D01*
X104761928Y-118100000D01*
X104761928Y-118140000D01*
X103608043Y-118140000D01*
X103504637Y-117985241D01*
X103304759Y-117785363D01*
X103069727Y-117628320D01*
X102808574Y-117520147D01*
X102531335Y-117465000D01*
X102248665Y-117465000D01*
X101971426Y-117520147D01*
X101710273Y-117628320D01*
X101475241Y-117785363D01*
X101275363Y-117985241D01*
X101171957Y-118140000D01*
X99798043Y-118140000D01*
X99694637Y-117985241D01*
X99494759Y-117785363D01*
X99259727Y-117628320D01*
X98998574Y-117520147D01*
X98721335Y-117465000D01*
X98438665Y-117465000D01*
X98161426Y-117520147D01*
X97900273Y-117628320D01*
X97665241Y-117785363D01*
X97465363Y-117985241D01*
X97308320Y-118220273D01*
X97200147Y-118481426D01*
X97145000Y-118758665D01*
X93685000Y-118758665D01*
X93685000Y-100972401D01*
X100891400Y-100972401D01*
X100891400Y-101267599D01*
X100948990Y-101557125D01*
X101061958Y-101829853D01*
X101225961Y-102075302D01*
X101434698Y-102284039D01*
X101680147Y-102448042D01*
X101952875Y-102561010D01*
X102242401Y-102618600D01*
X102537599Y-102618600D01*
X102827125Y-102561010D01*
X103099853Y-102448042D01*
X103345302Y-102284039D01*
X103459364Y-102169977D01*
X103476898Y-102227780D01*
X103535863Y-102338094D01*
X103615215Y-102434785D01*
X103711906Y-102514137D01*
X103822220Y-102573102D01*
X103941918Y-102609412D01*
X104066400Y-102621672D01*
X105793600Y-102621672D01*
X105918082Y-102609412D01*
X106037780Y-102573102D01*
X106148094Y-102514137D01*
X106244785Y-102434785D01*
X106324137Y-102338094D01*
X106383102Y-102227780D01*
X106412763Y-102130000D01*
X110811928Y-102130000D01*
X110811928Y-102220000D01*
X110824188Y-102344482D01*
X110860498Y-102464180D01*
X110919463Y-102574494D01*
X110998815Y-102671185D01*
X111095506Y-102750537D01*
X111205820Y-102809502D01*
X111325518Y-102845812D01*
X111450000Y-102858072D01*
X113650000Y-102858072D01*
X113774482Y-102845812D01*
X113894180Y-102809502D01*
X114004494Y-102750537D01*
X114101185Y-102671185D01*
X114180537Y-102574494D01*
X114239502Y-102464180D01*
X114275812Y-102344482D01*
X114288072Y-102220000D01*
X114288072Y-101469039D01*
X123858096Y-101469039D01*
X123898754Y-101603087D01*
X124018963Y-101857420D01*
X124186481Y-102083414D01*
X124394869Y-102272385D01*
X124636119Y-102417070D01*
X124900960Y-102511909D01*
X125123000Y-102390624D01*
X125123000Y-101247000D01*
X125377000Y-101247000D01*
X125377000Y-102390624D01*
X125599040Y-102511909D01*
X125863881Y-102417070D01*
X126105131Y-102272385D01*
X126313519Y-102083414D01*
X126481037Y-101857420D01*
X126601246Y-101603087D01*
X126641904Y-101469039D01*
X126519915Y-101247000D01*
X125377000Y-101247000D01*
X125123000Y-101247000D01*
X123980085Y-101247000D01*
X123858096Y-101469039D01*
X114288072Y-101469039D01*
X114288072Y-100770961D01*
X123858096Y-100770961D01*
X123980085Y-100993000D01*
X125123000Y-100993000D01*
X125123000Y-99849376D01*
X125377000Y-99849376D01*
X125377000Y-100993000D01*
X126519915Y-100993000D01*
X126527790Y-100978665D01*
X131435000Y-100978665D01*
X131435000Y-101261335D01*
X131490147Y-101538574D01*
X131598320Y-101799727D01*
X131755363Y-102034759D01*
X131955241Y-102234637D01*
X132190273Y-102391680D01*
X132451426Y-102499853D01*
X132728665Y-102555000D01*
X133011335Y-102555000D01*
X133288574Y-102499853D01*
X133549727Y-102391680D01*
X133784759Y-102234637D01*
X133984637Y-102034759D01*
X134141680Y-101799727D01*
X134249853Y-101538574D01*
X134305000Y-101261335D01*
X134305000Y-100978665D01*
X134249853Y-100701426D01*
X134141680Y-100440273D01*
X133984637Y-100205241D01*
X133784759Y-100005363D01*
X133549727Y-99848320D01*
X133288574Y-99740147D01*
X133011335Y-99685000D01*
X132728665Y-99685000D01*
X132451426Y-99740147D01*
X132190273Y-99848320D01*
X131955241Y-100005363D01*
X131755363Y-100205241D01*
X131598320Y-100440273D01*
X131490147Y-100701426D01*
X131435000Y-100978665D01*
X126527790Y-100978665D01*
X126641904Y-100770961D01*
X126601246Y-100636913D01*
X126481037Y-100382580D01*
X126313519Y-100156586D01*
X126105131Y-99967615D01*
X125863881Y-99822930D01*
X125599040Y-99728091D01*
X125377000Y-99849376D01*
X125123000Y-99849376D01*
X124900960Y-99728091D01*
X124636119Y-99822930D01*
X124394869Y-99967615D01*
X124186481Y-100156586D01*
X124018963Y-100382580D01*
X123898754Y-100636913D01*
X123858096Y-100770961D01*
X114288072Y-100770961D01*
X114288072Y-100020000D01*
X114275812Y-99895518D01*
X114239502Y-99775820D01*
X114180537Y-99665506D01*
X114101185Y-99568815D01*
X114004494Y-99489463D01*
X113894180Y-99430498D01*
X113774482Y-99394188D01*
X113650000Y-99381928D01*
X111450000Y-99381928D01*
X111325518Y-99394188D01*
X111205820Y-99430498D01*
X111095506Y-99489463D01*
X110998815Y-99568815D01*
X110919463Y-99665506D01*
X110860498Y-99775820D01*
X110824188Y-99895518D01*
X110811928Y-100020000D01*
X110811928Y-100110000D01*
X106412763Y-100110000D01*
X106383102Y-100012220D01*
X106324137Y-99901906D01*
X106244785Y-99805215D01*
X106148094Y-99725863D01*
X106037780Y-99666898D01*
X105973426Y-99647376D01*
X106036854Y-99590293D01*
X106212684Y-99354944D01*
X106339222Y-99089814D01*
X106384958Y-98939026D01*
X106263817Y-98707000D01*
X105057000Y-98707000D01*
X105057000Y-98727000D01*
X104803000Y-98727000D01*
X104803000Y-98707000D01*
X102517000Y-98707000D01*
X102517000Y-98727000D01*
X102263000Y-98727000D01*
X102263000Y-98707000D01*
X101056183Y-98707000D01*
X100935042Y-98939026D01*
X100980778Y-99089814D01*
X101107316Y-99354944D01*
X101283146Y-99590293D01*
X101501512Y-99786817D01*
X101600103Y-99845441D01*
X101434698Y-99955961D01*
X101225961Y-100164698D01*
X101061958Y-100410147D01*
X100948990Y-100682875D01*
X100891400Y-100972401D01*
X93685000Y-100972401D01*
X93685000Y-96399026D01*
X100935042Y-96399026D01*
X100980778Y-96549814D01*
X101107316Y-96814944D01*
X101283146Y-97050293D01*
X101501512Y-97246817D01*
X101607770Y-97310000D01*
X101501512Y-97373183D01*
X101283146Y-97569707D01*
X101107316Y-97805056D01*
X100980778Y-98070186D01*
X100935042Y-98220974D01*
X101056183Y-98453000D01*
X102263000Y-98453000D01*
X102263000Y-96167000D01*
X102517000Y-96167000D01*
X102517000Y-98453000D01*
X104803000Y-98453000D01*
X104803000Y-96167000D01*
X105057000Y-96167000D01*
X105057000Y-98453000D01*
X106263817Y-98453000D01*
X106384958Y-98220974D01*
X106339222Y-98070186D01*
X106212684Y-97805056D01*
X106036854Y-97569707D01*
X105818488Y-97373183D01*
X105712230Y-97310000D01*
X105818488Y-97246817D01*
X106036854Y-97050293D01*
X106049996Y-97032702D01*
X129556903Y-97032702D01*
X129628486Y-97276671D01*
X129883996Y-97397571D01*
X130158184Y-97466300D01*
X130440512Y-97480217D01*
X130720130Y-97438787D01*
X130986292Y-97343603D01*
X131111514Y-97276671D01*
X131183097Y-97032702D01*
X130370000Y-96219605D01*
X129556903Y-97032702D01*
X106049996Y-97032702D01*
X106212684Y-96814944D01*
X106339222Y-96549814D01*
X106384958Y-96399026D01*
X106263817Y-96167000D01*
X105057000Y-96167000D01*
X104803000Y-96167000D01*
X102517000Y-96167000D01*
X102263000Y-96167000D01*
X101056183Y-96167000D01*
X100935042Y-96399026D01*
X93685000Y-96399026D01*
X93685000Y-96110512D01*
X128929783Y-96110512D01*
X128971213Y-96390130D01*
X129066397Y-96656292D01*
X129133329Y-96781514D01*
X129377298Y-96853097D01*
X130190395Y-96040000D01*
X129377298Y-95226903D01*
X129133329Y-95298486D01*
X129012429Y-95553996D01*
X128943700Y-95828184D01*
X128929783Y-96110512D01*
X93685000Y-96110512D01*
X93685000Y-93859026D01*
X100935042Y-93859026D01*
X100980778Y-94009814D01*
X101107316Y-94274944D01*
X101283146Y-94510293D01*
X101501512Y-94706817D01*
X101607770Y-94770000D01*
X101501512Y-94833183D01*
X101283146Y-95029707D01*
X101107316Y-95265056D01*
X100980778Y-95530186D01*
X100935042Y-95680974D01*
X101056183Y-95913000D01*
X102263000Y-95913000D01*
X102263000Y-93627000D01*
X102517000Y-93627000D01*
X102517000Y-95913000D01*
X104803000Y-95913000D01*
X104803000Y-93627000D01*
X105057000Y-93627000D01*
X105057000Y-95913000D01*
X106263817Y-95913000D01*
X106384958Y-95680974D01*
X106339222Y-95530186D01*
X106212684Y-95265056D01*
X106036854Y-95029707D01*
X105818488Y-94833183D01*
X105712230Y-94770000D01*
X105818488Y-94706817D01*
X106036854Y-94510293D01*
X106212684Y-94274944D01*
X106339222Y-94009814D01*
X106384958Y-93859026D01*
X106263817Y-93627000D01*
X105057000Y-93627000D01*
X104803000Y-93627000D01*
X102517000Y-93627000D01*
X102263000Y-93627000D01*
X101056183Y-93627000D01*
X100935042Y-93859026D01*
X93685000Y-93859026D01*
X93685000Y-90812401D01*
X100891400Y-90812401D01*
X100891400Y-91107599D01*
X100948990Y-91397125D01*
X101061958Y-91669853D01*
X101225961Y-91915302D01*
X101434698Y-92124039D01*
X101600103Y-92234559D01*
X101501512Y-92293183D01*
X101283146Y-92489707D01*
X101107316Y-92725056D01*
X100980778Y-92990186D01*
X100935042Y-93140974D01*
X101056183Y-93373000D01*
X102263000Y-93373000D01*
X102263000Y-93353000D01*
X102517000Y-93353000D01*
X102517000Y-93373000D01*
X104803000Y-93373000D01*
X104803000Y-93353000D01*
X105057000Y-93353000D01*
X105057000Y-93373000D01*
X106263817Y-93373000D01*
X106384958Y-93140974D01*
X106339222Y-92990186D01*
X106212684Y-92725056D01*
X106036854Y-92489707D01*
X105818488Y-92293183D01*
X105719897Y-92234559D01*
X105885302Y-92124039D01*
X106039341Y-91970000D01*
X111138193Y-91970000D01*
X111202337Y-92065998D01*
X111444002Y-92307663D01*
X111728169Y-92497537D01*
X112043919Y-92628325D01*
X112379117Y-92695000D01*
X112720883Y-92695000D01*
X113056081Y-92628325D01*
X113371831Y-92497537D01*
X113655998Y-92307663D01*
X113897663Y-92065998D01*
X114087537Y-91781831D01*
X114218325Y-91466081D01*
X114285000Y-91130883D01*
X114285000Y-90789117D01*
X114218325Y-90453919D01*
X114087537Y-90138169D01*
X113897663Y-89854002D01*
X113655998Y-89612337D01*
X113371831Y-89422463D01*
X113056081Y-89291675D01*
X112720883Y-89225000D01*
X112379117Y-89225000D01*
X112043919Y-89291675D01*
X111728169Y-89422463D01*
X111444002Y-89612337D01*
X111202337Y-89854002D01*
X111138193Y-89950000D01*
X106039341Y-89950000D01*
X105885302Y-89795961D01*
X105639853Y-89631958D01*
X105367125Y-89518990D01*
X105077599Y-89461400D01*
X104782401Y-89461400D01*
X104492875Y-89518990D01*
X104220147Y-89631958D01*
X103974698Y-89795961D01*
X103820659Y-89950000D01*
X103499341Y-89950000D01*
X103345302Y-89795961D01*
X103099853Y-89631958D01*
X102827125Y-89518990D01*
X102537599Y-89461400D01*
X102242401Y-89461400D01*
X101952875Y-89518990D01*
X101680147Y-89631958D01*
X101434698Y-89795961D01*
X101225961Y-90004698D01*
X101061958Y-90250147D01*
X100948990Y-90522875D01*
X100891400Y-90812401D01*
X93685000Y-90812401D01*
X93685000Y-73046544D01*
X123895000Y-73046544D01*
X123895000Y-73313456D01*
X123947072Y-73575239D01*
X124049215Y-73821833D01*
X124197503Y-74043762D01*
X124386238Y-74232497D01*
X124608167Y-74380785D01*
X124775266Y-74450000D01*
X124608167Y-74519215D01*
X124386238Y-74667503D01*
X124197503Y-74856238D01*
X124049215Y-75078167D01*
X123947072Y-75324761D01*
X123895000Y-75586544D01*
X123895000Y-75853456D01*
X123947072Y-76115239D01*
X124049215Y-76361833D01*
X124197503Y-76583762D01*
X124386238Y-76772497D01*
X124608167Y-76920785D01*
X124775266Y-76990000D01*
X124608167Y-77059215D01*
X124386238Y-77207503D01*
X124197503Y-77396238D01*
X124049215Y-77618167D01*
X123947072Y-77864761D01*
X123895000Y-78126544D01*
X123895000Y-78393456D01*
X123947072Y-78655239D01*
X124049215Y-78901833D01*
X124197503Y-79123762D01*
X124386238Y-79312497D01*
X124608167Y-79460785D01*
X124854761Y-79562928D01*
X125116544Y-79615000D01*
X125383456Y-79615000D01*
X125645239Y-79562928D01*
X125891833Y-79460785D01*
X125999768Y-79388665D01*
X149215000Y-79388665D01*
X149215000Y-79671335D01*
X149270147Y-79948574D01*
X149378320Y-80209727D01*
X149535363Y-80444759D01*
X149735241Y-80644637D01*
X149970273Y-80801680D01*
X150231426Y-80909853D01*
X150508665Y-80965000D01*
X150791335Y-80965000D01*
X151068574Y-80909853D01*
X151329727Y-80801680D01*
X151564759Y-80644637D01*
X151764637Y-80444759D01*
X151921680Y-80209727D01*
X152029853Y-79948574D01*
X152085000Y-79671335D01*
X152085000Y-79388665D01*
X156835000Y-79388665D01*
X156835000Y-79671335D01*
X156890147Y-79948574D01*
X156998320Y-80209727D01*
X157155363Y-80444759D01*
X157355241Y-80644637D01*
X157590273Y-80801680D01*
X157851426Y-80909853D01*
X158128665Y-80965000D01*
X158411335Y-80965000D01*
X158688574Y-80909853D01*
X158949727Y-80801680D01*
X159184759Y-80644637D01*
X159384637Y-80444759D01*
X159541680Y-80209727D01*
X159649853Y-79948574D01*
X159705000Y-79671335D01*
X159705000Y-79388665D01*
X159649853Y-79111426D01*
X159541680Y-78850273D01*
X159384637Y-78615241D01*
X159184759Y-78415363D01*
X158949727Y-78258320D01*
X158688574Y-78150147D01*
X158411335Y-78095000D01*
X158128665Y-78095000D01*
X157851426Y-78150147D01*
X157590273Y-78258320D01*
X157355241Y-78415363D01*
X157155363Y-78615241D01*
X156998320Y-78850273D01*
X156890147Y-79111426D01*
X156835000Y-79388665D01*
X152085000Y-79388665D01*
X152029853Y-79111426D01*
X151921680Y-78850273D01*
X151764637Y-78615241D01*
X151564759Y-78415363D01*
X151329727Y-78258320D01*
X151068574Y-78150147D01*
X150791335Y-78095000D01*
X150508665Y-78095000D01*
X150231426Y-78150147D01*
X149970273Y-78258320D01*
X149735241Y-78415363D01*
X149535363Y-78615241D01*
X149378320Y-78850273D01*
X149270147Y-79111426D01*
X149215000Y-79388665D01*
X125999768Y-79388665D01*
X126113762Y-79312497D01*
X126302497Y-79123762D01*
X126450785Y-78901833D01*
X126552928Y-78655239D01*
X126605000Y-78393456D01*
X126605000Y-78126544D01*
X126552928Y-77864761D01*
X126450785Y-77618167D01*
X126302497Y-77396238D01*
X126113762Y-77207503D01*
X125891833Y-77059215D01*
X125724734Y-76990000D01*
X125891833Y-76920785D01*
X126113762Y-76772497D01*
X126302497Y-76583762D01*
X126450785Y-76361833D01*
X126552928Y-76115239D01*
X126605000Y-75853456D01*
X126605000Y-75586544D01*
X126552928Y-75324761D01*
X126450785Y-75078167D01*
X126302497Y-74856238D01*
X126113762Y-74667503D01*
X125891833Y-74519215D01*
X125724734Y-74450000D01*
X125891833Y-74380785D01*
X126113762Y-74232497D01*
X126302497Y-74043762D01*
X126450785Y-73821833D01*
X126552928Y-73575239D01*
X126605000Y-73313456D01*
X126605000Y-73046544D01*
X126552928Y-72784761D01*
X126450785Y-72538167D01*
X126302497Y-72316238D01*
X126113762Y-72127503D01*
X125891833Y-71979215D01*
X125645239Y-71877072D01*
X125383456Y-71825000D01*
X125116544Y-71825000D01*
X124854761Y-71877072D01*
X124608167Y-71979215D01*
X124386238Y-72127503D01*
X124197503Y-72316238D01*
X124049215Y-72538167D01*
X123947072Y-72784761D01*
X123895000Y-73046544D01*
X93685000Y-73046544D01*
X93685000Y-64814344D01*
X100115000Y-64814344D01*
X100115000Y-65185656D01*
X100187439Y-65549834D01*
X100329534Y-65892882D01*
X100535825Y-66201618D01*
X100798382Y-66464175D01*
X101107118Y-66670466D01*
X101450166Y-66812561D01*
X101814344Y-66885000D01*
X102185656Y-66885000D01*
X102549834Y-66812561D01*
X102892882Y-66670466D01*
X103201618Y-66464175D01*
X103464175Y-66201618D01*
X103670466Y-65892882D01*
X103812561Y-65549834D01*
X103885000Y-65185656D01*
X103885000Y-64814344D01*
X115115000Y-64814344D01*
X115115000Y-65185656D01*
X115187439Y-65549834D01*
X115329534Y-65892882D01*
X115535825Y-66201618D01*
X115798382Y-66464175D01*
X116107118Y-66670466D01*
X116450166Y-66812561D01*
X116814344Y-66885000D01*
X117185656Y-66885000D01*
X117549834Y-66812561D01*
X117892882Y-66670466D01*
X118201618Y-66464175D01*
X118464175Y-66201618D01*
X118670466Y-65892882D01*
X118812561Y-65549834D01*
X118845272Y-65385380D01*
X122473134Y-65385380D01*
X122528304Y-65676773D01*
X122639262Y-65951804D01*
X122801744Y-66199903D01*
X123009506Y-66411536D01*
X123254563Y-66578571D01*
X123527498Y-66694588D01*
X123619969Y-66712302D01*
X123853000Y-66591246D01*
X123853000Y-65148000D01*
X122629414Y-65148000D01*
X122473134Y-65385380D01*
X118845272Y-65385380D01*
X118885000Y-65185656D01*
X118885000Y-64814344D01*
X118853627Y-64656620D01*
X122473134Y-64656620D01*
X122629414Y-64894000D01*
X123853000Y-64894000D01*
X123853000Y-63450754D01*
X124107000Y-63450754D01*
X124107000Y-64894000D01*
X124127000Y-64894000D01*
X124127000Y-65148000D01*
X124107000Y-65148000D01*
X124107000Y-66591246D01*
X124340031Y-66712302D01*
X124432502Y-66694588D01*
X124705437Y-66578571D01*
X124950494Y-66411536D01*
X125103493Y-66255686D01*
X125161595Y-66364387D01*
X125272038Y-66498962D01*
X125406613Y-66609405D01*
X125560149Y-66691472D01*
X125726745Y-66742008D01*
X125899999Y-66759072D01*
X127140001Y-66759072D01*
X127313255Y-66742008D01*
X127479851Y-66691472D01*
X127633387Y-66609405D01*
X127767962Y-66498962D01*
X127878405Y-66364387D01*
X127960472Y-66210851D01*
X128011008Y-66044255D01*
X128028072Y-65871001D01*
X128028072Y-64814344D01*
X130115000Y-64814344D01*
X130115000Y-65185656D01*
X130187439Y-65549834D01*
X130329534Y-65892882D01*
X130535825Y-66201618D01*
X130798382Y-66464175D01*
X131107118Y-66670466D01*
X131450166Y-66812561D01*
X131814344Y-66885000D01*
X132185656Y-66885000D01*
X132549834Y-66812561D01*
X132892882Y-66670466D01*
X133201618Y-66464175D01*
X133464175Y-66201618D01*
X133670466Y-65892882D01*
X133812561Y-65549834D01*
X133845272Y-65385380D01*
X137459134Y-65385380D01*
X137514304Y-65676773D01*
X137625262Y-65951804D01*
X137787744Y-66199903D01*
X137995506Y-66411536D01*
X138240563Y-66578571D01*
X138513498Y-66694588D01*
X138605969Y-66712302D01*
X138839000Y-66591246D01*
X138839000Y-65148000D01*
X137615414Y-65148000D01*
X137459134Y-65385380D01*
X133845272Y-65385380D01*
X133885000Y-65185656D01*
X133885000Y-64814344D01*
X133853627Y-64656620D01*
X137459134Y-64656620D01*
X137615414Y-64894000D01*
X138839000Y-64894000D01*
X138839000Y-63450754D01*
X139093000Y-63450754D01*
X139093000Y-64894000D01*
X139113000Y-64894000D01*
X139113000Y-65148000D01*
X139093000Y-65148000D01*
X139093000Y-66591246D01*
X139326031Y-66712302D01*
X139418502Y-66694588D01*
X139691437Y-66578571D01*
X139936494Y-66411536D01*
X140089493Y-66255686D01*
X140147595Y-66364387D01*
X140258038Y-66498962D01*
X140392613Y-66609405D01*
X140546149Y-66691472D01*
X140712745Y-66742008D01*
X140885999Y-66759072D01*
X142126001Y-66759072D01*
X142299255Y-66742008D01*
X142465851Y-66691472D01*
X142619387Y-66609405D01*
X142753962Y-66498962D01*
X142864405Y-66364387D01*
X142946472Y-66210851D01*
X142997008Y-66044255D01*
X143014072Y-65871001D01*
X143014072Y-64814344D01*
X145115000Y-64814344D01*
X145115000Y-65185656D01*
X145187439Y-65549834D01*
X145329534Y-65892882D01*
X145535825Y-66201618D01*
X145798382Y-66464175D01*
X146107118Y-66670466D01*
X146450166Y-66812561D01*
X146814344Y-66885000D01*
X147185656Y-66885000D01*
X147549834Y-66812561D01*
X147892882Y-66670466D01*
X148201618Y-66464175D01*
X148464175Y-66201618D01*
X148670466Y-65892882D01*
X148812561Y-65549834D01*
X148845272Y-65385380D01*
X152953134Y-65385380D01*
X153008304Y-65676773D01*
X153119262Y-65951804D01*
X153281744Y-66199903D01*
X153489506Y-66411536D01*
X153734563Y-66578571D01*
X154007498Y-66694588D01*
X154099969Y-66712302D01*
X154333000Y-66591246D01*
X154333000Y-65148000D01*
X153109414Y-65148000D01*
X152953134Y-65385380D01*
X148845272Y-65385380D01*
X148885000Y-65185656D01*
X148885000Y-64814344D01*
X148853627Y-64656620D01*
X152953134Y-64656620D01*
X153109414Y-64894000D01*
X154333000Y-64894000D01*
X154333000Y-63450754D01*
X154587000Y-63450754D01*
X154587000Y-64894000D01*
X154607000Y-64894000D01*
X154607000Y-65148000D01*
X154587000Y-65148000D01*
X154587000Y-66591246D01*
X154820031Y-66712302D01*
X154912502Y-66694588D01*
X155185437Y-66578571D01*
X155430494Y-66411536D01*
X155583493Y-66255686D01*
X155641595Y-66364387D01*
X155752038Y-66498962D01*
X155886613Y-66609405D01*
X156040149Y-66691472D01*
X156206745Y-66742008D01*
X156379999Y-66759072D01*
X157620001Y-66759072D01*
X157793255Y-66742008D01*
X157959851Y-66691472D01*
X158113387Y-66609405D01*
X158247962Y-66498962D01*
X158358405Y-66364387D01*
X158440472Y-66210851D01*
X158491008Y-66044255D01*
X158508072Y-65871001D01*
X158508072Y-64814344D01*
X160115000Y-64814344D01*
X160115000Y-65185656D01*
X160187439Y-65549834D01*
X160329534Y-65892882D01*
X160535825Y-66201618D01*
X160798382Y-66464175D01*
X161107118Y-66670466D01*
X161450166Y-66812561D01*
X161814344Y-66885000D01*
X162185656Y-66885000D01*
X162549834Y-66812561D01*
X162892882Y-66670466D01*
X163201618Y-66464175D01*
X163464175Y-66201618D01*
X163670466Y-65892882D01*
X163812561Y-65549834D01*
X163885000Y-65185656D01*
X163885000Y-64814344D01*
X163812561Y-64450166D01*
X163670466Y-64107118D01*
X163464175Y-63798382D01*
X163201618Y-63535825D01*
X162892882Y-63329534D01*
X162549834Y-63187439D01*
X162185656Y-63115000D01*
X161814344Y-63115000D01*
X161450166Y-63187439D01*
X161107118Y-63329534D01*
X160798382Y-63535825D01*
X160535825Y-63798382D01*
X160329534Y-64107118D01*
X160187439Y-64450166D01*
X160115000Y-64814344D01*
X158508072Y-64814344D01*
X158508072Y-64170999D01*
X158491008Y-63997745D01*
X158440472Y-63831149D01*
X158358405Y-63677613D01*
X158247962Y-63543038D01*
X158113387Y-63432595D01*
X157959851Y-63350528D01*
X157793255Y-63299992D01*
X157620001Y-63282928D01*
X156379999Y-63282928D01*
X156206745Y-63299992D01*
X156040149Y-63350528D01*
X155886613Y-63432595D01*
X155752038Y-63543038D01*
X155641595Y-63677613D01*
X155583493Y-63786314D01*
X155430494Y-63630464D01*
X155185437Y-63463429D01*
X154912502Y-63347412D01*
X154820031Y-63329698D01*
X154587000Y-63450754D01*
X154333000Y-63450754D01*
X154099969Y-63329698D01*
X154007498Y-63347412D01*
X153734563Y-63463429D01*
X153489506Y-63630464D01*
X153281744Y-63842097D01*
X153119262Y-64090196D01*
X153008304Y-64365227D01*
X152953134Y-64656620D01*
X148853627Y-64656620D01*
X148812561Y-64450166D01*
X148670466Y-64107118D01*
X148464175Y-63798382D01*
X148201618Y-63535825D01*
X147892882Y-63329534D01*
X147549834Y-63187439D01*
X147185656Y-63115000D01*
X146814344Y-63115000D01*
X146450166Y-63187439D01*
X146107118Y-63329534D01*
X145798382Y-63535825D01*
X145535825Y-63798382D01*
X145329534Y-64107118D01*
X145187439Y-64450166D01*
X145115000Y-64814344D01*
X143014072Y-64814344D01*
X143014072Y-64170999D01*
X142997008Y-63997745D01*
X142946472Y-63831149D01*
X142864405Y-63677613D01*
X142753962Y-63543038D01*
X142619387Y-63432595D01*
X142465851Y-63350528D01*
X142299255Y-63299992D01*
X142126001Y-63282928D01*
X140885999Y-63282928D01*
X140712745Y-63299992D01*
X140546149Y-63350528D01*
X140392613Y-63432595D01*
X140258038Y-63543038D01*
X140147595Y-63677613D01*
X140089493Y-63786314D01*
X139936494Y-63630464D01*
X139691437Y-63463429D01*
X139418502Y-63347412D01*
X139326031Y-63329698D01*
X139093000Y-63450754D01*
X138839000Y-63450754D01*
X138605969Y-63329698D01*
X138513498Y-63347412D01*
X138240563Y-63463429D01*
X137995506Y-63630464D01*
X137787744Y-63842097D01*
X137625262Y-64090196D01*
X137514304Y-64365227D01*
X137459134Y-64656620D01*
X133853627Y-64656620D01*
X133812561Y-64450166D01*
X133670466Y-64107118D01*
X133464175Y-63798382D01*
X133201618Y-63535825D01*
X132892882Y-63329534D01*
X132549834Y-63187439D01*
X132185656Y-63115000D01*
X131814344Y-63115000D01*
X131450166Y-63187439D01*
X131107118Y-63329534D01*
X130798382Y-63535825D01*
X130535825Y-63798382D01*
X130329534Y-64107118D01*
X130187439Y-64450166D01*
X130115000Y-64814344D01*
X128028072Y-64814344D01*
X128028072Y-64170999D01*
X128011008Y-63997745D01*
X127960472Y-63831149D01*
X127878405Y-63677613D01*
X127767962Y-63543038D01*
X127633387Y-63432595D01*
X127479851Y-63350528D01*
X127313255Y-63299992D01*
X127140001Y-63282928D01*
X125899999Y-63282928D01*
X125726745Y-63299992D01*
X125560149Y-63350528D01*
X125406613Y-63432595D01*
X125272038Y-63543038D01*
X125161595Y-63677613D01*
X125103493Y-63786314D01*
X124950494Y-63630464D01*
X124705437Y-63463429D01*
X124432502Y-63347412D01*
X124340031Y-63329698D01*
X124107000Y-63450754D01*
X123853000Y-63450754D01*
X123619969Y-63329698D01*
X123527498Y-63347412D01*
X123254563Y-63463429D01*
X123009506Y-63630464D01*
X122801744Y-63842097D01*
X122639262Y-64090196D01*
X122528304Y-64365227D01*
X122473134Y-64656620D01*
X118853627Y-64656620D01*
X118812561Y-64450166D01*
X118670466Y-64107118D01*
X118464175Y-63798382D01*
X118201618Y-63535825D01*
X117892882Y-63329534D01*
X117549834Y-63187439D01*
X117185656Y-63115000D01*
X116814344Y-63115000D01*
X116450166Y-63187439D01*
X116107118Y-63329534D01*
X115798382Y-63535825D01*
X115535825Y-63798382D01*
X115329534Y-64107118D01*
X115187439Y-64450166D01*
X115115000Y-64814344D01*
X103885000Y-64814344D01*
X103812561Y-64450166D01*
X103670466Y-64107118D01*
X103464175Y-63798382D01*
X103201618Y-63535825D01*
X102892882Y-63329534D01*
X102549834Y-63187439D01*
X102185656Y-63115000D01*
X101814344Y-63115000D01*
X101450166Y-63187439D01*
X101107118Y-63329534D01*
X100798382Y-63535825D01*
X100535825Y-63798382D01*
X100329534Y-64107118D01*
X100187439Y-64450166D01*
X100115000Y-64814344D01*
X93685000Y-64814344D01*
X93685000Y-60765000D01*
X166315000Y-60765000D01*
X166315001Y-157315000D01*
%TA.AperFunction,Conductor*%
D26*
G36*
X166315001Y-157315000D02*
G01*
X93685000Y-157315000D01*
X93685000Y-154779872D01*
X97765000Y-154779872D01*
X97765000Y-155220128D01*
X97850890Y-155651925D01*
X98019369Y-156058669D01*
X98263962Y-156424729D01*
X98575271Y-156736038D01*
X98941331Y-156980631D01*
X99348075Y-157149110D01*
X99779872Y-157235000D01*
X100220128Y-157235000D01*
X100651925Y-157149110D01*
X101058669Y-156980631D01*
X101424729Y-156736038D01*
X101736038Y-156424729D01*
X101980631Y-156058669D01*
X102149110Y-155651925D01*
X102235000Y-155220128D01*
X102235000Y-154779872D01*
X102149110Y-154348075D01*
X101980631Y-153941331D01*
X101736038Y-153575271D01*
X101424729Y-153263962D01*
X101058669Y-153019369D01*
X100651925Y-152850890D01*
X100220128Y-152765000D01*
X99779872Y-152765000D01*
X99348075Y-152850890D01*
X98941331Y-153019369D01*
X98575271Y-153263962D01*
X98263962Y-153575271D01*
X98019369Y-153941331D01*
X97850890Y-154348075D01*
X97765000Y-154779872D01*
X93685000Y-154779872D01*
X93685000Y-152599999D01*
X107711928Y-152599999D01*
X107711928Y-154300001D01*
X107728992Y-154473255D01*
X107779528Y-154639851D01*
X107861595Y-154793387D01*
X107972038Y-154927962D01*
X108106613Y-155038405D01*
X108260149Y-155120472D01*
X108426745Y-155171008D01*
X108599999Y-155188072D01*
X109840001Y-155188072D01*
X110013255Y-155171008D01*
X110179851Y-155120472D01*
X110333387Y-155038405D01*
X110467962Y-154927962D01*
X110578405Y-154793387D01*
X110636507Y-154684686D01*
X110789506Y-154840536D01*
X111034563Y-155007571D01*
X111307498Y-155123588D01*
X111399969Y-155141302D01*
X111633000Y-155020246D01*
X111633000Y-153577000D01*
X111887000Y-153577000D01*
X111887000Y-155020246D01*
X112120031Y-155141302D01*
X112212502Y-155123588D01*
X112485437Y-155007571D01*
X112730494Y-154840536D01*
X112938256Y-154628903D01*
X113100738Y-154380804D01*
X113211696Y-154105773D01*
X113266866Y-153814380D01*
X113110586Y-153577000D01*
X111887000Y-153577000D01*
X111633000Y-153577000D01*
X111613000Y-153577000D01*
X111613000Y-153323000D01*
X111633000Y-153323000D01*
X111633000Y-151879754D01*
X111887000Y-151879754D01*
X111887000Y-153323000D01*
X113110586Y-153323000D01*
X113266866Y-153085620D01*
X113211696Y-152794227D01*
X113133338Y-152599999D01*
X122621928Y-152599999D01*
X122621928Y-154300001D01*
X122638992Y-154473255D01*
X122689528Y-154639851D01*
X122771595Y-154793387D01*
X122882038Y-154927962D01*
X123016613Y-155038405D01*
X123170149Y-155120472D01*
X123336745Y-155171008D01*
X123509999Y-155188072D01*
X124750001Y-155188072D01*
X124923255Y-155171008D01*
X125089851Y-155120472D01*
X125243387Y-155038405D01*
X125377962Y-154927962D01*
X125488405Y-154793387D01*
X125546507Y-154684686D01*
X125699506Y-154840536D01*
X125944563Y-155007571D01*
X126217498Y-155123588D01*
X126309969Y-155141302D01*
X126543000Y-155020246D01*
X126543000Y-153577000D01*
X126797000Y-153577000D01*
X126797000Y-155020246D01*
X127030031Y-155141302D01*
X127122502Y-155123588D01*
X127395437Y-155007571D01*
X127640494Y-154840536D01*
X127700048Y-154779872D01*
X157765000Y-154779872D01*
X157765000Y-155220128D01*
X157850890Y-155651925D01*
X158019369Y-156058669D01*
X158263962Y-156424729D01*
X158575271Y-156736038D01*
X158941331Y-156980631D01*
X159348075Y-157149110D01*
X159779872Y-157235000D01*
X160220128Y-157235000D01*
X160651925Y-157149110D01*
X161058669Y-156980631D01*
X161424729Y-156736038D01*
X161736038Y-156424729D01*
X161980631Y-156058669D01*
X162149110Y-155651925D01*
X162235000Y-155220128D01*
X162235000Y-154779872D01*
X162149110Y-154348075D01*
X161980631Y-153941331D01*
X161736038Y-153575271D01*
X161424729Y-153263962D01*
X161058669Y-153019369D01*
X160651925Y-152850890D01*
X160220128Y-152765000D01*
X159779872Y-152765000D01*
X159348075Y-152850890D01*
X158941331Y-153019369D01*
X158575271Y-153263962D01*
X158263962Y-153575271D01*
X158019369Y-153941331D01*
X157850890Y-154348075D01*
X157765000Y-154779872D01*
X127700048Y-154779872D01*
X127848256Y-154628903D01*
X128010738Y-154380804D01*
X128121696Y-154105773D01*
X128176866Y-153814380D01*
X128020586Y-153577000D01*
X126797000Y-153577000D01*
X126543000Y-153577000D01*
X126523000Y-153577000D01*
X126523000Y-153323000D01*
X126543000Y-153323000D01*
X126543000Y-151879754D01*
X126797000Y-151879754D01*
X126797000Y-153323000D01*
X128020586Y-153323000D01*
X128176866Y-153085620D01*
X128121696Y-152794227D01*
X128010738Y-152519196D01*
X127848256Y-152271097D01*
X127640494Y-152059464D01*
X127395437Y-151892429D01*
X127122502Y-151776412D01*
X127030031Y-151758698D01*
X126797000Y-151879754D01*
X126543000Y-151879754D01*
X126309969Y-151758698D01*
X126217498Y-151776412D01*
X125944563Y-151892429D01*
X125699506Y-152059464D01*
X125546507Y-152215314D01*
X125488405Y-152106613D01*
X125377962Y-151972038D01*
X125243387Y-151861595D01*
X125089851Y-151779528D01*
X124923255Y-151728992D01*
X124750001Y-151711928D01*
X123509999Y-151711928D01*
X123336745Y-151728992D01*
X123170149Y-151779528D01*
X123016613Y-151861595D01*
X122882038Y-151972038D01*
X122771595Y-152106613D01*
X122689528Y-152260149D01*
X122638992Y-152426745D01*
X122621928Y-152599999D01*
X113133338Y-152599999D01*
X113100738Y-152519196D01*
X112938256Y-152271097D01*
X112730494Y-152059464D01*
X112485437Y-151892429D01*
X112212502Y-151776412D01*
X112120031Y-151758698D01*
X111887000Y-151879754D01*
X111633000Y-151879754D01*
X111399969Y-151758698D01*
X111307498Y-151776412D01*
X111034563Y-151892429D01*
X110789506Y-152059464D01*
X110636507Y-152215314D01*
X110578405Y-152106613D01*
X110467962Y-151972038D01*
X110333387Y-151861595D01*
X110179851Y-151779528D01*
X110013255Y-151728992D01*
X109840001Y-151711928D01*
X108599999Y-151711928D01*
X108426745Y-151728992D01*
X108260149Y-151779528D01*
X108106613Y-151861595D01*
X107972038Y-151972038D01*
X107861595Y-152106613D01*
X107779528Y-152260149D01*
X107728992Y-152426745D01*
X107711928Y-152599999D01*
X93685000Y-152599999D01*
X93685000Y-139814344D01*
X95115000Y-139814344D01*
X95115000Y-140185656D01*
X95187439Y-140549834D01*
X95329534Y-140892882D01*
X95535825Y-141201618D01*
X95798382Y-141464175D01*
X96107118Y-141670466D01*
X96450166Y-141812561D01*
X96814344Y-141885000D01*
X97185656Y-141885000D01*
X97549834Y-141812561D01*
X97892882Y-141670466D01*
X98201618Y-141464175D01*
X98464175Y-141201618D01*
X98670466Y-140892882D01*
X98812561Y-140549834D01*
X98885000Y-140185656D01*
X98885000Y-139814344D01*
X110115000Y-139814344D01*
X110115000Y-140185656D01*
X110187439Y-140549834D01*
X110329534Y-140892882D01*
X110535825Y-141201618D01*
X110798382Y-141464175D01*
X111107118Y-141670466D01*
X111450166Y-141812561D01*
X111814344Y-141885000D01*
X112185656Y-141885000D01*
X112549834Y-141812561D01*
X112892882Y-141670466D01*
X113201618Y-141464175D01*
X113464175Y-141201618D01*
X113670466Y-140892882D01*
X113812561Y-140549834D01*
X113885000Y-140185656D01*
X113885000Y-139814344D01*
X125115000Y-139814344D01*
X125115000Y-140185656D01*
X125187439Y-140549834D01*
X125329534Y-140892882D01*
X125535825Y-141201618D01*
X125798382Y-141464175D01*
X126107118Y-141670466D01*
X126450166Y-141812561D01*
X126814344Y-141885000D01*
X127185656Y-141885000D01*
X127549834Y-141812561D01*
X127892882Y-141670466D01*
X128201618Y-141464175D01*
X128464175Y-141201618D01*
X128670466Y-140892882D01*
X128812561Y-140549834D01*
X128885000Y-140185656D01*
X128885000Y-139814344D01*
X140115000Y-139814344D01*
X140115000Y-140185656D01*
X140187439Y-140549834D01*
X140329534Y-140892882D01*
X140535825Y-141201618D01*
X140798382Y-141464175D01*
X141107118Y-141670466D01*
X141450166Y-141812561D01*
X141814344Y-141885000D01*
X142185656Y-141885000D01*
X142549834Y-141812561D01*
X142892882Y-141670466D01*
X143201618Y-141464175D01*
X143464175Y-141201618D01*
X143670466Y-140892882D01*
X143812561Y-140549834D01*
X143885000Y-140185656D01*
X143885000Y-139814344D01*
X155115000Y-139814344D01*
X155115000Y-140185656D01*
X155187439Y-140549834D01*
X155329534Y-140892882D01*
X155535825Y-141201618D01*
X155798382Y-141464175D01*
X156107118Y-141670466D01*
X156450166Y-141812561D01*
X156814344Y-141885000D01*
X157185656Y-141885000D01*
X157549834Y-141812561D01*
X157892882Y-141670466D01*
X158201618Y-141464175D01*
X158464175Y-141201618D01*
X158670466Y-140892882D01*
X158812561Y-140549834D01*
X158885000Y-140185656D01*
X158885000Y-139814344D01*
X158812561Y-139450166D01*
X158670466Y-139107118D01*
X158464175Y-138798382D01*
X158201618Y-138535825D01*
X157892882Y-138329534D01*
X157549834Y-138187439D01*
X157185656Y-138115000D01*
X156814344Y-138115000D01*
X156450166Y-138187439D01*
X156107118Y-138329534D01*
X155798382Y-138535825D01*
X155535825Y-138798382D01*
X155329534Y-139107118D01*
X155187439Y-139450166D01*
X155115000Y-139814344D01*
X143885000Y-139814344D01*
X143812561Y-139450166D01*
X143670466Y-139107118D01*
X143464175Y-138798382D01*
X143201618Y-138535825D01*
X142892882Y-138329534D01*
X142549834Y-138187439D01*
X142185656Y-138115000D01*
X141814344Y-138115000D01*
X141450166Y-138187439D01*
X141107118Y-138329534D01*
X140798382Y-138535825D01*
X140535825Y-138798382D01*
X140329534Y-139107118D01*
X140187439Y-139450166D01*
X140115000Y-139814344D01*
X128885000Y-139814344D01*
X128812561Y-139450166D01*
X128670466Y-139107118D01*
X128464175Y-138798382D01*
X128201618Y-138535825D01*
X127892882Y-138329534D01*
X127549834Y-138187439D01*
X127185656Y-138115000D01*
X126814344Y-138115000D01*
X126450166Y-138187439D01*
X126107118Y-138329534D01*
X125798382Y-138535825D01*
X125535825Y-138798382D01*
X125329534Y-139107118D01*
X125187439Y-139450166D01*
X125115000Y-139814344D01*
X113885000Y-139814344D01*
X113812561Y-139450166D01*
X113670466Y-139107118D01*
X113464175Y-138798382D01*
X113201618Y-138535825D01*
X112892882Y-138329534D01*
X112549834Y-138187439D01*
X112185656Y-138115000D01*
X111814344Y-138115000D01*
X111450166Y-138187439D01*
X111107118Y-138329534D01*
X110798382Y-138535825D01*
X110535825Y-138798382D01*
X110329534Y-139107118D01*
X110187439Y-139450166D01*
X110115000Y-139814344D01*
X98885000Y-139814344D01*
X98812561Y-139450166D01*
X98670466Y-139107118D01*
X98464175Y-138798382D01*
X98201618Y-138535825D01*
X97892882Y-138329534D01*
X97549834Y-138187439D01*
X97185656Y-138115000D01*
X96814344Y-138115000D01*
X96450166Y-138187439D01*
X96107118Y-138329534D01*
X95798382Y-138535825D01*
X95535825Y-138798382D01*
X95329534Y-139107118D01*
X95187439Y-139450166D01*
X95115000Y-139814344D01*
X93685000Y-139814344D01*
X93685000Y-133750000D01*
X100111928Y-133750000D01*
X100111928Y-136250000D01*
X100124188Y-136374482D01*
X100160498Y-136494180D01*
X100219463Y-136604494D01*
X100298815Y-136701185D01*
X100395506Y-136780537D01*
X100505820Y-136839502D01*
X100625518Y-136875812D01*
X100750000Y-136888072D01*
X103250000Y-136888072D01*
X103374482Y-136875812D01*
X103494180Y-136839502D01*
X103604494Y-136780537D01*
X103701185Y-136701185D01*
X103780537Y-136604494D01*
X103839502Y-136494180D01*
X103875812Y-136374482D01*
X103888072Y-136250000D01*
X103888072Y-133750000D01*
X115111928Y-133750000D01*
X115111928Y-136250000D01*
X115124188Y-136374482D01*
X115160498Y-136494180D01*
X115219463Y-136604494D01*
X115298815Y-136701185D01*
X115395506Y-136780537D01*
X115505820Y-136839502D01*
X115625518Y-136875812D01*
X115750000Y-136888072D01*
X118250000Y-136888072D01*
X118374482Y-136875812D01*
X118494180Y-136839502D01*
X118604494Y-136780537D01*
X118701185Y-136701185D01*
X118780537Y-136604494D01*
X118839502Y-136494180D01*
X118875812Y-136374482D01*
X118888072Y-136250000D01*
X130111928Y-136250000D01*
X130124188Y-136374482D01*
X130160498Y-136494180D01*
X130219463Y-136604494D01*
X130298815Y-136701185D01*
X130395506Y-136780537D01*
X130505820Y-136839502D01*
X130625518Y-136875812D01*
X130750000Y-136888072D01*
X131714250Y-136885000D01*
X131873000Y-136726250D01*
X131873000Y-135127000D01*
X132127000Y-135127000D01*
X132127000Y-136726250D01*
X132285750Y-136885000D01*
X133250000Y-136888072D01*
X133374482Y-136875812D01*
X133494180Y-136839502D01*
X133604494Y-136780537D01*
X133701185Y-136701185D01*
X133780537Y-136604494D01*
X133839502Y-136494180D01*
X133875812Y-136374482D01*
X133888072Y-136250000D01*
X145111928Y-136250000D01*
X145124188Y-136374482D01*
X145160498Y-136494180D01*
X145219463Y-136604494D01*
X145298815Y-136701185D01*
X145395506Y-136780537D01*
X145505820Y-136839502D01*
X145625518Y-136875812D01*
X145750000Y-136888072D01*
X146714250Y-136885000D01*
X146873000Y-136726250D01*
X146873000Y-135127000D01*
X147127000Y-135127000D01*
X147127000Y-136726250D01*
X147285750Y-136885000D01*
X148250000Y-136888072D01*
X148374482Y-136875812D01*
X148494180Y-136839502D01*
X148604494Y-136780537D01*
X148701185Y-136701185D01*
X148780537Y-136604494D01*
X148839502Y-136494180D01*
X148875812Y-136374482D01*
X148888072Y-136250000D01*
X160111928Y-136250000D01*
X160124188Y-136374482D01*
X160160498Y-136494180D01*
X160219463Y-136604494D01*
X160298815Y-136701185D01*
X160395506Y-136780537D01*
X160505820Y-136839502D01*
X160625518Y-136875812D01*
X160750000Y-136888072D01*
X161714250Y-136885000D01*
X161873000Y-136726250D01*
X161873000Y-135127000D01*
X162127000Y-135127000D01*
X162127000Y-136726250D01*
X162285750Y-136885000D01*
X163250000Y-136888072D01*
X163374482Y-136875812D01*
X163494180Y-136839502D01*
X163604494Y-136780537D01*
X163701185Y-136701185D01*
X163780537Y-136604494D01*
X163839502Y-136494180D01*
X163875812Y-136374482D01*
X163888072Y-136250000D01*
X163885000Y-135285750D01*
X163726250Y-135127000D01*
X162127000Y-135127000D01*
X161873000Y-135127000D01*
X160273750Y-135127000D01*
X160115000Y-135285750D01*
X160111928Y-136250000D01*
X148888072Y-136250000D01*
X148885000Y-135285750D01*
X148726250Y-135127000D01*
X147127000Y-135127000D01*
X146873000Y-135127000D01*
X145273750Y-135127000D01*
X145115000Y-135285750D01*
X145111928Y-136250000D01*
X133888072Y-136250000D01*
X133885000Y-135285750D01*
X133726250Y-135127000D01*
X132127000Y-135127000D01*
X131873000Y-135127000D01*
X130273750Y-135127000D01*
X130115000Y-135285750D01*
X130111928Y-136250000D01*
X118888072Y-136250000D01*
X118888072Y-133750000D01*
X130111928Y-133750000D01*
X130115000Y-134714250D01*
X130273750Y-134873000D01*
X131873000Y-134873000D01*
X131873000Y-133273750D01*
X132127000Y-133273750D01*
X132127000Y-134873000D01*
X133726250Y-134873000D01*
X133885000Y-134714250D01*
X133888072Y-133750000D01*
X145111928Y-133750000D01*
X145115000Y-134714250D01*
X145273750Y-134873000D01*
X146873000Y-134873000D01*
X146873000Y-133273750D01*
X147127000Y-133273750D01*
X147127000Y-134873000D01*
X148726250Y-134873000D01*
X148885000Y-134714250D01*
X148888072Y-133750000D01*
X160111928Y-133750000D01*
X160115000Y-134714250D01*
X160273750Y-134873000D01*
X161873000Y-134873000D01*
X161873000Y-133273750D01*
X162127000Y-133273750D01*
X162127000Y-134873000D01*
X163726250Y-134873000D01*
X163885000Y-134714250D01*
X163888072Y-133750000D01*
X163875812Y-133625518D01*
X163839502Y-133505820D01*
X163780537Y-133395506D01*
X163701185Y-133298815D01*
X163604494Y-133219463D01*
X163494180Y-133160498D01*
X163374482Y-133124188D01*
X163250000Y-133111928D01*
X162285750Y-133115000D01*
X162127000Y-133273750D01*
X161873000Y-133273750D01*
X161714250Y-133115000D01*
X160750000Y-133111928D01*
X160625518Y-133124188D01*
X160505820Y-133160498D01*
X160395506Y-133219463D01*
X160298815Y-133298815D01*
X160219463Y-133395506D01*
X160160498Y-133505820D01*
X160124188Y-133625518D01*
X160111928Y-133750000D01*
X148888072Y-133750000D01*
X148875812Y-133625518D01*
X148839502Y-133505820D01*
X148780537Y-133395506D01*
X148701185Y-133298815D01*
X148604494Y-133219463D01*
X148494180Y-133160498D01*
X148374482Y-133124188D01*
X148250000Y-133111928D01*
X147285750Y-133115000D01*
X147127000Y-133273750D01*
X146873000Y-133273750D01*
X146714250Y-133115000D01*
X145750000Y-133111928D01*
X145625518Y-133124188D01*
X145505820Y-133160498D01*
X145395506Y-133219463D01*
X145298815Y-133298815D01*
X145219463Y-133395506D01*
X145160498Y-133505820D01*
X145124188Y-133625518D01*
X145111928Y-133750000D01*
X133888072Y-133750000D01*
X133875812Y-133625518D01*
X133839502Y-133505820D01*
X133780537Y-133395506D01*
X133701185Y-133298815D01*
X133604494Y-133219463D01*
X133494180Y-133160498D01*
X133374482Y-133124188D01*
X133250000Y-133111928D01*
X132285750Y-133115000D01*
X132127000Y-133273750D01*
X131873000Y-133273750D01*
X131714250Y-133115000D01*
X130750000Y-133111928D01*
X130625518Y-133124188D01*
X130505820Y-133160498D01*
X130395506Y-133219463D01*
X130298815Y-133298815D01*
X130219463Y-133395506D01*
X130160498Y-133505820D01*
X130124188Y-133625518D01*
X130111928Y-133750000D01*
X118888072Y-133750000D01*
X118875812Y-133625518D01*
X118839502Y-133505820D01*
X118780537Y-133395506D01*
X118701185Y-133298815D01*
X118604494Y-133219463D01*
X118494180Y-133160498D01*
X118374482Y-133124188D01*
X118250000Y-133111928D01*
X115750000Y-133111928D01*
X115625518Y-133124188D01*
X115505820Y-133160498D01*
X115395506Y-133219463D01*
X115298815Y-133298815D01*
X115219463Y-133395506D01*
X115160498Y-133505820D01*
X115124188Y-133625518D01*
X115111928Y-133750000D01*
X103888072Y-133750000D01*
X103875812Y-133625518D01*
X103839502Y-133505820D01*
X103780537Y-133395506D01*
X103701185Y-133298815D01*
X103604494Y-133219463D01*
X103494180Y-133160498D01*
X103374482Y-133124188D01*
X103250000Y-133111928D01*
X100750000Y-133111928D01*
X100625518Y-133124188D01*
X100505820Y-133160498D01*
X100395506Y-133219463D01*
X100298815Y-133298815D01*
X100219463Y-133395506D01*
X100160498Y-133505820D01*
X100124188Y-133625518D01*
X100111928Y-133750000D01*
X93685000Y-133750000D01*
X93685000Y-126378665D01*
X97145000Y-126378665D01*
X97145000Y-126661335D01*
X97200147Y-126938574D01*
X97308320Y-127199727D01*
X97465363Y-127434759D01*
X97665241Y-127634637D01*
X97900273Y-127791680D01*
X98161426Y-127899853D01*
X98438665Y-127955000D01*
X98721335Y-127955000D01*
X98998574Y-127899853D01*
X99259727Y-127791680D01*
X99494759Y-127634637D01*
X99694637Y-127434759D01*
X99851680Y-127199727D01*
X99959853Y-126938574D01*
X99973684Y-126869040D01*
X100998091Y-126869040D01*
X101092930Y-127133881D01*
X101237615Y-127375131D01*
X101426586Y-127583519D01*
X101652580Y-127751037D01*
X101906913Y-127871246D01*
X102040961Y-127911904D01*
X102263000Y-127789915D01*
X102263000Y-126647000D01*
X102517000Y-126647000D01*
X102517000Y-127789915D01*
X102739039Y-127911904D01*
X102873087Y-127871246D01*
X103127420Y-127751037D01*
X103353414Y-127583519D01*
X103542385Y-127375131D01*
X103687070Y-127133881D01*
X103781909Y-126869040D01*
X103660624Y-126647000D01*
X102517000Y-126647000D01*
X102263000Y-126647000D01*
X101119376Y-126647000D01*
X100998091Y-126869040D01*
X99973684Y-126869040D01*
X100015000Y-126661335D01*
X100015000Y-126378665D01*
X99973685Y-126170960D01*
X100998091Y-126170960D01*
X101119376Y-126393000D01*
X102263000Y-126393000D01*
X102263000Y-125250085D01*
X102517000Y-125250085D01*
X102517000Y-126393000D01*
X103660624Y-126393000D01*
X103668454Y-126378665D01*
X104765000Y-126378665D01*
X104765000Y-126661335D01*
X104820147Y-126938574D01*
X104928320Y-127199727D01*
X105085363Y-127434759D01*
X105285241Y-127634637D01*
X105520273Y-127791680D01*
X105781426Y-127899853D01*
X106058665Y-127955000D01*
X106341335Y-127955000D01*
X106618574Y-127899853D01*
X106879727Y-127791680D01*
X107114759Y-127634637D01*
X107314637Y-127434759D01*
X107418043Y-127280000D01*
X108571928Y-127280000D01*
X108571928Y-127320000D01*
X108584188Y-127444482D01*
X108620498Y-127564180D01*
X108679463Y-127674494D01*
X108758815Y-127771185D01*
X108855506Y-127850537D01*
X108965820Y-127909502D01*
X109085518Y-127945812D01*
X109210000Y-127958072D01*
X110810000Y-127958072D01*
X110934482Y-127945812D01*
X111054180Y-127909502D01*
X111164494Y-127850537D01*
X111261185Y-127771185D01*
X111340537Y-127674494D01*
X111399502Y-127564180D01*
X111435812Y-127444482D01*
X111448072Y-127320000D01*
X111448072Y-127280000D01*
X112601957Y-127280000D01*
X112705363Y-127434759D01*
X112905241Y-127634637D01*
X113140273Y-127791680D01*
X113401426Y-127899853D01*
X113678665Y-127955000D01*
X113961335Y-127955000D01*
X114238574Y-127899853D01*
X114499727Y-127791680D01*
X114734759Y-127634637D01*
X114934637Y-127434759D01*
X115091680Y-127199727D01*
X115199853Y-126938574D01*
X115255000Y-126661335D01*
X115255000Y-126378665D01*
X126355000Y-126378665D01*
X126355000Y-126661335D01*
X126410147Y-126938574D01*
X126518320Y-127199727D01*
X126675363Y-127434759D01*
X126875241Y-127634637D01*
X127110273Y-127791680D01*
X127371426Y-127899853D01*
X127648665Y-127955000D01*
X127931335Y-127955000D01*
X128208574Y-127899853D01*
X128469727Y-127791680D01*
X128704759Y-127634637D01*
X128904637Y-127434759D01*
X129061680Y-127199727D01*
X129169853Y-126938574D01*
X129225000Y-126661335D01*
X129225000Y-126378665D01*
X140325000Y-126378665D01*
X140325000Y-126661335D01*
X140380147Y-126938574D01*
X140488320Y-127199727D01*
X140645363Y-127434759D01*
X140845241Y-127634637D01*
X141080273Y-127791680D01*
X141341426Y-127899853D01*
X141618665Y-127955000D01*
X141901335Y-127955000D01*
X142178574Y-127899853D01*
X142439727Y-127791680D01*
X142674759Y-127634637D01*
X142874637Y-127434759D01*
X143031680Y-127199727D01*
X143139853Y-126938574D01*
X143195000Y-126661335D01*
X143195000Y-126378665D01*
X155565000Y-126378665D01*
X155565000Y-126661335D01*
X155620147Y-126938574D01*
X155728320Y-127199727D01*
X155885363Y-127434759D01*
X156085241Y-127634637D01*
X156320273Y-127791680D01*
X156581426Y-127899853D01*
X156858665Y-127955000D01*
X157141335Y-127955000D01*
X157418574Y-127899853D01*
X157679727Y-127791680D01*
X157914759Y-127634637D01*
X158114637Y-127434759D01*
X158271680Y-127199727D01*
X158379853Y-126938574D01*
X158435000Y-126661335D01*
X158435000Y-126378665D01*
X158379853Y-126101426D01*
X158271680Y-125840273D01*
X158114637Y-125605241D01*
X157914759Y-125405363D01*
X157679727Y-125248320D01*
X157418574Y-125140147D01*
X157141335Y-125085000D01*
X156858665Y-125085000D01*
X156581426Y-125140147D01*
X156320273Y-125248320D01*
X156085241Y-125405363D01*
X155885363Y-125605241D01*
X155728320Y-125840273D01*
X155620147Y-126101426D01*
X155565000Y-126378665D01*
X143195000Y-126378665D01*
X143139853Y-126101426D01*
X143031680Y-125840273D01*
X142874637Y-125605241D01*
X142674759Y-125405363D01*
X142439727Y-125248320D01*
X142178574Y-125140147D01*
X141901335Y-125085000D01*
X141618665Y-125085000D01*
X141341426Y-125140147D01*
X141080273Y-125248320D01*
X140845241Y-125405363D01*
X140645363Y-125605241D01*
X140488320Y-125840273D01*
X140380147Y-126101426D01*
X140325000Y-126378665D01*
X129225000Y-126378665D01*
X129169853Y-126101426D01*
X129061680Y-125840273D01*
X128904637Y-125605241D01*
X128704759Y-125405363D01*
X128469727Y-125248320D01*
X128208574Y-125140147D01*
X127931335Y-125085000D01*
X127648665Y-125085000D01*
X127371426Y-125140147D01*
X127110273Y-125248320D01*
X126875241Y-125405363D01*
X126675363Y-125605241D01*
X126518320Y-125840273D01*
X126410147Y-126101426D01*
X126355000Y-126378665D01*
X115255000Y-126378665D01*
X115218688Y-126196113D01*
X122656136Y-118758665D01*
X126355000Y-118758665D01*
X126355000Y-119041335D01*
X126410147Y-119318574D01*
X126518320Y-119579727D01*
X126675363Y-119814759D01*
X126875241Y-120014637D01*
X127110273Y-120171680D01*
X127371426Y-120279853D01*
X127648665Y-120335000D01*
X127931335Y-120335000D01*
X128208574Y-120279853D01*
X128469727Y-120171680D01*
X128704759Y-120014637D01*
X128904637Y-119814759D01*
X129008043Y-119660000D01*
X140541957Y-119660000D01*
X140645363Y-119814759D01*
X140845241Y-120014637D01*
X141080273Y-120171680D01*
X141341426Y-120279853D01*
X141618665Y-120335000D01*
X141901335Y-120335000D01*
X142178574Y-120279853D01*
X142439727Y-120171680D01*
X142674759Y-120014637D01*
X142874637Y-119814759D01*
X142978043Y-119660000D01*
X155781957Y-119660000D01*
X155885363Y-119814759D01*
X156085241Y-120014637D01*
X156320273Y-120171680D01*
X156581426Y-120279853D01*
X156858665Y-120335000D01*
X157141335Y-120335000D01*
X157418574Y-120279853D01*
X157679727Y-120171680D01*
X157914759Y-120014637D01*
X158114637Y-119814759D01*
X158271680Y-119579727D01*
X158379853Y-119318574D01*
X158435000Y-119041335D01*
X158435000Y-118758665D01*
X158379853Y-118481426D01*
X158271680Y-118220273D01*
X158114637Y-117985241D01*
X157914759Y-117785363D01*
X157679727Y-117628320D01*
X157418574Y-117520147D01*
X157141335Y-117465000D01*
X156858665Y-117465000D01*
X156581426Y-117520147D01*
X156320273Y-117628320D01*
X156085241Y-117785363D01*
X155885363Y-117985241D01*
X155781957Y-118140000D01*
X142978043Y-118140000D01*
X142874637Y-117985241D01*
X142674759Y-117785363D01*
X142439727Y-117628320D01*
X142178574Y-117520147D01*
X141901335Y-117465000D01*
X141618665Y-117465000D01*
X141341426Y-117520147D01*
X141080273Y-117628320D01*
X140845241Y-117785363D01*
X140645363Y-117985241D01*
X140541957Y-118140000D01*
X129008043Y-118140000D01*
X128904637Y-117985241D01*
X128704759Y-117785363D01*
X128469727Y-117628320D01*
X128208574Y-117520147D01*
X127931335Y-117465000D01*
X127648665Y-117465000D01*
X127371426Y-117520147D01*
X127110273Y-117628320D01*
X126875241Y-117785363D01*
X126675363Y-117985241D01*
X126518320Y-118220273D01*
X126410147Y-118481426D01*
X126355000Y-118758665D01*
X122656136Y-118758665D01*
X125818802Y-115596000D01*
X132156478Y-115596000D01*
X132193800Y-115599676D01*
X132231122Y-115596000D01*
X132231133Y-115596000D01*
X132342786Y-115585003D01*
X132486047Y-115541546D01*
X132618076Y-115470974D01*
X132733801Y-115376001D01*
X132757604Y-115346997D01*
X135695936Y-112408665D01*
X149215000Y-112408665D01*
X149215000Y-112691335D01*
X149270147Y-112968574D01*
X149378320Y-113229727D01*
X149535363Y-113464759D01*
X149735241Y-113664637D01*
X149970273Y-113821680D01*
X150231426Y-113929853D01*
X150508665Y-113985000D01*
X150791335Y-113985000D01*
X151068574Y-113929853D01*
X151329727Y-113821680D01*
X151564759Y-113664637D01*
X151764637Y-113464759D01*
X151921680Y-113229727D01*
X152029853Y-112968574D01*
X152085000Y-112691335D01*
X152085000Y-112408665D01*
X156835000Y-112408665D01*
X156835000Y-112691335D01*
X156890147Y-112968574D01*
X156998320Y-113229727D01*
X157155363Y-113464759D01*
X157355241Y-113664637D01*
X157590273Y-113821680D01*
X157851426Y-113929853D01*
X158128665Y-113985000D01*
X158411335Y-113985000D01*
X158688574Y-113929853D01*
X158949727Y-113821680D01*
X159184759Y-113664637D01*
X159384637Y-113464759D01*
X159541680Y-113229727D01*
X159649853Y-112968574D01*
X159705000Y-112691335D01*
X159705000Y-112408665D01*
X159649853Y-112131426D01*
X159541680Y-111870273D01*
X159384637Y-111635241D01*
X159184759Y-111435363D01*
X158949727Y-111278320D01*
X158688574Y-111170147D01*
X158411335Y-111115000D01*
X158128665Y-111115000D01*
X157851426Y-111170147D01*
X157590273Y-111278320D01*
X157355241Y-111435363D01*
X157155363Y-111635241D01*
X156998320Y-111870273D01*
X156890147Y-112131426D01*
X156835000Y-112408665D01*
X152085000Y-112408665D01*
X152029853Y-112131426D01*
X151921680Y-111870273D01*
X151764637Y-111635241D01*
X151564759Y-111435363D01*
X151329727Y-111278320D01*
X151068574Y-111170147D01*
X150791335Y-111115000D01*
X150508665Y-111115000D01*
X150231426Y-111170147D01*
X149970273Y-111278320D01*
X149735241Y-111435363D01*
X149535363Y-111635241D01*
X149378320Y-111870273D01*
X149270147Y-112131426D01*
X149215000Y-112408665D01*
X135695936Y-112408665D01*
X143856968Y-104247634D01*
X143971068Y-104461101D01*
X144150392Y-104679608D01*
X144368899Y-104858932D01*
X144618192Y-104992182D01*
X144888691Y-105074236D01*
X145099508Y-105095000D01*
X145970199Y-105095000D01*
X149291312Y-108416114D01*
X149255000Y-108598665D01*
X149255000Y-108881335D01*
X149310147Y-109158574D01*
X149418320Y-109419727D01*
X149575363Y-109654759D01*
X149775241Y-109854637D01*
X150010273Y-110011680D01*
X150271426Y-110119853D01*
X150548665Y-110175000D01*
X150831335Y-110175000D01*
X151108574Y-110119853D01*
X151369727Y-110011680D01*
X151604759Y-109854637D01*
X151804637Y-109654759D01*
X151940000Y-109452173D01*
X152075363Y-109654759D01*
X152275241Y-109854637D01*
X152510273Y-110011680D01*
X152771426Y-110119853D01*
X153048665Y-110175000D01*
X153331335Y-110175000D01*
X153608574Y-110119853D01*
X153869727Y-110011680D01*
X154104759Y-109854637D01*
X154304637Y-109654759D01*
X154461680Y-109419727D01*
X154569853Y-109158574D01*
X154625000Y-108881335D01*
X154625000Y-108598665D01*
X154569853Y-108321426D01*
X154461680Y-108060273D01*
X154304637Y-107825241D01*
X154104759Y-107625363D01*
X153869727Y-107468320D01*
X153608574Y-107360147D01*
X153331335Y-107305000D01*
X153048665Y-107305000D01*
X152986807Y-107317305D01*
X151639449Y-105969947D01*
X151764637Y-105844759D01*
X151921680Y-105609727D01*
X152029853Y-105348574D01*
X152085000Y-105071335D01*
X152085000Y-104788665D01*
X156835000Y-104788665D01*
X156835000Y-105071335D01*
X156890147Y-105348574D01*
X156998320Y-105609727D01*
X157155363Y-105844759D01*
X157355241Y-106044637D01*
X157590273Y-106201680D01*
X157851426Y-106309853D01*
X158128665Y-106365000D01*
X158411335Y-106365000D01*
X158688574Y-106309853D01*
X158949727Y-106201680D01*
X159184759Y-106044637D01*
X159384637Y-105844759D01*
X159541680Y-105609727D01*
X159649853Y-105348574D01*
X159705000Y-105071335D01*
X159705000Y-104788665D01*
X159649853Y-104511426D01*
X159541680Y-104250273D01*
X159384637Y-104015241D01*
X159184759Y-103815363D01*
X158949727Y-103658320D01*
X158688574Y-103550147D01*
X158411335Y-103495000D01*
X158128665Y-103495000D01*
X157851426Y-103550147D01*
X157590273Y-103658320D01*
X157355241Y-103815363D01*
X157155363Y-104015241D01*
X156998320Y-104250273D01*
X156890147Y-104511426D01*
X156835000Y-104788665D01*
X152085000Y-104788665D01*
X152029853Y-104511426D01*
X151921680Y-104250273D01*
X151764637Y-104015241D01*
X151564759Y-103815363D01*
X151329727Y-103658320D01*
X151068574Y-103550147D01*
X150791335Y-103495000D01*
X150508665Y-103495000D01*
X150231426Y-103550147D01*
X149970273Y-103658320D01*
X149735241Y-103815363D01*
X149535363Y-104015241D01*
X149378320Y-104250273D01*
X149270147Y-104511426D01*
X149215000Y-104788665D01*
X149215000Y-105071335D01*
X149270147Y-105348574D01*
X149378320Y-105609727D01*
X149535363Y-105844759D01*
X149735241Y-106044637D01*
X149895843Y-106151948D01*
X149898411Y-106178015D01*
X149900998Y-106204285D01*
X149944454Y-106347546D01*
X150015026Y-106479576D01*
X150086201Y-106566302D01*
X150110000Y-106595301D01*
X150138998Y-106619099D01*
X150824898Y-107305000D01*
X150548665Y-107305000D01*
X150366114Y-107341312D01*
X147279341Y-104254540D01*
X147302182Y-104211808D01*
X147384236Y-103941309D01*
X147411943Y-103660000D01*
X147384236Y-103378691D01*
X147302182Y-103108192D01*
X147168932Y-102858899D01*
X147046629Y-102709872D01*
X147606304Y-102150198D01*
X147635301Y-102126401D01*
X147661632Y-102094317D01*
X147730274Y-102010677D01*
X147800846Y-101878647D01*
X147816755Y-101826201D01*
X147844303Y-101735386D01*
X147855300Y-101623733D01*
X147855300Y-101623723D01*
X147858976Y-101586401D01*
X147855300Y-101549078D01*
X147855300Y-100978665D01*
X149215000Y-100978665D01*
X149215000Y-101261335D01*
X149270147Y-101538574D01*
X149378320Y-101799727D01*
X149535363Y-102034759D01*
X149735241Y-102234637D01*
X149970273Y-102391680D01*
X150231426Y-102499853D01*
X150508665Y-102555000D01*
X150791335Y-102555000D01*
X151068574Y-102499853D01*
X151329727Y-102391680D01*
X151564759Y-102234637D01*
X151764637Y-102034759D01*
X151921680Y-101799727D01*
X152029853Y-101538574D01*
X152085000Y-101261335D01*
X152085000Y-100978665D01*
X152029853Y-100701426D01*
X151921680Y-100440273D01*
X151764637Y-100205241D01*
X151564759Y-100005363D01*
X151329727Y-99848320D01*
X151068574Y-99740147D01*
X150791335Y-99685000D01*
X150508665Y-99685000D01*
X150231426Y-99740147D01*
X149970273Y-99848320D01*
X149735241Y-100005363D01*
X149535363Y-100205241D01*
X149378320Y-100440273D01*
X149270147Y-100701426D01*
X149215000Y-100978665D01*
X147855300Y-100978665D01*
X147855300Y-98617333D01*
X147858977Y-98580000D01*
X147844303Y-98431014D01*
X147800846Y-98287753D01*
X147730274Y-98155724D01*
X147635301Y-98039999D01*
X147519576Y-97945026D01*
X147387547Y-97874454D01*
X147244286Y-97830997D01*
X147194139Y-97826058D01*
X147168932Y-97778899D01*
X146989608Y-97560392D01*
X146771101Y-97381068D01*
X146638142Y-97310000D01*
X146771101Y-97238932D01*
X146989608Y-97059608D01*
X146997493Y-97050000D01*
X149630604Y-97050000D01*
X149735241Y-97154637D01*
X149970273Y-97311680D01*
X150231426Y-97419853D01*
X150508665Y-97475000D01*
X150791335Y-97475000D01*
X151068574Y-97419853D01*
X151329727Y-97311680D01*
X151564759Y-97154637D01*
X151579747Y-97139649D01*
X156071101Y-101631003D01*
X156094899Y-101660001D01*
X156210624Y-101754974D01*
X156342653Y-101825546D01*
X156485914Y-101869003D01*
X156597567Y-101880000D01*
X156597575Y-101880000D01*
X156634900Y-101883676D01*
X156672225Y-101880000D01*
X157051957Y-101880000D01*
X157155363Y-102034759D01*
X157355241Y-102234637D01*
X157590273Y-102391680D01*
X157851426Y-102499853D01*
X158128665Y-102555000D01*
X158411335Y-102555000D01*
X158688574Y-102499853D01*
X158949727Y-102391680D01*
X159184759Y-102234637D01*
X159384637Y-102034759D01*
X159541680Y-101799727D01*
X159649853Y-101538574D01*
X159705000Y-101261335D01*
X159705000Y-100978665D01*
X159649853Y-100701426D01*
X159541680Y-100440273D01*
X159384637Y-100205241D01*
X159184759Y-100005363D01*
X158949727Y-99848320D01*
X158688574Y-99740147D01*
X158411335Y-99685000D01*
X158128665Y-99685000D01*
X157851426Y-99740147D01*
X157590273Y-99848320D01*
X157355241Y-100005363D01*
X157155363Y-100205241D01*
X157051957Y-100360000D01*
X156949702Y-100360000D01*
X153875130Y-97285428D01*
X153891514Y-97276671D01*
X153963097Y-97032702D01*
X153150000Y-96219605D01*
X153135858Y-96233748D01*
X152956253Y-96054143D01*
X152970395Y-96040000D01*
X153329605Y-96040000D01*
X154142702Y-96853097D01*
X154386671Y-96781514D01*
X154507571Y-96526004D01*
X154576300Y-96251816D01*
X154590217Y-95969488D01*
X154548787Y-95689870D01*
X154453603Y-95423708D01*
X154386671Y-95298486D01*
X154142702Y-95226903D01*
X153329605Y-96040000D01*
X152970395Y-96040000D01*
X152956253Y-96025858D01*
X153135858Y-95846253D01*
X153150000Y-95860395D01*
X153963097Y-95047298D01*
X153891514Y-94803329D01*
X153636004Y-94682429D01*
X153361816Y-94613700D01*
X153079488Y-94599783D01*
X152799870Y-94641213D01*
X152533708Y-94736397D01*
X152408486Y-94803329D01*
X152336903Y-95047296D01*
X152220630Y-94931023D01*
X152215377Y-94936276D01*
X148998104Y-91719003D01*
X148974301Y-91689999D01*
X148858576Y-91595026D01*
X148726547Y-91524454D01*
X148583286Y-91480997D01*
X148471633Y-91470000D01*
X148471622Y-91470000D01*
X148434300Y-91466324D01*
X148396978Y-91470000D01*
X147314864Y-91470000D01*
X147384236Y-91241309D01*
X147411943Y-90960000D01*
X147398023Y-90818665D01*
X149215000Y-90818665D01*
X149215000Y-91101335D01*
X149270147Y-91378574D01*
X149378320Y-91639727D01*
X149535363Y-91874759D01*
X149735241Y-92074637D01*
X149970273Y-92231680D01*
X150231426Y-92339853D01*
X150508665Y-92395000D01*
X150791335Y-92395000D01*
X151068574Y-92339853D01*
X151329727Y-92231680D01*
X151564759Y-92074637D01*
X151764637Y-91874759D01*
X151921680Y-91639727D01*
X152029853Y-91378574D01*
X152085000Y-91101335D01*
X152085000Y-90818665D01*
X156835000Y-90818665D01*
X156835000Y-91101335D01*
X156890147Y-91378574D01*
X156998320Y-91639727D01*
X157155363Y-91874759D01*
X157355241Y-92074637D01*
X157590273Y-92231680D01*
X157851426Y-92339853D01*
X158128665Y-92395000D01*
X158411335Y-92395000D01*
X158688574Y-92339853D01*
X158949727Y-92231680D01*
X159184759Y-92074637D01*
X159384637Y-91874759D01*
X159541680Y-91639727D01*
X159649853Y-91378574D01*
X159705000Y-91101335D01*
X159705000Y-90818665D01*
X159649853Y-90541426D01*
X159541680Y-90280273D01*
X159384637Y-90045241D01*
X159184759Y-89845363D01*
X158949727Y-89688320D01*
X158688574Y-89580147D01*
X158411335Y-89525000D01*
X158128665Y-89525000D01*
X157851426Y-89580147D01*
X157590273Y-89688320D01*
X157355241Y-89845363D01*
X157155363Y-90045241D01*
X156998320Y-90280273D01*
X156890147Y-90541426D01*
X156835000Y-90818665D01*
X152085000Y-90818665D01*
X152029853Y-90541426D01*
X151921680Y-90280273D01*
X151764637Y-90045241D01*
X151564759Y-89845363D01*
X151329727Y-89688320D01*
X151068574Y-89580147D01*
X150791335Y-89525000D01*
X150508665Y-89525000D01*
X150231426Y-89580147D01*
X149970273Y-89688320D01*
X149735241Y-89845363D01*
X149535363Y-90045241D01*
X149378320Y-90280273D01*
X149270147Y-90541426D01*
X149215000Y-90818665D01*
X147398023Y-90818665D01*
X147384236Y-90678691D01*
X147302182Y-90408192D01*
X147168932Y-90158899D01*
X146989608Y-89940392D01*
X146771101Y-89761068D01*
X146638142Y-89690000D01*
X146771101Y-89618932D01*
X146989608Y-89439608D01*
X147168932Y-89221101D01*
X147302182Y-88971808D01*
X147384236Y-88701309D01*
X147411943Y-88420000D01*
X147384236Y-88138691D01*
X147302182Y-87868192D01*
X147168932Y-87618899D01*
X146989608Y-87400392D01*
X146771101Y-87221068D01*
X146521808Y-87087818D01*
X146260873Y-87008665D01*
X149215000Y-87008665D01*
X149215000Y-87291335D01*
X149270147Y-87568574D01*
X149378320Y-87829727D01*
X149535363Y-88064759D01*
X149735241Y-88264637D01*
X149970273Y-88421680D01*
X150231426Y-88529853D01*
X150508665Y-88585000D01*
X150791335Y-88585000D01*
X151068574Y-88529853D01*
X151329727Y-88421680D01*
X151564759Y-88264637D01*
X151764637Y-88064759D01*
X151921680Y-87829727D01*
X152029853Y-87568574D01*
X152085000Y-87291335D01*
X152085000Y-87008665D01*
X156835000Y-87008665D01*
X156835000Y-87291335D01*
X156890147Y-87568574D01*
X156998320Y-87829727D01*
X157155363Y-88064759D01*
X157355241Y-88264637D01*
X157590273Y-88421680D01*
X157851426Y-88529853D01*
X158128665Y-88585000D01*
X158411335Y-88585000D01*
X158688574Y-88529853D01*
X158949727Y-88421680D01*
X159184759Y-88264637D01*
X159384637Y-88064759D01*
X159541680Y-87829727D01*
X159649853Y-87568574D01*
X159705000Y-87291335D01*
X159705000Y-87008665D01*
X159649853Y-86731426D01*
X159541680Y-86470273D01*
X159384637Y-86235241D01*
X159184759Y-86035363D01*
X158949727Y-85878320D01*
X158688574Y-85770147D01*
X158411335Y-85715000D01*
X158128665Y-85715000D01*
X157851426Y-85770147D01*
X157590273Y-85878320D01*
X157355241Y-86035363D01*
X157155363Y-86235241D01*
X156998320Y-86470273D01*
X156890147Y-86731426D01*
X156835000Y-87008665D01*
X152085000Y-87008665D01*
X152029853Y-86731426D01*
X151921680Y-86470273D01*
X151764637Y-86235241D01*
X151639449Y-86110053D01*
X152986807Y-84762695D01*
X153048665Y-84775000D01*
X153331335Y-84775000D01*
X153608574Y-84719853D01*
X153869727Y-84611680D01*
X154104759Y-84454637D01*
X154304637Y-84254759D01*
X154461680Y-84019727D01*
X154569853Y-83758574D01*
X154625000Y-83481335D01*
X154625000Y-83198665D01*
X154569853Y-82921426D01*
X154461680Y-82660273D01*
X154304637Y-82425241D01*
X154104759Y-82225363D01*
X153869727Y-82068320D01*
X153608574Y-81960147D01*
X153331335Y-81905000D01*
X153048665Y-81905000D01*
X152771426Y-81960147D01*
X152510273Y-82068320D01*
X152275241Y-82225363D01*
X152075363Y-82425241D01*
X151940000Y-82627827D01*
X151804637Y-82425241D01*
X151604759Y-82225363D01*
X151369727Y-82068320D01*
X151108574Y-81960147D01*
X150831335Y-81905000D01*
X150548665Y-81905000D01*
X150271426Y-81960147D01*
X150010273Y-82068320D01*
X149775241Y-82225363D01*
X149575363Y-82425241D01*
X149418320Y-82660273D01*
X149310147Y-82921426D01*
X149255000Y-83198665D01*
X149255000Y-83481335D01*
X149310147Y-83758574D01*
X149418320Y-84019727D01*
X149575363Y-84254759D01*
X149775241Y-84454637D01*
X150010273Y-84611680D01*
X150271426Y-84719853D01*
X150548665Y-84775000D01*
X150824898Y-84775000D01*
X150138998Y-85460901D01*
X150110000Y-85484699D01*
X150086202Y-85513697D01*
X150086201Y-85513698D01*
X150015026Y-85600424D01*
X149944454Y-85732454D01*
X149900998Y-85875715D01*
X149895843Y-85928052D01*
X149735241Y-86035363D01*
X149535363Y-86235241D01*
X149378320Y-86470273D01*
X149270147Y-86731426D01*
X149215000Y-87008665D01*
X146260873Y-87008665D01*
X146251309Y-87005764D01*
X146040492Y-86985000D01*
X145099508Y-86985000D01*
X144888691Y-87005764D01*
X144618192Y-87087818D01*
X144368899Y-87221068D01*
X144150392Y-87400392D01*
X143971068Y-87618899D01*
X143837818Y-87868192D01*
X143755764Y-88138691D01*
X143728057Y-88420000D01*
X143755764Y-88701309D01*
X143837818Y-88971808D01*
X143971068Y-89221101D01*
X144150392Y-89439608D01*
X144368899Y-89618932D01*
X144501858Y-89690000D01*
X144368899Y-89761068D01*
X144150392Y-89940392D01*
X143971068Y-90158899D01*
X143837818Y-90408192D01*
X143755764Y-90678691D01*
X143728057Y-90960000D01*
X143755764Y-91241309D01*
X143825136Y-91470000D01*
X143600102Y-91470000D01*
X140039104Y-87909003D01*
X140015301Y-87879999D01*
X139899576Y-87785026D01*
X139788072Y-87725425D01*
X139788072Y-87620000D01*
X139775812Y-87495518D01*
X139739502Y-87375820D01*
X139680537Y-87265506D01*
X139601185Y-87168815D01*
X139504494Y-87089463D01*
X139394180Y-87030498D01*
X139274482Y-86994188D01*
X139150000Y-86981928D01*
X136750000Y-86981928D01*
X136625518Y-86994188D01*
X136505820Y-87030498D01*
X136395506Y-87089463D01*
X136298815Y-87168815D01*
X136219463Y-87265506D01*
X136160498Y-87375820D01*
X136124188Y-87495518D01*
X136111928Y-87620000D01*
X136111928Y-88047127D01*
X134703804Y-86639003D01*
X134680001Y-86609999D01*
X134564276Y-86515026D01*
X134432247Y-86444454D01*
X134288986Y-86400997D01*
X134177333Y-86390000D01*
X134177322Y-86390000D01*
X134140000Y-86386324D01*
X134102678Y-86390000D01*
X134088043Y-86390000D01*
X133984637Y-86235241D01*
X133784759Y-86035363D01*
X133549727Y-85878320D01*
X133288574Y-85770147D01*
X133011335Y-85715000D01*
X132728665Y-85715000D01*
X132451426Y-85770147D01*
X132190273Y-85878320D01*
X131955241Y-86035363D01*
X131755363Y-86235241D01*
X131598320Y-86470273D01*
X131490147Y-86731426D01*
X131435000Y-87008665D01*
X131435000Y-87291335D01*
X131490147Y-87568574D01*
X131598320Y-87829727D01*
X131755363Y-88064759D01*
X131955241Y-88264637D01*
X132190273Y-88421680D01*
X132451426Y-88529853D01*
X132728665Y-88585000D01*
X133011335Y-88585000D01*
X133288574Y-88529853D01*
X133549727Y-88421680D01*
X133784759Y-88264637D01*
X133982297Y-88067099D01*
X136254592Y-90339393D01*
X136217818Y-90408192D01*
X136135764Y-90678691D01*
X136108057Y-90960000D01*
X136135764Y-91241309D01*
X136217818Y-91511808D01*
X136351068Y-91761101D01*
X136530392Y-91979608D01*
X136748899Y-92158932D01*
X136876741Y-92227265D01*
X136647161Y-92377399D01*
X136445500Y-92575105D01*
X136286285Y-92808354D01*
X136175633Y-93068182D01*
X136158096Y-93150961D01*
X136280085Y-93373000D01*
X137823000Y-93373000D01*
X137823000Y-93353000D01*
X138077000Y-93353000D01*
X138077000Y-93373000D01*
X139619915Y-93373000D01*
X139741904Y-93150961D01*
X139724367Y-93068182D01*
X139613715Y-92808354D01*
X139454500Y-92575105D01*
X139252839Y-92377399D01*
X139023259Y-92227265D01*
X139151101Y-92158932D01*
X139369608Y-91979608D01*
X139548932Y-91761101D01*
X139682182Y-91511808D01*
X139764236Y-91241309D01*
X139791943Y-90960000D01*
X139764236Y-90678691D01*
X139682182Y-90408192D01*
X139548932Y-90158899D01*
X139369608Y-89940392D01*
X139256518Y-89847581D01*
X139274482Y-89845812D01*
X139394180Y-89809502D01*
X139504494Y-89750537D01*
X139601185Y-89671185D01*
X139623948Y-89643449D01*
X142721500Y-92741002D01*
X142745299Y-92770001D01*
X142861024Y-92864974D01*
X142993053Y-92935546D01*
X143136314Y-92979003D01*
X143247967Y-92990000D01*
X143247975Y-92990000D01*
X143285300Y-92993676D01*
X143322625Y-92990000D01*
X143479898Y-92990000D01*
X139482003Y-96987896D01*
X139452999Y-97011699D01*
X139397871Y-97078874D01*
X139358026Y-97127424D01*
X139337533Y-97165764D01*
X139287454Y-97259454D01*
X139243997Y-97402715D01*
X139239022Y-97453223D01*
X139151101Y-97381068D01*
X139018142Y-97310000D01*
X139151101Y-97238932D01*
X139369608Y-97059608D01*
X139548932Y-96841101D01*
X139682182Y-96591808D01*
X139764236Y-96321309D01*
X139791943Y-96040000D01*
X139764236Y-95758691D01*
X139682182Y-95488192D01*
X139548932Y-95238899D01*
X139369608Y-95020392D01*
X139151101Y-94841068D01*
X139023259Y-94772735D01*
X139252839Y-94622601D01*
X139454500Y-94424895D01*
X139613715Y-94191646D01*
X139724367Y-93931818D01*
X139741904Y-93849039D01*
X139619915Y-93627000D01*
X138077000Y-93627000D01*
X138077000Y-93647000D01*
X137823000Y-93647000D01*
X137823000Y-93627000D01*
X136280085Y-93627000D01*
X136158096Y-93849039D01*
X136175633Y-93931818D01*
X136286285Y-94191646D01*
X136445500Y-94424895D01*
X136647161Y-94622601D01*
X136876741Y-94772735D01*
X136748899Y-94841068D01*
X136530392Y-95020392D01*
X136522507Y-95030000D01*
X133889396Y-95030000D01*
X133784759Y-94925363D01*
X133549727Y-94768320D01*
X133288574Y-94660147D01*
X133011335Y-94605000D01*
X132863356Y-94605000D01*
X129914661Y-91656306D01*
X129883033Y-91617767D01*
X129729240Y-91491553D01*
X129553780Y-91397768D01*
X129363394Y-91340015D01*
X129215008Y-91325400D01*
X129165400Y-91320514D01*
X129115792Y-91325400D01*
X127043756Y-91325400D01*
X122727021Y-87008665D01*
X123815000Y-87008665D01*
X123815000Y-87291335D01*
X123870147Y-87568574D01*
X123978320Y-87829727D01*
X124135363Y-88064759D01*
X124335241Y-88264637D01*
X124570273Y-88421680D01*
X124831426Y-88529853D01*
X125108665Y-88585000D01*
X125391335Y-88585000D01*
X125668574Y-88529853D01*
X125929727Y-88421680D01*
X126164759Y-88264637D01*
X126364637Y-88064759D01*
X126521680Y-87829727D01*
X126629853Y-87568574D01*
X126685000Y-87291335D01*
X126685000Y-87008665D01*
X126629853Y-86731426D01*
X126521680Y-86470273D01*
X126364637Y-86235241D01*
X126164759Y-86035363D01*
X125929727Y-85878320D01*
X125668574Y-85770147D01*
X125391335Y-85715000D01*
X125108665Y-85715000D01*
X124831426Y-85770147D01*
X124570273Y-85878320D01*
X124335241Y-86035363D01*
X124135363Y-86235241D01*
X123978320Y-86470273D01*
X123870147Y-86731426D01*
X123815000Y-87008665D01*
X122727021Y-87008665D01*
X120321669Y-84603314D01*
X120371514Y-84576671D01*
X120443097Y-84332702D01*
X119630000Y-83519605D01*
X119615858Y-83533748D01*
X119436253Y-83354143D01*
X119450395Y-83340000D01*
X119809605Y-83340000D01*
X120622702Y-84153097D01*
X120866671Y-84081514D01*
X120987571Y-83826004D01*
X121056300Y-83551816D01*
X121070217Y-83269488D01*
X121028787Y-82989870D01*
X120933603Y-82723708D01*
X120866671Y-82598486D01*
X120622702Y-82526903D01*
X119809605Y-83340000D01*
X119450395Y-83340000D01*
X119436253Y-83325858D01*
X119615858Y-83146253D01*
X119630000Y-83160395D01*
X120443097Y-82347298D01*
X120371514Y-82103329D01*
X120116004Y-81982429D01*
X119841816Y-81913700D01*
X119559488Y-81899783D01*
X119279870Y-81941213D01*
X119013708Y-82036397D01*
X118891691Y-82101616D01*
X118881185Y-82088815D01*
X118784494Y-82009463D01*
X118674180Y-81950498D01*
X118554482Y-81914188D01*
X118430000Y-81901928D01*
X116830000Y-81901928D01*
X116705518Y-81914188D01*
X116585820Y-81950498D01*
X116475506Y-82009463D01*
X116378815Y-82088815D01*
X116299463Y-82185506D01*
X116240498Y-82295820D01*
X116230130Y-82330000D01*
X114288072Y-82330000D01*
X114288072Y-82240000D01*
X114275812Y-82115518D01*
X114239502Y-81995820D01*
X114180537Y-81885506D01*
X114101185Y-81788815D01*
X114004494Y-81709463D01*
X113894180Y-81650498D01*
X113774482Y-81614188D01*
X113650000Y-81601928D01*
X111450000Y-81601928D01*
X111325518Y-81614188D01*
X111205820Y-81650498D01*
X111095506Y-81709463D01*
X110998815Y-81788815D01*
X110919463Y-81885506D01*
X110860498Y-81995820D01*
X110824188Y-82115518D01*
X110811928Y-82240000D01*
X110811928Y-84440000D01*
X110824188Y-84564482D01*
X110860498Y-84684180D01*
X110919463Y-84794494D01*
X110998815Y-84891185D01*
X111095506Y-84970537D01*
X111205820Y-85029502D01*
X111325518Y-85065812D01*
X111450000Y-85078072D01*
X113650000Y-85078072D01*
X113774482Y-85065812D01*
X113894180Y-85029502D01*
X114004494Y-84970537D01*
X114101185Y-84891185D01*
X114180537Y-84794494D01*
X114239502Y-84684180D01*
X114275812Y-84564482D01*
X114288072Y-84440000D01*
X114288072Y-84350000D01*
X116230130Y-84350000D01*
X116240498Y-84384180D01*
X116299463Y-84494494D01*
X116378815Y-84591185D01*
X116475506Y-84670537D01*
X116585820Y-84729502D01*
X116705518Y-84765812D01*
X116830000Y-84778072D01*
X117639717Y-84778072D01*
X125876143Y-93014499D01*
X125907767Y-93053033D01*
X126061560Y-93179247D01*
X126135355Y-93218691D01*
X126237020Y-93273032D01*
X126427405Y-93330785D01*
X126625400Y-93350286D01*
X126675008Y-93345400D01*
X128747045Y-93345400D01*
X130039891Y-94638247D01*
X130019870Y-94641213D01*
X129753708Y-94736397D01*
X129628486Y-94803329D01*
X129556903Y-95047298D01*
X130370000Y-95860395D01*
X130384143Y-95846253D01*
X130563748Y-96025858D01*
X130549605Y-96040000D01*
X131362702Y-96853097D01*
X131606671Y-96781514D01*
X131620324Y-96752659D01*
X131755363Y-96954759D01*
X131955241Y-97154637D01*
X132190273Y-97311680D01*
X132451426Y-97419853D01*
X132728665Y-97475000D01*
X133011335Y-97475000D01*
X133288574Y-97419853D01*
X133549727Y-97311680D01*
X133784759Y-97154637D01*
X133889396Y-97050000D01*
X136522507Y-97050000D01*
X136530392Y-97059608D01*
X136748899Y-97238932D01*
X136881858Y-97310000D01*
X136748899Y-97381068D01*
X136530392Y-97560392D01*
X136351068Y-97778899D01*
X136217818Y-98028192D01*
X136135764Y-98298691D01*
X136108057Y-98580000D01*
X136135764Y-98861309D01*
X136217818Y-99131808D01*
X136351068Y-99381101D01*
X136530392Y-99599608D01*
X136748899Y-99778932D01*
X136881858Y-99850000D01*
X136748899Y-99921068D01*
X136530392Y-100100392D01*
X136351068Y-100318899D01*
X136217818Y-100568192D01*
X136135764Y-100838691D01*
X136108057Y-101120000D01*
X136135764Y-101401309D01*
X136217818Y-101671808D01*
X136351068Y-101921101D01*
X136530392Y-102139608D01*
X136748899Y-102318932D01*
X136881858Y-102390000D01*
X136748899Y-102461068D01*
X136530392Y-102640392D01*
X136351068Y-102858899D01*
X136217818Y-103108192D01*
X136135764Y-103378691D01*
X136108057Y-103660000D01*
X136135764Y-103941309D01*
X136217818Y-104211808D01*
X136254592Y-104280607D01*
X134968199Y-105567000D01*
X134159378Y-105567000D01*
X134249853Y-105348574D01*
X134305000Y-105071335D01*
X134305000Y-104788665D01*
X134249853Y-104511426D01*
X134141680Y-104250273D01*
X133984637Y-104015241D01*
X133784759Y-103815363D01*
X133549727Y-103658320D01*
X133288574Y-103550147D01*
X133011335Y-103495000D01*
X132728665Y-103495000D01*
X132451426Y-103550147D01*
X132190273Y-103658320D01*
X131955241Y-103815363D01*
X131755363Y-104015241D01*
X131598320Y-104250273D01*
X131490147Y-104511426D01*
X131435000Y-104788665D01*
X131435000Y-105071335D01*
X131490147Y-105348574D01*
X131580622Y-105567000D01*
X126961802Y-105567000D01*
X126648688Y-105253886D01*
X126685000Y-105071335D01*
X126685000Y-104788665D01*
X126629853Y-104511426D01*
X126521680Y-104250273D01*
X126364637Y-104015241D01*
X126164759Y-103815363D01*
X125929727Y-103658320D01*
X125668574Y-103550147D01*
X125391335Y-103495000D01*
X125108665Y-103495000D01*
X124831426Y-103550147D01*
X124570273Y-103658320D01*
X124335241Y-103815363D01*
X124135363Y-104015241D01*
X123978320Y-104250273D01*
X123870147Y-104511426D01*
X123815000Y-104788665D01*
X123815000Y-105071335D01*
X123870147Y-105348574D01*
X123978320Y-105609727D01*
X124135363Y-105844759D01*
X124335241Y-106044637D01*
X124570273Y-106201680D01*
X124831426Y-106309853D01*
X125108665Y-106365000D01*
X125391335Y-106365000D01*
X125573886Y-106328688D01*
X126083201Y-106838003D01*
X126106999Y-106867001D01*
X126222724Y-106961974D01*
X126354753Y-107032546D01*
X126498014Y-107076003D01*
X126609667Y-107087000D01*
X126609676Y-107087000D01*
X126646999Y-107090676D01*
X126684322Y-107087000D01*
X135245678Y-107087000D01*
X135283000Y-107090676D01*
X135320322Y-107087000D01*
X135320333Y-107087000D01*
X135431986Y-107076003D01*
X135460057Y-107067488D01*
X133146545Y-109381000D01*
X121067122Y-109381000D01*
X121065000Y-109025750D01*
X120906250Y-108867000D01*
X119757000Y-108867000D01*
X119757000Y-108887000D01*
X119503000Y-108887000D01*
X119503000Y-108867000D01*
X119483000Y-108867000D01*
X119483000Y-108613000D01*
X119503000Y-108613000D01*
X119503000Y-107463750D01*
X119757000Y-107463750D01*
X119757000Y-108613000D01*
X120906250Y-108613000D01*
X121065000Y-108454250D01*
X121068072Y-107940000D01*
X121055812Y-107815518D01*
X121019502Y-107695820D01*
X120960537Y-107585506D01*
X120881185Y-107488815D01*
X120784494Y-107409463D01*
X120674180Y-107350498D01*
X120554482Y-107314188D01*
X120430000Y-107301928D01*
X119915750Y-107305000D01*
X119757000Y-107463750D01*
X119503000Y-107463750D01*
X119344250Y-107305000D01*
X118830000Y-107301928D01*
X118705518Y-107314188D01*
X118585820Y-107350498D01*
X118475506Y-107409463D01*
X118378815Y-107488815D01*
X118365210Y-107505393D01*
X118309727Y-107468320D01*
X118048574Y-107360147D01*
X117771335Y-107305000D01*
X117488665Y-107305000D01*
X117211426Y-107360147D01*
X116950273Y-107468320D01*
X116715241Y-107625363D01*
X116610604Y-107730000D01*
X113961807Y-107730000D01*
X113897663Y-107634002D01*
X113655998Y-107392337D01*
X113371831Y-107202463D01*
X113056081Y-107071675D01*
X112720883Y-107005000D01*
X112379117Y-107005000D01*
X112043919Y-107071675D01*
X111728169Y-107202463D01*
X111444002Y-107392337D01*
X111202337Y-107634002D01*
X111012463Y-107918169D01*
X110881675Y-108233919D01*
X110815000Y-108569117D01*
X110815000Y-108910883D01*
X110881675Y-109246081D01*
X111012463Y-109561831D01*
X111202337Y-109845998D01*
X111444002Y-110087663D01*
X111728169Y-110277537D01*
X112043919Y-110408325D01*
X112379117Y-110475000D01*
X112720883Y-110475000D01*
X113056081Y-110408325D01*
X113371831Y-110277537D01*
X113655998Y-110087663D01*
X113897663Y-109845998D01*
X113961807Y-109750000D01*
X116610604Y-109750000D01*
X116628826Y-109768222D01*
X116634615Y-109826994D01*
X116692368Y-110017379D01*
X116692369Y-110017380D01*
X116786154Y-110192840D01*
X116912368Y-110346633D01*
X116950901Y-110378256D01*
X117642743Y-111070099D01*
X117674367Y-111108633D01*
X117828160Y-111234847D01*
X117909493Y-111278320D01*
X118003620Y-111328632D01*
X118194005Y-111386385D01*
X118392000Y-111405886D01*
X118441608Y-111401000D01*
X133515292Y-111401000D01*
X133564900Y-111405886D01*
X133762894Y-111386385D01*
X133953280Y-111328632D01*
X134128740Y-111234847D01*
X134282533Y-111108633D01*
X134314161Y-111070094D01*
X141677100Y-103707156D01*
X141715633Y-103675533D01*
X141841847Y-103521740D01*
X141935632Y-103346280D01*
X141993385Y-103155894D01*
X141993604Y-103153676D01*
X142012886Y-102957900D01*
X142008000Y-102908292D01*
X142008000Y-99125355D01*
X144083356Y-97050000D01*
X144142507Y-97050000D01*
X144150392Y-97059608D01*
X144368899Y-97238932D01*
X144501858Y-97310000D01*
X144368899Y-97381068D01*
X144150392Y-97560392D01*
X143971068Y-97778899D01*
X143837818Y-98028192D01*
X143755764Y-98298691D01*
X143728057Y-98580000D01*
X143755764Y-98861309D01*
X143837818Y-99131808D01*
X143971068Y-99381101D01*
X144150392Y-99599608D01*
X144368899Y-99778932D01*
X144501858Y-99850000D01*
X144368899Y-99921068D01*
X144150392Y-100100392D01*
X143971068Y-100318899D01*
X143837818Y-100568192D01*
X143755764Y-100838691D01*
X143728057Y-101120000D01*
X143755764Y-101401309D01*
X143837818Y-101671808D01*
X143971068Y-101921101D01*
X143999388Y-101955610D01*
X131878999Y-114076000D01*
X125541322Y-114076000D01*
X125503999Y-114072324D01*
X125466676Y-114076000D01*
X125466667Y-114076000D01*
X125355014Y-114086997D01*
X125211753Y-114130454D01*
X125079724Y-114201026D01*
X124963999Y-114295999D01*
X124940201Y-114324997D01*
X114143887Y-125121312D01*
X113961335Y-125085000D01*
X113678665Y-125085000D01*
X113401426Y-125140147D01*
X113140273Y-125248320D01*
X112905241Y-125405363D01*
X112705363Y-125605241D01*
X112601957Y-125760000D01*
X111448072Y-125760000D01*
X111448072Y-125720000D01*
X111435812Y-125595518D01*
X111399502Y-125475820D01*
X111340537Y-125365506D01*
X111261185Y-125268815D01*
X111164494Y-125189463D01*
X111054180Y-125130498D01*
X110934482Y-125094188D01*
X110810000Y-125081928D01*
X109210000Y-125081928D01*
X109085518Y-125094188D01*
X108965820Y-125130498D01*
X108855506Y-125189463D01*
X108758815Y-125268815D01*
X108679463Y-125365506D01*
X108620498Y-125475820D01*
X108584188Y-125595518D01*
X108571928Y-125720000D01*
X108571928Y-125760000D01*
X107418043Y-125760000D01*
X107314637Y-125605241D01*
X107114759Y-125405363D01*
X106879727Y-125248320D01*
X106618574Y-125140147D01*
X106341335Y-125085000D01*
X106058665Y-125085000D01*
X105781426Y-125140147D01*
X105520273Y-125248320D01*
X105285241Y-125405363D01*
X105085363Y-125605241D01*
X104928320Y-125840273D01*
X104820147Y-126101426D01*
X104765000Y-126378665D01*
X103668454Y-126378665D01*
X103781909Y-126170960D01*
X103687070Y-125906119D01*
X103542385Y-125664869D01*
X103353414Y-125456481D01*
X103127420Y-125288963D01*
X102873087Y-125168754D01*
X102739039Y-125128096D01*
X102517000Y-125250085D01*
X102263000Y-125250085D01*
X102040961Y-125128096D01*
X101906913Y-125168754D01*
X101652580Y-125288963D01*
X101426586Y-125456481D01*
X101237615Y-125664869D01*
X101092930Y-125906119D01*
X100998091Y-126170960D01*
X99973685Y-126170960D01*
X99959853Y-126101426D01*
X99851680Y-125840273D01*
X99694637Y-125605241D01*
X99494759Y-125405363D01*
X99259727Y-125248320D01*
X98998574Y-125140147D01*
X98721335Y-125085000D01*
X98438665Y-125085000D01*
X98161426Y-125140147D01*
X97900273Y-125248320D01*
X97665241Y-125405363D01*
X97465363Y-125605241D01*
X97308320Y-125840273D01*
X97200147Y-126101426D01*
X97145000Y-126378665D01*
X93685000Y-126378665D01*
X93685000Y-118758665D01*
X97145000Y-118758665D01*
X97145000Y-119041335D01*
X97200147Y-119318574D01*
X97308320Y-119579727D01*
X97465363Y-119814759D01*
X97665241Y-120014637D01*
X97900273Y-120171680D01*
X98161426Y-120279853D01*
X98438665Y-120335000D01*
X98721335Y-120335000D01*
X98998574Y-120279853D01*
X99259727Y-120171680D01*
X99494759Y-120014637D01*
X99694637Y-119814759D01*
X99798043Y-119660000D01*
X101171957Y-119660000D01*
X101275363Y-119814759D01*
X101475241Y-120014637D01*
X101710273Y-120171680D01*
X101971426Y-120279853D01*
X102248665Y-120335000D01*
X102531335Y-120335000D01*
X102808574Y-120279853D01*
X103069727Y-120171680D01*
X103304759Y-120014637D01*
X103504637Y-119814759D01*
X103608043Y-119660000D01*
X104761928Y-119660000D01*
X104761928Y-119700000D01*
X104774188Y-119824482D01*
X104810498Y-119944180D01*
X104869463Y-120054494D01*
X104948815Y-120151185D01*
X105045506Y-120230537D01*
X105155820Y-120289502D01*
X105275518Y-120325812D01*
X105400000Y-120338072D01*
X107000000Y-120338072D01*
X107124482Y-120325812D01*
X107244180Y-120289502D01*
X107354494Y-120230537D01*
X107451185Y-120151185D01*
X107530537Y-120054494D01*
X107589502Y-119944180D01*
X107625812Y-119824482D01*
X107638072Y-119700000D01*
X107638072Y-119660000D01*
X108791957Y-119660000D01*
X108895363Y-119814759D01*
X109095241Y-120014637D01*
X109330273Y-120171680D01*
X109591426Y-120279853D01*
X109868665Y-120335000D01*
X110151335Y-120335000D01*
X110428574Y-120279853D01*
X110689727Y-120171680D01*
X110924759Y-120014637D01*
X111124637Y-119814759D01*
X111281680Y-119579727D01*
X111389853Y-119318574D01*
X111403684Y-119249040D01*
X112428091Y-119249040D01*
X112522930Y-119513881D01*
X112667615Y-119755131D01*
X112856586Y-119963519D01*
X113082580Y-120131037D01*
X113336913Y-120251246D01*
X113470961Y-120291904D01*
X113693000Y-120169915D01*
X113693000Y-119027000D01*
X113947000Y-119027000D01*
X113947000Y-120169915D01*
X114169039Y-120291904D01*
X114303087Y-120251246D01*
X114557420Y-120131037D01*
X114783414Y-119963519D01*
X114972385Y-119755131D01*
X115117070Y-119513881D01*
X115211909Y-119249040D01*
X115090624Y-119027000D01*
X113947000Y-119027000D01*
X113693000Y-119027000D01*
X112549376Y-119027000D01*
X112428091Y-119249040D01*
X111403684Y-119249040D01*
X111445000Y-119041335D01*
X111445000Y-118758665D01*
X111403685Y-118550960D01*
X112428091Y-118550960D01*
X112549376Y-118773000D01*
X113693000Y-118773000D01*
X113693000Y-117630085D01*
X113947000Y-117630085D01*
X113947000Y-118773000D01*
X115090624Y-118773000D01*
X115211909Y-118550960D01*
X115117070Y-118286119D01*
X114972385Y-118044869D01*
X114783414Y-117836481D01*
X114557420Y-117668963D01*
X114303087Y-117548754D01*
X114169039Y-117508096D01*
X113947000Y-117630085D01*
X113693000Y-117630085D01*
X113470961Y-117508096D01*
X113336913Y-117548754D01*
X113082580Y-117668963D01*
X112856586Y-117836481D01*
X112667615Y-118044869D01*
X112522930Y-118286119D01*
X112428091Y-118550960D01*
X111403685Y-118550960D01*
X111389853Y-118481426D01*
X111281680Y-118220273D01*
X111124637Y-117985241D01*
X110924759Y-117785363D01*
X110689727Y-117628320D01*
X110428574Y-117520147D01*
X110151335Y-117465000D01*
X109868665Y-117465000D01*
X109591426Y-117520147D01*
X109330273Y-117628320D01*
X109095241Y-117785363D01*
X108895363Y-117985241D01*
X108791957Y-118140000D01*
X107638072Y-118140000D01*
X107638072Y-118100000D01*
X107625812Y-117975518D01*
X107589502Y-117855820D01*
X107530537Y-117745506D01*
X107451185Y-117648815D01*
X107354494Y-117569463D01*
X107244180Y-117510498D01*
X107124482Y-117474188D01*
X107000000Y-117461928D01*
X105400000Y-117461928D01*
X105275518Y-117474188D01*
X105155820Y-117510498D01*
X105045506Y-117569463D01*
X104948815Y-117648815D01*
X104869463Y-117745506D01*
X104810498Y-117855820D01*
X104774188Y-117975518D01*
X104761928Y-118100000D01*
X104761928Y-118140000D01*
X103608043Y-118140000D01*
X103504637Y-117985241D01*
X103304759Y-117785363D01*
X103069727Y-117628320D01*
X102808574Y-117520147D01*
X102531335Y-117465000D01*
X102248665Y-117465000D01*
X101971426Y-117520147D01*
X101710273Y-117628320D01*
X101475241Y-117785363D01*
X101275363Y-117985241D01*
X101171957Y-118140000D01*
X99798043Y-118140000D01*
X99694637Y-117985241D01*
X99494759Y-117785363D01*
X99259727Y-117628320D01*
X98998574Y-117520147D01*
X98721335Y-117465000D01*
X98438665Y-117465000D01*
X98161426Y-117520147D01*
X97900273Y-117628320D01*
X97665241Y-117785363D01*
X97465363Y-117985241D01*
X97308320Y-118220273D01*
X97200147Y-118481426D01*
X97145000Y-118758665D01*
X93685000Y-118758665D01*
X93685000Y-100972401D01*
X100891400Y-100972401D01*
X100891400Y-101267599D01*
X100948990Y-101557125D01*
X101061958Y-101829853D01*
X101225961Y-102075302D01*
X101434698Y-102284039D01*
X101680147Y-102448042D01*
X101952875Y-102561010D01*
X102242401Y-102618600D01*
X102537599Y-102618600D01*
X102827125Y-102561010D01*
X103099853Y-102448042D01*
X103345302Y-102284039D01*
X103459364Y-102169977D01*
X103476898Y-102227780D01*
X103535863Y-102338094D01*
X103615215Y-102434785D01*
X103711906Y-102514137D01*
X103822220Y-102573102D01*
X103941918Y-102609412D01*
X104066400Y-102621672D01*
X105793600Y-102621672D01*
X105918082Y-102609412D01*
X106037780Y-102573102D01*
X106148094Y-102514137D01*
X106244785Y-102434785D01*
X106324137Y-102338094D01*
X106383102Y-102227780D01*
X106412763Y-102130000D01*
X110811928Y-102130000D01*
X110811928Y-102220000D01*
X110824188Y-102344482D01*
X110860498Y-102464180D01*
X110919463Y-102574494D01*
X110998815Y-102671185D01*
X111095506Y-102750537D01*
X111205820Y-102809502D01*
X111325518Y-102845812D01*
X111450000Y-102858072D01*
X113650000Y-102858072D01*
X113774482Y-102845812D01*
X113894180Y-102809502D01*
X114004494Y-102750537D01*
X114101185Y-102671185D01*
X114180537Y-102574494D01*
X114239502Y-102464180D01*
X114275812Y-102344482D01*
X114288072Y-102220000D01*
X114288072Y-101469039D01*
X123858096Y-101469039D01*
X123898754Y-101603087D01*
X124018963Y-101857420D01*
X124186481Y-102083414D01*
X124394869Y-102272385D01*
X124636119Y-102417070D01*
X124900960Y-102511909D01*
X125123000Y-102390624D01*
X125123000Y-101247000D01*
X125377000Y-101247000D01*
X125377000Y-102390624D01*
X125599040Y-102511909D01*
X125863881Y-102417070D01*
X126105131Y-102272385D01*
X126313519Y-102083414D01*
X126481037Y-101857420D01*
X126601246Y-101603087D01*
X126641904Y-101469039D01*
X126519915Y-101247000D01*
X125377000Y-101247000D01*
X125123000Y-101247000D01*
X123980085Y-101247000D01*
X123858096Y-101469039D01*
X114288072Y-101469039D01*
X114288072Y-100770961D01*
X123858096Y-100770961D01*
X123980085Y-100993000D01*
X125123000Y-100993000D01*
X125123000Y-99849376D01*
X125377000Y-99849376D01*
X125377000Y-100993000D01*
X126519915Y-100993000D01*
X126527790Y-100978665D01*
X131435000Y-100978665D01*
X131435000Y-101261335D01*
X131490147Y-101538574D01*
X131598320Y-101799727D01*
X131755363Y-102034759D01*
X131955241Y-102234637D01*
X132190273Y-102391680D01*
X132451426Y-102499853D01*
X132728665Y-102555000D01*
X133011335Y-102555000D01*
X133288574Y-102499853D01*
X133549727Y-102391680D01*
X133784759Y-102234637D01*
X133984637Y-102034759D01*
X134141680Y-101799727D01*
X134249853Y-101538574D01*
X134305000Y-101261335D01*
X134305000Y-100978665D01*
X134249853Y-100701426D01*
X134141680Y-100440273D01*
X133984637Y-100205241D01*
X133784759Y-100005363D01*
X133549727Y-99848320D01*
X133288574Y-99740147D01*
X133011335Y-99685000D01*
X132728665Y-99685000D01*
X132451426Y-99740147D01*
X132190273Y-99848320D01*
X131955241Y-100005363D01*
X131755363Y-100205241D01*
X131598320Y-100440273D01*
X131490147Y-100701426D01*
X131435000Y-100978665D01*
X126527790Y-100978665D01*
X126641904Y-100770961D01*
X126601246Y-100636913D01*
X126481037Y-100382580D01*
X126313519Y-100156586D01*
X126105131Y-99967615D01*
X125863881Y-99822930D01*
X125599040Y-99728091D01*
X125377000Y-99849376D01*
X125123000Y-99849376D01*
X124900960Y-99728091D01*
X124636119Y-99822930D01*
X124394869Y-99967615D01*
X124186481Y-100156586D01*
X124018963Y-100382580D01*
X123898754Y-100636913D01*
X123858096Y-100770961D01*
X114288072Y-100770961D01*
X114288072Y-100020000D01*
X114275812Y-99895518D01*
X114239502Y-99775820D01*
X114180537Y-99665506D01*
X114101185Y-99568815D01*
X114004494Y-99489463D01*
X113894180Y-99430498D01*
X113774482Y-99394188D01*
X113650000Y-99381928D01*
X111450000Y-99381928D01*
X111325518Y-99394188D01*
X111205820Y-99430498D01*
X111095506Y-99489463D01*
X110998815Y-99568815D01*
X110919463Y-99665506D01*
X110860498Y-99775820D01*
X110824188Y-99895518D01*
X110811928Y-100020000D01*
X110811928Y-100110000D01*
X106412763Y-100110000D01*
X106383102Y-100012220D01*
X106324137Y-99901906D01*
X106244785Y-99805215D01*
X106148094Y-99725863D01*
X106037780Y-99666898D01*
X105973426Y-99647376D01*
X106036854Y-99590293D01*
X106212684Y-99354944D01*
X106339222Y-99089814D01*
X106384958Y-98939026D01*
X106263817Y-98707000D01*
X105057000Y-98707000D01*
X105057000Y-98727000D01*
X104803000Y-98727000D01*
X104803000Y-98707000D01*
X102517000Y-98707000D01*
X102517000Y-98727000D01*
X102263000Y-98727000D01*
X102263000Y-98707000D01*
X101056183Y-98707000D01*
X100935042Y-98939026D01*
X100980778Y-99089814D01*
X101107316Y-99354944D01*
X101283146Y-99590293D01*
X101501512Y-99786817D01*
X101600103Y-99845441D01*
X101434698Y-99955961D01*
X101225961Y-100164698D01*
X101061958Y-100410147D01*
X100948990Y-100682875D01*
X100891400Y-100972401D01*
X93685000Y-100972401D01*
X93685000Y-96399026D01*
X100935042Y-96399026D01*
X100980778Y-96549814D01*
X101107316Y-96814944D01*
X101283146Y-97050293D01*
X101501512Y-97246817D01*
X101607770Y-97310000D01*
X101501512Y-97373183D01*
X101283146Y-97569707D01*
X101107316Y-97805056D01*
X100980778Y-98070186D01*
X100935042Y-98220974D01*
X101056183Y-98453000D01*
X102263000Y-98453000D01*
X102263000Y-96167000D01*
X102517000Y-96167000D01*
X102517000Y-98453000D01*
X104803000Y-98453000D01*
X104803000Y-96167000D01*
X105057000Y-96167000D01*
X105057000Y-98453000D01*
X106263817Y-98453000D01*
X106384958Y-98220974D01*
X106339222Y-98070186D01*
X106212684Y-97805056D01*
X106036854Y-97569707D01*
X105818488Y-97373183D01*
X105712230Y-97310000D01*
X105818488Y-97246817D01*
X106036854Y-97050293D01*
X106049996Y-97032702D01*
X129556903Y-97032702D01*
X129628486Y-97276671D01*
X129883996Y-97397571D01*
X130158184Y-97466300D01*
X130440512Y-97480217D01*
X130720130Y-97438787D01*
X130986292Y-97343603D01*
X131111514Y-97276671D01*
X131183097Y-97032702D01*
X130370000Y-96219605D01*
X129556903Y-97032702D01*
X106049996Y-97032702D01*
X106212684Y-96814944D01*
X106339222Y-96549814D01*
X106384958Y-96399026D01*
X106263817Y-96167000D01*
X105057000Y-96167000D01*
X104803000Y-96167000D01*
X102517000Y-96167000D01*
X102263000Y-96167000D01*
X101056183Y-96167000D01*
X100935042Y-96399026D01*
X93685000Y-96399026D01*
X93685000Y-96110512D01*
X128929783Y-96110512D01*
X128971213Y-96390130D01*
X129066397Y-96656292D01*
X129133329Y-96781514D01*
X129377298Y-96853097D01*
X130190395Y-96040000D01*
X129377298Y-95226903D01*
X129133329Y-95298486D01*
X129012429Y-95553996D01*
X128943700Y-95828184D01*
X128929783Y-96110512D01*
X93685000Y-96110512D01*
X93685000Y-93859026D01*
X100935042Y-93859026D01*
X100980778Y-94009814D01*
X101107316Y-94274944D01*
X101283146Y-94510293D01*
X101501512Y-94706817D01*
X101607770Y-94770000D01*
X101501512Y-94833183D01*
X101283146Y-95029707D01*
X101107316Y-95265056D01*
X100980778Y-95530186D01*
X100935042Y-95680974D01*
X101056183Y-95913000D01*
X102263000Y-95913000D01*
X102263000Y-93627000D01*
X102517000Y-93627000D01*
X102517000Y-95913000D01*
X104803000Y-95913000D01*
X104803000Y-93627000D01*
X105057000Y-93627000D01*
X105057000Y-95913000D01*
X106263817Y-95913000D01*
X106384958Y-95680974D01*
X106339222Y-95530186D01*
X106212684Y-95265056D01*
X106036854Y-95029707D01*
X105818488Y-94833183D01*
X105712230Y-94770000D01*
X105818488Y-94706817D01*
X106036854Y-94510293D01*
X106212684Y-94274944D01*
X106339222Y-94009814D01*
X106384958Y-93859026D01*
X106263817Y-93627000D01*
X105057000Y-93627000D01*
X104803000Y-93627000D01*
X102517000Y-93627000D01*
X102263000Y-93627000D01*
X101056183Y-93627000D01*
X100935042Y-93859026D01*
X93685000Y-93859026D01*
X93685000Y-90812401D01*
X100891400Y-90812401D01*
X100891400Y-91107599D01*
X100948990Y-91397125D01*
X101061958Y-91669853D01*
X101225961Y-91915302D01*
X101434698Y-92124039D01*
X101600103Y-92234559D01*
X101501512Y-92293183D01*
X101283146Y-92489707D01*
X101107316Y-92725056D01*
X100980778Y-92990186D01*
X100935042Y-93140974D01*
X101056183Y-93373000D01*
X102263000Y-93373000D01*
X102263000Y-93353000D01*
X102517000Y-93353000D01*
X102517000Y-93373000D01*
X104803000Y-93373000D01*
X104803000Y-93353000D01*
X105057000Y-93353000D01*
X105057000Y-93373000D01*
X106263817Y-93373000D01*
X106384958Y-93140974D01*
X106339222Y-92990186D01*
X106212684Y-92725056D01*
X106036854Y-92489707D01*
X105818488Y-92293183D01*
X105719897Y-92234559D01*
X105885302Y-92124039D01*
X106039341Y-91970000D01*
X111138193Y-91970000D01*
X111202337Y-92065998D01*
X111444002Y-92307663D01*
X111728169Y-92497537D01*
X112043919Y-92628325D01*
X112379117Y-92695000D01*
X112720883Y-92695000D01*
X113056081Y-92628325D01*
X113371831Y-92497537D01*
X113655998Y-92307663D01*
X113897663Y-92065998D01*
X114087537Y-91781831D01*
X114218325Y-91466081D01*
X114285000Y-91130883D01*
X114285000Y-90789117D01*
X114218325Y-90453919D01*
X114087537Y-90138169D01*
X113897663Y-89854002D01*
X113655998Y-89612337D01*
X113371831Y-89422463D01*
X113056081Y-89291675D01*
X112720883Y-89225000D01*
X112379117Y-89225000D01*
X112043919Y-89291675D01*
X111728169Y-89422463D01*
X111444002Y-89612337D01*
X111202337Y-89854002D01*
X111138193Y-89950000D01*
X106039341Y-89950000D01*
X105885302Y-89795961D01*
X105639853Y-89631958D01*
X105367125Y-89518990D01*
X105077599Y-89461400D01*
X104782401Y-89461400D01*
X104492875Y-89518990D01*
X104220147Y-89631958D01*
X103974698Y-89795961D01*
X103820659Y-89950000D01*
X103499341Y-89950000D01*
X103345302Y-89795961D01*
X103099853Y-89631958D01*
X102827125Y-89518990D01*
X102537599Y-89461400D01*
X102242401Y-89461400D01*
X101952875Y-89518990D01*
X101680147Y-89631958D01*
X101434698Y-89795961D01*
X101225961Y-90004698D01*
X101061958Y-90250147D01*
X100948990Y-90522875D01*
X100891400Y-90812401D01*
X93685000Y-90812401D01*
X93685000Y-73046544D01*
X123895000Y-73046544D01*
X123895000Y-73313456D01*
X123947072Y-73575239D01*
X124049215Y-73821833D01*
X124197503Y-74043762D01*
X124386238Y-74232497D01*
X124608167Y-74380785D01*
X124775266Y-74450000D01*
X124608167Y-74519215D01*
X124386238Y-74667503D01*
X124197503Y-74856238D01*
X124049215Y-75078167D01*
X123947072Y-75324761D01*
X123895000Y-75586544D01*
X123895000Y-75853456D01*
X123947072Y-76115239D01*
X124049215Y-76361833D01*
X124197503Y-76583762D01*
X124386238Y-76772497D01*
X124608167Y-76920785D01*
X124775266Y-76990000D01*
X124608167Y-77059215D01*
X124386238Y-77207503D01*
X124197503Y-77396238D01*
X124049215Y-77618167D01*
X123947072Y-77864761D01*
X123895000Y-78126544D01*
X123895000Y-78393456D01*
X123947072Y-78655239D01*
X124049215Y-78901833D01*
X124197503Y-79123762D01*
X124386238Y-79312497D01*
X124608167Y-79460785D01*
X124854761Y-79562928D01*
X125116544Y-79615000D01*
X125383456Y-79615000D01*
X125645239Y-79562928D01*
X125891833Y-79460785D01*
X125999768Y-79388665D01*
X149215000Y-79388665D01*
X149215000Y-79671335D01*
X149270147Y-79948574D01*
X149378320Y-80209727D01*
X149535363Y-80444759D01*
X149735241Y-80644637D01*
X149970273Y-80801680D01*
X150231426Y-80909853D01*
X150508665Y-80965000D01*
X150791335Y-80965000D01*
X151068574Y-80909853D01*
X151329727Y-80801680D01*
X151564759Y-80644637D01*
X151764637Y-80444759D01*
X151921680Y-80209727D01*
X152029853Y-79948574D01*
X152085000Y-79671335D01*
X152085000Y-79388665D01*
X156835000Y-79388665D01*
X156835000Y-79671335D01*
X156890147Y-79948574D01*
X156998320Y-80209727D01*
X157155363Y-80444759D01*
X157355241Y-80644637D01*
X157590273Y-80801680D01*
X157851426Y-80909853D01*
X158128665Y-80965000D01*
X158411335Y-80965000D01*
X158688574Y-80909853D01*
X158949727Y-80801680D01*
X159184759Y-80644637D01*
X159384637Y-80444759D01*
X159541680Y-80209727D01*
X159649853Y-79948574D01*
X159705000Y-79671335D01*
X159705000Y-79388665D01*
X159649853Y-79111426D01*
X159541680Y-78850273D01*
X159384637Y-78615241D01*
X159184759Y-78415363D01*
X158949727Y-78258320D01*
X158688574Y-78150147D01*
X158411335Y-78095000D01*
X158128665Y-78095000D01*
X157851426Y-78150147D01*
X157590273Y-78258320D01*
X157355241Y-78415363D01*
X157155363Y-78615241D01*
X156998320Y-78850273D01*
X156890147Y-79111426D01*
X156835000Y-79388665D01*
X152085000Y-79388665D01*
X152029853Y-79111426D01*
X151921680Y-78850273D01*
X151764637Y-78615241D01*
X151564759Y-78415363D01*
X151329727Y-78258320D01*
X151068574Y-78150147D01*
X150791335Y-78095000D01*
X150508665Y-78095000D01*
X150231426Y-78150147D01*
X149970273Y-78258320D01*
X149735241Y-78415363D01*
X149535363Y-78615241D01*
X149378320Y-78850273D01*
X149270147Y-79111426D01*
X149215000Y-79388665D01*
X125999768Y-79388665D01*
X126113762Y-79312497D01*
X126302497Y-79123762D01*
X126450785Y-78901833D01*
X126552928Y-78655239D01*
X126605000Y-78393456D01*
X126605000Y-78126544D01*
X126552928Y-77864761D01*
X126450785Y-77618167D01*
X126302497Y-77396238D01*
X126113762Y-77207503D01*
X125891833Y-77059215D01*
X125724734Y-76990000D01*
X125891833Y-76920785D01*
X126113762Y-76772497D01*
X126302497Y-76583762D01*
X126450785Y-76361833D01*
X126552928Y-76115239D01*
X126605000Y-75853456D01*
X126605000Y-75586544D01*
X126552928Y-75324761D01*
X126450785Y-75078167D01*
X126302497Y-74856238D01*
X126113762Y-74667503D01*
X125891833Y-74519215D01*
X125724734Y-74450000D01*
X125891833Y-74380785D01*
X126113762Y-74232497D01*
X126302497Y-74043762D01*
X126450785Y-73821833D01*
X126552928Y-73575239D01*
X126605000Y-73313456D01*
X126605000Y-73046544D01*
X126552928Y-72784761D01*
X126450785Y-72538167D01*
X126302497Y-72316238D01*
X126113762Y-72127503D01*
X125891833Y-71979215D01*
X125645239Y-71877072D01*
X125383456Y-71825000D01*
X125116544Y-71825000D01*
X124854761Y-71877072D01*
X124608167Y-71979215D01*
X124386238Y-72127503D01*
X124197503Y-72316238D01*
X124049215Y-72538167D01*
X123947072Y-72784761D01*
X123895000Y-73046544D01*
X93685000Y-73046544D01*
X93685000Y-64814344D01*
X100115000Y-64814344D01*
X100115000Y-65185656D01*
X100187439Y-65549834D01*
X100329534Y-65892882D01*
X100535825Y-66201618D01*
X100798382Y-66464175D01*
X101107118Y-66670466D01*
X101450166Y-66812561D01*
X101814344Y-66885000D01*
X102185656Y-66885000D01*
X102549834Y-66812561D01*
X102892882Y-66670466D01*
X103201618Y-66464175D01*
X103464175Y-66201618D01*
X103670466Y-65892882D01*
X103812561Y-65549834D01*
X103885000Y-65185656D01*
X103885000Y-64814344D01*
X115115000Y-64814344D01*
X115115000Y-65185656D01*
X115187439Y-65549834D01*
X115329534Y-65892882D01*
X115535825Y-66201618D01*
X115798382Y-66464175D01*
X116107118Y-66670466D01*
X116450166Y-66812561D01*
X116814344Y-66885000D01*
X117185656Y-66885000D01*
X117549834Y-66812561D01*
X117892882Y-66670466D01*
X118201618Y-66464175D01*
X118464175Y-66201618D01*
X118670466Y-65892882D01*
X118812561Y-65549834D01*
X118845272Y-65385380D01*
X122473134Y-65385380D01*
X122528304Y-65676773D01*
X122639262Y-65951804D01*
X122801744Y-66199903D01*
X123009506Y-66411536D01*
X123254563Y-66578571D01*
X123527498Y-66694588D01*
X123619969Y-66712302D01*
X123853000Y-66591246D01*
X123853000Y-65148000D01*
X122629414Y-65148000D01*
X122473134Y-65385380D01*
X118845272Y-65385380D01*
X118885000Y-65185656D01*
X118885000Y-64814344D01*
X118853627Y-64656620D01*
X122473134Y-64656620D01*
X122629414Y-64894000D01*
X123853000Y-64894000D01*
X123853000Y-63450754D01*
X124107000Y-63450754D01*
X124107000Y-64894000D01*
X124127000Y-64894000D01*
X124127000Y-65148000D01*
X124107000Y-65148000D01*
X124107000Y-66591246D01*
X124340031Y-66712302D01*
X124432502Y-66694588D01*
X124705437Y-66578571D01*
X124950494Y-66411536D01*
X125103493Y-66255686D01*
X125161595Y-66364387D01*
X125272038Y-66498962D01*
X125406613Y-66609405D01*
X125560149Y-66691472D01*
X125726745Y-66742008D01*
X125899999Y-66759072D01*
X127140001Y-66759072D01*
X127313255Y-66742008D01*
X127479851Y-66691472D01*
X127633387Y-66609405D01*
X127767962Y-66498962D01*
X127878405Y-66364387D01*
X127960472Y-66210851D01*
X128011008Y-66044255D01*
X128028072Y-65871001D01*
X128028072Y-64814344D01*
X130115000Y-64814344D01*
X130115000Y-65185656D01*
X130187439Y-65549834D01*
X130329534Y-65892882D01*
X130535825Y-66201618D01*
X130798382Y-66464175D01*
X131107118Y-66670466D01*
X131450166Y-66812561D01*
X131814344Y-66885000D01*
X132185656Y-66885000D01*
X132549834Y-66812561D01*
X132892882Y-66670466D01*
X133201618Y-66464175D01*
X133464175Y-66201618D01*
X133670466Y-65892882D01*
X133812561Y-65549834D01*
X133845272Y-65385380D01*
X137459134Y-65385380D01*
X137514304Y-65676773D01*
X137625262Y-65951804D01*
X137787744Y-66199903D01*
X137995506Y-66411536D01*
X138240563Y-66578571D01*
X138513498Y-66694588D01*
X138605969Y-66712302D01*
X138839000Y-66591246D01*
X138839000Y-65148000D01*
X137615414Y-65148000D01*
X137459134Y-65385380D01*
X133845272Y-65385380D01*
X133885000Y-65185656D01*
X133885000Y-64814344D01*
X133853627Y-64656620D01*
X137459134Y-64656620D01*
X137615414Y-64894000D01*
X138839000Y-64894000D01*
X138839000Y-63450754D01*
X139093000Y-63450754D01*
X139093000Y-64894000D01*
X139113000Y-64894000D01*
X139113000Y-65148000D01*
X139093000Y-65148000D01*
X139093000Y-66591246D01*
X139326031Y-66712302D01*
X139418502Y-66694588D01*
X139691437Y-66578571D01*
X139936494Y-66411536D01*
X140089493Y-66255686D01*
X140147595Y-66364387D01*
X140258038Y-66498962D01*
X140392613Y-66609405D01*
X140546149Y-66691472D01*
X140712745Y-66742008D01*
X140885999Y-66759072D01*
X142126001Y-66759072D01*
X142299255Y-66742008D01*
X142465851Y-66691472D01*
X142619387Y-66609405D01*
X142753962Y-66498962D01*
X142864405Y-66364387D01*
X142946472Y-66210851D01*
X142997008Y-66044255D01*
X143014072Y-65871001D01*
X143014072Y-64814344D01*
X145115000Y-64814344D01*
X145115000Y-65185656D01*
X145187439Y-65549834D01*
X145329534Y-65892882D01*
X145535825Y-66201618D01*
X145798382Y-66464175D01*
X146107118Y-66670466D01*
X146450166Y-66812561D01*
X146814344Y-66885000D01*
X147185656Y-66885000D01*
X147549834Y-66812561D01*
X147892882Y-66670466D01*
X148201618Y-66464175D01*
X148464175Y-66201618D01*
X148670466Y-65892882D01*
X148812561Y-65549834D01*
X148845272Y-65385380D01*
X152953134Y-65385380D01*
X153008304Y-65676773D01*
X153119262Y-65951804D01*
X153281744Y-66199903D01*
X153489506Y-66411536D01*
X153734563Y-66578571D01*
X154007498Y-66694588D01*
X154099969Y-66712302D01*
X154333000Y-66591246D01*
X154333000Y-65148000D01*
X153109414Y-65148000D01*
X152953134Y-65385380D01*
X148845272Y-65385380D01*
X148885000Y-65185656D01*
X148885000Y-64814344D01*
X148853627Y-64656620D01*
X152953134Y-64656620D01*
X153109414Y-64894000D01*
X154333000Y-64894000D01*
X154333000Y-63450754D01*
X154587000Y-63450754D01*
X154587000Y-64894000D01*
X154607000Y-64894000D01*
X154607000Y-65148000D01*
X154587000Y-65148000D01*
X154587000Y-66591246D01*
X154820031Y-66712302D01*
X154912502Y-66694588D01*
X155185437Y-66578571D01*
X155430494Y-66411536D01*
X155583493Y-66255686D01*
X155641595Y-66364387D01*
X155752038Y-66498962D01*
X155886613Y-66609405D01*
X156040149Y-66691472D01*
X156206745Y-66742008D01*
X156379999Y-66759072D01*
X157620001Y-66759072D01*
X157793255Y-66742008D01*
X157959851Y-66691472D01*
X158113387Y-66609405D01*
X158247962Y-66498962D01*
X158358405Y-66364387D01*
X158440472Y-66210851D01*
X158491008Y-66044255D01*
X158508072Y-65871001D01*
X158508072Y-64814344D01*
X160115000Y-64814344D01*
X160115000Y-65185656D01*
X160187439Y-65549834D01*
X160329534Y-65892882D01*
X160535825Y-66201618D01*
X160798382Y-66464175D01*
X161107118Y-66670466D01*
X161450166Y-66812561D01*
X161814344Y-66885000D01*
X162185656Y-66885000D01*
X162549834Y-66812561D01*
X162892882Y-66670466D01*
X163201618Y-66464175D01*
X163464175Y-66201618D01*
X163670466Y-65892882D01*
X163812561Y-65549834D01*
X163885000Y-65185656D01*
X163885000Y-64814344D01*
X163812561Y-64450166D01*
X163670466Y-64107118D01*
X163464175Y-63798382D01*
X163201618Y-63535825D01*
X162892882Y-63329534D01*
X162549834Y-63187439D01*
X162185656Y-63115000D01*
X161814344Y-63115000D01*
X161450166Y-63187439D01*
X161107118Y-63329534D01*
X160798382Y-63535825D01*
X160535825Y-63798382D01*
X160329534Y-64107118D01*
X160187439Y-64450166D01*
X160115000Y-64814344D01*
X158508072Y-64814344D01*
X158508072Y-64170999D01*
X158491008Y-63997745D01*
X158440472Y-63831149D01*
X158358405Y-63677613D01*
X158247962Y-63543038D01*
X158113387Y-63432595D01*
X157959851Y-63350528D01*
X157793255Y-63299992D01*
X157620001Y-63282928D01*
X156379999Y-63282928D01*
X156206745Y-63299992D01*
X156040149Y-63350528D01*
X155886613Y-63432595D01*
X155752038Y-63543038D01*
X155641595Y-63677613D01*
X155583493Y-63786314D01*
X155430494Y-63630464D01*
X155185437Y-63463429D01*
X154912502Y-63347412D01*
X154820031Y-63329698D01*
X154587000Y-63450754D01*
X154333000Y-63450754D01*
X154099969Y-63329698D01*
X154007498Y-63347412D01*
X153734563Y-63463429D01*
X153489506Y-63630464D01*
X153281744Y-63842097D01*
X153119262Y-64090196D01*
X153008304Y-64365227D01*
X152953134Y-64656620D01*
X148853627Y-64656620D01*
X148812561Y-64450166D01*
X148670466Y-64107118D01*
X148464175Y-63798382D01*
X148201618Y-63535825D01*
X147892882Y-63329534D01*
X147549834Y-63187439D01*
X147185656Y-63115000D01*
X146814344Y-63115000D01*
X146450166Y-63187439D01*
X146107118Y-63329534D01*
X145798382Y-63535825D01*
X145535825Y-63798382D01*
X145329534Y-64107118D01*
X145187439Y-64450166D01*
X145115000Y-64814344D01*
X143014072Y-64814344D01*
X143014072Y-64170999D01*
X142997008Y-63997745D01*
X142946472Y-63831149D01*
X142864405Y-63677613D01*
X142753962Y-63543038D01*
X142619387Y-63432595D01*
X142465851Y-63350528D01*
X142299255Y-63299992D01*
X142126001Y-63282928D01*
X140885999Y-63282928D01*
X140712745Y-63299992D01*
X140546149Y-63350528D01*
X140392613Y-63432595D01*
X140258038Y-63543038D01*
X140147595Y-63677613D01*
X140089493Y-63786314D01*
X139936494Y-63630464D01*
X139691437Y-63463429D01*
X139418502Y-63347412D01*
X139326031Y-63329698D01*
X139093000Y-63450754D01*
X138839000Y-63450754D01*
X138605969Y-63329698D01*
X138513498Y-63347412D01*
X138240563Y-63463429D01*
X137995506Y-63630464D01*
X137787744Y-63842097D01*
X137625262Y-64090196D01*
X137514304Y-64365227D01*
X137459134Y-64656620D01*
X133853627Y-64656620D01*
X133812561Y-64450166D01*
X133670466Y-64107118D01*
X133464175Y-63798382D01*
X133201618Y-63535825D01*
X132892882Y-63329534D01*
X132549834Y-63187439D01*
X132185656Y-63115000D01*
X131814344Y-63115000D01*
X131450166Y-63187439D01*
X131107118Y-63329534D01*
X130798382Y-63535825D01*
X130535825Y-63798382D01*
X130329534Y-64107118D01*
X130187439Y-64450166D01*
X130115000Y-64814344D01*
X128028072Y-64814344D01*
X128028072Y-64170999D01*
X128011008Y-63997745D01*
X127960472Y-63831149D01*
X127878405Y-63677613D01*
X127767962Y-63543038D01*
X127633387Y-63432595D01*
X127479851Y-63350528D01*
X127313255Y-63299992D01*
X127140001Y-63282928D01*
X125899999Y-63282928D01*
X125726745Y-63299992D01*
X125560149Y-63350528D01*
X125406613Y-63432595D01*
X125272038Y-63543038D01*
X125161595Y-63677613D01*
X125103493Y-63786314D01*
X124950494Y-63630464D01*
X124705437Y-63463429D01*
X124432502Y-63347412D01*
X124340031Y-63329698D01*
X124107000Y-63450754D01*
X123853000Y-63450754D01*
X123619969Y-63329698D01*
X123527498Y-63347412D01*
X123254563Y-63463429D01*
X123009506Y-63630464D01*
X122801744Y-63842097D01*
X122639262Y-64090196D01*
X122528304Y-64365227D01*
X122473134Y-64656620D01*
X118853627Y-64656620D01*
X118812561Y-64450166D01*
X118670466Y-64107118D01*
X118464175Y-63798382D01*
X118201618Y-63535825D01*
X117892882Y-63329534D01*
X117549834Y-63187439D01*
X117185656Y-63115000D01*
X116814344Y-63115000D01*
X116450166Y-63187439D01*
X116107118Y-63329534D01*
X115798382Y-63535825D01*
X115535825Y-63798382D01*
X115329534Y-64107118D01*
X115187439Y-64450166D01*
X115115000Y-64814344D01*
X103885000Y-64814344D01*
X103812561Y-64450166D01*
X103670466Y-64107118D01*
X103464175Y-63798382D01*
X103201618Y-63535825D01*
X102892882Y-63329534D01*
X102549834Y-63187439D01*
X102185656Y-63115000D01*
X101814344Y-63115000D01*
X101450166Y-63187439D01*
X101107118Y-63329534D01*
X100798382Y-63535825D01*
X100535825Y-63798382D01*
X100329534Y-64107118D01*
X100187439Y-64450166D01*
X100115000Y-64814344D01*
X93685000Y-64814344D01*
X93685000Y-60765000D01*
X166315000Y-60765000D01*
X166315001Y-157315000D01*
G37*
%TD.AperFunction*%
%TD*%
M02*
