G04 #@! TF.GenerationSoftware,KiCad,Pcbnew,5.1.9-73d0e3b20d~88~ubuntu20.04.1*
G04 #@! TF.CreationDate,2021-03-31T23:41:29-04:00*
G04 #@! TF.ProjectId,ao_dc_mixer-panel,616f5f64-635f-46d6-9978-65722d70616e,rev?*
G04 #@! TF.SameCoordinates,Original*
G04 #@! TF.FileFunction,Profile,NP*
%FSLAX46Y46*%
G04 Gerber Fmt 4.6, Leading zero omitted, Abs format (unit mm)*
G04 Created by KiCad (PCBNEW 5.1.9-73d0e3b20d~88~ubuntu20.04.1) date 2021-03-31 23:41:29*
%MOMM*%
%LPD*%
G01*
G04 APERTURE LIST*
G04 #@! TA.AperFunction,Profile*
%ADD10C,0.100000*%
G04 #@! TD*
G04 APERTURE END LIST*
D10*
X68300000Y-37000000D02*
X68300000Y-103000000D01*
X66700000Y-103000000D02*
X66700000Y-37000000D01*
X68300000Y-103000000D02*
X66700000Y-103000000D01*
X66700000Y-37000000D02*
X68300000Y-37000000D01*
X53300000Y-103000000D02*
X51700000Y-103000000D01*
X51700000Y-103000000D02*
X51700000Y-37000000D01*
X51700000Y-37000000D02*
X53300000Y-37000000D01*
X53300000Y-37000000D02*
X53300000Y-103000000D01*
X36700000Y-103000000D02*
X36700000Y-37000000D01*
X38300000Y-37000000D02*
X38300000Y-103000000D01*
X36700000Y-37000000D02*
X38300000Y-37000000D01*
X38300000Y-103000000D02*
X36700000Y-103000000D01*
X21700000Y-37000000D02*
X23300000Y-37000000D01*
X23300000Y-37000000D02*
X23300000Y-103000000D01*
X21700000Y-103000000D02*
X21700000Y-37000000D01*
X23300000Y-103000000D02*
X21700000Y-103000000D01*
X6700000Y-103000000D02*
X6700000Y-37000000D01*
X8300000Y-103000000D02*
X6700000Y-103000000D01*
X8300000Y-37000000D02*
X8300000Y-103000000D01*
X6700000Y-37000000D02*
X8300000Y-37000000D01*
X75000000Y0D02*
X0Y0D01*
X75000000Y-200000000D02*
X75000000Y0D01*
X0Y-200000000D02*
X75000000Y-200000000D01*
X0Y0D02*
X0Y-200000000D01*
M02*
