G04 #@! TF.GenerationSoftware,KiCad,Pcbnew,5.1.9-73d0e3b20d~88~ubuntu20.04.1*
G04 #@! TF.CreationDate,2021-03-31T23:41:29-04:00*
G04 #@! TF.ProjectId,ao_dc_mixer-panel,616f5f64-635f-46d6-9978-65722d70616e,rev?*
G04 #@! TF.SameCoordinates,Original*
G04 #@! TF.FileFunction,Legend,Bot*
G04 #@! TF.FilePolarity,Positive*
%FSLAX46Y46*%
G04 Gerber Fmt 4.6, Leading zero omitted, Abs format (unit mm)*
G04 Created by KiCad (PCBNEW 5.1.9-73d0e3b20d~88~ubuntu20.04.1) date 2021-03-31 23:41:29*
%MOMM*%
%LPD*%
G01*
G04 APERTURE LIST*
%ADD10C,0.150000*%
G04 APERTURE END LIST*
D10*
X48500000Y-191627380D02*
X48500000Y-190627380D01*
X48119047Y-190627380D01*
X48023809Y-190675000D01*
X47976190Y-190722619D01*
X47928571Y-190817857D01*
X47928571Y-190960714D01*
X47976190Y-191055952D01*
X48023809Y-191103571D01*
X48119047Y-191151190D01*
X48500000Y-191151190D01*
X47071428Y-191627380D02*
X47071428Y-191103571D01*
X47119047Y-191008333D01*
X47214285Y-190960714D01*
X47404761Y-190960714D01*
X47500000Y-191008333D01*
X47071428Y-191579761D02*
X47166666Y-191627380D01*
X47404761Y-191627380D01*
X47500000Y-191579761D01*
X47547619Y-191484523D01*
X47547619Y-191389285D01*
X47500000Y-191294047D01*
X47404761Y-191246428D01*
X47166666Y-191246428D01*
X47071428Y-191198809D01*
X46595238Y-190960714D02*
X46595238Y-191627380D01*
X46595238Y-191055952D02*
X46547619Y-191008333D01*
X46452380Y-190960714D01*
X46309523Y-190960714D01*
X46214285Y-191008333D01*
X46166666Y-191103571D01*
X46166666Y-191627380D01*
X45309523Y-191579761D02*
X45404761Y-191627380D01*
X45595238Y-191627380D01*
X45690476Y-191579761D01*
X45738095Y-191484523D01*
X45738095Y-191103571D01*
X45690476Y-191008333D01*
X45595238Y-190960714D01*
X45404761Y-190960714D01*
X45309523Y-191008333D01*
X45261904Y-191103571D01*
X45261904Y-191198809D01*
X45738095Y-191294047D01*
X44690476Y-191627380D02*
X44785714Y-191579761D01*
X44833333Y-191484523D01*
X44833333Y-190627380D01*
X43119047Y-191627380D02*
X43119047Y-190627380D01*
X43119047Y-191579761D02*
X43214285Y-191627380D01*
X43404761Y-191627380D01*
X43500000Y-191579761D01*
X43547619Y-191532142D01*
X43595238Y-191436904D01*
X43595238Y-191151190D01*
X43547619Y-191055952D01*
X43500000Y-191008333D01*
X43404761Y-190960714D01*
X43214285Y-190960714D01*
X43119047Y-191008333D01*
X42261904Y-191579761D02*
X42357142Y-191627380D01*
X42547619Y-191627380D01*
X42642857Y-191579761D01*
X42690476Y-191484523D01*
X42690476Y-191103571D01*
X42642857Y-191008333D01*
X42547619Y-190960714D01*
X42357142Y-190960714D01*
X42261904Y-191008333D01*
X42214285Y-191103571D01*
X42214285Y-191198809D01*
X42690476Y-191294047D01*
X41833333Y-191579761D02*
X41738095Y-191627380D01*
X41547619Y-191627380D01*
X41452380Y-191579761D01*
X41404761Y-191484523D01*
X41404761Y-191436904D01*
X41452380Y-191341666D01*
X41547619Y-191294047D01*
X41690476Y-191294047D01*
X41785714Y-191246428D01*
X41833333Y-191151190D01*
X41833333Y-191103571D01*
X41785714Y-191008333D01*
X41690476Y-190960714D01*
X41547619Y-190960714D01*
X41452380Y-191008333D01*
X40976190Y-191627380D02*
X40976190Y-190960714D01*
X40976190Y-190627380D02*
X41023809Y-190675000D01*
X40976190Y-190722619D01*
X40928571Y-190675000D01*
X40976190Y-190627380D01*
X40976190Y-190722619D01*
X40071428Y-190960714D02*
X40071428Y-191770238D01*
X40119047Y-191865476D01*
X40166666Y-191913095D01*
X40261904Y-191960714D01*
X40404761Y-191960714D01*
X40500000Y-191913095D01*
X40071428Y-191579761D02*
X40166666Y-191627380D01*
X40357142Y-191627380D01*
X40452380Y-191579761D01*
X40500000Y-191532142D01*
X40547619Y-191436904D01*
X40547619Y-191151190D01*
X40500000Y-191055952D01*
X40452380Y-191008333D01*
X40357142Y-190960714D01*
X40166666Y-190960714D01*
X40071428Y-191008333D01*
X39595238Y-190960714D02*
X39595238Y-191627380D01*
X39595238Y-191055952D02*
X39547619Y-191008333D01*
X39452380Y-190960714D01*
X39309523Y-190960714D01*
X39214285Y-191008333D01*
X39166666Y-191103571D01*
X39166666Y-191627380D01*
X37928571Y-191627380D02*
X37928571Y-190627380D01*
X37928571Y-191008333D02*
X37833333Y-190960714D01*
X37642857Y-190960714D01*
X37547619Y-191008333D01*
X37500000Y-191055952D01*
X37452380Y-191151190D01*
X37452380Y-191436904D01*
X37500000Y-191532142D01*
X37547619Y-191579761D01*
X37642857Y-191627380D01*
X37833333Y-191627380D01*
X37928571Y-191579761D01*
X37119047Y-190960714D02*
X36880952Y-191627380D01*
X36642857Y-190960714D02*
X36880952Y-191627380D01*
X36976190Y-191865476D01*
X37023809Y-191913095D01*
X37119047Y-191960714D01*
X34928571Y-191627380D02*
X35261904Y-191151190D01*
X35500000Y-191627380D02*
X35500000Y-190627380D01*
X35119047Y-190627380D01*
X35023809Y-190675000D01*
X34976190Y-190722619D01*
X34928571Y-190817857D01*
X34928571Y-190960714D01*
X34976190Y-191055952D01*
X35023809Y-191103571D01*
X35119047Y-191151190D01*
X35500000Y-191151190D01*
X34500000Y-191627380D02*
X34500000Y-190960714D01*
X34500000Y-190627380D02*
X34547619Y-190675000D01*
X34500000Y-190722619D01*
X34452380Y-190675000D01*
X34500000Y-190627380D01*
X34500000Y-190722619D01*
X33595238Y-191579761D02*
X33690476Y-191627380D01*
X33880952Y-191627380D01*
X33976190Y-191579761D01*
X34023809Y-191532142D01*
X34071428Y-191436904D01*
X34071428Y-191151190D01*
X34023809Y-191055952D01*
X33976190Y-191008333D01*
X33880952Y-190960714D01*
X33690476Y-190960714D01*
X33595238Y-191008333D01*
X33166666Y-191627380D02*
X33166666Y-190627380D01*
X32738095Y-191627380D02*
X32738095Y-191103571D01*
X32785714Y-191008333D01*
X32880952Y-190960714D01*
X33023809Y-190960714D01*
X33119047Y-191008333D01*
X33166666Y-191055952D01*
X31500000Y-191627380D02*
X31500000Y-190627380D01*
X31500000Y-191103571D02*
X30928571Y-191103571D01*
X30928571Y-191627380D02*
X30928571Y-190627380D01*
X30309523Y-191627380D02*
X30404761Y-191579761D01*
X30452380Y-191532142D01*
X30500000Y-191436904D01*
X30500000Y-191151190D01*
X30452380Y-191055952D01*
X30404761Y-191008333D01*
X30309523Y-190960714D01*
X30166666Y-190960714D01*
X30071428Y-191008333D01*
X30023809Y-191055952D01*
X29976190Y-191151190D01*
X29976190Y-191436904D01*
X30023809Y-191532142D01*
X30071428Y-191579761D01*
X30166666Y-191627380D01*
X30309523Y-191627380D01*
X29404761Y-191627380D02*
X29500000Y-191579761D01*
X29547619Y-191484523D01*
X29547619Y-190627380D01*
X29023809Y-191627380D02*
X29023809Y-190960714D01*
X29023809Y-191055952D02*
X28976190Y-191008333D01*
X28880952Y-190960714D01*
X28738095Y-190960714D01*
X28642857Y-191008333D01*
X28595238Y-191103571D01*
X28595238Y-191627380D01*
X28595238Y-191103571D02*
X28547619Y-191008333D01*
X28452380Y-190960714D01*
X28309523Y-190960714D01*
X28214285Y-191008333D01*
X28166666Y-191103571D01*
X28166666Y-191627380D01*
X27309523Y-191579761D02*
X27404761Y-191627380D01*
X27595238Y-191627380D01*
X27690476Y-191579761D01*
X27738095Y-191484523D01*
X27738095Y-191103571D01*
X27690476Y-191008333D01*
X27595238Y-190960714D01*
X27404761Y-190960714D01*
X27309523Y-191008333D01*
X27261904Y-191103571D01*
X27261904Y-191198809D01*
X27738095Y-191294047D01*
X26880952Y-191579761D02*
X26785714Y-191627380D01*
X26595238Y-191627380D01*
X26500000Y-191579761D01*
X26452380Y-191484523D01*
X26452380Y-191436904D01*
X26500000Y-191341666D01*
X26595238Y-191294047D01*
X26738095Y-191294047D01*
X26833333Y-191246428D01*
X26880952Y-191151190D01*
X26880952Y-191103571D01*
X26833333Y-191008333D01*
X26738095Y-190960714D01*
X26595238Y-190960714D01*
X26500000Y-191008333D01*
X40880952Y-193277380D02*
X40880952Y-192277380D01*
X40547619Y-192991666D01*
X40214285Y-192277380D01*
X40214285Y-193277380D01*
X39309523Y-193277380D02*
X39309523Y-192753571D01*
X39357142Y-192658333D01*
X39452380Y-192610714D01*
X39642857Y-192610714D01*
X39738095Y-192658333D01*
X39309523Y-193229761D02*
X39404761Y-193277380D01*
X39642857Y-193277380D01*
X39738095Y-193229761D01*
X39785714Y-193134523D01*
X39785714Y-193039285D01*
X39738095Y-192944047D01*
X39642857Y-192896428D01*
X39404761Y-192896428D01*
X39309523Y-192848809D01*
X38833333Y-193277380D02*
X38833333Y-192610714D01*
X38833333Y-192801190D02*
X38785714Y-192705952D01*
X38738095Y-192658333D01*
X38642857Y-192610714D01*
X38547619Y-192610714D01*
X37500000Y-192372619D02*
X37452380Y-192325000D01*
X37357142Y-192277380D01*
X37119047Y-192277380D01*
X37023809Y-192325000D01*
X36976190Y-192372619D01*
X36928571Y-192467857D01*
X36928571Y-192563095D01*
X36976190Y-192705952D01*
X37547619Y-193277380D01*
X36928571Y-193277380D01*
X36309523Y-192277380D02*
X36214285Y-192277380D01*
X36119047Y-192325000D01*
X36071428Y-192372619D01*
X36023809Y-192467857D01*
X35976190Y-192658333D01*
X35976190Y-192896428D01*
X36023809Y-193086904D01*
X36071428Y-193182142D01*
X36119047Y-193229761D01*
X36214285Y-193277380D01*
X36309523Y-193277380D01*
X36404761Y-193229761D01*
X36452380Y-193182142D01*
X36500000Y-193086904D01*
X36547619Y-192896428D01*
X36547619Y-192658333D01*
X36500000Y-192467857D01*
X36452380Y-192372619D01*
X36404761Y-192325000D01*
X36309523Y-192277380D01*
X35595238Y-192372619D02*
X35547619Y-192325000D01*
X35452380Y-192277380D01*
X35214285Y-192277380D01*
X35119047Y-192325000D01*
X35071428Y-192372619D01*
X35023809Y-192467857D01*
X35023809Y-192563095D01*
X35071428Y-192705952D01*
X35642857Y-193277380D01*
X35023809Y-193277380D01*
X34071428Y-193277380D02*
X34642857Y-193277380D01*
X34357142Y-193277380D02*
X34357142Y-192277380D01*
X34452380Y-192420238D01*
X34547619Y-192515476D01*
X34642857Y-192563095D01*
X42119047Y-194452380D02*
X42119047Y-195166666D01*
X42166666Y-195309523D01*
X42261904Y-195404761D01*
X42404761Y-195452380D01*
X42500000Y-195452380D01*
X41166666Y-195452380D02*
X41642857Y-195452380D01*
X41642857Y-194452380D01*
X40261904Y-195357142D02*
X40309523Y-195404761D01*
X40452380Y-195452380D01*
X40547619Y-195452380D01*
X40690476Y-195404761D01*
X40785714Y-195309523D01*
X40833333Y-195214285D01*
X40880952Y-195023809D01*
X40880952Y-194880952D01*
X40833333Y-194690476D01*
X40785714Y-194595238D01*
X40690476Y-194500000D01*
X40547619Y-194452380D01*
X40452380Y-194452380D01*
X40309523Y-194500000D01*
X40261904Y-194547619D01*
X39547619Y-194452380D02*
X39547619Y-195166666D01*
X39595238Y-195309523D01*
X39690476Y-195404761D01*
X39833333Y-195452380D01*
X39928571Y-195452380D01*
X38595238Y-195452380D02*
X39071428Y-195452380D01*
X39071428Y-194452380D01*
X37690476Y-195357142D02*
X37738095Y-195404761D01*
X37880952Y-195452380D01*
X37976190Y-195452380D01*
X38119047Y-195404761D01*
X38214285Y-195309523D01*
X38261904Y-195214285D01*
X38309523Y-195023809D01*
X38309523Y-194880952D01*
X38261904Y-194690476D01*
X38214285Y-194595238D01*
X38119047Y-194500000D01*
X37976190Y-194452380D01*
X37880952Y-194452380D01*
X37738095Y-194500000D01*
X37690476Y-194547619D01*
X36976190Y-194452380D02*
X36976190Y-195166666D01*
X37023809Y-195309523D01*
X37119047Y-195404761D01*
X37261904Y-195452380D01*
X37357142Y-195452380D01*
X36023809Y-195452380D02*
X36500000Y-195452380D01*
X36500000Y-194452380D01*
X35119047Y-195357142D02*
X35166666Y-195404761D01*
X35309523Y-195452380D01*
X35404761Y-195452380D01*
X35547619Y-195404761D01*
X35642857Y-195309523D01*
X35690476Y-195214285D01*
X35738095Y-195023809D01*
X35738095Y-194880952D01*
X35690476Y-194690476D01*
X35642857Y-194595238D01*
X35547619Y-194500000D01*
X35404761Y-194452380D01*
X35309523Y-194452380D01*
X35166666Y-194500000D01*
X35119047Y-194547619D01*
X34404761Y-194452380D02*
X34404761Y-195166666D01*
X34452380Y-195309523D01*
X34547619Y-195404761D01*
X34690476Y-195452380D01*
X34785714Y-195452380D01*
X33452380Y-195452380D02*
X33928571Y-195452380D01*
X33928571Y-194452380D01*
X32547619Y-195357142D02*
X32595238Y-195404761D01*
X32738095Y-195452380D01*
X32833333Y-195452380D01*
X32976190Y-195404761D01*
X33071428Y-195309523D01*
X33119047Y-195214285D01*
X33166666Y-195023809D01*
X33166666Y-194880952D01*
X33119047Y-194690476D01*
X33071428Y-194595238D01*
X32976190Y-194500000D01*
X32833333Y-194452380D01*
X32738095Y-194452380D01*
X32595238Y-194500000D01*
X32547619Y-194547619D01*
M02*
